<svg id="Capa_1" enable-background="new 0 0 512 512" height="512" viewBox="0 0 512 512" width="512" xmlns="http://www.w3.org/2000/svg" xmlns:xlink="http://www.w3.org/1999/xlink"><pattern id="Unnamed_Pattern_2" height="125.698" overflow="visible" patternUnits="userSpaceOnUse" viewBox="0 -125.698 125.865 125.698" width="125.865" x="-1114" y="2514"><path d="m0-125.698h125.865v125.698h-125.865z" fill="none"/><path id="XMLID_57_" d="m0-125.698h125.865v125.698h-125.865z" fill="#ff5ba8" transform="matrix(-1 0 0 -1 125.865 -125.698)"/></pattern><linearGradient id="SVGID_1_" gradientUnits="userSpaceOnUse" x1="420.854" x2="181.854" y1="81.636" y2="452.636"><stop offset=".0112" stop-color="#dcfdee"/><stop offset=".3814" stop-color="#e8f1ee"/><stop offset="1" stop-color="#ffdbed"/></linearGradient><path d="m364.823 55.215c-69.098-27.035-164.784-16.764-217.662 31.51-37.336 34.085-8.439 43.8 17.016 106.17 18.423 45.14-164.177 38.927-164.177 120.495 0 94.299 132.251 76.424 181.329 87.218 75.036 16.504 140.496 78.242 220.668 70.103 69.795-7.086 96.403-61.855 106.109-124.642 18.082-116.976-26.329-245.094-143.283-290.854z" fill="url(#SVGID_1_)"/><path d="m422.336 402.034h-20.71v-105.007c22.052-22.993 35.623-54.179 35.623-88.477 0-70.533-57.382-127.915-127.915-127.915-63.55 0-116.416 46.587-126.262 107.401h-70.136c-11.51 0-20.84 9.33-20.84 20.85v193.149h-20.708c-6.89 0-12.476 5.585-12.476 12.476v11.465c0 12.09 9.797 21.898 21.898 21.898h332.104c12.101 0 21.898-9.807 21.898-21.898v-11.466c0-6.891-5.586-12.476-12.476-12.476zm-113.002-256.612c27.628 0 51.151 17.848 59.688 42.614h-119.375c8.536-24.766 32.059-42.614 59.687-42.614z" fill="#2626bc" opacity=".11"/><path d="m422.9 190.884v208.93c0 2.76-2.24 5-5 5h-304.53v-213.93c0-11.52 9.33-20.85 20.84-20.85h267.85c11.51 0 20.84 9.33 20.84 20.85z" fill="#97ffd2"/><path d="m248 267.5v-97.466h-57.36c-1.56 8.35-2.38 16.96-2.38 25.76 0 77.15 62.76 139.91 139.91 139.91 36.5 0 69.79-14.05 94.73-37.03v-31.174z" fill="#02ffb3"/><path d="m361.5 283.804v31.49c0 3.29-2.67 5.96-5.97 5.96h-201.81c-3.3 0-5.97-2.67-5.97-5.96v-31.49c0-3.3 2.67-5.97 5.97-5.97h201.81c3.3 0 5.97 2.67 5.97 5.97z" fill="#ffdbed"/><path d="m355.53 277.834h-140.64c13.31 18.31 30.94 33.29 51.38 43.42h89.26c3.3 0 5.97-2.67 5.97-5.96v-31.49c0-3.3-2.67-5.97-5.97-5.97z" fill="#ffc4df"/><g fill="#ff7eb8"><path d="m162.867 282.835h-16.707c-2.762 0-5-2.239-5-5s2.238-5 5-5h16.707c2.762 0 5 2.239 5 5s-2.239 5-5 5z"/><path d="m197.969 314.061h-51.81c-2.762 0-5-2.239-5-5s2.238-5 5-5h51.81c2.762 0 5 2.239 5 5s-2.238 5-5 5z"/><path d="m222.679 330.945h-76.52c-2.762 0-5-2.239-5-5s2.238-5 5-5h76.52c2.762 0 5 2.239 5 5s-2.238 5-5 5z"/></g><path d="m422.9 359.185v40.63c0 2.76-2.24 5-5 5h-304.53v-45.63z" fill="#6583fe"/><path d="m456.086 396.51v11.465c0 12.09-9.797 21.898-21.898 21.898h-332.103c-12.101 0-21.898-9.808-21.898-21.898v-11.465c0-6.89 5.586-12.476 12.476-12.476h107.067c1.849 0 3.548 1.021 4.416 2.654l6.56 12.348c.868 1.633 2.566 2.654 4.416 2.654h106.031c1.849 0 3.548-1.021 4.416-2.654l6.56-12.348c.868-1.633 2.566-2.654 4.415-2.654h107.067c6.89 0 12.475 5.585 12.475 12.476z" fill="#b7c5ff"/><path d="m456.088 396.505v11.47c0 12.09-9.8 21.9-21.9 21.9h-14.72c12.1 0 21.9-9.81 21.9-21.9v-11.47c0-6.89-5.59-12.47-12.48-12.47h14.72c6.89 0 12.48 5.58 12.48 12.47z" fill="#d2deff"/><path d="m161.787 402.152h-43.333c-2.761 0-5-2.239-5-5v-13.118h53.333v13.118c0 2.761-2.239 5-5 5z" fill="#ff7eb8"/><path d="m417.695 402.152h-43.333c-2.761 0-5-2.239-5-5v-13.118h53.333v13.118c0 2.761-2.238 5-5 5z" fill="#ff7eb8"/><path d="m328.172 323.708c-70.532 0-127.914-57.382-127.914-127.915s57.382-127.915 127.914-127.915c70.533 0 127.915 57.382 127.915 127.915s-57.382 127.915-127.915 127.915zm0-191.043c-34.809 0-63.127 28.319-63.127 63.127s28.318 63.127 63.127 63.127 63.128-28.319 63.128-63.127-28.319-63.127-63.128-63.127z" fill="#8399fe"/><path d="m328.172 67.878v64.787c34.809 0 63.128 28.319 63.128 63.127h64.787c0-70.532-57.382-127.914-127.915-127.914z" fill="url(#Unnamed_Pattern_2)"/><path d="m456.088 195.791h-64.79c0-8.99-1.89-17.56-5.31-25.31l56.46-32.11c8.73 17.27 13.64 36.79 13.64 57.42z" fill="#ffc4df"/><circle cx="311.262" cy="195.791" fill="url(#Unnamed_Pattern_2)" r="5.59"/><circle cx="328.172" cy="195.791" fill="url(#Unnamed_Pattern_2)" r="5.59"/><circle cx="345.082" cy="195.791" fill="url(#Unnamed_Pattern_2)" r="5.59"/><path d="m443.61 379.034h-15.705v-95.483c20.64-23.428 33.182-54.154 33.182-87.758 0-73.29-59.625-132.915-132.915-132.915-62.705 0-115.401 43.65-129.315 102.159h-64.644c-14.251 0-25.845 11.594-25.845 25.845v188.151h-15.705c-9.637 0-17.477 7.84-17.477 17.476v11.464c0 14.832 12.066 26.898 26.898 26.898h67.365c2.762 0 5-2.239 5-5s-2.238-5-5-5h-67.365c-9.317 0-16.898-7.581-16.898-16.898v-11.463c0-4.123 3.354-7.476 7.477-7.476h15.791v8.118c0 5.514 4.486 10 10 10h43.333c5.514 0 10-4.486 10-10v-8.118h27.942l6.561 12.349c1.74 3.273 5.124 5.307 8.831 5.307h106.031c3.707 0 7.091-2.033 8.832-5.308l6.559-12.348h27.819v8.118c0 5.514 4.486 10 10 10h43.333c5.514 0 10-4.486 10-10v-8.118h15.915c4.122 0 7.476 3.354 7.476 7.476v11.465c0 9.317-7.58 16.898-16.897 16.898h-236.639c-2.762 0-5 2.239-5 5s2.238 5 5 5h236.639c14.831 0 26.897-12.066 26.897-26.898v-11.465c0-9.637-7.84-17.476-17.476-17.476zm-47.513-188.242c-.461-6.316-1.771-12.398-3.844-18.123l48.008-27.303c6.304 13.958 10.067 29.298 10.716 45.426zm-67.925-53.127c20.763 0 39.008 10.951 49.292 27.372h-78.989c-2.762 0-5 2.239-5 5s2.238 5 5 5h83.98c2.475 6.451 3.845 13.444 3.845 20.755 0 32.052-26.076 58.128-58.128 58.128s-58.127-26.076-58.127-58.128 26.075-58.127 58.127-58.127zm107.592-1.245-47.619 27.082c-10.776-19.933-31.203-33.899-54.973-35.634v-54.88c44.152 1.776 82.379 26.949 102.592 63.432zm-112.592-63.432v54.88c-35.237 2.571-63.127 32.042-63.127 67.924 0 37.566 30.562 68.128 68.127 68.128 35.882 0 65.354-27.89 67.925-63.128h54.88c-2.633 65.465-56.705 117.915-122.805 117.915-67.775 0-122.914-55.14-122.914-122.915 0-66.099 52.449-120.171 117.914-122.804zm-188.959 102.049h62.669c-1.065 6.765-1.624 13.696-1.624 20.755 0 73.29 59.625 132.915 132.914 132.915 34.556 0 66.071-13.259 89.733-34.952v60.431h-299.537v-163.304c0-8.737 7.109-15.845 15.845-15.845zm27.581 222.114h-43.34v-8.118h43.336zm165.918-12.809-6.56 12.347h-106.031l-6.561-12.349c-1.74-3.274-5.124-5.308-8.831-5.308h-81.361v-14.847h299.537v14.847h-81.362c-3.706.002-7.09 2.035-8.831 5.31zm46.65 12.81v-8.118h43.336l.004 8.118z" fill="#2626bc"/><path d="m276.808 375.152h-17.342c-2.762 0-5 2.239-5 5s2.238 5 5 5h17.342c2.762 0 5-2.239 5-5s-2.239-5-5-5z" fill="#2626bc"/><path d="m175.978 221.741c0-9.161-7.453-16.613-16.613-16.613s-16.613 7.453-16.613 16.613c0 4.518 1.818 8.615 4.755 11.613-2.936 2.998-4.755 7.095-4.755 11.613 0 2.761 2.238 5 5 5s5-2.239 5-5c0-3.646 2.967-6.613 6.613-6.613s6.613 2.967 6.613 6.613c0 2.761 2.238 5 5 5s5-2.239 5-5c0-4.518-1.818-8.615-4.755-11.613 2.936-2.997 4.755-7.095 4.755-11.613zm-16.614-6.613c3.646 0 6.613 2.967 6.613 6.613s-2.967 6.613-6.613 6.613-6.613-2.967-6.613-6.613 2.967-6.613 6.613-6.613z" fill="#ff7eb8"/><path d="m96.474 153.923c-3.739 0-7.479-1.423-10.326-4.27-5.693-5.695-5.693-14.959 0-20.652 5.694-5.693 14.959-5.692 20.651 0 5.693 5.693 5.693 14.958.001 20.651h-.001c-2.846 2.848-6.586 4.271-10.325 4.271zm6.79-7.805h.01zm-6.79-11.391c-1.179 0-2.358.449-3.256 1.346-1.794 1.794-1.794 4.714.001 6.509 1.793 1.794 4.715 1.794 6.51 0 1.794-1.794 1.794-4.715 0-6.509-.898-.898-2.077-1.346-3.255-1.346z" fill="#01eca5"/><path d="m464.338 294.544h-3.25v-3.25c0-2.761-2.238-5-5-5s-5 2.239-5 5v3.25h-3.25c-2.762 0-5 2.239-5 5s2.238 5 5 5h3.25v3.25c0 2.761 2.238 5 5 5s5-2.239 5-5v-3.25h3.25c2.762 0 5-2.239 5-5s-2.238-5-5-5z" fill="#ff7eb8"/><path d="m72.412 176.469h-3.25v-3.25c0-2.761-2.238-5-5-5s-5 2.239-5 5v3.25h-3.25c-2.762 0-5 2.239-5 5s2.238 5 5 5h3.25v3.25c0 2.761 2.238 5 5 5s5-2.239 5-5v-3.25h3.25c2.762 0 5-2.239 5-5s-2.238-5-5-5z" fill="#8399fe"/><path d="m473.94 359.18c-3.739 0-7.479-1.423-10.325-4.27-5.694-5.694-5.694-14.958 0-20.652 5.693-5.693 14.957-5.693 20.65 0 5.694 5.694 5.694 14.958 0 20.652-2.846 2.846-6.585 4.27-10.325 4.27zm0-19.197c-1.179 0-2.357.449-3.255 1.346-1.794 1.794-1.794 4.715 0 6.509 1.795 1.795 4.715 1.795 6.51 0 1.794-1.794 1.794-4.715 0-6.509-.897-.897-2.076-1.346-3.255-1.346z" fill="#01eca5"/><path d="m419.468 71.578c-3.739 0-7.479-1.423-10.325-4.27-5.693-5.694-5.693-14.958 0-20.652s14.957-5.693 20.65 0 5.693 14.958.001 20.651h-.001c-2.847 2.848-6.586 4.271-10.325 4.271zm6.79-7.806h.01zm-6.79-11.391c-1.179 0-2.357.449-3.255 1.346-1.794 1.794-1.794 4.715.001 6.51 1.793 1.794 4.714 1.794 6.509 0 1.794-1.794 1.794-4.715 0-6.509-.898-.898-2.077-1.347-3.255-1.347z" fill="#ff7eb8"/></svg>