<svg width="200" height="200" viewBox="0 0 200 200" fill="none" xmlns="http://www.w3.org/2000/svg">
<g clip-path="url(#clip0)">
<path d="M159.464 60.2582C150.208 56.6503 142.387 50.0671 137.605 41.3593C129.562 26.716 113.999 16.7898 96.1121 16.7898C77.5457 16.7898 61.4847 27.4839 53.7382 43.0472C48.9937 52.5789 40.9203 60.0628 31.0468 64.0476C16.4574 69.9359 4.20972 83.3929 0.323003 104.431C-0.103559 106.74 -0.10981 109.113 0.316753 111.422C6.35113 144.067 32.5039 158.467 56.3066 154.648C69.6371 152.51 83.1316 156.957 93.0125 166.157C113.104 184.865 145.311 190.73 176.576 170.677C180.239 168.327 185.153 163.398 187.5 159.733C214.44 117.675 194.484 73.9078 159.464 60.2582Z" fill="url(#paint0_linear)"/>
<path opacity="0.1" d="M178.125 36.9565V136.273C178.125 139.507 175.5 142.132 172.266 142.132H27.7347C24.5003 142.132 21.8753 139.507 21.8753 136.273V36.9565C21.8753 33.7222 24.5003 31.0972 27.7347 31.0972H172.266C175.5 31.0972 178.125 33.7222 178.125 36.9565Z" fill="#2626BC"/>
<path d="M149.239 172.957C148.721 172.957 148.224 172.752 147.858 172.386L143.554 168.082C142.791 167.319 142.791 166.082 143.554 165.32L147.858 161.016C148.224 160.649 148.721 160.444 149.239 160.444C149.757 160.444 150.253 160.65 150.619 161.016L154.924 165.32C155.29 165.686 155.496 166.182 155.496 166.701C155.496 167.219 155.291 167.716 154.924 168.082L150.619 172.386C150.253 172.752 149.757 172.957 149.239 172.957ZM147.697 166.7L149.239 168.242L150.78 166.7L149.239 165.159L147.697 166.7Z" fill="#6583FE"/>
<path d="M54.448 175.365C53.3695 175.365 52.4949 174.491 52.4949 173.412C52.4949 172.116 51.4402 171.061 50.1441 171.061C49.0656 171.061 48.191 170.187 48.191 169.108C48.191 168.03 49.0656 167.155 50.1441 167.155C51.4402 167.155 52.4949 166.1 52.4949 164.804C52.4949 163.726 53.3695 162.851 54.448 162.851C55.5265 162.851 56.4011 163.726 56.4011 164.804C56.4011 166.1 57.4558 167.155 58.7519 167.155C59.8304 167.155 60.705 168.03 60.705 169.108C60.705 170.187 59.8304 171.061 58.7519 171.061C57.4558 171.061 56.4011 172.116 56.4011 173.412C56.4011 174.491 55.5265 175.365 54.448 175.365Z" fill="#97FFD2"/>
<path d="M168.353 184.993C167.274 184.993 166.4 184.119 166.4 183.04C166.4 181.744 165.345 180.689 164.048 180.689C162.969 180.689 162.095 179.815 162.095 178.736C162.095 177.658 162.969 176.783 164.048 176.783C165.344 176.783 166.4 175.728 166.4 174.432C166.4 173.354 167.274 172.479 168.353 172.479C169.432 172.479 170.306 173.354 170.306 174.432C170.306 175.728 171.36 176.783 172.657 176.783C173.736 176.783 174.61 177.658 174.61 178.736C174.61 179.815 173.736 180.689 172.657 180.689C171.361 180.689 170.306 181.744 170.306 183.04C170.306 184.119 169.432 184.993 168.353 184.993Z" fill="#FF7EB8"/>
<path d="M122.153 178.736H77.8476L83.6218 155.845L86.7078 143.618H113.293L116.378 155.845L122.153 178.736Z" fill="#9FB0FE"/>
<path d="M116.378 155.845H83.6218L86.7078 143.618H113.293L116.378 155.845Z" fill="#8399FE"/>
<path d="M178.125 45.1609V144.477C178.125 147.712 175.5 150.337 172.266 150.337H27.7347C24.5003 150.337 21.8753 147.712 21.8753 144.477V45.1609C21.8753 41.9265 24.5003 39.3015 27.7347 39.3015H172.266C175.5 39.3015 178.125 41.9265 178.125 45.1609Z" fill="white"/>
<path d="M48.3715 39.3015H151.629V89.6418H48.3715V39.3015Z" fill="#DCFDEE"/>
<path d="M178.125 58.1187V45.1613C178.125 41.9253 175.502 39.3019 172.266 39.3019H27.7347C24.4987 39.3019 21.8753 41.9253 21.8753 45.1613V58.1187H178.125Z" fill="#FF7EB8"/>
<path d="M21.8753 130.652V144.476C21.8753 147.712 24.4987 150.335 27.7347 150.335H172.266C175.502 150.335 178.125 147.712 178.125 144.476V130.652H21.8753Z" fill="#B7C5FF"/>
<path d="M36.751 46.7284C35.6725 46.7284 34.7979 47.603 34.7979 48.6815V48.7382C34.7979 49.8167 35.6725 50.6913 36.751 50.6913C37.8296 50.6913 38.7042 49.8167 38.7042 48.7382V48.6815C38.7042 47.603 37.8296 46.7284 36.751 46.7284Z" fill="#2626BC"/>
<path d="M44.2999 46.7284C43.2214 46.7284 42.3468 47.603 42.3468 48.6815V48.7382C42.3468 49.8167 43.2214 50.6913 44.2999 50.6913C45.3784 50.6913 46.2531 49.8167 46.2531 48.7382V48.6815C46.2531 47.603 45.3784 46.7284 44.2999 46.7284Z" fill="#2626BC"/>
<path d="M51.8484 46.7284C50.7699 46.7284 49.8953 47.603 49.8953 48.6815V48.7382C49.8953 49.8167 50.7699 50.6913 51.8484 50.6913C52.9269 50.6913 53.8015 49.8167 53.8015 48.7382V48.6815C53.8015 47.603 52.9273 46.7284 51.8484 46.7284Z" fill="#2626BC"/>
<path d="M172.266 37.3484H27.7347C23.4269 37.3484 19.9222 40.8531 19.9222 45.1609V144.476C19.9222 148.784 23.4269 152.289 27.7347 152.289H113.467L119.647 176.781H80.3534L84.4183 160.672C84.6819 159.627 84.0483 158.564 83.0023 158.301C81.9566 158.037 80.8944 158.671 80.6308 159.717L76.3249 176.781H70.3386C69.2601 176.781 68.3855 177.656 68.3855 178.734C68.3855 179.813 69.2601 180.687 70.3386 180.687H77.8464H122.154H129.662C130.741 180.687 131.615 179.813 131.615 178.734C131.615 177.656 130.741 176.781 129.662 176.781H123.676L117.496 152.289H172.266C176.574 152.289 180.078 148.784 180.078 144.476V130.652C180.078 129.573 179.204 128.699 178.125 128.699C178.088 128.699 178.054 128.708 178.017 128.71C177.981 128.708 177.946 128.699 177.91 128.699H23.8284V60.0718H176.172V119.894C176.172 120.973 177.046 121.848 178.125 121.848C179.204 121.848 180.078 120.973 180.078 119.894V45.1609C180.078 40.8531 176.574 37.3484 172.266 37.3484ZM176.172 132.605V144.476C176.172 146.63 174.42 148.382 172.266 148.382H27.7347C25.5808 148.382 23.8284 146.63 23.8284 144.476V132.605H176.172ZM23.8284 56.1656V45.1613C23.8284 43.0074 25.5808 41.255 27.7347 41.255H172.266C174.42 41.255 176.172 43.0074 176.172 45.1613V56.1656H23.8284Z" fill="#2626BC"/>
<path d="M50.5116 76.1855L48.8503 73.4144C48.6386 73.0613 48.257 72.8448 47.8452 72.8448H41.087C40.4398 72.8448 39.9152 73.3695 39.9152 74.0167V92.7667H68.9804V77.9265C68.9804 77.2792 68.4558 76.7546 67.8085 76.7546H51.5167C51.105 76.7546 50.7234 76.5386 50.5116 76.1855Z" fill="#01ECA5"/>
<path d="M67.8085 98.4308H41.087C40.4398 98.4308 39.9152 97.9062 39.9152 97.2589V82.0245C39.9152 81.3773 40.4398 80.8527 41.087 80.8527H67.8085C68.4558 80.8527 68.9804 81.3773 68.9804 82.0245V97.2589C68.9804 97.9062 68.4558 98.4308 67.8085 98.4308Z" fill="#97FFD2"/>
<path d="M67.98 110.105H41.9699C40.8648 110.105 39.9687 109.209 39.9687 108.103C39.9687 106.998 40.8644 106.102 41.9699 106.102H67.98C69.0851 106.102 69.9812 106.998 69.9812 108.103C69.9812 109.209 69.0855 110.105 67.98 110.105Z" fill="#B7C5FF"/>
<path d="M60.9488 117.527H49.0011C47.896 117.527 46.9999 116.63 46.9999 115.525C46.9999 114.42 47.8956 113.524 49.0011 113.524H60.9488C62.0538 113.524 62.9499 114.42 62.9499 115.525C62.9499 116.63 62.0542 117.527 60.9488 117.527Z" fill="#6583FE"/>
<path d="M95.5636 76.1855L93.9023 73.4144C93.6905 73.0613 93.3089 72.8448 92.8972 72.8448H86.139C85.4917 72.8448 84.9671 73.3695 84.9671 74.0167V92.7667H114.032V77.9265C114.032 77.2792 113.508 76.7546 112.86 76.7546H96.5687C96.1569 76.7546 95.7753 76.5386 95.5636 76.1855Z" fill="#01ECA5"/>
<path d="M112.861 98.4308H86.1394C85.4921 98.4308 84.9675 97.9062 84.9675 97.2589V82.0245C84.9675 81.3773 85.4921 80.8527 86.1394 80.8527H112.861C113.508 80.8527 114.033 81.3773 114.033 82.0245V97.2589C114.033 97.9062 113.508 98.4308 112.861 98.4308Z" fill="#97FFD2"/>
<path d="M113.032 110.105H87.0218C85.9167 110.105 85.0206 109.209 85.0206 108.103C85.0206 106.998 85.9163 106.102 87.0218 106.102H113.032C114.137 106.102 115.033 106.998 115.033 108.103C115.033 109.209 114.137 110.105 113.032 110.105Z" fill="#B7C5FF"/>
<path d="M106.001 117.527H94.0531C92.948 117.527 92.0519 116.63 92.0519 115.525C92.0519 114.42 92.9476 113.524 94.0531 113.524H106.001C107.106 113.524 108.002 114.42 108.002 115.525C108.002 116.63 107.106 117.527 106.001 117.527Z" fill="#6583FE"/>
<path d="M140.616 76.1855L138.955 73.4144C138.743 73.0613 138.361 72.8448 137.949 72.8448H131.191C130.544 72.8448 130.019 73.3695 130.019 74.0167V92.7667H159.085V77.9265C159.085 77.2792 158.56 76.7546 157.913 76.7546H141.621C141.209 76.7546 140.828 76.5386 140.616 76.1855Z" fill="#01ECA5"/>
<path d="M157.913 98.4308H131.191C130.544 98.4308 130.019 97.9062 130.019 97.2589V82.0245C130.019 81.3773 130.544 80.8527 131.191 80.8527H157.913C158.56 80.8527 159.085 81.3773 159.085 82.0245V97.2589C159.085 97.9062 158.56 98.4308 157.913 98.4308Z" fill="#97FFD2"/>
<path d="M158.084 110.105H132.074C130.969 110.105 130.073 109.209 130.073 108.103C130.073 106.998 130.969 106.102 132.074 106.102H158.084C159.189 106.102 160.085 106.998 160.085 108.103C160.085 109.209 159.189 110.105 158.084 110.105Z" fill="#B7C5FF"/>
<path d="M151.053 117.527H139.105C138 117.527 137.104 116.63 137.104 115.525C137.104 114.42 138 113.524 139.105 113.524H151.053C152.158 113.524 153.054 114.42 153.054 115.525C153.054 116.63 152.158 117.527 151.053 117.527Z" fill="#6583FE"/>
<path d="M137.104 27.5203C136.586 27.5203 136.089 27.3144 135.723 26.9484L131.419 22.6445C130.657 21.8816 130.657 20.6449 131.419 19.8824L135.723 15.5785C136.485 14.816 137.723 14.816 138.485 15.5785L142.789 19.8824C143.552 20.6453 143.552 21.882 142.789 22.6445L138.485 26.9484C138.119 27.3144 137.623 27.5203 137.104 27.5203ZM135.563 21.2628L137.104 22.8046L138.646 21.2628L137.104 19.7214L135.563 21.2628Z" fill="#97FFD2"/>
</g>
<defs>
<linearGradient id="paint0_linear" x1="5.24019" y1="42.1074" x2="198.841" y2="168.619" gradientUnits="userSpaceOnUse">
<stop stop-color="#FFDBED"/>
<stop offset="1" stop-color="#DCFDEE"/>
</linearGradient>
<clipPath id="clip0">
<rect width="200" height="200" fill="white"/>
</clipPath>
</defs>
</svg>
