<svg width="200" height="200" viewBox="0 0 200 200" fill="none" xmlns="http://www.w3.org/2000/svg">
<path d="M197.51 114.031C192.891 100.512 182.612 90.5312 170.224 85.8272C163.806 83.3901 159.542 77.2897 159.448 70.4253C159.446 70.2753 159.443 70.1249 159.44 69.9745C158.851 44.7472 137.765 24.5331 112.535 24.9663C97.6542 25.2218 84.4925 32.5269 76.2437 43.6851C69.1401 53.294 58.0835 59.2964 46.1343 59.2901C45.7835 59.2901 45.4323 59.2936 45.0796 59.3015C20.8933 59.8304 0.326862 80.5819 0.00420535 104.772C-0.339545 130.526 20.4347 151.512 46.1105 151.512C66.0116 151.512 82.9655 138.903 89.4253 121.239C91.1155 116.617 96.1253 114.14 100.864 115.469C100.923 115.485 100.982 115.502 101.042 115.519C105.377 116.716 108.252 120.847 107.897 125.331C107.422 131.34 108.124 137.54 110.162 143.61C118.178 167.491 144.22 180.597 168.167 172.782C192.664 164.788 205.815 138.335 197.51 114.031Z" fill="url(#paint0_linear)"/>
<path opacity="0.1" d="M180.078 55.4976C180.078 38.3226 166.155 24.3992 148.98 24.3992C135.882 24.3992 124.683 32.5007 120.1 43.9625H26.5398C22.8848 43.9625 19.9219 46.9253 19.9219 50.58V136.848C19.9219 140.503 22.8848 143.466 26.5398 143.466H147.027C150.682 143.466 153.645 140.503 153.645 136.848V86.2464C168.607 83.9957 180.078 71.0871 180.078 55.4976Z" fill="#2626BC"/>
<path d="M106.635 177.121H66.9312L72.1058 156.607L74.871 145.649H98.6952L101.46 156.607L106.635 177.121Z" fill="#9FB0FE"/>
<path d="M101.46 156.607H72.1057L74.8709 145.649H98.6952L101.46 156.607Z" fill="#8399FE"/>
<path d="M106.636 179.072H66.9301C66.3277 179.072 65.7594 178.794 65.3894 178.319C65.0195 177.844 64.8891 177.225 65.0367 176.641L71.2855 151.877C71.5492 150.83 72.6109 150.198 73.657 150.461C74.7027 150.725 75.3367 151.786 75.0726 152.832L69.4371 175.166H104.13L98.4433 152.63C98.1793 151.585 98.8133 150.523 99.859 150.259C100.905 149.996 101.967 150.629 102.23 151.675L108.53 176.641C108.678 177.225 108.547 177.844 108.177 178.319C107.807 178.794 107.239 179.072 106.636 179.072Z" fill="#2626BC"/>
<path d="M147.027 151.669H26.5398C22.8848 151.669 19.9219 148.706 19.9219 145.052V58.7836C19.9219 55.1285 22.8848 52.1656 26.5398 52.1656H147.027C150.682 52.1656 153.645 55.1285 153.645 58.7836V145.052C153.645 148.706 150.682 151.669 147.027 151.669Z" fill="white"/>
<path d="M153.643 58.7821V99.7797C152.121 100.007 150.567 100.127 148.98 100.127C131.804 100.127 117.88 86.2032 117.88 69.0305C117.88 62.8137 119.702 57.0239 122.846 52.1656H147.027C150.683 52.1653 153.643 55.1301 153.643 58.7821Z" fill="#D2DEFF"/>
<path d="M105.13 57.687H137.158V134.029H105.13V57.687Z" fill="#FFDBED"/>
<path d="M137.158 57.687V97.798C125.843 93.1472 117.88 82.0159 117.88 69.0304C117.88 65.0269 118.635 61.203 120.014 57.687H137.158Z" fill="#FFA8CF"/>
<path d="M142.52 134.03H99.7687V102.423C99.7687 101.761 100.305 101.224 100.967 101.224H141.322C141.984 101.224 142.521 101.761 142.521 102.423V134.03H142.52Z" fill="#D2DEFF"/>
<path d="M142.52 110.808H99.7687V102.423C99.7687 101.761 100.305 101.225 100.967 101.225H141.322C141.984 101.225 142.521 101.761 142.521 102.423V110.808H142.52Z" fill="#6583FE"/>
<path d="M153.645 69.0285V58.7836C153.645 55.1285 150.682 52.1656 147.027 52.1656H26.5398C22.8852 52.1656 19.9219 55.1285 19.9219 58.7836V69.0285H153.645Z" fill="#6583FE"/>
<path d="M117.88 70.9817H19.9219C18.843 70.9817 17.9688 70.1071 17.9688 69.0286C17.9688 67.95 18.843 67.0754 19.9219 67.0754H117.88C118.959 67.0754 119.833 67.95 119.833 69.0286C119.833 70.1071 118.959 70.9817 117.88 70.9817Z" fill="#2626BC"/>
<path d="M19.9219 134.03V145.051C19.9219 148.706 22.8848 151.669 26.5398 151.669H147.027C150.682 151.669 153.645 148.706 153.645 145.051V134.03H19.9219Z" fill="#B7C5FF"/>
<path d="M113.365 179.072H60.202C59.1231 179.072 58.2489 178.197 58.2489 177.119C58.2489 176.04 59.1231 175.166 60.202 175.166H113.365C114.444 175.166 115.318 176.04 115.318 177.119C115.318 178.197 114.444 179.072 113.365 179.072Z" fill="#2626BC"/>
<path d="M33.2528 62.5758C32.1739 62.5758 31.2997 61.7012 31.2997 60.6227V60.5719C31.2997 59.4934 32.1739 58.6188 33.2528 58.6188C34.3317 58.6188 35.2059 59.4934 35.2059 60.5719V60.6227C35.2059 61.7012 34.3317 62.5758 33.2528 62.5758Z" fill="#2626BC"/>
<path d="M40.0176 62.5758C38.9387 62.5758 38.0645 61.7012 38.0645 60.6227V60.5719C38.0645 59.4934 38.9387 58.6188 40.0176 58.6188C41.0965 58.6188 41.9707 59.4934 41.9707 60.5719V60.6227C41.9707 61.7012 41.0965 62.5758 40.0176 62.5758Z" fill="#2626BC"/>
<path d="M46.7828 62.5758C45.7039 62.5758 44.8297 61.7012 44.8297 60.6227V60.5719C44.8297 59.4934 45.7039 58.6188 46.7828 58.6188C47.8617 58.6188 48.736 59.4934 48.736 60.5719V60.6227C48.736 61.7012 47.8614 62.5758 46.7828 62.5758Z" fill="#2626BC"/>
<path d="M147.027 153.622H26.5395C21.8137 153.622 17.9688 149.777 17.9688 145.051V134.03C17.9688 132.951 18.843 132.077 19.9219 132.077H151.691V95.2883C151.691 94.2098 152.566 93.3352 153.645 93.3352C154.723 93.3352 155.598 94.2098 155.598 95.2883V145.051C155.598 149.777 151.753 153.622 147.027 153.622ZM21.875 135.983V145.051C21.875 147.623 23.9672 149.716 26.5395 149.716H147.027C149.599 149.716 151.691 147.623 151.691 145.051V135.983H21.875Z" fill="#2626BC"/>
<path d="M19.9219 124.979C18.843 124.979 17.9688 124.105 17.9688 123.026V58.7836C17.9688 54.0574 21.8137 50.2129 26.5395 50.2129H109.148C110.227 50.2129 111.102 51.0875 111.102 52.166C111.102 53.2445 110.227 54.1191 109.148 54.1191H26.5395C23.9672 54.1191 21.875 56.2117 21.875 58.7836V123.026C21.875 124.105 21.0008 124.979 19.9219 124.979Z" fill="#2626BC"/>
<path d="M148.98 94.7992C166.155 94.7992 180.078 80.8759 180.078 63.7007C180.078 46.5255 166.155 32.6023 148.98 32.6023C131.804 32.6023 117.881 46.5255 117.881 63.7007C117.881 80.8759 131.804 94.7992 148.98 94.7992Z" fill="#02FFB3"/>
<path d="M148.98 96.7519C130.755 96.7519 115.928 81.9249 115.928 63.7003C115.928 45.4757 130.755 30.6492 148.98 30.6492C167.205 30.6492 182.031 45.4761 182.031 63.7003C182.031 81.9253 167.205 96.7519 148.98 96.7519ZM148.98 34.5554C132.909 34.5554 119.835 47.63 119.835 63.7003C119.835 79.771 132.909 92.8456 148.98 92.8456C165.051 92.8456 178.125 79.771 178.125 63.7003C178.125 47.63 165.05 34.5554 148.98 34.5554Z" fill="#2626BC"/>
<path d="M165.259 80.0119C174.262 71.0084 174.262 56.411 165.259 47.4076C156.256 38.4041 141.658 38.4041 132.655 47.4076C123.651 56.411 123.651 71.0084 132.655 80.0119C141.658 89.0153 156.256 89.0153 165.259 80.0119Z" fill="#DCFDEE"/>
<path d="M144.518 74.089C143.723 74.089 142.961 73.7734 142.399 73.2113L136.273 67.0847C135.103 65.9144 135.103 64.0171 136.273 62.8468C137.444 61.6761 139.341 61.6765 140.511 62.8468L144.518 66.8542L157.449 53.9234C158.62 52.7531 160.517 52.7531 161.687 53.9234C162.858 55.0937 162.858 56.991 161.687 58.1613L146.637 73.2109C146.075 73.7734 145.313 74.089 144.518 74.089Z" fill="#FF7EB8"/>
<path d="M70.0047 95.2882H34.8563C33.7512 95.2882 32.8551 94.3921 32.8551 93.2871C32.8551 92.182 33.7508 91.2859 34.8563 91.2859H70.0051C71.1102 91.2859 72.0063 92.182 72.0063 93.2871C72.0059 94.3921 71.1102 95.2882 70.0047 95.2882Z" fill="#B7C5FF"/>
<path d="M89.4913 95.2882H79.8909C78.7859 95.2882 77.8898 94.3921 77.8898 93.2871C77.8898 92.182 78.7855 91.2859 79.8909 91.2859H89.4913C90.5964 91.2859 91.4925 92.182 91.4925 93.2871C91.4925 94.3921 90.5968 95.2882 89.4913 95.2882Z" fill="#FFA8CF"/>
<path d="M89.4914 103.226H34.8563C33.7512 103.226 32.8551 102.33 32.8551 101.225C32.8551 100.119 33.7508 99.2234 34.8563 99.2234H89.4914C90.5965 99.2234 91.4926 100.119 91.4926 101.225C91.4926 102.33 90.5969 103.226 89.4914 103.226Z" fill="#B7C5FF"/>
<path d="M37.0772 86.9918C36.5593 86.9918 36.0624 86.786 35.6964 86.4199L32.9706 83.6942C32.2077 82.9313 32.2077 81.6946 32.9706 80.9321C33.7327 80.1696 34.9702 80.1696 35.7323 80.9321L37.0769 82.2766L41.8737 77.4797C42.6358 76.7172 43.8733 76.7172 44.6354 77.4797C45.3983 78.2426 45.3983 79.4793 44.6354 80.2418L38.4577 86.4199C38.0921 86.786 37.5952 86.9918 37.0772 86.9918Z" fill="#4369FD"/>
<path d="M46.0316 127.236H34.8558C33.7507 127.236 32.8546 126.339 32.8546 125.234C32.8546 124.129 33.7503 123.233 34.8558 123.233H46.0316C47.1366 123.233 48.0327 124.129 48.0327 125.234C48.0327 126.339 47.137 127.236 46.0316 127.236Z" fill="#B7C5FF"/>
<path d="M89.4912 127.236H55.9178C54.8127 127.236 53.9166 126.339 53.9166 125.234C53.9166 124.129 54.8123 123.233 55.9178 123.233H89.4912C90.5963 123.233 91.4924 124.129 91.4924 125.234C91.4924 126.339 90.5967 127.236 89.4912 127.236Z" fill="#FFA8CF"/>
<path d="M37.0772 118.939C36.5592 118.939 36.0623 118.733 35.6959 118.367L32.9701 115.641C32.2076 114.879 32.2076 113.642 32.9705 112.879C33.7326 112.117 34.9698 112.117 35.7326 112.879L37.0768 114.224L41.8737 109.427C42.6358 108.664 43.8733 108.664 44.6354 109.427C45.3983 110.19 45.3983 111.427 44.6354 112.189L38.458 118.367C38.092 118.733 37.5951 118.939 37.0772 118.939Z" fill="#4369FD"/>
<path d="M81.8097 33.4422C81.2917 33.4422 80.7948 33.2363 80.4288 32.8703L76.1245 28.5664C75.7581 28.2 75.5522 27.7035 75.5522 27.1851C75.5522 26.6668 75.7577 26.1703 76.1245 25.8039L80.4288 21.5C80.7952 21.1336 81.2917 20.9281 81.8097 20.9281C82.3276 20.9281 82.8245 21.134 83.1905 21.5L87.4944 25.8039C88.2573 26.5668 88.2573 27.8035 87.4944 28.566L83.1905 32.8699C82.8241 33.2363 82.3276 33.4422 81.8097 33.4422ZM80.2675 27.1851L81.8093 28.7269L83.3507 27.1851L81.8093 25.6433L80.2675 27.1851Z" fill="#FF7EB8"/>
<path d="M170.429 118.753C169.35 118.753 168.476 117.878 168.476 116.8C168.476 115.503 167.421 114.449 166.125 114.449C165.046 114.449 164.172 113.574 164.172 112.496C164.172 111.417 165.046 110.543 166.125 110.543C167.421 110.543 168.476 109.488 168.476 108.192C168.476 107.113 169.35 106.239 170.429 106.239C171.508 106.239 172.382 107.113 172.382 108.192C172.382 109.488 173.437 110.543 174.733 110.543C175.812 110.543 176.686 111.417 176.686 112.496C176.686 113.574 175.812 114.449 174.733 114.449C173.437 114.449 172.382 115.503 172.382 116.8C172.382 117.878 171.508 118.753 170.429 118.753Z" fill="#6583FE"/>
<path d="M66.8613 40.5144C65.7824 40.5144 64.9082 39.6398 64.9082 38.5613C64.9082 37.2652 63.8539 36.2105 62.5574 36.2105C61.4785 36.2105 60.6042 35.3359 60.6042 34.2574C60.6042 33.1789 61.4785 32.3043 62.5574 32.3043C63.8535 32.3043 64.9082 31.2496 64.9082 29.9535C64.9082 28.875 65.7824 28.0004 66.8613 28.0004C67.9402 28.0004 68.8144 28.875 68.8144 29.9535C68.8144 31.2496 69.8687 32.3043 71.1652 32.3043C72.2441 32.3043 73.1183 33.1789 73.1183 34.2574C73.1183 35.3359 72.2441 36.2105 71.1652 36.2105C69.8691 36.2105 68.8144 37.2652 68.8144 38.5613C68.8144 39.6398 67.9402 40.5144 66.8613 40.5144Z" fill="#97FFD2"/>
<path d="M145.875 169.558C144.796 169.558 143.921 168.683 143.921 167.605C143.921 166.309 142.867 165.254 141.57 165.254C140.491 165.254 139.617 164.379 139.617 163.301C139.617 162.222 140.491 161.348 141.57 161.348C142.866 161.348 143.921 160.293 143.921 158.997C143.921 157.918 144.796 157.044 145.875 157.044C146.954 157.044 147.828 157.918 147.828 158.997C147.828 160.293 148.882 161.348 150.179 161.348C151.257 161.348 152.132 162.222 152.132 163.301C152.132 164.379 151.257 165.254 150.179 165.254C148.882 165.254 147.828 166.309 147.828 167.605C147.828 168.683 146.954 169.558 145.875 169.558Z" fill="#FF7EB8"/>
<path d="M127.75 119.432C128.956 119.432 129.934 118.454 129.934 117.248C129.934 116.042 128.956 115.065 127.75 115.065C126.544 115.065 125.566 116.042 125.566 117.248C125.566 118.454 126.544 119.432 127.75 119.432Z" fill="white"/>
<path d="M121.145 119.432C122.35 119.432 123.328 118.454 123.328 117.248C123.328 116.042 122.35 115.065 121.145 115.065C119.939 115.065 118.961 116.042 118.961 117.248C118.961 118.454 119.939 119.432 121.145 119.432Z" fill="white"/>
<path d="M114.539 119.432C115.745 119.432 116.723 118.454 116.723 117.248C116.723 116.042 115.745 115.065 114.539 115.065C113.333 115.065 112.355 116.042 112.355 117.248C112.355 118.454 113.333 119.432 114.539 119.432Z" fill="white"/>
<defs>
<linearGradient id="paint0_linear" x1="4.65225" y1="45.053" x2="201.129" y2="158.147" gradientUnits="userSpaceOnUse">
<stop offset="0.0485" stop-color="#D2DEFF"/>
<stop offset="0.9993" stop-color="#DCFDEE"/>
</linearGradient>
</defs>
</svg>
