<svg width="200" height="200" viewBox="0 0 200 200" fill="none" xmlns="http://www.w3.org/2000/svg">
<g clip-path="url(#clip0)">
<path d="M159.464 60.2586C150.208 56.6508 142.388 50.0676 137.605 41.3598C129.562 26.7165 113.999 16.7903 96.1121 16.7903C77.5457 16.7903 61.4848 27.4844 53.7383 43.0477C48.9938 52.5793 40.9203 60.0633 31.0469 64.0481C16.4574 69.9364 4.20978 83.3934 0.323064 104.432C-0.103498 106.74 -0.109748 109.114 0.316814 111.422C6.35119 144.068 32.5039 158.467 56.3067 154.649C69.6371 152.511 83.1317 156.957 93.0125 166.157C113.104 184.865 145.311 190.731 176.576 170.677C180.239 168.328 185.153 163.398 187.5 159.734C214.44 117.675 194.484 73.9079 159.464 60.2586Z" fill="url(#paint0_linear)"/>
<path opacity="0.1" d="M178.125 39.2896V138.606C178.125 141.84 175.5 144.465 172.266 144.465H27.7347C24.5004 144.465 21.8754 141.84 21.8754 138.606V39.2896C21.8754 36.0552 24.5004 33.4302 27.7347 33.4302H172.266C175.5 33.4302 178.125 36.0552 178.125 39.2896Z" fill="#2626BC"/>
<path d="M122.153 181.058H77.8477L83.6219 158.166L86.7078 145.939H113.293L116.379 158.166L122.153 181.058Z" fill="#9FB0FE"/>
<path d="M116.379 158.166H83.6219L86.7079 145.939H113.293L116.379 158.166Z" fill="#8399FE"/>
<path d="M178.125 47.4812V146.798C178.125 150.032 175.5 152.657 172.266 152.657H27.7347C24.5004 152.657 21.8754 150.032 21.8754 146.798V47.4812C21.8754 44.2468 24.5004 41.6218 27.7347 41.6218H172.266C175.5 41.6218 178.125 44.2468 178.125 47.4812Z" fill="white"/>
<path d="M178.125 101.802V146.798C178.125 150.034 175.502 152.657 172.266 152.657H107.899V102.974C107.899 102.326 108.423 101.802 109.071 101.802H178.125Z" fill="#DCFDEE"/>
<path d="M178.125 60.4398V47.4824C178.125 44.2465 175.502 41.623 172.266 41.623H27.7347C24.4988 41.623 21.8754 44.2465 21.8754 47.4824V60.4398H178.125Z" fill="#6583FE"/>
<path d="M21.8754 132.974V146.798C21.8754 150.034 24.4988 152.657 27.7347 152.657H172.266C175.502 152.657 178.125 150.034 178.125 146.798V132.974H21.8754Z" fill="#B7C5FF"/>
<path d="M36.7511 53.0129C37.8296 53.0129 38.7042 52.1383 38.7042 51.0598V51.0032C38.7042 49.9247 37.8296 49.05 36.7511 49.05C35.6726 49.05 34.798 49.9247 34.798 51.0032V51.0598C34.798 52.1383 35.6726 53.0129 36.7511 53.0129Z" fill="#2626BC"/>
<path d="M44.2999 53.0129C45.3784 53.0129 46.2531 52.1383 46.2531 51.0598V51.0032C46.2531 49.9247 45.3784 49.05 44.2999 49.05C43.2214 49.05 42.3468 49.9247 42.3468 51.0032V51.0598C42.3468 52.1383 43.2214 53.0129 44.2999 53.0129Z" fill="#2626BC"/>
<path d="M51.8484 53.0129C52.9269 53.0129 53.8015 52.1383 53.8015 51.0598V51.0032C53.8015 49.9247 52.9269 49.05 51.8484 49.05C50.7699 49.05 49.8953 49.9247 49.8953 51.0032V51.0598C49.8953 52.1383 50.7699 53.0129 51.8484 53.0129Z" fill="#2626BC"/>
<path d="M23.8285 62.393H178.125C179.203 62.393 180.078 61.5184 180.078 60.4398V47.4824C180.078 43.1746 176.573 39.6699 172.266 39.6699H27.7347C23.4269 39.6699 19.9222 43.1746 19.9222 47.4824V146.798C19.9222 151.105 23.4269 154.61 27.7347 154.61H113.467L119.647 179.103H80.3535L84.4183 162.994C84.682 161.948 84.0484 160.886 83.0023 160.622C81.957 160.358 80.8945 160.992 80.6308 162.038L76.325 179.103H70.3386C69.2601 179.103 68.3855 179.977 68.3855 181.056C68.3855 182.134 69.2601 183.009 70.3386 183.009H77.8465H122.155H129.662C130.741 183.009 131.616 182.134 131.616 181.056C131.616 179.977 130.741 179.103 129.662 179.103H123.676L117.496 154.61H172.266C176.574 154.61 180.078 151.105 180.078 146.798V71.198C180.078 70.1195 179.204 69.2449 178.125 69.2449C177.047 69.2449 176.172 70.1195 176.172 71.198V131.021H23.8285V62.393ZM27.7347 43.5762H172.266C174.42 43.5762 176.172 45.3285 176.172 47.4824V58.4867H23.8285V47.4824C23.8285 45.3285 25.5808 43.5762 27.7347 43.5762ZM176.172 134.927V146.798C176.172 148.952 174.42 150.704 172.266 150.704H27.7347C25.5808 150.704 23.8285 148.952 23.8285 146.798V134.927H176.172Z" fill="#2626BC"/>
<path d="M92.1223 122.131H38.7075C37.627 122.131 36.7512 121.255 36.7512 120.174C36.7512 119.094 37.627 118.218 38.7075 118.218H92.1223C93.2028 118.218 94.0786 119.094 94.0786 120.174C94.079 121.255 93.2032 122.131 92.1223 122.131Z" fill="#B7C5FF"/>
<path d="M92.1223 114.67H38.7075C37.627 114.67 36.7512 113.794 36.7512 112.713C36.7512 111.633 37.627 110.757 38.7075 110.757H92.1223C93.2028 110.757 94.0786 111.633 94.0786 112.713C94.079 113.794 93.2032 114.67 92.1223 114.67Z" fill="#B7C5FF"/>
<path d="M47.5911 107.209H38.7075C37.627 107.209 36.7512 106.333 36.7512 105.252C36.7512 104.172 37.627 103.296 38.7075 103.296H47.5911C48.6715 103.296 49.5473 104.172 49.5473 105.252C49.5473 106.333 48.6719 107.209 47.5911 107.209Z" fill="#6583FE"/>
<path d="M92.1223 107.209H56.2856C55.2051 107.209 54.3293 106.333 54.3293 105.252C54.3293 104.172 55.2051 103.296 56.2856 103.296H92.1223C93.2028 103.296 94.0786 104.172 94.0786 105.252C94.0786 106.333 93.2032 107.209 92.1223 107.209Z" fill="#9FB0FE"/>
<path d="M56.9661 94.3317H38.7075C37.627 94.3317 36.7512 93.4559 36.7512 92.3754C36.7512 91.295 37.627 90.4192 38.7075 90.4192H56.9661C58.0465 90.4192 58.9223 91.295 58.9223 92.3754C58.9227 93.4555 58.0469 94.3317 56.9661 94.3317Z" fill="#B7C5FF"/>
<path d="M123.8 121.893H117.55C116.903 121.893 116.379 121.368 116.379 120.721V96.9453C116.379 96.298 116.903 95.7734 117.55 95.7734H123.8C124.448 95.7734 124.972 96.298 124.972 96.9453V120.721C124.972 121.368 124.448 121.893 123.8 121.893Z" fill="#02FFB3"/>
<path d="M111.022 121.893H104.772C104.125 121.893 103.6 121.368 103.6 120.721V106.011C103.6 105.364 104.125 104.839 104.772 104.839H111.022C111.669 104.839 112.194 105.364 112.194 106.011V120.721C112.194 121.368 111.669 121.893 111.022 121.893Z" fill="#97FFD2"/>
<path d="M136.578 121.893H130.328C129.681 121.893 129.157 121.368 129.157 120.721V90.1195C129.157 89.4722 129.681 88.9476 130.328 88.9476H136.578C137.226 88.9476 137.75 89.4722 137.75 90.1195V120.721C137.75 121.368 137.226 121.893 136.578 121.893Z" fill="#FFA8CF"/>
<path d="M149.357 121.893H143.107C142.46 121.893 141.935 121.368 141.935 120.721V82.8828C141.935 82.2355 142.46 81.7109 143.107 81.7109H149.357C150.004 81.7109 150.529 82.2355 150.529 82.8828V120.721C150.529 121.368 150.004 121.893 149.357 121.893Z" fill="#FF7EB8"/>
<path d="M162.135 121.893H155.885C155.238 121.893 154.714 121.368 154.714 120.721V76.0571C154.714 75.4099 155.238 74.8853 155.885 74.8853H162.135C162.783 74.8853 163.307 75.4099 163.307 76.0571V120.721C163.307 121.368 162.783 121.893 162.135 121.893Z" fill="#FF5BA8"/>
<path d="M45.9704 83.3903C45.2602 83.3903 44.5993 83.0028 44.2551 82.3708L43.0915 80.2318L41.9278 82.3708C41.5547 83.0556 40.8083 83.454 40.034 83.3821C39.2575 83.311 38.5977 82.7849 38.3555 82.0435L35.6758 73.8364C35.3411 72.811 35.9008 71.7083 36.9262 71.3735C37.9512 71.0388 39.054 71.5985 39.3891 72.6239L40.6626 76.5235L41.3766 75.2118C41.7184 74.5837 42.3766 74.1923 43.0922 74.1923C43.8079 74.1923 44.4661 74.5833 44.8079 75.2118L45.5215 76.5232L46.795 72.6235C47.1297 71.5982 48.2325 71.0376 49.2579 71.3732C50.2833 71.7079 50.8434 72.8107 50.5083 73.836L47.8286 82.0431C47.5864 82.7845 46.9266 83.3107 46.1501 83.3817C46.0891 83.3876 46.0293 83.3903 45.9704 83.3903Z" fill="#6583FE"/>
<path d="M62.6895 83.3903C61.9794 83.3903 61.3184 83.0028 60.9747 82.3708L59.8106 80.2318L58.6465 82.3708C58.2739 83.0556 57.529 83.454 56.7528 83.3821C55.9762 83.311 55.3165 82.7849 55.0743 82.0435L52.3946 73.8364C52.0598 72.811 52.6196 71.7083 53.645 71.3735C54.6704 71.0388 55.7731 71.5985 56.1079 72.6239L57.3813 76.5235L58.0954 75.2118C58.4372 74.5837 59.0954 74.1923 59.811 74.1923C60.5266 74.1923 61.1848 74.5833 61.5266 75.2118L62.2403 76.5232L63.5137 72.6235C63.8485 71.5982 64.9512 71.0376 65.9766 71.3732C67.002 71.7079 67.5622 72.8107 67.227 73.836L64.5473 82.0431C64.3051 82.7845 63.6454 83.3107 62.8688 83.3817C62.8086 83.3876 62.7489 83.3903 62.6895 83.3903Z" fill="#6583FE"/>
<path d="M79.4086 83.3903C78.6984 83.3903 78.0375 83.0028 77.6934 82.3708L76.5297 80.2318L75.366 82.3708C74.993 83.0556 74.2477 83.454 73.4723 83.3821C72.6957 83.311 72.0359 82.7849 71.7938 82.0435L69.1141 73.8364C68.7793 72.811 69.3391 71.7083 70.3645 71.3735C71.3898 71.0388 72.4926 71.5985 72.8274 72.6239L74.1008 76.5235L74.8149 75.2118C75.1566 74.5837 75.8149 74.1923 76.5305 74.1923C77.2461 74.1923 77.9043 74.5833 78.2461 75.2118L78.9598 76.5232L80.2332 72.6235C80.568 71.5982 81.6707 71.0376 82.6961 71.3732C83.7215 71.7079 84.2817 72.8107 83.9465 73.836L81.2668 82.0431C81.0246 82.7845 80.3649 83.3107 79.5883 83.3817C79.5277 83.3876 79.468 83.3903 79.4086 83.3903Z" fill="#6583FE"/>
<path d="M124.547 71.3688C125.753 71.3688 126.731 72.3465 126.731 73.5524C126.731 74.7582 125.753 75.736 124.547 75.736C123.342 75.736 122.364 74.7582 122.364 73.5524C122.364 72.3465 123.341 71.3688 124.547 71.3688Z" fill="#FF5BA8"/>
<path d="M131.153 71.3688C132.359 71.3688 133.336 72.3465 133.336 73.5524C133.336 74.7582 132.359 75.736 131.153 75.736C129.947 75.736 128.969 74.7582 128.969 73.5524C128.969 72.3465 129.947 71.3688 131.153 71.3688Z" fill="#FF5BA8"/>
<path d="M137.758 71.3688C138.964 71.3688 139.942 72.3465 139.942 73.5524C139.942 74.7582 138.964 75.736 137.758 75.736C136.552 75.736 135.575 74.7582 135.575 73.5524C135.575 72.3465 136.552 71.3688 137.758 71.3688Z" fill="#FF5BA8"/>
<path d="M114.512 77.7664C114.512 74.1879 111.6 71.277 108.022 71.277C104.444 71.277 101.533 74.1883 101.533 77.7664C101.533 79.5313 102.243 81.1317 103.39 82.3028C102.243 83.4739 101.533 85.0743 101.533 86.8391C101.533 87.9176 102.407 88.7922 103.486 88.7922C104.564 88.7922 105.439 87.9176 105.439 86.8391C105.439 85.4149 106.598 84.2559 108.022 84.2559C109.447 84.2559 110.605 85.4149 110.605 86.8391C110.605 87.9176 111.48 88.7922 112.559 88.7922C113.637 88.7922 114.512 87.9176 114.512 86.8391C114.512 85.0743 113.802 83.4739 112.654 82.3028C113.802 81.1317 114.512 79.5309 114.512 77.7664ZM108.022 75.1828C109.447 75.1828 110.605 76.3418 110.605 77.766C110.605 79.1903 109.447 80.3492 108.022 80.3492C106.598 80.3492 105.439 79.1903 105.439 77.766C105.439 76.3418 106.598 75.1828 108.022 75.1828Z" fill="#4369FD"/>
<path d="M52.3692 175.52C51.8692 175.52 51.3696 175.33 50.988 174.949L46.6841 170.645C46.3177 170.278 46.1122 169.782 46.1122 169.263C46.1122 168.745 46.318 168.249 46.6841 167.882L50.988 163.578C51.7509 162.816 52.9872 162.816 53.7501 163.578L58.054 167.882C58.4204 168.249 58.6259 168.745 58.6259 169.263C58.6259 169.782 58.42 170.278 58.054 170.645L53.7505 174.948C53.3688 175.329 52.8692 175.52 52.3692 175.52ZM50.8274 169.263L52.3692 170.805L53.911 169.263L52.3692 167.721L50.8274 169.263Z" fill="#97FFD2"/>
<path d="M143.012 170.749C142.512 170.749 142.013 170.559 141.631 170.177L137.327 165.874C136.961 165.507 136.755 165.011 136.755 164.492C136.755 163.974 136.961 163.477 137.327 163.111L141.631 158.807C142.394 158.045 143.63 158.045 144.393 158.807L148.697 163.111C149.063 163.477 149.269 163.974 149.269 164.492C149.269 165.011 149.063 165.507 148.697 165.874L144.393 170.177C144.012 170.558 143.512 170.749 143.012 170.749ZM141.47 164.492L143.012 166.034L144.554 164.492L143.012 162.95L141.47 164.492Z" fill="#FF7EB8"/>
<path d="M167.962 181.38C167.462 181.38 166.962 181.189 166.581 180.808L162.277 176.504C161.911 176.138 161.705 175.641 161.705 175.123C161.705 174.604 161.911 174.108 162.277 173.742L166.581 169.438C167.344 168.675 168.58 168.675 169.343 169.438L173.647 173.742C174.013 174.108 174.219 174.604 174.219 175.123C174.219 175.641 174.013 176.138 173.647 176.504L169.343 180.808C168.962 181.189 168.462 181.38 167.962 181.38ZM166.42 175.122L167.962 176.664L169.504 175.122L167.962 173.581L166.42 175.122Z" fill="#6583FE"/>
<path d="M79.0727 29.5027C77.9942 29.5027 77.1196 28.6281 77.1196 27.5496C77.1196 26.2535 76.0649 25.1988 74.7688 25.1988C73.6903 25.1988 72.8157 24.3242 72.8157 23.2457C72.8157 22.1672 73.6903 21.2926 74.7688 21.2926C76.0649 21.2926 77.1196 20.2379 77.1196 18.9418C77.1196 17.8633 77.9942 16.9886 79.0727 16.9886C80.1512 16.9886 81.0258 17.8633 81.0258 18.9418C81.0258 20.2379 82.0805 21.2926 83.3766 21.2926C84.4551 21.2926 85.3297 22.1672 85.3297 23.2457C85.3297 24.3242 84.4551 25.1988 83.3766 25.1988C82.0805 25.1988 81.0258 26.2535 81.0258 27.5496C81.0258 28.6285 80.1512 29.5027 79.0727 29.5027Z" fill="#6583FE"/>
</g>
<defs>
<linearGradient id="paint0_linear" x1="11.6676" y1="42.7481" x2="194.727" y2="173.094" gradientUnits="userSpaceOnUse">
<stop offset="0.0485" stop-color="#D2DEFF"/>
<stop offset="0.9993" stop-color="#DCFDEE"/>
</linearGradient>
<clipPath id="clip0">
<rect width="200" height="200" fill="white"/>
</clipPath>
</defs>
</svg>
