<svg width="200" height="200" viewBox="0 0 200 200" fill="none" xmlns="http://www.w3.org/2000/svg">
<g clip-path="url(#clip0)">
<path d="M149.455 67.9758C149.38 67.9754 149.305 67.975 149.23 67.975C136.717 67.9555 124.861 62.5672 116.636 53.1367C104.384 39.0883 86.3238 30.2375 66.1984 30.327C29.6703 30.4891 -0.46679 61.1789 0.00547604 97.7043C0.475398 134.027 30.066 163.327 66.5004 163.327C76.7906 163.327 86.534 160.989 95.2297 156.815C102.727 153.216 111.661 154.165 118.264 159.221C126.804 165.763 137.479 169.656 149.063 169.676C176.947 169.722 199.837 147.012 199.999 119.129C200.163 90.984 177.561 68.1414 149.455 67.9758Z" fill="url(#paint0_linear)"/>
<path opacity="0.1" d="M177.926 56.8903C177.926 39.7153 164.003 25.7919 146.828 25.7919C133.73 25.7919 122.531 33.8934 117.949 45.3552H24.388C20.7329 45.3552 17.77 48.318 17.77 51.9727V138.241C17.77 141.896 20.7329 144.859 24.388 144.859H144.875C148.53 144.859 151.493 141.896 151.493 138.241V87.6391C166.455 85.3884 177.926 72.4798 177.926 56.8903Z" fill="#2626BC"/>
<path d="M104.483 178.513H64.7793L69.9539 157.999L72.7191 147.041H96.5434L99.3086 157.999L104.483 178.513Z" fill="#9FB0FE"/>
<path d="M99.3085 157.999H69.9539L72.7191 147.041H96.5433L99.3085 157.999Z" fill="#8399FE"/>
<path d="M144.875 153.062H24.388C20.7329 153.062 17.77 150.099 17.77 146.444V60.1762C17.77 56.5211 20.7329 53.5586 24.388 53.5586H144.875C148.53 53.5586 151.493 56.5215 151.493 60.1762V146.444C151.493 150.099 148.53 153.062 144.875 153.062Z" fill="white"/>
<path d="M144.875 53.5582H101.559V153.062H144.875C148.53 153.062 151.493 150.099 151.493 146.444V60.1762C151.493 56.5211 148.53 53.5582 144.875 53.5582Z" fill="#FFC4DF"/>
<path d="M64.7281 130.255H53.0168C51.9117 130.255 51.0156 129.359 51.0156 128.254C51.0156 127.148 51.9113 126.252 53.0168 126.252H64.7281C65.8332 126.252 66.7293 127.148 66.7293 128.254C66.7293 129.359 65.8332 130.255 64.7281 130.255Z" fill="#B7C5FF"/>
<path d="M79.527 130.255H74.6141C73.509 130.255 72.6129 129.359 72.6129 128.254C72.6129 127.148 73.5086 126.252 74.6141 126.252H79.527C80.6321 126.252 81.5282 127.148 81.5282 128.254C81.5282 129.359 80.6324 130.255 79.527 130.255Z" fill="#FFA8CF"/>
<path d="M79.527 138.192H53.0168C51.9117 138.192 51.0156 137.296 51.0156 136.191C51.0156 135.086 51.9113 134.19 53.0168 134.19H79.527C80.632 134.19 81.5281 135.086 81.5281 136.191C81.5281 137.296 80.6324 138.192 79.527 138.192Z" fill="#B7C5FF"/>
<path d="M34.9255 136.337C34.4075 136.337 33.9107 136.131 33.5447 135.765L30.8189 133.04C30.056 132.277 30.056 131.04 30.8189 130.277C31.581 129.515 32.8185 129.515 33.5806 130.277L34.9251 131.622L39.722 126.825C40.4841 126.063 41.7216 126.063 42.4837 126.825C43.2466 127.588 43.2466 128.825 42.4837 129.587L36.306 135.765C35.9404 136.131 35.4435 136.337 34.9255 136.337Z" fill="#4369FD"/>
<path d="M151.493 70.4211V60.1762C151.493 56.5211 148.53 53.5582 144.875 53.5582H24.388C20.7333 53.5582 17.77 56.5211 17.77 60.1762V70.4211H151.493Z" fill="#6583FE"/>
<path d="M17.77 135.422V146.444C17.77 150.099 20.7329 153.061 24.388 153.061H144.875C148.53 153.061 151.493 150.098 151.493 146.444V135.422H17.77Z" fill="#B7C5FF"/>
<path d="M31.1011 63.9684C30.0222 63.9684 29.1479 63.0938 29.1479 62.0153V61.9645C29.1479 60.886 30.0222 60.0114 31.1011 60.0114C32.18 60.0114 33.0542 60.886 33.0542 61.9645V62.0153C33.0542 63.0938 32.18 63.9684 31.1011 63.9684Z" fill="#2626BC"/>
<path d="M37.8656 63.9684C36.7867 63.9684 35.9125 63.0938 35.9125 62.0153V61.9645C35.9125 60.886 36.7867 60.0114 37.8656 60.0114C38.9445 60.0114 39.8187 60.886 39.8187 61.9645V62.0153C39.8187 63.0938 38.9445 63.9684 37.8656 63.9684Z" fill="#2626BC"/>
<path d="M44.6307 63.9684C43.5518 63.9684 42.6776 63.0938 42.6776 62.0153V61.9645C42.6776 60.886 43.5518 60.0114 44.6307 60.0114C45.7096 60.0114 46.5839 60.886 46.5839 61.9645V62.0153C46.5839 63.0938 45.7093 63.9684 44.6307 63.9684Z" fill="#2626BC"/>
<path d="M161.413 85.3269V138.135C161.413 141.253 157.944 143.116 155.346 141.393L148.987 137.175C147.678 136.307 145.979 136.307 144.671 137.175L138.307 141.393C135.714 143.116 132.245 141.253 132.245 138.135V85.3269H161.413Z" fill="#FF7EB8"/>
<path d="M161.413 85.3269V98.1941C156.952 100.171 152.014 101.268 146.827 101.268C141.643 101.268 136.71 100.171 132.245 98.1941V85.3269H161.413Z" fill="#FF5BA8"/>
<path d="M168.792 87.0888C180.935 74.9459 180.935 55.2584 168.792 43.1156C156.649 30.9727 136.962 30.9727 124.819 43.1156C112.676 55.2584 112.676 74.9459 124.819 87.0888C136.962 99.2316 156.649 99.2316 168.792 87.0888Z" fill="#97FFD2"/>
<path d="M162.996 81.2928C171.938 72.3509 171.938 57.8534 162.996 48.9116C154.054 39.9698 139.557 39.9698 130.615 48.9116C121.673 57.8534 121.673 72.3509 130.615 81.2928C139.557 90.2346 154.054 90.2346 162.996 81.2928Z" fill="#DCFDEE"/>
<path d="M143.57 72.918H141.487C138.945 72.918 136.877 70.8497 136.877 68.3075V61.879C136.877 59.3368 138.945 57.2688 141.487 57.2688H143.57C146.112 57.2688 148.18 59.3368 148.18 61.879V68.3075C148.18 70.8497 146.112 72.918 143.57 72.918ZM141.487 61.175C141.099 61.175 140.783 61.4911 140.783 61.879V68.3075C140.783 68.6958 141.099 69.0118 141.487 69.0118H143.57C143.958 69.0118 144.274 68.6958 144.274 68.3075V61.879C144.274 61.4907 143.958 61.175 143.57 61.175H141.487Z" fill="#FF7EB8"/>
<path d="M154.826 72.918C153.747 72.918 152.873 72.0434 152.873 70.9649V61.175H152.7C151.621 61.175 150.746 60.3004 150.746 59.2219C150.746 58.1434 151.621 57.2688 152.7 57.2688H154.826C155.905 57.2688 156.779 58.1434 156.779 59.2219V70.9649C156.779 72.0434 155.905 72.918 154.826 72.918Z" fill="#FF7EB8"/>
<path d="M146.828 124.222C147.907 124.222 148.781 123.347 148.781 122.268V98.0821C166.1 97.0673 179.879 82.6618 179.879 65.0934C179.879 46.8688 165.053 32.0419 146.828 32.0419C133.407 32.0419 121.837 40.0876 116.666 51.6052H24.3876C19.6614 51.6052 15.8169 55.4501 15.8169 60.1759V70.4212C15.8169 71.4997 16.6911 72.3743 17.77 72.3743H114.595C116.647 81.4634 122.451 89.1407 130.292 93.6919V133.469H19.7231V81.4251C19.7231 80.3466 18.8489 79.472 17.77 79.472C16.6911 79.472 15.8169 80.3466 15.8169 81.4251V146.444C15.8169 151.17 19.6618 155.015 24.3876 155.015H68.6931L63.2567 176.558H58.0501C56.9712 176.558 56.097 177.433 56.097 178.511C56.097 179.59 56.9712 180.465 58.0501 180.465H111.213C112.292 180.465 113.166 179.59 113.166 178.511C113.166 177.433 112.292 176.558 111.213 176.558H106.006L100.57 155.015H144.875C149.601 155.015 153.446 151.17 153.446 146.444V142.476L154.268 143.021C156.07 144.216 158.372 144.322 160.277 143.3C162.181 142.277 163.365 140.299 163.365 138.137V103.31C163.365 102.231 162.49 101.357 161.411 101.357C160.333 101.357 159.458 102.231 159.458 103.31V138.137C159.458 139.192 158.738 139.692 158.429 139.858C158.119 140.024 157.306 140.348 156.426 139.765L150.066 135.548C148.099 134.244 145.557 134.244 143.59 135.548L137.23 139.765C136.353 140.347 135.537 140.024 135.228 139.858C134.918 139.692 134.198 139.191 134.198 138.137V95.6313C137.52 97.0106 141.114 97.8618 144.875 98.0821V122.268C144.875 123.347 145.749 124.222 146.828 124.222ZM101.978 176.559H67.2853L72.7216 155.015H96.5419L101.978 176.559ZM136.152 143.998C137.283 143.998 138.41 143.67 139.389 143.021L145.749 138.804C146.405 138.37 147.252 138.37 147.908 138.804L149.54 139.887V146.445C149.54 149.016 147.447 151.109 144.875 151.109H24.3876C21.8153 151.109 19.7231 149.016 19.7231 146.445V137.376H130.292V138.138C130.292 140.3 131.475 142.278 133.38 143.3C134.25 143.766 135.202 143.998 136.152 143.998ZM19.7231 68.468V60.1759C19.7231 57.604 21.8153 55.5114 24.3876 55.5114H115.198C114.277 58.5462 113.777 61.7618 113.777 65.0934C113.777 66.2325 113.834 67.3583 113.948 68.468H19.7231ZM117.683 65.0934C117.683 61.4005 118.381 57.8696 119.639 54.6153C119.775 54.404 119.871 54.1653 119.918 53.9083C124.313 43.3731 134.718 35.9481 146.828 35.9481C162.899 35.9481 175.973 49.0227 175.973 65.0934C175.973 81.1641 162.898 94.2384 146.828 94.2384C130.758 94.2384 117.683 81.1641 117.683 65.0934Z" fill="#2626BC"/>
<path d="M64.7281 84.2699H53.0168C51.9117 84.2699 51.0156 83.3738 51.0156 82.2688C51.0156 81.1637 51.9113 80.2676 53.0168 80.2676H64.7281C65.8332 80.2676 66.7293 81.1637 66.7293 82.2688C66.7289 83.3738 65.8332 84.2699 64.7281 84.2699Z" fill="#B7C5FF"/>
<path d="M79.527 84.2699H74.6141C73.509 84.2699 72.6129 83.3738 72.6129 82.2688C72.6129 81.1637 73.5086 80.2676 74.6141 80.2676H79.527C80.6321 80.2676 81.5282 81.1637 81.5282 82.2688C81.5282 83.3738 80.6324 84.2699 79.527 84.2699Z" fill="#FFA8CF"/>
<path d="M79.527 92.2071H53.0168C51.9117 92.2071 51.0156 91.311 51.0156 90.2059C51.0156 89.1008 51.9113 88.2047 53.0168 88.2047H79.527C80.632 88.2047 81.5281 89.1008 81.5281 90.2059C81.5281 91.311 80.6324 92.2071 79.527 92.2071Z" fill="#B7C5FF"/>
<path d="M34.9255 90.3519C34.4075 90.3519 33.9107 90.1461 33.5447 89.7801L30.8189 87.0543C30.056 86.2914 30.056 85.0547 30.8189 84.2922C31.581 83.5297 32.8185 83.5297 33.5806 84.2922L34.9251 85.6367L39.722 80.8398C40.4841 80.0773 41.7216 80.0773 42.4837 80.8398C43.2466 81.6027 43.2466 82.8394 42.4837 83.6019L36.306 89.7801C35.9404 90.1461 35.4435 90.3519 34.9255 90.3519Z" fill="#4369FD"/>
<path d="M64.7281 107.262H53.0168C51.9117 107.262 51.0156 106.366 51.0156 105.261C51.0156 104.156 51.9113 103.26 53.0168 103.26H64.7281C65.8332 103.26 66.7293 104.156 66.7293 105.261C66.7289 106.366 65.8332 107.262 64.7281 107.262Z" fill="#B7C5FF"/>
<path d="M79.527 107.262H74.6141C73.509 107.262 72.6129 106.366 72.6129 105.261C72.6129 104.156 73.5086 103.26 74.6141 103.26H79.527C80.6321 103.26 81.5282 104.156 81.5282 105.261C81.5282 106.366 80.6324 107.262 79.527 107.262Z" fill="#FFA8CF"/>
<path d="M79.527 115.2H53.0168C51.9117 115.2 51.0156 114.304 51.0156 113.198C51.0156 112.093 51.9113 111.197 53.0168 111.197H79.527C80.632 111.197 81.5281 112.093 81.5281 113.198C81.5281 114.304 80.6324 115.2 79.527 115.2Z" fill="#B7C5FF"/>
<path d="M34.9255 113.344C34.4075 113.344 33.9107 113.139 33.5447 112.773L30.8189 110.047C30.056 109.284 30.056 108.047 30.8189 107.285C31.581 106.522 32.8185 106.522 33.5806 107.285L34.9251 108.629L39.722 103.832C40.4841 103.07 41.7216 103.07 42.4837 103.832C43.2466 104.595 43.2466 105.832 42.4837 106.594L36.306 112.773C35.9404 113.139 35.4435 113.344 34.9255 113.344Z" fill="#4369FD"/>
<path d="M115.879 107.495C115.38 107.495 114.88 107.304 114.498 106.923C113.736 106.16 113.736 104.924 114.498 104.161L115.399 103.261L114.498 102.36C113.736 101.597 113.736 100.36 114.498 99.5977C115.261 98.8352 116.498 98.8348 117.261 99.5977L119.542 101.879C120.304 102.642 120.304 103.879 119.542 104.641L117.261 106.922C116.879 107.304 116.379 107.495 115.879 107.495Z" fill="#2626BC"/>
<path d="M97.0598 85.3445H106.059C106.707 85.3445 107.233 85.8699 107.233 86.5183V120.102C107.233 120.75 106.707 121.275 106.059 121.275H97.0598C96.4114 121.275 95.886 120.75 95.886 120.102V86.5183C95.886 85.8699 96.4114 85.3445 97.0598 85.3445Z" fill="#97FFD2"/>
<path d="M104.483 37.5824C103.984 37.5824 103.484 37.3918 103.102 37.0105L98.7981 32.7066C98.4317 32.3402 98.2258 31.8437 98.2258 31.3254C98.2258 30.807 98.4313 30.3105 98.7981 29.9441L103.102 25.6402C103.469 25.2738 103.965 25.0684 104.483 25.0684C105.001 25.0684 105.498 25.2742 105.864 25.6402L110.168 29.9441C110.931 30.707 110.931 31.9437 110.168 32.7062L105.864 37.0102C105.483 37.3914 104.983 37.5824 104.483 37.5824ZM102.941 31.3254L104.483 32.8672L106.025 31.3254L104.483 29.7836L102.941 31.3254Z" fill="#FF7EB8"/>
<path d="M43.0563 180.465C42.5383 180.465 42.0414 180.259 41.6754 179.893L37.3715 175.589C36.6086 174.826 36.6086 173.589 37.3715 172.827L41.6754 168.523C42.0418 168.157 42.5383 167.951 43.0563 167.951C43.5742 167.951 44.0711 168.157 44.4371 168.523L48.7414 172.827C49.1078 173.193 49.3137 173.69 49.3137 174.208C49.3137 174.727 49.1082 175.223 48.7414 175.589L44.4371 179.893C44.0711 180.259 43.5746 180.465 43.0563 180.465ZM41.5148 174.208L43.0563 175.75L44.598 174.208L43.0563 172.666L41.5148 174.208Z" fill="#FF7EB8"/>
<path d="M177.926 101.584C176.847 101.584 175.973 100.709 175.973 99.6308C175.973 98.3347 174.919 97.2804 173.623 97.2804C172.544 97.2804 171.669 96.4058 171.669 95.3273C171.669 94.2488 172.544 93.3742 173.623 93.3742C174.918 93.3742 175.973 92.3199 175.973 91.0238C175.973 89.9453 176.847 89.0707 177.926 89.0707C179.005 89.0707 179.879 89.9453 179.879 91.0238C179.879 92.3199 180.933 93.3742 182.23 93.3742C183.309 93.3742 184.183 94.2488 184.183 95.3273C184.183 96.4058 183.309 97.2804 182.23 97.2804C180.934 97.2804 179.879 98.3347 179.879 99.6308C179.879 100.709 179.005 101.584 177.926 101.584Z" fill="#6583FE"/>
<path d="M86.7185 32.0484C85.6395 32.0484 84.7653 31.1738 84.7653 30.0953C84.7653 28.7992 83.711 27.7449 82.4146 27.7449C81.3356 27.7449 80.4614 26.8703 80.4614 25.7918C80.4614 24.7133 81.3356 23.8387 82.4146 23.8387C83.7106 23.8387 84.7653 22.7844 84.7653 21.4883C84.7653 20.4098 85.6395 19.5352 86.7185 19.5352C87.7974 19.5352 88.6716 20.4098 88.6716 21.4883C88.6716 22.7844 89.7259 23.8387 91.022 23.8387C92.1009 23.8387 92.9751 24.7133 92.9751 25.7918C92.9751 26.8703 92.1009 27.7449 91.022 27.7449C89.7263 27.7449 88.6716 28.7992 88.6716 30.0953C88.6716 31.1738 87.7974 32.0484 86.7185 32.0484Z" fill="#97FFD2"/>
</g>
<defs>
<linearGradient id="paint0_linear" x1="11.5359" y1="49.5125" x2="186.927" y2="173.149" gradientUnits="userSpaceOnUse">
<stop stop-color="#FFDBED"/>
<stop offset="1" stop-color="#DCFDEE"/>
</linearGradient>
<clipPath id="clip0">
<rect width="200" height="200" fill="white"/>
</clipPath>
</defs>
</svg>
