<svg width="200" height="200" viewBox="0 0 200 200" fill="none" xmlns="http://www.w3.org/2000/svg">
<g clip-path="url(#clip0)">
<path d="M149.455 66.9989C149.38 66.9985 149.305 66.9981 149.23 66.9981C136.717 66.9785 124.861 61.5903 116.636 52.1598C104.384 38.1114 86.3238 29.2606 66.1984 29.35C29.6703 29.5118 -0.46679 60.2016 0.00547604 96.7266C0.475398 133.049 30.066 162.35 66.5004 162.35C76.7906 162.35 86.534 160.011 95.2297 155.837C102.727 152.238 111.661 153.187 118.264 158.244C126.804 164.785 137.479 168.679 149.063 168.698C176.947 168.745 199.837 146.034 199.999 118.151C200.163 90.0067 177.561 67.1641 149.455 66.9989Z" fill="url(#paint0_linear)"/>
<path opacity="0.1" d="M190.725 115.557L178.952 112.205C177.799 107.505 175.943 103.078 173.5 99.0504L179.457 88.3512C179.962 87.4415 179.804 86.304 179.068 85.5676L171.021 77.5211C170.285 76.7848 169.147 76.6266 168.237 77.1317L157.538 83.0883C153.511 80.6454 149.084 78.7899 144.384 77.6368L141.032 65.8637C140.746 64.8598 139.83 64.1692 138.787 64.1692H127.409C126.366 64.1692 125.45 64.8598 125.164 65.8637L121.812 77.6368C117.112 78.7899 112.685 80.6454 108.657 83.0883L97.9582 77.1317C97.0484 76.6266 95.9109 76.7848 95.1746 77.5211L87.1281 85.5676C86.3917 86.304 86.2335 87.4415 86.7386 88.3512L92.6953 99.0504C90.2523 103.078 88.3968 107.505 87.2437 112.205L75.4707 115.557C74.4667 115.843 73.7761 116.759 73.7761 117.802V129.18C73.7761 130.223 74.4667 131.139 75.4707 131.425L87.2437 134.777C88.3968 139.477 90.2523 143.904 92.6953 147.931L86.7386 158.631C86.2335 159.54 86.3917 160.678 87.1281 161.414L95.1746 169.461C95.9109 170.197 97.0484 170.355 97.9582 169.85L108.657 163.893C112.685 166.336 117.111 168.192 121.812 169.345L125.164 181.118C125.45 182.122 126.366 182.813 127.409 182.813H138.787C139.83 182.813 140.746 182.122 141.032 181.118L144.384 169.345C149.084 168.192 153.511 166.336 157.538 163.893L168.237 169.85C169.147 170.355 170.285 170.197 171.021 169.461L179.068 161.414C179.804 160.678 179.962 159.54 179.457 158.631L173.5 147.931C175.943 143.904 177.799 139.477 178.952 134.777L190.725 131.425C191.729 131.139 192.419 130.223 192.419 129.18V117.802C192.419 116.759 191.729 115.843 190.725 115.557ZM133.098 152.692C116.971 152.692 103.896 139.617 103.896 123.491C103.896 107.364 116.971 94.2891 133.098 94.2891C149.224 94.2891 162.299 107.364 162.299 123.491C162.299 139.617 149.224 152.692 133.098 152.692Z" fill="#2626BC"/>
<path opacity="0.1" d="M70.7304 97.5625L64.3734 95.7523C63.7508 93.2145 62.7488 90.8242 61.4297 88.6492L64.6461 82.8719C64.9187 82.3809 64.8332 81.7664 64.4359 81.3687L60.091 77.0238C59.6933 76.6262 59.0793 76.541 58.5879 76.8137L52.8105 80.0301C50.6355 78.7109 48.2453 77.709 45.7074 77.0863L43.8972 70.7293C43.7429 70.1871 43.2484 69.8145 42.6847 69.8145H36.541C35.9777 69.8145 35.4832 70.1875 35.3285 70.7293L33.5183 77.0863C30.9804 77.709 28.5902 78.7109 26.4152 80.0301L20.6379 76.8137C20.1469 76.541 19.5324 76.6266 19.1347 77.0238L14.7898 81.3687C14.3922 81.7664 14.307 82.3805 14.5797 82.8719L17.7961 88.6492C16.4769 90.8242 15.475 93.2145 14.8523 95.7523L8.49529 97.5625C7.9531 97.7168 7.58044 98.2113 7.58044 98.775V104.919C7.58044 105.482 7.95349 105.977 8.49529 106.131L14.8523 107.941C15.475 110.479 16.4769 112.869 17.7961 115.044L14.5797 120.821C14.307 121.313 14.3926 121.927 14.7898 122.325L19.1347 126.67C19.5324 127.067 20.1465 127.152 20.6379 126.88L26.4152 123.663C28.5902 124.982 30.9804 125.984 33.5183 126.607L35.3285 132.964C35.4828 133.506 35.9773 133.879 36.541 133.879H42.6847C43.248 133.879 43.7426 133.506 43.8972 132.964L45.7074 126.607C48.2453 125.984 50.6355 124.982 52.8105 123.663L58.5879 126.88C59.0789 127.152 59.6933 127.067 60.091 126.67L64.4359 122.325C64.8336 121.927 64.9187 121.313 64.6461 120.821L61.4297 115.044C62.7488 112.869 63.7508 110.479 64.3734 107.941L70.7304 106.131C71.2726 105.977 71.6453 105.482 71.6453 104.919V98.775C71.6453 98.2113 71.2726 97.7172 70.7304 97.5625ZM39.6129 111.922C34.0488 111.922 29.5375 107.411 29.5375 101.847C29.5375 96.2828 34.0488 91.7715 39.6129 91.7715C45.1769 91.7715 49.6883 96.2828 49.6883 101.847C49.6883 107.411 45.1769 111.922 39.6129 111.922Z" fill="#2626BC"/>
<path opacity="0.1" d="M113.476 36.9133L106.63 34.9637C105.959 32.2305 104.88 29.6566 103.46 27.3145L106.923 21.093C107.217 20.5641 107.125 19.9023 106.697 19.4742L102.018 14.7953C101.59 14.3672 100.928 14.2754 100.399 14.5687L94.1776 18.0324C91.8354 16.6121 89.2616 15.5328 86.5284 14.8625L84.5788 8.01641C84.4124 7.43281 83.88 7.03125 83.2733 7.03125H76.6573C76.0507 7.03125 75.5183 7.43281 75.3519 8.01641L73.4022 14.8625C70.669 15.5328 68.0952 16.6121 65.753 18.0324L59.5315 14.5687C59.0026 14.275 58.3409 14.3672 57.9128 14.7953L53.2343 19.4746C52.8062 19.9027 52.7144 20.5645 53.0077 21.0934L56.4714 27.3148C55.0511 29.657 53.9718 32.2309 53.3015 34.9641L46.4554 36.9137C45.8718 37.0801 45.4702 37.6125 45.4702 38.2191V44.8352C45.4702 45.4418 45.8718 45.9742 46.4554 46.1406L53.3015 48.0902C53.9718 50.8234 55.0511 53.3973 56.4714 55.7394L53.0077 61.9609C52.714 62.4898 52.8062 63.1516 53.2343 63.5797L57.9132 68.2586C58.3413 68.6867 59.003 68.7785 59.5319 68.4852L65.7534 65.0215C68.0956 66.4422 70.6694 67.5211 73.4026 68.1914L75.3522 75.0375C75.5186 75.6211 76.0511 76.0227 76.6577 76.0227H83.2737C83.8804 76.0227 84.4128 75.6211 84.5792 75.0375L86.5288 68.1914C89.262 67.5211 91.8358 66.4418 94.178 65.0215L100.4 68.4852C100.928 68.7789 101.59 68.6867 102.018 68.2586L106.697 63.5797C107.125 63.1516 107.217 62.4898 106.924 61.9609L103.46 55.7394C104.88 53.3973 105.96 50.8234 106.63 48.0902L113.476 46.1406C114.06 45.9742 114.461 45.4418 114.461 44.8352V38.2187C114.461 37.6121 114.059 37.0797 113.476 36.9133ZM79.9655 54.9453C72.5554 54.9453 66.5472 48.9371 66.5472 41.527C66.5472 34.1168 72.5554 28.1086 79.9655 28.1086C87.3757 28.1086 93.3839 34.1168 93.3839 41.527C93.3839 48.9371 87.3757 54.9453 79.9655 54.9453Z" fill="#2626BC"/>
<path d="M190.725 123.761L178.952 120.408C177.799 115.708 175.943 111.282 173.5 107.254L179.457 96.5547C179.962 95.6449 179.804 94.5074 179.068 93.7711L171.021 85.7246C170.285 84.9883 169.147 84.8301 168.238 85.3352L157.538 91.2918C153.511 88.8489 149.084 86.9934 144.384 85.8403L141.032 74.0672C140.746 73.0633 139.83 72.3727 138.787 72.3727H127.409C126.366 72.3727 125.45 73.0633 125.164 74.0672L121.812 85.8403C117.112 86.9934 112.685 88.8489 108.657 91.2918L97.9583 85.3352C97.0485 84.8301 95.911 84.9883 95.1747 85.7246L87.1282 93.7711C86.3919 94.5074 86.2337 95.6449 86.7387 96.5547L92.6954 107.254C90.2524 111.282 88.3969 115.708 87.2438 120.408L75.4708 123.761C74.4669 124.047 73.7762 124.962 73.7762 126.005V137.383C73.7762 138.427 74.4669 139.342 75.4708 139.628L87.2438 142.98C88.3969 147.68 90.2524 152.107 92.6954 156.135L86.7387 166.834C86.2337 167.744 86.3919 168.881 87.1282 169.618L95.1747 177.664C95.911 178.4 97.0485 178.559 97.9583 178.054L108.657 172.097C112.685 174.54 117.111 176.395 121.812 177.548L125.164 189.321C125.45 190.325 126.366 191.016 127.409 191.016H138.787C139.83 191.016 140.746 190.325 141.032 189.321L144.384 177.548C149.084 176.395 153.511 174.54 157.538 172.097L168.238 178.054C169.147 178.559 170.285 178.4 171.021 177.664L179.068 169.618C179.804 168.881 179.962 167.744 179.457 166.834L173.5 156.135C175.943 152.107 177.799 147.68 178.952 142.98L190.725 139.628C191.729 139.342 192.42 138.427 192.42 137.383V126.005C192.42 124.962 191.729 124.046 190.725 123.761ZM133.098 160.895C116.972 160.895 103.896 147.82 103.896 131.694C103.896 115.567 116.971 102.492 133.098 102.492C149.224 102.492 162.299 115.567 162.299 131.694C162.299 147.82 149.224 160.895 133.098 160.895Z" fill="#9FB0FE"/>
<path d="M70.7304 105.766L64.3734 103.955C63.7508 101.418 62.7488 99.0273 61.4297 96.8523L64.6461 91.075C64.9187 90.584 64.8332 89.9695 64.4359 89.5719L60.091 85.227C59.6933 84.8293 59.0793 84.7441 58.5879 85.0168L52.8105 88.2332C50.6355 86.9141 48.2453 85.9121 45.7074 85.2895L43.8972 78.9324C43.7429 78.3902 43.2484 78.0176 42.6847 78.0176H36.541C35.9777 78.0176 35.4832 78.3906 35.3285 78.9324L33.5183 85.2895C30.9804 85.9121 28.5902 86.9141 26.4152 88.2332L20.6379 85.0168C20.1469 84.7441 19.5324 84.8297 19.1347 85.227L14.7898 89.5719C14.3922 89.9695 14.307 90.5836 14.5797 91.075L17.7961 96.8523C16.4769 99.0273 15.475 101.418 14.8523 103.955L8.49529 105.766C7.9531 105.92 7.58044 106.414 7.58044 106.978V113.121C7.58044 113.685 7.95349 114.179 8.49529 114.334L14.8523 116.144C15.475 118.682 16.4769 121.072 17.7961 123.247L14.5797 129.024C14.307 129.515 14.3926 130.13 14.7898 130.527L19.1347 134.872C19.5324 135.27 20.1465 135.355 20.6379 135.082L26.4152 131.866C28.5902 133.185 30.9804 134.187 33.5183 134.81L35.3285 141.167C35.4828 141.709 35.9773 142.082 36.541 142.082H42.6847C43.248 142.082 43.7426 141.709 43.8972 141.167L45.7074 134.81C48.2453 134.187 50.6355 133.185 52.8105 131.866L58.5879 135.082C59.0789 135.355 59.6933 135.27 60.091 134.872L64.4359 130.527C64.8336 130.13 64.9187 129.516 64.6461 129.024L61.4297 123.247C62.7488 121.072 63.7508 118.682 64.3734 116.144L70.7304 114.334C71.2726 114.179 71.6453 113.685 71.6453 113.121V106.978C71.6453 106.415 71.2726 105.92 70.7304 105.766ZM39.6129 120.125C34.0488 120.125 29.5375 115.614 29.5375 110.05C29.5375 104.486 34.0488 99.9746 39.6129 99.9746C45.1769 99.9746 49.6883 104.486 49.6883 110.05C49.6883 115.614 45.1769 120.125 39.6129 120.125Z" fill="#FF7EB8"/>
<path d="M113.476 45.1164L106.63 43.1668C105.959 40.4336 104.88 37.8598 103.46 35.5176L106.923 29.2961C107.217 28.7672 107.125 28.1055 106.697 27.6773L102.018 22.9984C101.59 22.5703 100.928 22.4785 100.399 22.7719L94.1778 26.2355C91.8356 24.8152 89.2617 23.7359 86.5285 23.0656L84.5789 16.2195C84.4125 15.6359 83.8801 15.2344 83.2735 15.2344H76.6574C76.0508 15.2344 75.5184 15.6359 75.352 16.2195L73.4024 23.0656C70.6692 23.7359 68.0953 24.8152 65.7532 26.2355L59.5317 22.7719C59.0028 22.4781 58.341 22.5703 57.9129 22.9984L53.2344 27.6777C52.8063 28.1059 52.7145 28.7676 53.0078 29.2965L56.4715 35.518C55.0512 37.8602 53.9719 40.434 53.3016 43.1672L46.4555 45.1168C45.8719 45.2832 45.4703 45.8156 45.4703 46.4223V53.0383C45.4703 53.6449 45.8719 54.1773 46.4555 54.3437L53.3016 56.2934C53.9719 59.0266 55.0512 61.6004 56.4715 63.9426L53.0078 70.1641C52.7141 70.693 52.8063 71.3547 53.2344 71.7828L57.9133 76.4617C58.3414 76.8898 59.0031 76.9816 59.5321 76.6883L65.7535 73.2246C68.0957 74.6453 70.6696 75.7242 73.4028 76.3945L75.3524 83.2406C75.5188 83.8242 76.0512 84.2258 76.6578 84.2258H83.2739C83.8805 84.2258 84.4129 83.8242 84.5793 83.2406L86.5289 76.3945C89.2621 75.7242 91.836 74.6449 94.1782 73.2246L100.4 76.6883C100.929 76.982 101.59 76.8898 102.018 76.4617L106.697 71.7828C107.125 71.3547 107.217 70.693 106.924 70.1641L103.46 63.9426C104.881 61.6004 105.96 59.0266 106.63 56.2934L113.476 54.3437C114.06 54.1773 114.461 53.6449 114.461 53.0383V46.4223C114.461 45.8152 114.059 45.2828 113.476 45.1164ZM79.9657 63.1484C72.5555 63.1484 66.5473 57.1402 66.5473 49.7301C66.5473 42.3199 72.5555 36.3117 79.9657 36.3117C87.3758 36.3117 93.384 42.3199 93.384 49.7301C93.384 57.1402 87.3758 63.1484 79.9657 63.1484Z" fill="#97FFD2"/>
<path d="M138.787 192.969H127.409C125.504 192.969 123.808 191.689 123.286 189.856L120.24 179.16C116.176 178.062 112.28 176.447 108.629 174.348L98.9086 179.76C97.2422 180.685 95.1399 180.391 93.7938 179.045L85.7473 170.998C84.402 169.653 84.1075 167.55 85.0313 165.886L90.4442 156.163C88.345 152.513 86.7301 148.617 85.6325 144.552L74.9364 141.506C73.1036 140.984 71.8235 139.289 71.8235 137.383V126.005C71.8235 124.1 73.1032 122.404 74.9356 121.882L85.6325 118.836C86.7305 114.772 88.345 110.875 90.4442 107.225L85.0325 97.5047C84.1075 95.8379 84.402 93.7356 85.7473 92.3899L93.7938 84.3434C95.1395 82.9973 97.2418 82.7036 98.9067 83.6274L108.629 89.0399C112.28 86.9407 116.176 85.3262 120.24 84.2282L123.286 73.5321C123.808 71.6993 125.504 70.4192 127.41 70.4192H138.787C140.693 70.4192 142.388 71.6989 142.911 73.5317L145.956 84.2282C150.021 85.3262 153.917 86.9411 157.567 89.0399L167.288 83.6282C168.954 82.7028 171.057 82.9973 172.402 84.343L180.449 92.3895C181.795 93.7352 182.089 95.8379 181.165 97.5024L175.752 107.225C177.852 110.875 179.466 114.771 180.564 118.836L191.26 121.881H191.261C193.093 122.404 194.373 124.099 194.373 126.005V137.383C194.373 139.289 193.093 140.984 191.26 141.506L180.564 144.552C179.466 148.617 177.851 152.513 175.752 156.163L181.164 165.884C182.089 167.55 181.795 169.652 180.449 170.998L172.402 179.045C171.057 180.391 168.954 180.685 167.289 179.761L157.567 174.348C153.917 176.447 150.021 178.062 145.956 179.16L142.911 189.856C142.388 191.689 140.692 192.969 138.787 192.969ZM108.657 170.143C109.009 170.143 109.359 170.238 109.67 170.427C113.587 172.802 117.829 174.56 122.277 175.651C122.959 175.818 123.498 176.338 123.69 177.013L127.043 188.786C127.09 188.952 127.237 189.063 127.409 189.063H138.786C138.959 189.063 139.106 188.951 139.153 188.786L142.506 177.013C142.698 176.338 143.237 175.818 143.919 175.651C148.367 174.56 152.609 172.802 156.525 170.427C157.126 170.063 157.875 170.049 158.488 170.39L169.188 176.347C169.334 176.428 169.52 176.402 169.64 176.283L177.687 168.236C177.806 168.117 177.832 167.93 177.75 167.782L171.794 157.085C171.453 156.472 171.467 155.722 171.831 155.122C174.206 151.205 175.964 146.963 177.055 142.515C177.222 141.834 177.742 141.295 178.417 141.102L190.19 137.75C190.355 137.703 190.466 137.556 190.466 137.383V126.006C190.466 125.833 190.355 125.686 190.19 125.639L178.417 122.286C177.742 122.094 177.222 121.555 177.055 120.873C175.964 116.425 174.206 112.183 171.831 108.266C171.466 107.666 171.452 106.917 171.794 106.304L177.75 95.6043C177.832 95.4579 177.806 95.2711 177.686 95.152L169.64 87.1055C169.52 86.986 169.334 86.9602 169.186 87.0426L158.488 92.9981C157.875 93.3395 157.126 93.3258 156.525 92.9614C152.609 90.586 148.367 88.8282 143.919 87.7368C143.237 87.5696 142.698 87.0497 142.506 86.3747L139.154 74.6016C139.106 74.4368 138.959 74.3254 138.787 74.3254H127.409C127.237 74.3254 127.09 74.4364 127.043 74.602L123.69 86.3747C123.498 87.0497 122.959 87.5696 122.277 87.7368C117.829 88.8278 113.588 90.5856 109.671 92.9614C109.07 93.3258 108.321 93.3395 107.708 92.9981L97.0086 87.0415C96.8622 86.9602 96.6754 86.986 96.5563 87.1055L88.5098 95.152C88.3903 95.2711 88.3645 95.4583 88.4469 95.6067L94.4024 106.304C94.7438 106.917 94.7297 107.666 94.3661 108.266C91.9903 112.183 90.2325 116.425 89.1415 120.873C88.9743 121.555 88.4543 122.094 87.7793 122.286L76.0063 125.639C75.8415 125.686 75.7301 125.833 75.7301 126.006V137.383C75.7301 137.555 75.8411 137.702 76.0067 137.749L87.7797 141.102C88.4547 141.294 88.9747 141.834 89.1418 142.515C90.2329 146.963 91.9907 151.205 94.3665 155.122C94.7305 155.722 94.7442 156.471 94.4028 157.084L88.4461 167.784C88.3649 167.93 88.3907 168.117 88.5102 168.236L96.5567 176.282C96.6758 176.402 96.8629 176.428 97.011 176.345L107.708 170.39C108.003 170.225 108.331 170.143 108.657 170.143ZM133.098 162.848C115.919 162.848 101.943 148.873 101.943 131.694C101.943 125.55 103.735 119.601 107.125 114.493C107.722 113.594 108.934 113.349 109.833 113.945C110.732 114.542 110.977 115.754 110.38 116.653C107.416 121.119 105.85 126.321 105.85 131.694C105.85 146.719 118.073 158.942 133.098 158.942C148.122 158.942 160.346 146.719 160.346 131.694C160.346 116.67 148.123 104.446 133.098 104.446C127.427 104.446 121.986 106.179 117.363 109.456C116.482 110.081 115.263 109.872 114.639 108.993C114.016 108.113 114.223 106.893 115.103 106.27C120.391 102.521 126.613 100.539 133.098 100.539C150.277 100.539 164.252 114.515 164.252 131.694C164.252 148.873 150.277 162.848 133.098 162.848Z" fill="#2626BC"/>
<path d="M42.6848 144.035H36.541C35.1121 144.035 33.8414 143.075 33.45 141.702L31.943 136.41C30.0145 135.85 28.1574 135.08 26.3977 134.112L21.5879 136.789C20.3379 137.482 18.7621 137.262 17.7535 136.253L13.4086 131.908C12.3996 130.9 12.1789 129.324 12.8719 128.076L15.5504 123.264C14.582 121.505 13.8121 119.648 13.2523 117.719L7.96016 116.212C6.58633 115.821 5.62695 114.55 5.62695 113.121V106.977C5.62695 105.548 6.58672 104.278 7.96016 103.886L13.2523 102.379C13.8125 100.45 14.582 98.5929 15.5504 96.834L12.873 92.0242C12.1793 90.7746 12.4 89.1988 13.409 88.1898L17.7539 83.8449C18.7633 82.8363 20.3395 82.616 21.5867 83.3082L26.398 85.9867C28.1574 85.0183 30.0148 84.2484 31.9434 83.6886L33.4504 78.3965C33.8414 77.0226 35.1125 76.0629 36.5414 76.0629H42.6852C44.1141 76.0629 45.3852 77.0226 45.7762 78.3965L47.2832 83.6883C49.2117 84.2484 51.0691 85.0179 52.8285 85.9863L57.6383 83.309C58.8879 82.6156 60.4633 82.8359 61.4723 83.8441L65.8176 88.1894C66.8262 89.198 67.0469 90.7738 66.3547 92.0215L63.6758 96.8332C64.6441 98.5926 65.4141 100.45 65.9738 102.378L71.266 103.886C72.6398 104.277 73.5992 105.548 73.5992 106.977V113.12C73.5992 114.549 72.6395 115.82 71.266 116.211L65.9738 117.718C65.4137 119.647 64.6441 121.504 63.6758 123.264L66.3531 128.073C67.0469 129.323 66.8258 130.899 65.8168 131.908L61.4723 136.252C60.4637 137.261 58.8879 137.482 57.6402 136.789L52.8285 134.111C51.0687 135.079 49.2113 135.849 47.2832 136.409L45.7762 141.701C45.3844 143.076 44.1133 144.035 42.6848 144.035ZM37.0641 140.129H42.1621L43.8293 134.275C44.0215 133.6 44.5609 133.08 45.2422 132.913C47.5551 132.345 49.7605 131.432 51.7977 130.196C52.398 129.832 53.1477 129.818 53.7605 130.16L59.0801 133.121L62.6848 129.516L59.7234 124.197C59.382 123.584 59.3961 122.834 59.7598 122.234C60.9953 120.197 61.909 117.991 62.4766 115.678C62.6437 114.997 63.1637 114.458 63.8387 114.266L69.6926 112.598V107.5L63.8387 105.833C63.1637 105.641 62.6437 105.102 62.4766 104.42C61.909 102.107 60.9953 99.9015 59.7598 97.8648C59.3957 97.2644 59.382 96.5152 59.7234 95.9019L62.6848 90.5824L59.0801 86.9773L53.7605 89.939C53.1477 90.2808 52.398 90.2664 51.7977 89.9027C49.7609 88.6672 47.5555 87.7535 45.2422 87.1859C44.5605 87.0187 44.0215 86.4988 43.8293 85.8238L42.1621 79.9699H37.0641L35.3969 85.8238C35.2047 86.4988 34.6652 87.0187 33.984 87.1859C31.6707 87.7535 29.4652 88.6672 27.4285 89.9027C26.8281 90.2668 26.0789 90.2804 25.4656 89.939L20.1461 86.9773L16.5414 90.5824L19.5027 95.9019C19.8441 96.5152 19.8301 97.2648 19.466 97.8648C18.2309 99.9011 17.3172 102.107 16.7492 104.42C16.582 105.102 16.0621 105.641 15.3871 105.833L9.5332 107.5V112.598L15.3871 114.266C16.0621 114.458 16.582 114.997 16.7492 115.678C17.3168 117.992 18.2305 120.197 19.466 122.234C19.8301 122.834 19.8437 123.584 19.5023 124.197L16.541 129.516L20.1457 133.121L25.4652 130.16C26.0785 129.818 26.8277 129.832 27.4281 130.196C29.4652 131.432 31.6707 132.345 33.9836 132.913C34.6652 133.08 35.2043 133.6 35.3965 134.275L37.0641 140.129ZM70.1957 107.644H70.1996H70.1957ZM70.1934 107.644C70.1941 107.644 70.1945 107.644 70.1953 107.644L70.1934 107.644Z" fill="#2626BC"/>
<path d="M39.613 122.078C32.9806 122.078 27.5845 116.683 27.5845 110.05C27.5845 103.417 32.9802 98.0214 39.613 98.0214C46.2458 98.0214 51.6415 103.417 51.6415 110.05C51.6415 116.682 46.2458 122.078 39.613 122.078ZM39.613 101.927C35.1345 101.927 31.4907 105.571 31.4907 110.049C31.4907 114.528 35.1345 118.172 39.613 118.172C44.0915 118.172 47.7353 114.528 47.7353 110.049C47.7353 105.571 44.0915 101.927 39.613 101.927Z" fill="#2626BC"/>
<path d="M83.2735 86.1785H76.6574C75.186 86.1785 73.8766 85.1902 73.4739 83.775L71.8282 77.9957C69.7067 77.3863 67.6649 76.5402 65.7344 75.4703L60.4825 78.3941C59.195 79.1086 57.5715 78.8812 56.5328 77.8422L51.8535 73.1629C50.8145 72.1238 50.5871 70.5008 51.3004 69.2156L54.2254 63.9613C53.1555 62.0308 52.3094 59.989 51.7 57.8676L45.9207 56.2218C44.5055 55.8187 43.5172 54.5093 43.5172 53.0379V46.4218C43.5172 44.9504 44.5055 43.641 45.9207 43.2383L51.7 41.5926C52.3094 39.4711 53.1555 37.4293 54.2254 35.4988L51.3016 30.2469C50.5871 28.9594 50.8145 27.3359 51.8535 26.2972L56.5328 21.6179C57.5719 20.5789 59.1953 20.3515 60.4801 21.0648L65.7344 23.9898C67.6649 22.9199 69.7067 22.0738 71.8282 21.4644L73.4739 15.6851C73.877 14.2699 75.186 13.2816 76.6574 13.2816H83.2735C84.7449 13.2816 86.0543 14.2699 86.4574 15.6851L88.1032 21.4644C90.2246 22.0738 92.2664 22.9199 94.1969 23.9898L99.4489 21.066C100.736 20.3515 102.36 20.5789 103.398 21.6179L108.078 26.2972C109.117 27.3363 109.344 28.9594 108.631 30.2445L105.706 35.4988C106.776 37.4293 107.622 39.4711 108.231 41.5926L114.011 43.2383C115.426 43.6414 116.414 44.9504 116.414 46.4218V53.0379C116.414 54.5093 115.426 55.8187 114.011 56.2218L108.231 57.8676C107.622 59.989 106.776 62.0308 105.706 63.9613L108.63 69.2133C109.344 70.5008 109.117 72.1242 108.078 73.1629L103.398 77.8418C102.36 78.8808 100.736 79.1078 99.4512 78.3949L94.1969 75.4699C92.2664 76.5398 90.2246 77.3859 88.1032 77.9953L86.4574 83.7746C86.0547 85.1898 84.7453 86.1785 83.2735 86.1785ZM77.1075 82.2722H82.8242L84.6504 75.8594C84.8426 75.1844 85.3821 74.6644 86.0637 74.4972C88.57 73.8824 90.959 72.8922 93.1653 71.5543C93.7657 71.1898 94.5153 71.1762 95.1282 71.5176L100.956 74.7621L104.998 70.7199L101.753 64.8926C101.412 64.2793 101.426 63.5297 101.79 62.9297C103.128 60.7238 104.118 58.3344 104.733 55.8281C104.9 55.1465 105.42 54.6074 106.095 54.4148L112.508 52.5886V46.8718L106.095 45.0457C105.42 44.8535 104.9 44.314 104.733 43.6324C104.118 41.1261 103.128 38.7371 101.79 36.5308C101.426 35.9304 101.412 35.1812 101.753 34.5679L104.998 28.7406L100.956 24.6984L95.1282 27.9429C94.5149 28.2843 93.7653 28.2703 93.1653 27.9062C90.9594 26.5683 88.57 25.5781 86.0637 24.9633C85.3821 24.7961 84.843 24.2761 84.6504 23.6011L82.8242 17.1879H77.1075L75.2813 23.6008C75.0891 24.2758 74.5496 24.7957 73.868 24.9629C71.3617 25.5777 68.9727 26.5679 66.7664 27.9058C66.166 28.2703 65.4164 28.2836 64.8035 27.9426L58.9762 24.698L54.934 28.7402L58.1785 34.5676C58.5199 35.1808 58.5059 35.9304 58.1418 36.5304C56.8039 38.7363 55.8137 41.1258 55.1989 43.632C55.0317 44.3136 54.5117 44.8527 53.8367 45.0453L47.4239 46.8715V52.5883L53.8367 54.4144C54.5117 54.6066 55.0317 55.1461 55.1989 55.8277C55.8137 58.334 56.8039 60.723 58.1418 62.9293C58.5059 63.5297 58.5199 64.2789 58.1785 64.8922L54.934 70.7195L58.9762 74.7617L64.8035 71.5172C65.4168 71.1758 66.1664 71.1894 66.7664 71.5539C68.9723 72.8918 71.3617 73.882 73.868 74.4968C74.5496 74.664 75.0887 75.184 75.2813 75.859L77.1075 82.2722ZM79.9657 65.1015C77.9063 65.1015 75.9051 64.6996 74.0176 63.9066C73.0231 63.489 72.5555 62.3441 72.9731 61.3496C73.391 60.3551 74.536 59.8879 75.5301 60.3051C76.9364 60.8957 78.4285 61.1949 79.9657 61.1949C86.2875 61.1949 91.4309 56.0515 91.4309 49.7297C91.4309 43.4078 86.2875 38.2644 79.9657 38.2644C73.6438 38.2644 68.5004 43.4078 68.5004 49.7297C68.5004 51.0816 68.7332 52.4047 69.1922 53.6617C69.5625 54.675 69.041 55.7961 68.0278 56.1664C67.0145 56.5375 65.8934 56.0152 65.5231 55.0019C64.9063 53.314 64.5938 51.5402 64.5938 49.7297C64.5938 41.2539 71.4895 34.3582 79.9653 34.3582C88.441 34.3582 95.3367 41.2539 95.3367 49.7297C95.3367 58.2051 88.4414 65.1015 79.9657 65.1015Z" fill="#2626BC"/>
<path d="M123.979 138.338C123.481 138.338 122.981 138.148 122.6 137.767L117.907 133.073C117.145 132.312 117.145 131.077 117.907 130.315L122.6 125.622C123.361 124.86 124.597 124.86 125.358 125.622C126.12 126.383 126.12 127.618 125.358 128.379L122.043 131.694L125.358 135.009C126.12 135.771 126.12 137.005 125.358 137.767C124.977 138.147 124.478 138.338 123.979 138.338Z" fill="#2D58E0"/>
<path d="M142.216 138.338C141.718 138.338 141.218 138.148 140.838 137.767C140.076 137.005 140.076 135.771 140.838 135.009L144.152 131.694L140.838 128.379C140.076 127.618 140.076 126.383 140.838 125.622C141.598 124.86 142.834 124.86 143.595 125.622L148.289 130.315C149.05 131.077 149.05 132.311 148.289 133.073L143.595 137.767C143.214 138.147 142.715 138.338 142.216 138.338Z" fill="#2D58E0"/>
<path d="M130.446 138.338C130.121 138.338 129.792 138.257 129.489 138.086C128.551 137.556 128.22 136.366 128.75 135.428L134.051 126.041C134.58 125.104 135.77 124.772 136.707 125.302C137.645 125.832 137.977 127.021 137.446 127.959L132.146 137.346C131.787 137.981 131.126 138.338 130.446 138.338Z" fill="#2D58E0"/>
<path d="M59.7543 160.961C59.2543 160.961 58.7547 160.77 58.3731 160.389L54.0762 156.092C53.3133 155.329 53.3133 154.092 54.0762 153.33L58.3731 149.033C58.7395 148.666 59.236 148.461 59.7543 148.461C60.2727 148.461 60.7692 148.667 61.1356 149.033L65.4324 153.33C65.7989 153.696 66.0043 154.193 66.0043 154.711C66.0043 155.229 65.7985 155.726 65.4324 156.092L61.1356 160.389C60.7539 160.77 60.2539 160.961 59.7543 160.961ZM58.2192 154.711L59.7539 156.245L61.2887 154.711L59.7539 153.176L58.2192 154.711Z" fill="#6583FE"/>
<path d="M137.699 57.9352C136.62 57.9352 135.746 57.0606 135.746 55.982C135.746 54.6895 134.694 53.6383 133.402 53.6383C132.323 53.6383 131.449 52.7637 131.449 51.6852C131.449 50.6067 132.323 49.7321 133.402 49.7321C134.695 49.7321 135.746 48.6805 135.746 47.3883C135.746 46.3098 136.62 45.4352 137.699 45.4352C138.777 45.4352 139.652 46.3098 139.652 47.3883C139.652 48.6809 140.703 49.7321 141.996 49.7321C143.074 49.7321 143.949 50.6067 143.949 51.6852C143.949 52.7637 143.074 53.6383 141.996 53.6383C140.703 53.6383 139.652 54.6895 139.652 55.982C139.652 57.0606 138.777 57.9352 137.699 57.9352Z" fill="#97FFD2"/>
<path d="M71.6453 180.33C70.5667 180.33 69.6921 179.456 69.6921 178.377C69.6921 177.085 68.6406 176.034 67.3484 176.034C66.2699 176.034 65.3953 175.159 65.3953 174.08C65.3953 173.002 66.2699 172.127 67.3484 172.127C68.641 172.127 69.6921 171.076 69.6921 169.784C69.6921 168.705 70.5667 167.83 71.6453 167.83C72.7238 167.83 73.5984 168.705 73.5984 169.784C73.5984 171.076 74.6496 172.127 75.9421 172.127C77.0207 172.127 77.8953 173.002 77.8953 174.08C77.8953 175.159 77.0207 176.034 75.9421 176.034C74.6496 176.034 73.5984 177.085 73.5984 178.377C73.5984 179.456 72.7242 180.33 71.6453 180.33Z" fill="#FF7EB8"/>
<path d="M29.5376 67.5609C28.4591 67.5609 27.5845 66.6863 27.5845 65.6078C27.5845 64.3152 26.5329 63.264 25.2407 63.264C24.1622 63.264 23.2876 62.3894 23.2876 61.3109C23.2876 60.2324 24.1622 59.3578 25.2407 59.3578C26.5333 59.3578 27.5845 58.3062 27.5845 57.014C27.5845 55.9355 28.4591 55.0609 29.5376 55.0609C30.6161 55.0609 31.4907 55.9355 31.4907 57.014C31.4907 58.3066 32.5423 59.3578 33.8345 59.3578C34.913 59.3578 35.7876 60.2324 35.7876 61.3109C35.7876 62.3894 34.913 63.264 33.8345 63.264C32.5419 63.264 31.4907 64.3156 31.4907 65.6078C31.4907 66.6863 30.6161 67.5609 29.5376 67.5609Z" fill="#FF7EB8"/>
</g>
<defs>
<linearGradient id="paint0_linear" x1="-9.8832" y1="76.2465" x2="206.72" y2="131.835" gradientUnits="userSpaceOnUse">
<stop offset="0.0485" stop-color="#FFDBED"/>
<stop offset="0.9993" stop-color="#D2DEFF"/>
</linearGradient>
<clipPath id="clip0">
<rect width="200" height="200" fill="white"/>
</clipPath>
</defs>
</svg>
