<svg width="200" height="200" viewBox="0 0 200 200" fill="none" xmlns="http://www.w3.org/2000/svg">
<path d="M121.123 34.9034C112.752 14.3296 92.5016 -0.144613 68.8863 0.00109012C38.7598 0.186637 13.9895 24.487 13.2586 54.605C12.8981 69.4644 18.3281 83.0507 27.4516 93.2702C34.7246 101.417 38.3746 112.147 38.0066 123.062C37.9578 124.513 37.9504 125.975 37.9863 127.445C38.9488 167.055 72.7859 200.024 112.407 200C153.475 199.975 186.759 166.676 186.759 125.603C186.759 95.4956 168.874 69.5683 143.15 57.8593C133.124 53.2956 125.275 45.1066 121.123 34.9034Z" fill="url(#paint0_linear)"/>
<path opacity="0.1" d="M178.125 34.4988V133.815C178.125 137.05 175.5 139.675 172.266 139.675H27.7344C24.5 139.675 21.875 137.05 21.875 133.815V34.4988C21.875 31.2644 24.5 28.6394 27.7344 28.6394H172.266C175.5 28.6394 178.125 31.2644 178.125 34.4988Z" fill="#2626BC"/>
<path d="M124.741 26.0922C124.223 26.0922 123.726 25.8863 123.36 25.5203L119.056 21.2164C118.293 20.4535 118.293 19.2168 119.056 18.4543L123.36 14.1504C123.726 13.784 124.223 13.5785 124.741 13.5785C125.259 13.5785 125.756 13.7843 126.122 14.1504L130.426 18.4543C130.792 18.8207 130.998 19.3172 130.998 19.8355C130.998 20.3539 130.793 20.8504 130.426 21.2168L126.122 25.5207C125.756 25.8863 125.259 26.0922 124.741 26.0922ZM123.2 19.8351L124.741 21.3769L126.283 19.8351L124.741 18.2933L123.2 19.8351Z" fill="#FF7EB8"/>
<path d="M149.238 170.5C148.72 170.5 148.223 170.294 147.857 169.928L143.553 165.624C142.791 164.861 142.791 163.624 143.553 162.862L147.857 158.558C148.62 157.796 149.856 157.796 150.619 158.558L154.923 162.862C155.29 163.228 155.496 163.725 155.496 164.243C155.496 164.762 155.29 165.258 154.923 165.624L150.619 169.928C150.253 170.294 149.756 170.5 149.238 170.5ZM147.697 164.243L149.238 165.785L150.78 164.243L149.238 162.701L147.697 164.243Z" fill="#6583FE"/>
<path d="M41.6734 186.422C40.5945 186.422 39.7203 185.547 39.7203 184.469C39.7203 183.173 38.6656 182.118 37.3691 182.118C36.2902 182.118 35.416 181.243 35.416 180.165C35.416 179.086 36.2902 178.212 37.3691 178.212C38.6652 178.212 39.7203 177.157 39.7203 175.861C39.7203 174.782 40.5945 173.908 41.6734 173.908C42.7523 173.908 43.6266 174.782 43.6266 175.861C43.6266 177.157 44.6809 178.212 45.9773 178.212C47.0563 178.212 47.9305 179.086 47.9305 180.165C47.9305 181.243 47.0563 182.118 45.9773 182.118C44.6813 182.118 43.6266 183.173 43.6266 184.469C43.6266 185.547 42.752 186.422 41.6734 186.422Z" fill="#97FFD2"/>
<path d="M58.6 168.298C57.5211 168.298 56.6469 167.423 56.6469 166.344C56.6469 165.048 55.5926 163.994 54.2961 163.994C53.2172 163.994 52.343 163.119 52.343 162.04C52.343 160.962 53.2172 160.087 54.2961 160.087C55.5922 160.087 56.6469 159.033 56.6469 157.737C56.6469 156.658 57.5211 155.783 58.6 155.783C59.679 155.783 60.5532 156.658 60.5532 157.737C60.5532 159.033 61.6079 160.087 62.9043 160.087C63.9832 160.087 64.8575 160.962 64.8575 162.04C64.8575 163.119 63.9832 163.994 62.9043 163.994C61.6082 163.994 60.5532 165.048 60.5532 166.344C60.5532 167.423 59.6786 168.298 58.6 168.298Z" fill="#6583FE"/>
<path d="M122.152 176.279H77.8473L83.6215 153.387L86.7074 141.16H113.292L116.378 153.387L122.152 176.279Z" fill="#9FB0FE"/>
<path d="M116.378 153.387H83.6215L86.7074 141.16H113.292L116.378 153.387Z" fill="#8399FE"/>
<path d="M122.154 178.23H77.8461C77.2437 178.23 76.6754 177.952 76.3055 177.477C75.9355 177.002 75.8051 176.383 75.9527 175.799L82.9262 148.164C83.1902 147.118 84.2519 146.485 85.2976 146.748C86.3433 147.012 86.9773 148.074 86.7133 149.12L80.3535 174.323H119.647L113.231 148.895C112.967 147.849 113.601 146.787 114.646 146.523C115.694 146.26 116.754 146.893 117.018 147.939L124.048 175.799C124.195 176.383 124.065 177.002 123.695 177.477C123.325 177.952 122.756 178.23 122.154 178.23Z" fill="#2626BC"/>
<path d="M178.125 42.7019V142.018C178.125 145.253 175.5 147.878 172.266 147.878H27.7344C24.5 147.878 21.875 145.253 21.875 142.018V42.7019C21.875 39.4675 24.5 36.8425 27.7344 36.8425H172.266C175.5 36.8425 178.125 39.4675 178.125 42.7019Z" fill="white"/>
<path d="M172.266 36.8425H138.672V147.878H172.266C175.5 147.878 178.125 145.253 178.125 142.018V42.7019C178.125 39.4675 175.5 36.8425 172.266 36.8425Z" fill="#FFC4DF"/>
<path d="M170.898 74.0105L168.09 64.1472C167.852 63.3074 167.082 62.7253 166.211 62.7253H156.68C155.809 62.7253 155.039 63.3074 154.801 64.1472L151.992 74.0105C148.055 74.9753 144.348 76.5261 140.973 78.573L132.012 73.5847C131.25 73.1589 130.297 73.2917 129.68 73.9089L122.941 80.6511C122.324 81.2683 122.191 82.2175 122.613 82.9832L127.605 91.9441C125.559 95.3191 124.004 99.0261 123.039 102.96L113.176 105.772C112.336 106.011 111.758 106.776 111.758 107.651V117.182C111.758 118.053 112.336 118.819 113.176 119.061L123.039 121.87C123.7 124.569 124.643 127.159 125.829 129.608H154.289C147.557 126.803 142.824 120.165 142.824 112.417C142.824 102.132 151.16 93.7957 161.445 93.7957C168.754 93.7957 175.074 98.0027 178.125 104.128V76.5496C175.828 75.4792 173.41 74.6277 170.898 74.0105Z" fill="#FF7EB8"/>
<path d="M170.898 74.0105L168.09 64.1472C167.852 63.3074 167.082 62.7253 166.211 62.7253H156.68C155.809 62.7253 155.039 63.3074 154.801 64.1472L151.992 74.0105C148.055 74.9753 144.348 76.5261 140.973 78.573L132.012 73.5847C131.25 73.1589 130.297 73.2917 129.68 73.9089L122.941 80.6511C122.324 81.2683 122.191 82.2175 122.613 82.9832L127.605 91.9441C125.559 95.3191 124.004 99.0261 123.039 102.96L113.176 105.772C112.336 106.011 111.758 106.776 111.758 107.651V117.182C111.758 118.053 112.336 118.819 113.176 119.061L123.039 121.87C123.7 124.569 124.643 127.159 125.829 129.608H154.289C147.557 126.803 142.824 120.165 142.824 112.417C142.824 102.132 151.16 93.7957 161.445 93.7957C168.754 93.7957 175.074 98.0027 178.125 104.128V76.5496C175.828 75.4792 173.41 74.6277 170.898 74.0105Z" fill="#FF5BA8"/>
<path d="M178.125 55.6604V42.703C178.125 39.4671 175.502 36.8436 172.266 36.8436H27.7344C24.4984 36.8436 21.875 39.4671 21.875 42.703V55.6604H178.125Z" fill="#6583FE"/>
<path d="M178.125 57.6136H21.875C20.7961 57.6136 19.9219 56.739 19.9219 55.6605C19.9219 54.582 20.7961 53.7074 21.875 53.7074H178.125C179.204 53.7074 180.078 54.582 180.078 55.6605C180.078 56.739 179.204 57.6136 178.125 57.6136Z" fill="#2626BC"/>
<path d="M21.8745 128.194V142.019C21.8745 145.255 24.4979 147.878 27.7339 147.878H172.265C175.501 147.878 178.125 145.255 178.125 142.019V128.194H21.8745Z" fill="#B7C5FF"/>
<path d="M177.909 130.147H34.3586C33.2797 130.147 32.4055 129.273 32.4055 128.194C32.4055 127.116 33.2797 126.241 34.3586 126.241H177.909C178.988 126.241 179.862 127.116 179.862 128.194C179.862 129.273 178.988 130.147 177.909 130.147Z" fill="#2626BC"/>
<path d="M129.662 178.23H70.3383C69.2594 178.23 68.3851 177.355 68.3851 176.276C68.3851 175.198 69.2594 174.323 70.3383 174.323H129.661C130.74 174.323 131.614 175.198 131.614 176.276C131.614 177.355 130.74 178.23 129.662 178.23Z" fill="#2626BC"/>
<path d="M36.7507 48.2339C35.6718 48.2339 34.7976 47.3593 34.7976 46.2808V46.2238C34.7976 45.1452 35.6718 44.2706 36.7507 44.2706C37.8296 44.2706 38.7039 45.1452 38.7039 46.2238V46.2808C38.7039 47.3593 37.8296 48.2339 36.7507 48.2339Z" fill="#2626BC"/>
<path d="M44.2996 48.2339C43.2207 48.2339 42.3464 47.3593 42.3464 46.2808V46.2238C42.3464 45.1452 43.2207 44.2706 44.2996 44.2706C45.3785 44.2706 46.2527 45.1452 46.2527 46.2238V46.2808C46.2527 47.3593 45.3785 48.2339 44.2996 48.2339Z" fill="#2626BC"/>
<path d="M51.848 48.2339C50.7691 48.2339 49.8949 47.3593 49.8949 46.2808V46.2238C49.8949 45.1452 50.7691 44.2706 51.848 44.2706C52.9269 44.2706 53.8011 45.1452 53.8011 46.2238V46.2808C53.8011 47.3593 52.9269 48.2339 51.848 48.2339Z" fill="#2626BC"/>
<path d="M172.266 149.831H27.7344C23.4266 149.831 19.9219 146.326 19.9219 142.018V42.703C19.9219 38.3952 23.4266 34.8905 27.7344 34.8905H172.266C176.573 34.8905 180.078 38.3952 180.078 42.703V55.6604C180.078 56.7389 179.204 57.6135 178.125 57.6135C177.046 57.6135 176.172 56.7389 176.172 55.6604V42.703C176.172 40.5491 174.42 38.7968 172.266 38.7968H27.7344C25.5805 38.7968 23.8281 40.5491 23.8281 42.703V142.019C23.8281 144.173 25.5805 145.925 27.7344 145.925H172.266C174.42 145.925 176.172 144.173 176.172 142.019V66.4186C176.172 65.3401 177.046 64.4655 178.125 64.4655C179.204 64.4655 180.078 65.3401 180.078 66.4186V142.019C180.078 146.326 176.573 149.831 172.266 149.831Z" fill="#2626BC"/>
<path d="M101.449 107.137H36.3153C35.2348 107.137 34.359 106.261 34.359 105.181C34.359 104.1 35.2348 103.224 36.3153 103.224H101.449C102.529 103.224 103.405 104.1 103.405 105.181C103.405 106.261 102.529 107.137 101.449 107.137Z" fill="#B7C5FF"/>
<path d="M78.0113 90.7339H36.3153C35.2348 90.7339 34.359 89.8581 34.359 88.7777C34.359 87.6972 35.2348 86.8214 36.3153 86.8214H78.0113C79.0918 86.8214 79.9676 87.6972 79.9676 88.7777C79.9676 89.8581 79.0918 90.7339 78.0113 90.7339Z" fill="#FFA8CF"/>
<path d="M101.449 114.897H36.3153C35.2348 114.897 34.359 114.021 34.359 112.941C34.359 111.86 35.2348 110.985 36.3153 110.985H101.449C102.529 110.985 103.405 111.86 103.405 112.941C103.405 114.021 102.529 114.897 101.449 114.897Z" fill="#B7C5FF"/>
<path d="M41.4519 79.0867C40.9523 79.0867 40.4519 78.896 40.0711 78.5148L35.3699 73.8136C34.607 73.0507 34.607 71.814 35.3699 71.0515L40.0711 66.3503C40.8332 65.5878 42.0707 65.5878 42.8328 66.3503C43.5957 67.1132 43.5957 68.3499 42.8328 69.1124L39.5129 72.4327L42.8328 75.7531C43.5957 76.5159 43.5957 77.7527 42.8328 78.5152C42.4519 78.896 41.9515 79.0867 41.4519 79.0867Z" fill="#4369FD"/>
<path d="M59.7184 79.0865C59.2188 79.0865 58.7184 78.8959 58.3375 78.5147C57.5747 77.7518 57.5747 76.5151 58.3375 75.7526L61.6575 72.4323L58.3375 69.1119C57.5747 68.349 57.5747 67.1123 58.3375 66.3498C59.0997 65.5873 60.3372 65.5873 61.0993 66.3498L65.8004 71.051C66.5633 71.8139 66.5633 73.0506 65.8004 73.8131L61.0993 78.5143C60.718 78.8959 60.218 79.0865 59.7184 79.0865Z" fill="#4369FD"/>
<path d="M47.9285 79.087C47.6031 79.087 47.2734 79.0058 46.9703 78.8343C46.0309 78.3038 45.6992 77.1124 46.2297 76.1729L51.5391 66.7706C52.0691 65.8315 53.2609 65.4999 54.2 66.03C55.1395 66.5604 55.4711 67.7519 54.9406 68.6913L49.6313 78.0936C49.2719 78.7296 48.6098 79.087 47.9285 79.087Z" fill="#4369FD"/>
<path d="M148.066 114.897H141.816C141.169 114.897 140.645 114.373 140.645 113.725V89.9496C140.645 89.3023 141.169 88.7777 141.816 88.7777H148.066C148.714 88.7777 149.238 89.3023 149.238 89.9496V113.725C149.238 114.373 148.714 114.897 148.066 114.897Z" fill="#02FFB3"/>
<path d="M135.288 114.897H129.038C128.391 114.897 127.866 114.373 127.866 113.725V99.0156C127.866 98.3684 128.391 97.8438 129.038 97.8438H135.288C135.935 97.8438 136.46 98.3684 136.46 99.0156V113.725C136.46 114.373 135.935 114.897 135.288 114.897Z" fill="#02FFB3"/>
<path d="M160.845 114.897H154.595C153.948 114.897 153.423 114.373 153.423 113.725V83.1238C153.423 82.4765 153.948 81.9519 154.595 81.9519H160.845C161.492 81.9519 162.017 82.4765 162.017 83.1238V113.725C162.017 114.373 161.492 114.897 160.845 114.897Z" fill="#02FFB3"/>
<path d="M120.602 70.1449C121.808 70.1449 122.786 69.1673 122.786 67.9613C122.786 66.7553 121.808 65.7777 120.602 65.7777C119.396 65.7777 118.418 66.7553 118.418 67.9613C118.418 69.1673 119.396 70.1449 120.602 70.1449Z" fill="#6583FE"/>
<path d="M113.996 70.1449C115.202 70.1449 116.18 69.1673 116.18 67.9613C116.18 66.7553 115.202 65.7777 113.996 65.7777C112.79 65.7777 111.812 66.7553 111.812 67.9613C111.812 69.1673 112.79 70.1449 113.996 70.1449Z" fill="#6583FE"/>
<path d="M107.391 70.1449C108.597 70.1449 109.574 69.1673 109.574 67.9613C109.574 66.7553 108.597 65.7777 107.391 65.7777C106.185 65.7777 105.207 66.7553 105.207 67.9613C105.207 69.1673 106.185 70.1449 107.391 70.1449Z" fill="#6583FE"/>
<defs>
<linearGradient id="paint0_linear" x1="26.8027" y1="-2.42234" x2="160.982" y2="197.888" gradientUnits="userSpaceOnUse">
<stop offset="0.0485" stop-color="#FFDBED"/>
<stop offset="0.9993" stop-color="#D2DEFF"/>
</linearGradient>
</defs>
</svg>
