<svg width="780" height="650" viewBox="0 0 780 650" fill="none" xmlns="http://www.w3.org/2000/svg">
<path d="M515.397 468.65C486.254 468.65 458.974 476.61 435.593 490.458C446.755 493.712 458.247 498.614 471.9 504.4C506.044 518.868 561.931 549.774 632.851 521.562C604.114 489.114 562.15 468.65 515.397 468.65Z" fill="url(#paint0_radial)"/>
<path d="M664.473 329.612C681.066 329.612 694.516 316.162 694.516 299.569C694.516 282.977 681.066 269.526 664.473 269.526C647.881 269.526 634.43 282.977 634.43 299.569C634.43 316.162 647.881 329.612 664.473 329.612Z" fill="url(#paint1_radial)"/>
<path d="M93.022 312C109.455 312 122.777 298.678 122.777 282.245C122.777 265.811 109.455 252.49 93.022 252.49C76.5886 252.49 63.2667 265.811 63.2667 282.245C63.2667 298.678 76.5886 312 93.022 312Z" fill="url(#paint2_radial)"/>
<path d="M93.022 301.6C103.712 301.6 112.377 292.934 112.377 282.245C112.377 271.555 103.712 262.889 93.022 262.889C82.3324 262.889 73.6667 271.555 73.6667 282.245C73.6667 292.934 82.3324 301.6 93.022 301.6Z" fill="url(#paint3_linear)"/>
<path d="M93.022 301.6C103.712 301.6 112.377 292.934 112.377 282.245C112.377 271.555 103.712 262.889 93.022 262.889C82.3324 262.889 73.6667 271.555 73.6667 282.245C73.6667 292.934 82.3324 301.6 93.022 301.6Z" fill="url(#paint4_linear)"/>
<path d="M86.522 283.833C83.8137 283.833 81.6106 281.63 81.6106 278.922C81.6106 276.214 83.8137 274.01 86.522 274.01C89.2303 274.01 91.4334 276.214 91.4334 278.922C91.4334 281.63 89.2303 283.833 86.522 283.833ZM86.522 274.878C84.2921 274.878 82.4773 276.692 82.4773 278.923C82.4773 281.154 84.2912 282.967 86.522 282.967C88.7528 282.967 90.5667 281.154 90.5667 278.923C90.5667 276.692 88.7528 274.878 86.522 274.878Z" fill="#FDE1A7"/>
<path d="M100.708 295.439C98.8641 295.439 97.2963 294.649 96.4089 293.271C94.8454 290.844 95.9296 287.352 98.8243 285.486C99.9952 284.732 101.305 284.333 102.612 284.333C104.456 284.333 106.024 285.124 106.911 286.503C108.475 288.929 107.391 292.421 104.496 294.286C103.325 295.041 102.015 295.439 100.708 295.439ZM102.612 285.2C101.471 285.2 100.324 285.551 99.2932 286.214C96.7998 287.821 95.8317 290.775 97.1369 292.8C97.8623 293.926 99.1631 294.571 100.708 294.571C101.848 294.571 102.996 294.22 104.026 293.557C106.519 291.951 107.487 288.996 106.182 286.972C105.457 285.846 104.156 285.2 102.612 285.2Z" fill="#DABACC"/>
<path d="M80.2422 296.902L79.7308 296.201C80.7925 295.426 81.4018 294.238 81.4018 292.942C81.4018 290.712 79.5878 288.897 77.357 288.897C76.5926 288.897 75.8412 289.12 75.1843 289.541L74.7172 288.811C75.5136 288.301 76.4271 288.031 77.357 288.031C80.0654 288.031 82.2684 290.234 82.2684 292.942C82.2684 294.518 81.53 295.961 80.2422 296.902Z" fill="#FDE1A7"/>
<path d="M103.454 271.496C101.065 271.496 99.1207 269.552 99.1207 267.163C99.1207 266.038 99.5549 264.969 100.344 264.153L100.968 264.755C100.336 265.408 99.9883 266.263 99.9883 267.162C99.9883 269.074 101.543 270.629 103.455 270.629C104.797 270.629 105.994 269.868 106.577 268.642L107.359 269.015C106.642 270.522 105.109 271.496 103.454 271.496Z" fill="#FDE1A7"/>
<path d="M664.473 320.37C675.961 320.37 685.273 311.057 685.273 299.57C685.273 288.082 675.961 278.77 664.473 278.77C652.986 278.77 643.673 288.082 643.673 299.57C643.673 311.057 652.986 320.37 664.473 320.37Z" fill="url(#paint5_linear)"/>
<path d="M683.718 307.904C683.666 307.904 683.615 307.896 683.563 307.876C680.186 306.589 674.133 301.887 668.144 295.897C662.154 289.908 657.453 283.855 656.167 280.478C656.082 280.254 656.194 280.004 656.418 279.919C656.641 279.833 656.892 279.946 656.977 280.17C658.223 283.442 662.847 289.375 668.757 295.285C674.667 301.194 680.6 305.819 683.872 307.065C684.096 307.15 684.208 307.401 684.122 307.625C684.057 307.798 683.892 307.904 683.718 307.904Z" fill="#0090B2"/>
<path d="M685.259 300.781C685.194 300.781 685.129 300.766 685.065 300.735C681.845 299.128 677.266 295.513 672.817 291.064C668.463 286.71 664.881 282.195 663.235 278.99C663.125 278.776 663.21 278.516 663.422 278.406C663.634 278.298 663.897 278.381 664.005 278.594C665.612 281.724 669.136 286.157 673.429 290.451C677.817 294.838 682.311 298.393 685.453 299.96C685.667 300.067 685.753 300.327 685.647 300.541C685.571 300.693 685.418 300.781 685.259 300.781Z" fill="#8A69E3"/>
<path d="M299.641 491.761C297.234 491.761 294.801 491.572 292.336 491.177C277.711 488.833 267.677 480.301 262.511 465.818C254.413 443.115 261.255 411.192 267.765 403.868C267.924 403.69 268.198 403.674 268.377 403.832C268.557 403.991 268.572 404.265 268.414 404.444C262.883 410.667 254.853 441.765 263.328 465.527C268.38 479.69 278.185 488.031 292.474 490.32C294.882 490.706 297.266 490.89 299.622 490.891C323.827 490.893 345.433 471.429 368.194 450.928C387.17 433.835 406.793 416.16 430.565 406.067C464.656 391.593 494.931 393.419 517.038 394.753C528.633 395.454 538.646 396.057 546.186 394.2C559.055 391.03 570.046 384.001 580.675 377.204C586.456 373.506 592.433 369.684 598.671 366.502C620.992 355.112 639.014 353.242 644.586 361.739C651.297 371.973 639.396 381.631 627.886 390.972C618.563 398.537 608.924 406.36 608.546 414.574C607.981 426.837 625.642 431.137 625.82 431.173C626.055 431.22 626.207 431.447 626.161 431.682C626.113 431.917 625.882 432.071 625.651 432.023C625.465 431.986 607.084 427.497 607.682 414.534C608.078 405.931 617.871 397.984 627.342 390.298C639.068 380.782 650.145 371.792 643.863 362.214C638.551 354.113 620.967 356.1 599.067 367.273C592.868 370.436 586.908 374.247 581.143 377.933C570.455 384.769 559.403 391.836 546.394 395.041C538.729 396.93 528.653 396.322 516.987 395.617C494.97 394.29 464.811 392.468 430.905 406.864C407.266 416.9 387.698 434.526 368.775 451.571C345.887 472.187 324.155 491.76 299.641 491.761Z" fill="#4578BA"/>
<path d="M573.545 384.134C574.604 384.134 575.462 383.276 575.462 382.218C575.462 381.16 574.604 380.302 573.545 380.302C572.487 380.302 571.629 381.16 571.629 382.218C571.629 383.276 572.487 384.134 573.545 384.134Z" fill="#4578BA"/>
<path d="M558.767 384.991C541.849 384.991 519.433 377.41 507.335 353.652C490.002 319.613 517.814 291.496 521.517 289.38C521.722 289.261 521.989 289.332 522.109 289.541C522.228 289.749 522.156 290.013 521.947 290.132C518.318 292.207 491.067 319.796 508.107 353.259C524.142 384.746 558.54 387.395 573.392 381.813C573.615 381.726 573.866 381.843 573.95 382.066C574.035 382.291 573.921 382.541 573.697 382.625C569.815 384.083 564.619 384.991 558.767 384.991Z" fill="#4578BA"/>
<path d="M650.108 374.725C649.99 374.725 649.873 374.677 649.789 374.584C649.626 374.407 649.639 374.132 649.816 373.972C653.308 370.788 654.135 363.371 653.385 361.333C653.302 361.109 653.417 360.859 653.642 360.777C653.863 360.691 654.115 360.809 654.198 361.033C655.031 363.291 654.207 371.141 650.4 374.611C650.317 374.688 650.212 374.725 650.108 374.725Z" fill="#4578BA"/>
<path d="M690.55 320.392C690.08 318.762 689.392 317.268 688.639 315.825C687.156 313.01 685.385 310.403 683.53 307.874C683.291 308.422 683.035 308.962 682.747 309.492C684.349 311.785 685.837 314.156 687.074 316.625C687.761 318.014 688.374 319.443 688.754 320.881C688.94 321.596 689.062 322.319 689.049 322.978C689.04 323.643 688.861 324.191 688.546 324.486C688.237 324.789 687.696 324.945 687.037 324.938C686.386 324.934 685.673 324.795 684.967 324.594C683.55 324.185 682.144 323.544 680.779 322.829C678.044 321.386 675.444 319.617 672.92 317.756C667.874 314.016 663.166 309.789 658.732 305.312C656.501 303.085 654.339 300.789 652.267 298.417C650.186 296.054 648.174 293.631 646.303 291.112C644.429 288.598 642.667 285.993 641.22 283.26C640.505 281.896 639.864 280.491 639.454 279.074C639.251 278.369 639.112 277.657 639.108 277.005C639.099 276.353 639.253 275.818 639.549 275.507C640.225 274.795 641.775 274.919 643.164 275.285C644.602 275.663 646.033 276.275 647.423 276.962C649.896 278.197 652.266 279.691 654.567 281.286C655.087 281.005 655.616 280.755 656.152 280.521C653.635 278.655 651.027 276.892 648.216 275.406C646.774 274.654 645.282 273.964 643.652 273.493C642.835 273.263 641.98 273.084 641.047 273.079C640.581 273.079 640.091 273.127 639.589 273.276C639.338 273.356 639.086 273.455 638.844 273.596C638.729 273.659 638.598 273.744 638.465 273.849C638.313 273.963 638.295 273.994 638.202 274.07L638.192 274.079L638.166 274.105C637.323 274.942 637.096 276.072 637.085 276.986C637.072 277.927 637.234 278.793 637.448 279.62C637.887 281.272 638.547 282.789 639.272 284.256C640.735 287.182 642.491 289.903 644.355 292.532C648.102 297.779 652.361 302.609 656.893 307.15C661.463 311.654 666.3 315.897 671.524 319.673C674.142 321.551 676.868 323.299 679.791 324.767C681.257 325.491 682.773 326.153 684.425 326.591C685.252 326.806 686.117 326.969 687.058 326.956C687.972 326.945 689.101 326.718 689.939 325.876C690.767 325.026 690.972 323.901 690.966 322.995C690.959 322.064 690.78 321.208 690.55 320.392Z" fill="url(#paint6_linear)"/>
<path d="M658.595 438.75L668.705 433.911C668.705 433.911 670.655 438.389 670.655 444.745C670.655 451.245 668.128 456.083 668.128 456.083L658.522 451.245L658.595 438.75Z" fill="url(#paint7_radial)"/>
<path d="M562.887 453.073C562.105 449.451 578.355 432.034 590.922 429.001C603.489 425.968 657.348 429.668 658.504 431.546C659.659 433.424 659.83 440.44 659.967 445.178C660.054 448.211 660.111 456.734 658.522 457.168C656.933 457.601 618.677 464.705 606.955 464.823C592.583 464.967 563.97 458.091 562.887 453.073Z" fill="url(#paint8_linear)"/>
<path d="M655.778 410.51V432.467H637.361C637.361 432.467 635.732 431.961 635.7 430.589C635.664 429.073 646.1 411.883 648.863 410.8C651.061 409.938 655.778 410.51 655.778 410.51Z" fill="url(#paint9_linear)"/>
<path d="M616.777 460.562C616.777 460.562 630.139 455.362 635.122 453.629C640.105 451.896 655.455 447.397 655.455 447.397C655.455 447.397 674.463 455.241 676.072 456.589C677.083 457.438 677.437 459.203 676.722 460.056C675.783 461.175 667.387 465.725 665.538 466.208C663.816 466.658 654.442 466.592 639.961 465.401C629.567 464.546 615.549 463.524 616.777 460.562Z" fill="url(#paint10_linear)"/>
<path d="M649.73 466.52C649.592 466.52 649.456 466.453 649.372 466.329C649.238 466.131 649.289 465.862 649.488 465.728C654.37 462.418 666.959 456.44 673.641 454.627C673.876 454.566 674.11 454.702 674.172 454.932C674.235 455.164 674.099 455.401 673.867 455.464C667.257 457.257 654.803 463.171 649.973 466.445C649.899 466.495 649.815 466.52 649.73 466.52Z" fill="#C0EAFB"/>
<path d="M570.869 441.802C565.891 446.655 562.52 451.377 562.887 453.073C563.375 455.337 569.471 457.976 577.326 460.181C578.454 448.921 574.042 444.008 570.869 441.802Z" fill="url(#paint11_linear)"/>
<path d="M600.744 437.811C602.863 436.333 603.64 431.081 603.919 427.892C598.29 428.005 593.64 428.345 590.922 429.001C586.758 430.005 582.193 432.594 577.974 435.732C582.918 437.307 597.412 440.137 600.744 437.811Z" fill="url(#paint12_linear)"/>
<path d="M610.495 447.634C612.409 447.634 613.961 446.082 613.961 444.168C613.961 442.253 612.409 440.701 610.495 440.701C608.58 440.701 607.028 442.253 607.028 444.168C607.028 446.082 608.58 447.634 610.495 447.634Z" fill="url(#paint13_radial)"/>
<path d="M622.123 446.479C623.918 446.479 625.373 445.024 625.373 443.229C625.373 441.434 623.918 439.979 622.123 439.979C620.328 439.979 618.873 441.434 618.873 443.229C618.873 445.024 620.328 446.479 622.123 446.479Z" fill="url(#paint14_radial)"/>
<path d="M632.883 445.54C634.519 445.54 635.845 444.214 635.845 442.579C635.845 440.943 634.519 439.617 632.883 439.617C631.248 439.617 629.922 440.943 629.922 442.579C629.922 444.214 631.248 445.54 632.883 445.54Z" fill="url(#paint15_radial)"/>
<path d="M651.625 430.986C651.386 430.986 651.192 430.792 651.192 430.553V410.328C651.192 410.088 651.386 409.894 651.625 409.894C651.864 409.894 652.058 410.088 652.058 410.328V430.553C652.058 430.792 651.864 430.986 651.625 430.986Z" fill="#C0EAFB"/>
<path d="M568.75 262.167C571.91 262.138 581.531 261.77 588.467 254.583C597.458 245.267 594.317 227.5 594.317 227.5C594.317 227.5 597.573 227.37 598.867 230.208C600.546 233.892 598.325 240.608 599.733 241.367C602.082 242.631 602.658 237.142 604.5 238.008C606.342 238.875 606.093 243.098 605.692 246.892C605.312 250.474 602.82 253.847 603.687 254.963C604.825 256.426 607.533 252.742 608.4 254.475C609.267 256.208 606.125 259.567 603.362 261.354C600.96 262.909 596.807 264.334 596.916 265.201C597.024 266.067 600.924 266.067 600.274 267.801C599.624 269.534 594.749 268.884 591.824 268.884C588.899 268.884 584.457 268.776 582.074 270.726C579.691 272.676 568.75 262.167 568.75 262.167Z" fill="url(#paint16_linear)"/>
<path d="M580.089 245.411C579.953 245.411 579.819 245.348 579.735 245.229C579.597 245.034 579.643 244.763 579.838 244.624C579.894 244.585 585.405 240.622 585.146 236.483C584.978 233.813 583.519 232.454 581.83 230.88C580.732 229.857 579.598 228.801 578.705 227.287C575.174 221.298 578.949 216.711 580.703 215.448C580.895 215.309 581.167 215.352 581.307 215.547C581.448 215.741 581.403 216.011 581.209 216.152C579.635 217.285 576.249 221.418 579.452 226.847C580.282 228.252 581.37 229.265 582.422 230.246C584.171 231.875 585.823 233.414 586.012 236.428C586.302 241.05 580.584 245.158 580.341 245.331C580.263 245.385 580.176 245.411 580.089 245.411Z" fill="#E8878E"/>
<path d="M573.445 234.289C573.357 234.289 573.27 234.263 573.193 234.209C570.242 232.111 569.421 229.281 569.253 227.277C569.015 224.448 569.961 221.848 570.971 220.838C571.14 220.669 571.415 220.669 571.584 220.838C571.753 221.007 571.753 221.282 571.584 221.451C570.699 222.336 569.908 224.73 570.116 227.204C570.269 229.026 571.015 231.597 573.696 233.503C573.891 233.641 573.936 233.912 573.798 234.107C573.714 234.225 573.58 234.289 573.445 234.289Z" fill="#E8878E"/>
<path d="M607.101 266.933C607.088 266.933 607.077 266.933 607.064 266.931C606.826 266.912 606.649 266.702 606.668 266.464C606.8 264.881 608.759 264.106 612.314 262.7C613.397 262.272 614.638 261.781 616.031 261.19C617.995 260.355 619.25 259.193 619.761 257.736C620.48 255.689 619.566 253.629 619.141 252.839C619.027 252.628 619.106 252.365 619.317 252.251C619.526 252.138 619.79 252.216 619.904 252.427C620.384 253.319 621.411 255.65 620.579 258.023C619.983 259.72 618.568 261.054 616.37 261.987C614.97 262.583 613.722 263.076 612.632 263.506C609.507 264.742 607.619 265.488 607.532 266.535C607.513 266.762 607.324 266.933 607.101 266.933Z" fill="#E8878E"/>
<path d="M528.891 211.871L529.581 211.923C529.89 211.961 530.242 211.999 530.514 212.05C531.078 212.145 531.636 212.264 532.179 212.419C533.27 212.722 534.314 213.135 535.3 213.632C537.274 214.629 539.017 215.959 540.511 217.487C543.495 220.553 545.514 224.401 546.515 228.455C547.492 232.425 547.69 236.525 547.06 240.613C546.408 244.679 544.957 248.797 542.041 252.396L535.012 246.37C536.673 244.578 537.904 241.914 538.497 239.074C539.105 236.23 539.129 233.149 538.574 230.245C538.048 227.431 536.8 224.76 534.977 222.667C534.066 221.624 533.011 220.735 531.874 220.079C531.307 219.751 530.718 219.481 530.122 219.277C529.824 219.171 529.524 219.092 529.223 219.021L528.851 218.942C528.696 218.914 528.432 218.888 528.227 218.861L528.891 211.871Z" fill="url(#paint17_linear)"/>
<path d="M535.615 224.026C535.4 224.026 535.213 223.866 535.186 223.647C535.156 223.409 535.324 223.193 535.562 223.163C537.059 222.975 539.744 222.088 540.923 218.255C540.993 218.026 541.237 217.897 541.464 217.968C541.694 218.038 541.821 218.281 541.751 218.51C540.43 222.809 537.374 223.81 535.67 224.023C535.651 224.025 535.633 224.026 535.615 224.026Z" fill="#FFA2BA"/>
<path d="M541.742 233.405C540.594 233.405 539.525 233.219 538.765 232.994C538.535 232.927 538.405 232.686 538.472 232.456C538.539 232.227 538.778 232.094 539.01 232.163C540.901 232.72 544.919 233.053 546.586 230.325C546.71 230.121 546.975 230.056 547.182 230.181C547.386 230.306 547.451 230.573 547.326 230.778C546.084 232.812 543.787 233.405 541.742 233.405Z" fill="#FFA2BA"/>
<path d="M543.954 243.451C540.373 243.451 538.433 241.598 537.683 240.662C537.533 240.475 537.562 240.203 537.749 240.053C537.936 239.904 538.208 239.933 538.358 240.119C539.183 241.148 541.633 243.415 546.556 242.265C546.797 242.211 547.023 242.356 547.078 242.589C547.133 242.822 546.988 243.055 546.755 243.109C545.726 243.349 544.794 243.451 543.954 243.451Z" fill="#FFA2BA"/>
<path d="M564.175 314.896C563.761 314.096 563.395 313.254 563.117 312.361C561.319 306.581 561.961 301.023 561.961 301.023C561.961 301.023 554.233 298.568 548.094 297.268C541.955 295.968 533.738 294.216 533.738 294.216C533.939 299.796 537.478 311.206 544.989 318.356C548.185 321.4 551.08 323.405 553.629 324.784C556.836 324.781 562.033 320.72 564.175 314.896Z" fill="url(#paint18_linear)"/>
<path d="M570.772 333.811C573.137 333.233 571.855 325.65 571.133 323.917C570.521 322.445 566.502 319.405 564.175 314.896C562.033 320.72 556.836 324.781 553.629 324.783C559.043 327.711 562.889 327.796 564.705 328.9C566.373 329.914 568.237 334.431 570.772 333.811Z" fill="url(#paint19_linear)"/>
<path d="M490.389 254.438C486.992 256.413 484.735 257.513 479.05 257.688C478.744 257.698 478.43 257.701 478.111 257.702C478.997 260.633 479.121 265.629 477.617 269.349C482.791 271.49 488.178 272.346 493.348 271.722C496.316 268.438 493.621 258.158 490.389 254.438Z" fill="url(#paint20_linear)"/>
<path d="M478.111 257.702C473.571 257.702 467.848 256.814 465.472 256.894C461.717 257.02 459.495 258.482 457.87 260.162C456.481 261.597 456.119 264.459 457.708 265.47C459.697 266.736 464.677 264.91 467.421 264.549C470.165 264.188 472.332 267.149 477.532 269.316C477.559 269.327 477.587 269.336 477.616 269.348C479.121 265.629 478.997 260.633 478.111 257.702Z" fill="url(#paint21_linear)"/>
<path d="M563.658 274.192C570.826 265.946 581.244 268.515 583.245 270.494C583.131 270.367 583.022 270.234 582.905 270.111C574.385 261.085 562.323 258.627 550.189 252.489C539.797 247.231 528.811 239.922 525.633 236.492C525.633 236.492 520.145 244.183 507.168 249.779C498.358 253.578 486.85 252.308 486.85 252.308C486.85 252.308 487.874 261.972 491.833 269.317C497.792 280.367 518.05 291.85 535.708 297.483C548.054 301.421 556.408 302.528 565.175 303.442C563.225 299.867 556.374 282.572 563.658 274.192Z" fill="url(#paint22_linear)"/>
<path d="M563.198 275.205C563.18 275.205 563.163 275.204 563.144 275.201C534.008 271.633 518.361 249.472 516.487 245.256C516.39 245.038 516.489 244.781 516.708 244.684C516.927 244.589 517.182 244.685 517.28 244.905C519.12 249.046 534.516 270.822 563.249 274.342C563.487 274.37 563.657 274.587 563.627 274.824C563.6 275.044 563.414 275.205 563.198 275.205Z" fill="#00E2EC"/>
<path d="M594.382 307.664C592.127 300.914 592.432 280.728 583.244 270.494C581.243 268.515 570.825 265.946 563.657 274.192C556.373 282.573 563.224 299.867 565.174 303.442C569.858 310.829 575.054 315.613 579.781 318.881C583.412 318.21 592.208 313.004 594.382 307.664Z" fill="url(#paint23_linear)"/>
<path d="M597.675 331.717C601.325 331.559 600.799 322.506 600.167 318.608C599.517 314.6 596.052 312.028 594.533 308.1C594.481 307.964 594.432 307.812 594.382 307.664C592.208 313.004 583.412 318.211 579.782 318.881C584.783 322.339 589.259 324.1 592.042 325.434C593.441 326.103 594.317 331.861 597.675 331.717Z" fill="url(#paint24_linear)"/>
<path d="M589.226 314.249C589.116 314.249 589.006 314.207 588.921 314.123C571.041 296.436 572.684 280.008 573.303 273.823C573.326 273.585 573.542 273.416 573.777 273.435C574.014 273.458 574.189 273.671 574.164 273.909C573.557 279.981 571.944 296.111 589.53 313.507C589.7 313.675 589.702 313.95 589.533 314.12C589.449 314.207 589.338 314.249 589.226 314.249Z" fill="#00E2EC"/>
<path d="M536.792 254.475C533.831 251.462 527.258 249.383 521.3 251.875C513.312 255.215 506.238 265.661 501.199 271.508C504.07 272.153 507.999 273.996 509.708 277.17C510.895 279.374 511.324 281.72 511.466 283.467C520.048 281.878 529.818 278.054 535.383 272.675C542.747 265.556 539.825 257.563 536.792 254.475Z" fill="url(#paint25_linear)"/>
<path d="M501.199 271.508C500.064 272.823 499.033 273.908 498.117 274.625C492.666 278.891 487.525 281.903 485.333 284.159C483.437 286.109 481.65 289.142 483.492 290.875C486.007 293.243 489.613 291.146 493.675 287.625C496.925 284.809 498.625 284.959 507.263 284.082C508.613 283.945 510.026 283.734 511.467 283.468C511.325 281.721 510.896 279.375 509.709 277.171C507.998 273.996 504.07 272.153 501.199 271.508Z" fill="url(#paint26_linear)"/>
<path d="M509.708 277.605C509.529 277.605 509.362 277.493 509.298 277.314C509.22 277.087 509.34 276.84 509.566 276.762C521.17 272.735 534.563 258.21 536.399 254.291C536.501 254.075 536.76 253.981 536.975 254.083C537.192 254.185 537.286 254.443 537.184 254.66C535.25 258.785 521.878 273.407 509.851 277.581C509.803 277.597 509.756 277.605 509.708 277.605Z" fill="#00E2EC"/>
<path d="M471.689 229.873C473.525 229.829 481.758 227.445 483.167 225.008C484.575 222.571 487.933 224.845 487.933 224.845C487.933 224.845 488.313 231.508 481.054 231.725C473.795 231.942 471.689 229.873 471.689 229.873Z" fill="url(#paint27_linear)"/>
<path d="M476.673 230.415C476.871 229.819 478.021 228.827 480.08 228.096C482.302 227.306 484.143 227.066 487.121 227.012C484.44 228.836 485.659 231.554 483.456 231.725C478.328 232.122 476.673 230.415 476.673 230.415Z" fill="#D039A3"/>
<path d="M491.256 203.955C490.967 201.644 491.474 190.45 492.412 190.161C493.351 189.871 500.067 197.239 500.139 202.872C497.034 204.533 491.256 203.955 491.256 203.955Z" fill="url(#paint28_linear)"/>
<path d="M459.983 208.325C460.641 207.42 461.608 207.458 462.583 207.458C463.558 207.458 482.192 207.675 482.192 207.675C482.192 207.675 489.233 202.8 494.65 202.15C500.067 201.5 507.325 202.258 507.325 202.258C507.325 202.258 510.467 199.008 513.175 196.625C515.883 194.242 519.025 191.1 520.217 191.425C521.408 191.75 520.538 200.161 519.133 204.317C517.833 208.163 514.692 212.008 514.692 212.008C514.692 212.008 515.883 219.267 518.7 225.442C521.153 230.819 525.633 236.492 525.633 236.492C525.633 236.492 520.114 245.165 508.95 249.167C494.595 254.313 486.85 252.308 486.85 252.308C486.85 252.308 486.679 248.517 486.742 245.267C486.818 241.317 486.958 238.008 486.958 238.008C486.958 238.008 482.126 237.368 478.4 235.842C473.904 234 471.792 232.321 471.689 229.873C472.597 230.15 475.154 230.829 479.375 229.992C486.471 228.583 486.85 225.442 486.85 225.442C486.85 225.442 481.737 226.97 473.633 223.708C464.75 220.133 457.384 211.9 459.983 208.325Z" fill="url(#paint29_linear)"/>
<path d="M468.58 207.52C465.452 207.485 462.926 207.458 462.583 207.458C461.608 207.458 460.641 207.42 459.983 208.325C458.689 210.105 459.866 213.039 462.47 215.979C464.739 214.849 468.267 212.003 468.58 207.52Z" fill="url(#paint30_linear)"/>
<path d="M489.739 210.24C490.657 210.24 491.401 209.496 491.401 208.578C491.401 207.661 490.657 206.917 489.739 206.917C488.822 206.917 488.078 207.661 488.078 208.578C488.078 209.496 488.822 210.24 489.739 210.24Z" fill="#212F66"/>
<path d="M489.279 208.524C489.628 208.524 489.911 208.241 489.911 207.892C489.911 207.543 489.628 207.26 489.279 207.26C488.93 207.26 488.647 207.543 488.647 207.892C488.647 208.241 488.93 208.524 489.279 208.524Z" fill="#0090B2"/>
<path d="M500.429 213.705C501.506 213.705 502.379 212.832 502.379 211.755C502.379 210.678 501.506 209.805 500.429 209.805C499.352 209.805 498.479 210.678 498.479 211.755C498.479 212.832 499.352 213.705 500.429 213.705Z" fill="#212F66"/>
<path d="M499.633 211.865C500.012 211.865 500.32 211.557 500.32 211.178C500.32 210.799 500.012 210.492 499.633 210.492C499.254 210.492 498.947 210.799 498.947 211.178C498.947 211.557 499.254 211.865 499.633 211.865Z" fill="#0090B2"/>
<path d="M513.122 179.119C495.033 167.874 471.252 173.423 460.008 191.512C448.764 209.601 454.311 233.382 472.401 244.627C490.49 255.872 514.271 250.324 525.516 232.235C536.76 214.146 531.213 190.364 513.122 179.119ZM520.485 229.465C511.488 243.939 492.461 248.378 477.987 239.38C463.514 230.383 459.074 211.356 468.073 196.882C477.07 182.408 496.097 177.968 510.571 186.966C525.043 195.963 529.483 214.991 520.485 229.465Z" fill="url(#paint31_radial)"/>
<g opacity="0.5">
<path opacity="0.5" d="M490.122 182.791L489.165 183.005L488.284 183.239C487.686 183.41 487.095 183.597 486.512 183.797C485.601 184.11 484.609 183.626 484.294 182.715C483.981 181.804 484.465 180.812 485.377 180.498C485.499 180.456 485.635 180.427 485.758 180.413C486.444 180.339 487.129 180.282 487.813 180.245L488.861 180.209L489.841 180.212C490.562 180.214 491.145 180.802 491.143 181.523C491.142 182.143 490.705 182.661 490.122 182.791Z" fill="white"/>
</g>
<g opacity="0.5">
<path opacity="0.5" d="M481.157 185.551L480.178 185.985L479.294 186.415C478.694 186.723 478.101 187.049 477.519 187.394C476.36 188.089 475.249 188.867 474.196 189.72C472.091 191.426 470.226 193.437 468.668 195.674C468.208 196.338 467.295 196.504 466.631 196.043C465.979 195.591 465.81 194.702 466.237 194.041C467.871 191.529 469.862 189.239 472.142 187.27C473.281 186.285 474.491 185.38 475.761 184.565C476.396 184.159 477.046 183.774 477.708 183.408L478.737 182.869L479.705 182.403C480.568 181.988 481.603 182.35 482.019 183.213C482.435 184.075 482.073 185.111 481.209 185.527C481.195 185.534 481.171 185.544 481.157 185.551Z" fill="white"/>
</g>
<path d="M527.867 238.524C526.935 237.759 526.166 237.067 525.633 236.492C525.633 236.492 524.994 235.681 524.066 234.384C515.39 246.471 500.801 252.18 486.772 249.981C486.807 251.348 486.85 252.308 486.85 252.308C486.85 252.308 486.989 253.611 487.359 255.62C502.584 257.491 518.187 251.305 527.867 238.524Z" fill="url(#paint32_linear)"/>
<path d="M530.149 202.407C529.001 198.02 527.08 193.844 524.499 190.13C521.913 186.422 518.675 183.174 514.969 180.602C511.275 178.006 507.149 176.05 502.792 174.886C498.443 173.71 493.886 173.332 489.405 173.739C480.434 174.541 471.797 178.607 465.533 185.061C459.24 191.478 455.305 200.157 454.722 209.115C454.035 218.062 456.637 227.226 461.952 234.479C467.23 241.757 475.183 247.043 483.941 249.13C492.698 251.255 502.192 250.115 510.234 246.022C514.264 244.001 517.947 241.267 521.03 237.958C524.121 234.658 526.621 230.799 528.4 226.629C526.686 230.826 524.242 234.736 521.186 238.102C518.138 241.478 514.47 244.294 510.427 246.4C502.323 250.594 492.71 251.798 483.809 249.692C474.907 247.62 466.79 242.296 461.37 234.907C455.916 227.545 453.199 218.209 453.86 209.054C454.505 199.893 458.572 191.06 465.019 184.557C471.438 178.013 480.246 173.931 489.354 173.166C498.463 172.347 507.809 174.923 515.213 180.257C518.918 182.914 522.129 186.242 524.673 190.011C527.21 193.786 529.069 198.004 530.149 202.407Z" fill="white"/>
<path d="M530.138 202.41C528.712 202.886 527.342 203.61 526.099 204.604C520.425 209.14 519.502 217.419 524.039 223.095C525.259 224.622 526.753 225.802 528.392 226.626C531.651 218.782 532.132 210.29 530.138 202.41Z" fill="url(#paint33_linear)"/>
<path d="M182.595 258.821C182.078 259.327 181.462 260.157 180.899 261.041C180.333 261.932 179.805 262.898 179.321 263.894C178.354 265.891 177.566 268.012 176.962 270.17C175.756 274.489 175.294 278.971 175.676 283.286C176.051 287.605 177.278 291.75 179.26 295.514C181.235 299.286 183.951 302.683 187.155 305.677L177.928 314.64C174.18 310.483 170.952 305.682 168.739 300.381C166.512 295.092 165.359 289.341 165.364 283.684C165.357 278.019 166.448 272.477 168.374 267.324C169.344 264.745 170.518 262.255 171.937 259.868C172.65 258.675 173.422 257.507 174.299 256.36C175.187 255.22 176.132 254.076 177.505 252.946L182.595 258.821Z" fill="url(#paint34_linear)"/>
<path d="M176.456 270.042C172.192 270.042 169.342 266.786 168.539 265.743C168.393 265.553 168.429 265.281 168.619 265.135C168.808 264.99 169.08 265.026 169.226 265.215C170.004 266.228 172.873 269.507 177.096 269.15C177.335 269.126 177.544 269.306 177.564 269.545C177.584 269.783 177.408 269.993 177.169 270.013C176.927 270.033 176.689 270.042 176.456 270.042Z" fill="#00E2EC"/>
<path d="M170.678 283.655C168.257 283.655 166.34 282.742 165.176 281.996C164.975 281.867 164.916 281.599 165.045 281.397C165.175 281.195 165.442 281.136 165.644 281.266C167.38 282.38 170.953 283.898 175.38 281.535C175.589 281.422 175.853 281.501 175.965 281.714C176.078 281.925 175.998 282.187 175.787 282.299C173.927 283.293 172.202 283.655 170.678 283.655Z" fill="#00E2EC"/>
<path d="M169.196 299.668C168.854 299.668 168.535 299.657 168.24 299.641C168.001 299.627 167.819 299.422 167.833 299.183C167.847 298.944 168.052 298.759 168.29 298.776C170.884 298.927 175.655 298.551 178.436 294.358C178.568 294.159 178.837 294.103 179.037 294.237C179.236 294.369 179.291 294.638 179.158 294.837C176.457 298.91 172.08 299.668 169.196 299.668Z" fill="#00E2EC"/>
<path d="M523.756 452.689C522.89 449.799 504.978 449.8 502.667 449.511C501.394 449.351 496.966 434.956 488.908 418.402C475.223 420.622 464.967 432.177 462.207 436.694L462.209 436.699C478.173 450.447 489.23 463.726 494.723 465.254C499.788 466.664 524.623 455.578 523.756 452.689Z" fill="url(#paint35_linear)"/>
<path d="M488.908 418.402C482.333 404.895 473.341 389.953 461.671 380.133C446.341 367.233 430.445 361.4 418.022 360.245C418.022 360.245 401.197 367.403 392.745 375.411C384.511 383.211 383.933 389.424 382.344 400.256C398.666 401.267 413.114 405.464 433.911 416.722C444.576 422.495 454.035 429.659 462.209 436.699L462.207 436.695C464.967 432.177 475.223 420.622 488.908 418.402Z" fill="url(#paint36_linear)"/>
<path d="M458.901 419.033C458.628 419.033 458.358 418.905 458.19 418.663C440.999 394.063 399.889 379.45 390.933 377.936C390.462 377.855 390.144 377.409 390.224 376.937C390.303 376.465 390.744 376.152 391.223 376.227C400.323 377.765 442.113 392.631 459.61 417.67C459.884 418.063 459.788 418.602 459.397 418.877C459.245 418.982 459.072 419.033 458.901 419.033Z" fill="#9F36AD"/>
<path d="M313.083 243.1C313.083 243.1 300.408 240.717 278.092 241.8C271.164 242.136 265.061 242.784 259.888 243.529C258.556 248.672 256.494 253.521 253.818 257.957C257.833 258.917 261.3 259.35 278.2 267.475C295.1 275.6 320.13 292.237 329.225 290.55C339.733 288.6 366.058 278.958 367.142 264.442C368.279 249.207 313.083 243.1 313.083 243.1Z" fill="url(#paint37_linear)"/>
<path d="M367.142 264.442C367.4 260.978 364.74 257.987 360.485 255.431C356.64 258.09 351.912 262.765 350.423 269.317C349.098 275.148 349.87 280.208 350.503 282.864C359.045 278.338 366.573 272.063 367.142 264.442Z" fill="url(#paint38_linear)"/>
<path d="M317.055 253.717C316.989 253.717 316.92 253.706 316.853 253.685C294.521 246.381 258.861 248.484 256.183 249.486C255.85 249.614 255.473 249.442 255.347 249.106C255.22 248.77 255.391 248.395 255.727 248.27C258.555 247.209 294.155 244.894 317.257 252.45C317.599 252.561 317.785 252.928 317.673 253.269C317.584 253.542 317.329 253.717 317.055 253.717Z" fill="#9F36AD"/>
<path d="M366.492 258.808C363.187 250.195 349.081 243.227 340.296 238.874C337.751 237.613 334.977 236.421 332.142 235.265C331.769 238.066 330.558 242.543 326.733 246.278C322.13 250.771 316.196 251.579 312.432 251.635C315.109 254.939 317.872 258.013 320.666 260.326C327.712 266.16 342.092 275.097 352.956 276.079C357.625 276.501 361.742 275.523 364.153 272.058C365.881 269.573 369.014 265.381 366.492 258.808Z" fill="url(#paint39_linear)"/>
<path d="M364.153 272.057C365.882 269.573 369.014 265.382 366.492 258.808C365.818 257.053 364.691 255.368 363.257 253.757C359.351 255.763 352.304 261.04 350.423 269.317C349.918 271.54 349.721 273.648 349.702 275.558C350.811 275.793 351.905 275.983 352.957 276.078C357.626 276.5 361.742 275.522 364.153 272.057Z" fill="url(#paint40_linear)"/>
<path d="M332.143 235.265C321.581 230.959 310.17 227.168 306.583 222.3C303.012 217.454 304.362 209.137 302.792 203.233C301.62 198.83 297.97 193.537 294.342 194.133C289.926 194.858 289.25 200.85 290.117 205.617C290.983 210.383 292.067 214.283 289.358 214.933C287.038 215.491 284.027 213.625 282.642 213.092C281.703 212.73 278.008 212.64 279.283 216.992C280.945 222.661 290.839 227.231 296.508 232.05C300.987 235.857 306.498 244.311 312.432 251.634C316.197 251.578 322.13 250.77 326.733 246.277C330.559 242.543 331.77 238.066 332.143 235.265Z" fill="url(#paint41_linear)"/>
<path d="M384.367 335.617C384.367 335.617 369.778 313.155 338.325 289.9C304.248 264.704 256.331 253.294 251.767 253.5C251.767 253.5 242.883 264.983 233.133 271.05C223.383 277.117 203.233 277.767 203.233 277.767C203.233 277.767 206.483 305.392 220.567 338.758C225.104 349.508 229.989 357.357 235.866 367.656C253.067 397.8 280.367 429 316.983 430.95C311.711 401.555 334.1 357.067 384.367 335.617Z" fill="url(#paint42_linear)"/>
<path d="M357.185 352.087C356.932 352.087 356.68 351.977 356.509 351.764C319.45 305.759 274.318 274.938 246.931 262.523C246.495 262.325 246.302 261.812 246.499 261.376C246.697 260.94 247.21 260.747 247.647 260.944C275.207 273.438 320.608 304.435 357.859 350.677C358.159 351.05 358.101 351.596 357.728 351.895C357.568 352.025 357.375 352.087 357.185 352.087Z" fill="#FFA2BA"/>
<path d="M317.055 413.208C317.021 413.208 316.987 413.206 316.952 413.202C273.453 408.071 245.14 364.024 243.955 362.151C243.7 361.747 243.82 361.212 244.225 360.956C244.63 360.699 245.164 360.821 245.421 361.226C255.298 376.846 283.001 407.452 317.156 411.48C317.631 411.536 317.971 411.967 317.915 412.442C317.863 412.883 317.489 413.208 317.055 413.208Z" fill="#FFA2BA"/>
<path d="M255.812 307.089C254.223 314.889 283.256 341.358 291.633 341.358C299.762 341.358 329.539 307.752 338.529 290.053C338.459 290.001 338.394 289.95 338.325 289.9C325.845 280.673 311.51 273.296 298.126 267.66C285.823 275.117 257.554 298.538 255.812 307.089Z" fill="url(#paint43_linear)"/>
<path d="M289.68 316.938C293.869 316.938 297.266 313.541 297.266 309.352C297.266 305.162 293.869 301.766 289.68 301.766C285.49 301.766 282.094 305.162 282.094 309.352C282.094 313.541 285.49 316.938 289.68 316.938Z" fill="#1AA9E8"/>
<path d="M300.867 301.476C302.695 301.476 304.177 299.994 304.177 298.165C304.177 296.337 302.695 294.855 300.867 294.855C299.038 294.855 297.556 296.337 297.556 298.165C297.556 299.994 299.038 301.476 300.867 301.476Z" fill="#1AA9E8"/>
<path d="M289.68 326.035C280.481 326.035 272.997 318.55 272.997 309.352C272.997 300.153 280.481 292.668 289.68 292.668C298.879 292.668 306.363 300.153 306.363 309.352C306.363 318.55 298.879 326.035 289.68 326.035ZM289.68 294.402C281.436 294.402 274.73 301.108 274.73 309.352C274.73 317.595 281.436 324.302 289.68 324.302C297.924 324.302 304.63 317.595 304.63 309.352C304.63 301.108 297.924 294.402 289.68 294.402Z" fill="#1AA9E8"/>
<path d="M308.719 293.262C308.285 293.262 307.85 293.099 307.513 292.773C306.825 292.107 306.808 291.009 307.474 290.322L319.804 277.599C320.472 276.911 321.569 276.895 322.255 277.56C322.943 278.227 322.96 279.324 322.294 280.011L309.963 292.735C309.624 293.086 309.171 293.262 308.719 293.262Z" fill="#9F36AD"/>
<path d="M300.963 286.297C300.525 286.297 300.085 286.131 299.748 285.799C299.065 285.128 299.056 284.03 299.728 283.348L310.32 272.58C310.99 271.898 312.089 271.889 312.771 272.56C313.453 273.231 313.462 274.329 312.79 275.011L302.199 285.779C301.859 286.124 301.411 286.297 300.963 286.297Z" fill="#9F36AD"/>
<path d="M317.873 299.766C317.464 299.766 317.053 299.622 316.723 299.329C316.007 298.694 315.942 297.598 316.577 296.882L328.813 283.093C329.45 282.377 330.546 282.313 331.261 282.948C331.977 283.583 332.042 284.679 331.407 285.395L319.17 299.184C318.827 299.569 318.351 299.766 317.873 299.766Z" fill="#9F36AD"/>
<path d="M485.45 350.506C461.049 341.974 430.659 330.079 409.933 330.85C392.6 331.496 384.367 335.617 384.367 335.617C334.1 357.067 311.711 401.555 316.983 430.95C381.266 434.373 400.13 396.549 434.2 384.8C447.645 380.163 464.243 379.629 479.409 379.935C479.409 379.934 479.408 379.934 479.408 379.933C475.794 364.087 483.311 353.745 485.45 350.506Z" fill="url(#paint44_linear)"/>
<path d="M409.717 354.323C427.884 352.743 432.627 339.316 432.359 333.496C424.234 331.664 416.585 330.602 409.933 330.85C392.6 331.496 384.367 335.617 384.367 335.617C385.161 344.789 392.61 355.811 409.717 354.323Z" fill="url(#paint45_linear)"/>
<path d="M407.81 347.1C407.095 347.1 406.513 346.523 406.51 345.807L406.43 330.755C406.427 330.038 407.006 329.453 407.723 329.448C407.726 329.448 407.728 329.448 407.73 329.448C408.445 329.448 409.027 330.026 409.03 330.742L409.11 345.793C409.113 346.511 408.535 347.096 407.817 347.1C407.814 347.1 407.813 347.1 407.81 347.1Z" fill="#9F36AD"/>
<path d="M417.666 347.086C416.951 347.086 416.369 346.508 416.366 345.793L416.291 331.113C416.288 330.395 416.867 329.81 417.584 329.806C417.587 329.806 417.589 329.806 417.591 329.806C418.306 329.806 418.888 330.384 418.891 331.099L418.966 345.779C418.969 346.498 418.39 347.083 417.673 347.086C417.67 347.086 417.667 347.086 417.666 347.086Z" fill="#9F36AD"/>
<path d="M398.172 347.155C397.475 347.155 396.899 346.602 396.874 345.901L396.38 332.061C396.355 331.343 396.916 330.741 397.633 330.715C398.344 330.682 398.952 331.249 398.979 331.967L399.472 345.808C399.497 346.525 398.936 347.128 398.219 347.154C398.203 347.155 398.186 347.155 398.172 347.155Z" fill="#9F36AD"/>
<path d="M326.664 413.766C323.452 413.766 320.214 413.586 316.953 413.202C316.478 413.147 316.138 412.715 316.194 412.24C316.25 411.764 316.682 411.426 317.156 411.481C351.692 415.557 384.037 396.157 405.44 383.321C413.165 378.688 419.267 375.029 423.932 373.3C439.154 367.657 462.037 368.979 478.553 371.08C479.028 371.141 479.365 371.574 479.304 372.049C479.243 372.524 478.816 372.855 478.335 372.8C462.009 370.722 439.425 369.404 424.534 374.924C420.021 376.598 413.676 380.401 406.331 384.807C386.733 396.56 358.044 413.766 326.664 413.766Z" fill="#FFA2BA"/>
<path d="M519.567 379.167C523.337 377.584 528.379 374.517 534.083 365.083C537.839 358.873 540.728 347.251 538.417 347.317C533.361 347.461 527.354 358.109 519.133 358.8C512.118 359.389 499.823 355.531 485.449 350.506C483.311 353.745 475.794 364.088 479.408 379.933C479.408 379.934 479.409 379.935 479.409 379.935C497.319 380.295 513.23 381.826 519.567 379.167Z" fill="url(#paint46_linear)"/>
<path d="M495.733 374.4C498.605 374.4 500.933 372.072 500.933 369.2C500.933 366.328 498.605 364 495.733 364C492.861 364 490.533 366.328 490.533 369.2C490.533 372.072 492.861 374.4 495.733 374.4Z" fill="#9F36AD"/>
<path d="M230.967 391.3C232.917 372.883 238.767 362.808 239.417 348.4C240.126 332.677 234.991 287.009 205.617 280.583C200.417 279.445 194.567 280.638 194.567 280.638C182.722 297.267 171.311 321.533 172.322 352.733C173.436 387.124 193.388 409.809 205.255 421.633C205.356 421.733 205.45 421.828 205.55 421.927C209.263 418.432 218.144 412.487 231.153 412.243C230.474 405.278 230.267 397.901 230.967 391.3Z" fill="url(#paint47_linear)"/>
<path d="M189.583 367.358C185.916 355.763 176.844 352.707 172.318 352.484C172.32 352.568 172.32 352.649 172.323 352.733C172.843 368.77 177.46 382.26 183.442 393.292C188.436 389.632 193.267 379.001 189.583 367.358Z" fill="url(#paint48_linear)"/>
<path d="M175.517 374.118C174.955 374.118 174.437 373.751 174.27 373.185C174.068 372.496 174.463 371.773 175.152 371.571L183.745 369.048C184.434 368.849 185.156 369.243 185.359 369.93C185.561 370.619 185.167 371.342 184.478 371.544L175.884 374.066C175.762 374.101 175.638 374.118 175.517 374.118Z" fill="#9F36AD"/>
<path d="M173.969 367.165C173.407 367.165 172.889 366.797 172.722 366.231C172.52 365.542 172.915 364.82 173.604 364.618L181.785 362.216C182.474 362.016 183.196 362.41 183.399 363.098C183.601 363.787 183.206 364.509 182.517 364.711L174.336 367.113C174.214 367.148 174.091 367.165 173.969 367.165Z" fill="#9F36AD"/>
<path d="M177.62 381.443C177.079 381.443 176.575 381.104 176.39 380.564C176.158 379.884 176.52 379.145 177.199 378.914L185.46 376.089C186.141 375.854 186.878 376.219 187.111 376.899C187.343 377.578 186.981 378.317 186.301 378.549L178.041 381.373C177.901 381.422 177.758 381.443 177.62 381.443Z" fill="#9F36AD"/>
<path d="M210.601 408.778C210.306 408.778 210.019 408.628 209.857 408.358C209.708 408.11 209.511 407.791 209.272 407.402C193.241 381.404 189.207 358.785 188.646 344.389C187.369 311.657 196.985 288.365 202.868 279.763C203.138 279.368 203.679 279.267 204.073 279.537C204.468 279.808 204.57 280.347 204.299 280.742C198.537 289.168 189.119 312.042 190.378 344.321C190.932 358.51 194.915 380.815 210.748 406.492C210.992 406.888 211.193 407.213 211.344 407.465C211.591 407.876 211.458 408.408 211.047 408.654C210.907 408.738 210.753 408.778 210.601 408.778Z" fill="#FFA2BA"/>
<path d="M225.93 446.008C227.753 451.811 222.95 457.745 222.625 462.908C222.258 468.746 229.165 476.75 232.808 476.558C236.239 476.378 238.008 472.333 237.9 469.517C237.792 466.7 236.492 459.983 238.983 459.442C241.475 458.9 240.744 463.892 241.908 465.617C242.883 467.061 245.339 466.989 246.025 464.967C246.725 462.902 247 457.095 245.267 453.483C243.149 449.069 239.2 444.275 236.383 437.883C234.635 433.917 232.262 423.634 231.153 412.243C218.145 412.487 209.264 418.432 205.55 421.927C219.718 436.041 224.154 440.36 225.93 446.008Z" fill="url(#paint49_linear)"/>
<path d="M228.475 243.208C229.715 245.158 236.817 253.067 240.825 255.233C239.633 258.917 234.758 264.767 227.067 268.342C220.771 271.267 212.929 272.458 212.929 272.458C212.929 272.458 209.949 265.2 208.107 256.587C206.857 250.738 206.374 245.266 206.374 245.266C206.374 245.266 211.412 248.029 217.749 247.866C223.993 247.706 228.475 243.208 228.475 243.208Z" fill="url(#paint50_linear)"/>
<path d="M229.305 230.605C226.777 220.494 219.05 210.238 216.955 207.494H210.961L189.799 220.494L189.149 231.616C189.149 231.616 192.059 235.32 196.717 240.241C194.9 240.985 193.627 242.711 193.627 244.723C193.627 247.416 195.907 249.598 198.719 249.598C200.777 249.598 202.545 248.427 203.348 246.745C210.974 253.05 221.11 252.962 225.911 249.67C230.952 246.215 231.833 240.716 229.305 230.605Z" fill="url(#paint51_linear)"/>
<path d="M210.167 231.617C211.124 231.617 211.9 230.841 211.9 229.883C211.9 228.926 211.124 228.15 210.167 228.15C209.209 228.15 208.433 228.926 208.433 229.883C208.433 230.841 209.209 231.617 210.167 231.617Z" fill="#212F66"/>
<path d="M222.372 223.166C223.249 223.166 223.961 222.455 223.961 221.578C223.961 220.701 223.249 219.989 222.372 219.989C221.495 219.989 220.783 220.701 220.783 221.578C220.783 222.455 221.495 223.166 222.372 223.166Z" fill="#212F66"/>
<path d="M216.272 222.113C217.507 220.725 226.466 228.059 226.235 229.603C226.003 231.148 223.708 232.213 222.137 232.483C220.424 229.395 215.654 222.808 216.272 222.113Z" fill="url(#paint52_linear)"/>
<path d="M222.49 241.006C221.478 241.006 220.523 240.674 219.729 240.047C219.541 239.898 219.51 239.625 219.658 239.438C219.807 239.25 220.08 239.219 220.267 239.367C220.906 239.872 221.675 240.14 222.489 240.14C224.475 240.14 226.091 238.513 226.091 236.511C226.091 236.264 226.067 236.017 226.018 235.778C225.97 235.543 226.122 235.315 226.356 235.268C226.592 235.218 226.82 235.372 226.866 235.606C226.927 235.902 226.957 236.206 226.957 236.511C226.958 238.989 224.955 241.006 222.49 241.006Z" fill="#954374"/>
<path d="M221.722 195.65C219.483 193.555 216.161 196.011 214.139 198.25C212.117 200.488 210.521 203.096 208.65 202.945C205.978 202.728 206.901 196.344 203.595 196.733C198.683 197.311 196.228 208.722 194.64 209.588C193.051 210.455 191.719 206.865 189.223 208.433C186.118 210.383 187.077 219.617 186.695 221.867C186.437 223.381 181.986 226.138 182.433 231.617C182.972 238.216 189.474 243.117 193.629 244.745C193.629 244.738 193.628 244.731 193.628 244.725C193.628 242.415 195.308 240.484 197.56 239.982C197.541 237.618 197.09 234.912 196.517 232.917C195.145 228.151 192.004 224.449 192.004 224.449C194.026 224.233 206.556 220.495 215.295 212.84C222.761 206.299 224.079 197.855 221.722 195.65Z" fill="url(#paint53_linear)"/>
<path d="M207.03 189.069C192.247 189.069 179.304 196.945 172.165 208.73C178.892 202.639 187.814 198.927 197.605 198.927C218.546 198.927 235.522 215.902 235.522 236.844C235.522 250.546 228.252 262.548 217.362 269.21C234.855 264.637 247.764 248.728 247.764 229.802C247.764 207.306 229.526 189.069 207.03 189.069Z" fill="url(#paint54_radial)"/>
<path d="M217.45 264.635C204.395 264.635 190.278 259.98 183.156 250.178C170.301 232.483 178.426 199.875 192.419 191.78C177.144 197.654 166.298 212.456 166.298 229.802C166.298 252.299 184.534 270.535 207.031 270.535C216.472 270.535 225.156 267.315 232.063 261.924C227.525 263.669 222.602 264.635 217.45 264.635Z" fill="url(#paint55_linear)"/>
<path d="M176.818 244.681C174.292 244.681 171.945 245.439 169.983 246.732C173.481 254.374 179.267 260.743 186.472 264.963C188.212 262.823 189.259 260.095 189.259 257.122C189.26 250.25 183.69 244.681 176.818 244.681Z" fill="url(#paint56_linear)"/>
<g opacity="0.5">
<path opacity="0.5" d="M227.176 203.192L228.046 203.749L228.946 204.373C229.527 204.793 230.098 205.23 230.66 205.684C231.33 206.226 231.434 207.209 230.891 207.88C230.35 208.55 229.367 208.654 228.697 208.111C228.622 208.05 228.546 207.975 228.485 207.904C228.062 207.403 227.623 206.912 227.171 206.431L226.492 205.736L225.742 205.025C225.274 204.581 225.254 203.841 225.698 203.373C226.09 202.959 226.713 202.895 227.176 203.192Z" fill="white"/>
</g>
<g opacity="0.5">
<path opacity="0.5" d="M235.086 210.69C235.948 211.993 236.746 213.399 237.425 214.828C238.108 216.262 238.689 217.744 239.162 219.258C240.109 222.286 240.619 225.443 240.685 228.6C240.702 229.408 240.06 230.078 239.251 230.095C238.458 230.111 237.799 229.49 237.758 228.703C237.611 225.82 237.062 222.968 236.123 220.256C235.654 218.899 235.091 217.578 234.437 216.303C233.779 215.023 233.048 213.814 232.207 212.621C231.655 211.839 231.842 210.757 232.624 210.205C233.405 209.653 234.488 209.84 235.04 210.622C235.049 210.634 235.056 210.645 235.064 210.657L235.086 210.69Z" fill="white"/>
</g>
<path d="M259.888 243.529C252.737 244.559 247.379 245.773 244.129 246.617C237.726 260.721 223.528 270.536 207.029 270.536C205.547 270.536 204.085 270.452 202.643 270.298C199.115 274.152 195.298 279.534 193.185 282.628C197.607 283.783 202.245 284.403 207.028 284.403C232.443 284.402 253.8 267.039 259.888 243.529Z" fill="url(#paint57_linear)"/>
<path d="M192.415 191.769C196.848 189.958 201.631 189.001 206.437 188.864C211.244 188.749 216.082 189.485 220.646 191.051C229.797 194.16 237.701 200.71 242.591 209.055C247.485 217.4 249.24 227.537 247.464 237.018C246.582 241.762 244.852 246.338 242.386 250.468C239.893 254.581 236.694 258.26 232.942 261.234C240.223 255.019 245.246 246.277 246.808 236.902C247.589 232.218 247.592 227.408 246.754 222.746C245.918 218.081 244.248 213.572 241.844 209.492C239.471 205.395 236.357 201.73 232.717 198.696C229.071 195.665 224.888 193.293 220.425 191.678C211.492 188.451 201.407 188.488 192.415 191.769Z" fill="white"/>
<path d="M301.33 217.801C301.443 218.246 301.174 218.697 300.73 218.811L286.335 222.799C285.891 222.912 285.439 222.643 285.326 222.199L276.312 190.572C276.2 190.129 276.468 189.676 276.912 189.563L292.173 184.708C292.617 184.595 293.069 184.864 293.182 185.307L301.33 217.801Z" fill="url(#paint58_linear)"/>
<path d="M297.949 215.519L286.509 218.756L278.581 191.209L290.826 187.121L297.949 215.519Z" fill="url(#paint59_linear)"/>
<path d="M319.404 152.963C319.801 154.342 319.004 155.783 317.624 156.18L259.347 173.812C257.967 174.209 256.526 173.412 256.129 172.032L250.981 153.257C250.584 151.878 251.381 150.437 252.762 150.04L311.038 132.841C312.418 132.444 313.858 133.242 314.255 134.622L319.404 152.963Z" fill="#C7A0F6"/>
<path d="M311.758 134.472C312.142 134.472 312.484 134.73 312.588 135.09L317.739 153.442C317.871 153.901 317.605 154.382 317.123 154.521L258.869 172.146C258.79 172.169 258.709 172.181 258.628 172.181C258.245 172.181 257.904 171.923 257.802 171.573L252.648 152.778C252.562 152.477 252.658 152.236 252.723 152.118C252.788 152.001 252.941 151.792 253.253 151.701L311.518 134.506C311.597 134.484 311.678 134.473 311.758 134.472ZM311.758 132.739C311.521 132.739 311.279 132.772 311.039 132.841L252.763 150.04C251.383 150.437 250.586 151.877 250.982 153.257L256.131 172.032C256.458 173.171 257.498 173.914 258.627 173.914C258.865 173.914 259.108 173.881 259.348 173.812L317.625 156.18C319.005 155.783 319.802 154.342 319.405 152.962L314.257 134.621C313.929 133.482 312.888 132.739 311.758 132.739Z" fill="#FDE1A7"/>
<path d="M286.433 200.633C288.189 200.633 289.611 199.211 289.611 197.455C289.611 195.7 288.189 194.277 286.433 194.277C284.678 194.277 283.255 195.7 283.255 197.455C283.255 199.211 284.678 200.633 286.433 200.633Z" fill="#FE697A"/>
<path d="M286.434 198.105C286.416 198.105 286.398 198.104 286.379 198.104C286.021 198.073 285.756 197.759 285.785 197.401L288.538 164.728C288.569 164.37 288.886 164.113 289.241 164.135C289.599 164.165 289.864 164.48 289.835 164.837L287.082 197.51C287.052 197.85 286.769 198.105 286.434 198.105Z" fill="#FDE1A7"/>
<path d="M108.983 416.217C110.659 416.217 112.017 414.859 112.017 413.183C112.017 411.508 110.659 410.15 108.983 410.15C107.308 410.15 105.95 411.508 105.95 413.183C105.95 414.859 107.308 416.217 108.983 416.217Z" fill="#FE697A"/>
<path d="M253.367 363.678C255.042 363.678 256.4 362.32 256.4 360.644C256.4 358.969 255.042 357.611 253.367 357.611C251.691 357.611 250.333 358.969 250.333 360.644C250.333 362.32 251.691 363.678 253.367 363.678Z" fill="#FE697A"/>
<path d="M370.167 303.784C371.842 303.784 373.201 302.426 373.201 300.751C373.201 299.075 371.842 297.717 370.167 297.717C368.492 297.717 367.134 299.075 367.134 300.751C367.134 302.426 368.492 303.784 370.167 303.784Z" fill="#FE697A"/>
<path d="M434.124 206.916C435.799 206.916 437.157 205.558 437.157 203.882C437.157 202.207 435.799 200.849 434.124 200.849C432.448 200.849 431.09 202.207 431.09 203.882C431.09 205.558 432.448 206.916 434.124 206.916Z" fill="#FE697A"/>
<path d="M423.078 161.2C422.609 161.2 422.224 160.826 422.211 160.354C422.133 157.148 421.321 154.859 419.729 153.356C416.398 150.213 409.696 150.439 401.218 150.726L398.983 150.8C395.684 150.897 393.591 150.303 392.36 148.919C390.686 147.034 391.11 144.202 391.559 141.203C391.966 138.499 392.384 135.701 391.371 133.381C388.375 126.514 370.702 126.712 356.048 130.835C340.861 135.106 329.094 139.747 328.977 139.793C328.533 139.968 328.028 139.751 327.852 139.305C327.675 138.861 327.894 138.357 328.339 138.181C328.457 138.134 340.301 133.462 355.579 129.165C367.923 125.694 388.986 123.58 392.961 132.687C394.173 135.464 393.696 138.649 393.274 141.46C392.87 144.159 392.52 146.489 393.656 147.767C394.507 148.725 396.234 149.149 398.928 149.068L401.158 148.995C410.041 148.694 417.06 148.457 420.917 152.097C422.864 153.933 423.854 156.621 423.944 160.313C423.955 160.791 423.576 161.189 423.098 161.2C423.092 161.2 423.085 161.2 423.078 161.2Z" fill="#FDE1A7"/>
<path d="M427.991 153.965C427.639 153.965 427.35 153.684 427.341 153.331C427.198 147.447 424.784 144.667 419.006 143.733C418.652 143.676 418.41 143.343 418.468 142.988C418.525 142.634 418.867 142.394 419.213 142.45C425.576 143.478 428.483 146.823 428.641 153.299C428.65 153.658 428.366 153.956 428.008 153.964C428.002 153.965 427.996 153.965 427.991 153.965Z" fill="#FDE1A7"/>
<path d="M333.324 130.612C333.12 130.612 332.918 130.516 332.791 130.335C332.585 130.041 332.657 129.635 332.951 129.43C334.828 128.115 344.861 122.901 356.099 123.354C356.458 123.369 356.737 123.672 356.723 124.03C356.71 124.388 356.401 124.675 356.048 124.654C345.154 124.213 335.502 129.23 333.697 130.495C333.583 130.574 333.453 130.612 333.324 130.612Z" fill="#FDE1A7"/>
<path d="M355.965 146.104C355.884 146.104 355.801 146.088 355.719 146.055C353.472 145.136 347.11 145.235 345.058 145.344C344.679 145.354 344.393 145.087 344.374 144.73C344.356 144.371 344.631 144.065 344.989 144.046C345.072 144.043 353.269 143.649 356.211 144.852C356.543 144.988 356.703 145.368 356.567 145.701C356.464 145.951 356.222 146.104 355.965 146.104Z" fill="#FDE1A7"/>
<path d="M415.929 266.067C415.893 266.067 415.857 266.065 415.821 266.06C415.346 266.001 415.009 265.567 415.068 265.093C415.704 260.005 421.05 257.653 426.22 255.378C432.052 252.812 437.562 250.388 437.667 244.529C437.741 240.407 434.309 238.293 430.336 235.846C426.417 233.431 421.974 230.695 421.351 225.436C420.612 219.204 425.194 214.009 428.873 209.836C430.887 207.553 432.789 205.396 433.292 203.643C433.423 203.184 433.904 202.918 434.363 203.049C434.823 203.18 435.089 203.661 434.957 204.121C434.347 206.249 432.413 208.442 430.173 210.982C426.542 215.101 422.425 219.768 423.073 225.231C423.597 229.658 427.313 231.947 431.246 234.369C435.301 236.867 439.493 239.449 439.401 244.559C439.275 251.527 432.71 254.415 426.919 256.964C421.974 259.139 417.303 261.195 416.79 265.307C416.733 265.746 416.36 266.067 415.929 266.067Z" fill="#FDE1A7"/>
<path d="M411.234 233.892C411.029 233.892 410.826 233.795 410.7 233.614C405.954 226.803 408.356 220.351 410.289 217.891C410.511 217.608 410.92 217.559 411.201 217.781C411.484 218.003 411.533 218.412 411.311 218.694C411.261 218.757 406.379 225.14 411.766 232.871C411.972 233.166 411.899 233.57 411.604 233.776C411.492 233.855 411.362 233.892 411.234 233.892Z" fill="#FDE1A7"/>
<path d="M325.651 348.725C325.364 348.725 325.083 348.583 324.918 348.322C324.662 347.918 324.782 347.383 325.185 347.126C327.691 345.538 332.095 345.108 337.196 344.609C341.486 344.191 346.348 343.716 350.277 342.424C356.692 340.314 363.744 335.763 364.296 329.315C364.656 325.106 362.678 323.094 360.585 320.966C358.82 319.171 356.995 317.315 356.85 314.208C356.475 306.142 369.262 300.211 369.807 299.962C370.24 299.764 370.756 299.955 370.955 300.391C371.153 300.826 370.962 301.34 370.526 301.539C366.283 303.476 358.324 308.6 358.582 314.127C358.695 316.573 360.143 318.045 361.82 319.751C363.99 321.957 366.45 324.458 366.023 329.463C365.399 336.753 357.76 341.789 350.819 344.07C346.707 345.422 341.744 345.907 337.365 346.334C332.688 346.791 328.27 347.222 326.115 348.591C325.971 348.682 325.809 348.725 325.651 348.725Z" fill="#FDE1A7"/>
<path d="M350.568 313.192C350.535 313.192 350.503 313.19 350.47 313.187C349.994 313.133 349.652 312.704 349.705 312.229C350.812 302.38 357.893 298.423 360.529 297.73C360.992 297.607 361.467 297.885 361.588 298.348C361.709 298.81 361.433 299.284 360.97 299.407C358.81 299.975 352.42 303.587 351.427 312.424C351.379 312.865 351.003 313.192 350.568 313.192Z" fill="#FDE1A7"/>
<path d="M252.323 361.628C249.869 361.628 243.718 360.504 230.319 352.836C228.56 351.829 226.775 350.79 224.962 349.736C207.07 339.331 186.793 327.545 163.513 329.547C146.27 331.036 138.083 341.193 135.393 344.531C135.13 344.857 134.922 345.116 134.764 345.292C134.446 345.65 133.898 345.683 133.54 345.364C133.182 345.047 133.15 344.498 133.468 344.141C133.612 343.979 133.803 343.743 134.044 343.444C136.848 339.962 145.385 329.372 163.365 327.82C187.185 325.754 207.719 337.704 225.835 348.239C227.643 349.29 229.425 350.327 231.181 351.331C248.261 361.105 253.042 359.837 253.087 359.824C253.533 359.688 254.021 359.928 254.172 360.37C254.322 360.811 254.112 361.287 253.677 361.454C253.549 361.502 253.142 361.628 252.323 361.628Z" fill="#FDE1A7"/>
<path d="M130.939 332.8C130.796 332.8 130.653 332.753 130.533 332.658C130.253 332.434 130.208 332.024 130.432 331.744C132.804 328.778 139.679 321.988 152.299 323.052C152.656 323.082 152.922 323.396 152.892 323.754C152.862 324.112 152.541 324.376 152.19 324.348C140.203 323.343 133.689 329.753 131.447 332.556C131.318 332.716 131.129 332.8 130.939 332.8Z" fill="#FDE1A7"/>
<path d="M106.816 449.15C106.364 449.15 105.984 448.801 105.952 448.343C104.835 432.262 106.707 418.1 108.149 412.949C108.278 412.488 108.757 412.219 109.216 412.349C109.678 412.477 109.946 412.956 109.817 413.417C108.407 418.455 106.579 432.359 107.681 448.223C107.714 448.7 107.354 449.114 106.876 449.148C106.857 449.149 106.836 449.15 106.816 449.15Z" fill="#FDE1A7"/>
<path d="M147.035 505.324C146.923 505.324 146.809 505.302 146.699 505.257C146.415 505.136 139.732 502.267 138.98 497.456C138.487 494.3 139.877 492.282 141.222 490.33C142.02 489.171 142.846 487.973 143.332 486.482C145.187 480.797 141.229 477.675 139.548 476.952C139.109 476.762 138.906 476.253 139.095 475.813C139.283 475.374 139.793 475.173 140.234 475.36C142.319 476.258 147.237 480.102 144.98 487.021C144.416 488.751 143.477 490.112 142.65 491.314C141.34 493.214 140.306 494.716 140.693 497.189C141.296 501.045 147.313 503.634 147.373 503.66C147.813 503.846 148.021 504.355 147.834 504.795C147.694 505.126 147.372 505.324 147.035 505.324Z" fill="#FDE1A7"/>
<path d="M151.122 492.815C150.966 492.815 150.81 492.759 150.686 492.646C150.42 492.406 150.399 491.995 150.64 491.729C152.79 489.351 152.959 486.747 152.721 484.982C152.366 482.337 151 480.378 150.144 479.832C149.841 479.639 149.752 479.236 149.946 478.935C150.139 478.632 150.541 478.543 150.843 478.736C152.09 479.531 153.624 481.93 154.01 484.808C154.284 486.847 154.089 489.854 151.604 492.6C151.475 492.743 151.298 492.815 151.122 492.815Z" fill="#FDE1A7"/>
<path d="M321.168 141.706L326.574 132.835L330.853 145.462L321.168 141.706Z" fill="#FE697A"/>
<g clip-path="url(#clip0)">
<path d="M388.787 287.199C384.413 289.84 378.705 288.43 376.064 284.055L372.953 278.902L380.588 274.292L381.9 276.466L376.439 279.763L378.237 282.743C380.155 285.919 384.299 286.943 387.475 285.026L388.787 287.199Z" fill="#FFC738"/>
<path d="M404.492 277.719L403.18 275.545C406.356 273.628 407.38 269.483 405.463 266.307L403.664 263.328L398.203 266.625L396.891 264.451L404.526 259.842L407.637 264.995C410.278 269.37 408.867 275.078 404.492 277.719Z" fill="#FE9D4E"/>
<path d="M409.586 290.989L411.599 294.322L400.169 301.222L398.157 297.888C399.829 294.882 399.411 292.274 398.174 290.241L397.126 288.505L401.763 285.705L402.811 287.442C404.056 289.528 406.197 291.077 409.586 290.989Z" fill="#FFC738"/>
<path d="M409.586 290.989L411.599 294.322L405.884 297.772L399.445 287.105L401.763 285.705L402.811 287.441C404.056 289.527 406.197 291.077 409.586 290.989Z" fill="#FE9D4E"/>
<path d="M400.085 267.204L404.022 273.725C405.568 276.286 405.929 279.231 405.264 281.923C404.598 284.615 402.907 287.053 400.346 288.598C395.224 291.69 388.565 290.045 385.473 284.923L381.536 278.402L389.918 271.323L400.085 267.204Z" fill="#FFF259"/>
<path d="M400.085 267.204L404.022 273.725C405.568 276.286 405.929 279.231 405.264 281.923C404.598 284.615 402.907 287.053 400.346 288.598L389.917 271.323L400.085 267.204Z" fill="#FFC738"/>
<path d="M397.156 301.656L413.387 291.859L417.585 298.814L401.355 308.612L397.156 301.656Z" fill="#49458A"/>
<path d="M405.272 296.758L413.387 291.859L417.585 298.814L409.47 303.713L405.272 296.758Z" fill="#3D3973"/>
<path d="M397.918 309.243L419.745 296.067L421.057 298.24L399.23 311.417L397.918 309.243Z" fill="#3D3973"/>
<path d="M408.832 302.655L419.745 296.067L421.057 298.241L410.144 304.829L408.832 302.655Z" fill="#2E2753"/>
<path d="M378.474 273.33L397.023 262.132L400.085 267.204L381.536 278.402L378.474 273.33Z" fill="#FFC738"/>
<path d="M387.749 267.731L397.023 262.132L400.085 267.204L390.811 272.803L387.749 267.731Z" fill="#FE9D4E"/>
</g>
<g clip-path="url(#clip1)">
<path d="M281.156 153.188C279.339 153.697 277.447 152.633 276.938 150.816L276.338 148.676L279.509 147.788L279.762 148.691L277.494 149.326L277.84 150.564C278.21 151.883 279.584 152.655 280.903 152.286L281.156 153.188Z" fill="#FFC738"/>
<path d="M287.678 151.361L287.425 150.459C288.744 150.089 289.517 148.715 289.147 147.396L288.801 146.159L286.532 146.794L286.28 145.891L289.45 145.003L290.05 147.143C290.559 148.96 289.495 150.852 287.678 151.361Z" fill="#FE9D4E"/>
<path d="M288.184 156.585L288.572 157.969L283.825 159.299L283.437 157.915C284.328 157.01 284.437 156.04 284.196 155.195L283.994 154.474L285.92 153.935L286.122 154.656C286.36 155.52 286.969 156.283 288.184 156.585Z" fill="#FFC738"/>
<path d="M288.184 156.585L288.572 157.97L286.199 158.634L284.958 154.204L285.92 153.935L286.122 154.656C286.36 155.52 286.969 156.283 288.184 156.585Z" fill="#FE9D4E"/>
<path d="M287.145 147.186L287.904 149.894C288.202 150.957 288.04 152.041 287.539 152.934C287.037 153.826 286.195 154.527 285.131 154.825C283.004 155.421 280.796 154.179 280.2 152.052L279.442 149.344L283.121 147.65L287.145 147.186Z" fill="#FFF259"/>
<path d="M287.145 147.186L287.904 149.894C288.202 150.957 288.04 152.041 287.539 152.933C287.037 153.826 286.195 154.527 285.131 154.825L283.121 147.65L287.145 147.186Z" fill="#FFC738"/>
<path d="M282.71 159.157L289.451 157.269L290.26 160.157L283.519 162.046L282.71 159.157Z" fill="#49458A"/>
<path d="M286.08 158.213L289.451 157.269L290.26 160.157L286.89 161.102L286.08 158.213Z" fill="#3D3973"/>
<path d="M282.234 161.932L291.299 159.393L291.552 160.295L282.487 162.835L282.234 161.932Z" fill="#3D3973"/>
<path d="M286.767 160.662L291.299 159.393L291.552 160.295L287.019 161.565L286.767 160.662Z" fill="#2E2753"/>
<path d="M278.852 147.237L286.555 145.079L287.145 147.186L279.442 149.344L278.852 147.237Z" fill="#FFC738"/>
<path d="M282.703 146.158L286.555 145.079L287.145 147.186L283.293 148.265L282.703 146.158Z" fill="#FE9D4E"/>
</g>
<g clip-path="url(#clip2)">
<path d="M280.712 352.823C274.79 354.417 268.676 350.897 267.082 344.975L265.203 338L275.538 335.218L276.33 338.16L268.938 340.15L270.024 344.183C271.181 348.482 275.62 351.038 279.92 349.881L280.712 352.823Z" fill="#FFC738"/>
<path d="M301.968 347.099L301.176 344.157C305.475 343 308.031 338.56 306.873 334.261L305.788 330.229L298.396 332.219L297.603 329.277L307.937 326.494L309.816 333.469C311.41 339.391 307.89 345.505 301.968 347.099Z" fill="#FE9D4E"/>
<path d="M303.441 364.092L304.655 368.605L289.186 372.77L287.971 368.258C290.897 365.345 291.28 362.199 290.528 359.444L289.895 357.094L296.171 355.404L296.804 357.754C297.547 360.573 299.503 363.07 303.441 364.092Z" fill="#FFC738"/>
<path d="M303.441 364.092L304.655 368.605L296.921 370.687L293.033 356.25L296.171 355.405L296.804 357.754C297.547 360.573 299.503 363.07 303.441 364.092Z" fill="#FE9D4E"/>
<path d="M300.374 333.511L302.75 342.338C303.684 345.804 303.123 349.32 301.464 352.204C299.803 355.087 297.043 357.337 293.578 358.271C286.645 360.137 279.511 356.03 277.645 349.098L275.268 340.271L287.282 334.889L300.374 333.511Z" fill="#FFF259"/>
<path d="M300.374 333.512L302.75 342.338C303.684 345.804 303.123 349.32 301.464 352.204C299.803 355.087 297.043 357.338 293.577 358.271L287.282 334.889L300.374 333.512Z" fill="#FFC738"/>
<path d="M285.567 372.272L307.535 366.357L310.07 375.771L288.102 381.685L285.567 372.272Z" fill="#49458A"/>
<path d="M296.551 369.314L307.535 366.357L310.07 375.77L299.086 378.728L296.551 369.314Z" fill="#3D3973"/>
<path d="M283.929 381.273L313.471 373.319L314.264 376.261L284.721 384.216L283.929 381.273Z" fill="#3D3973"/>
<path d="M298.7 377.296L313.471 373.319L314.264 376.261L299.492 380.238L298.7 377.296Z" fill="#2E2753"/>
<path d="M273.42 333.406L298.525 326.647L300.374 333.511L275.268 340.271L273.42 333.406Z" fill="#FFC738"/>
<path d="M285.973 330.027L298.525 326.647L300.374 333.512L287.821 336.891L285.973 330.027Z" fill="#FE9D4E"/>
</g>
<g clip-path="url(#clip3)">
<path d="M111.46 370.618C105.818 369.653 102.014 364.278 102.978 358.637L104.115 351.991L113.96 353.675L113.481 356.478L106.438 355.274L105.781 359.116C105.081 363.212 107.843 367.114 111.939 367.815L111.46 370.618Z" fill="#FFC738"/>
<path d="M131.712 374.081L132.191 371.278C136.287 371.979 140.189 369.216 140.89 365.12L141.547 361.278L134.504 360.074L134.983 357.271L144.829 358.954L143.693 365.6C142.728 371.241 137.353 375.046 131.712 374.081Z" fill="#FE9D4E"/>
<path d="M126.313 389.058L125.578 393.357L110.84 390.836L111.575 386.537C115.193 385.213 116.749 382.697 117.188 380.068L117.571 377.829L123.551 378.852L123.168 381.091C122.696 383.77 123.376 386.651 126.313 389.058Z" fill="#FFC738"/>
<path d="M126.313 389.058L125.578 393.357L118.209 392.096L120.561 378.341L123.551 378.852L123.168 381.091C122.696 383.77 123.376 386.651 126.313 389.058Z" fill="#FE9D4E"/>
<path d="M135.675 361.943L134.237 370.352C133.672 373.654 131.822 376.415 129.288 378.21C126.753 380.004 123.534 380.831 120.232 380.266C113.627 379.137 109.188 372.866 110.317 366.261L111.756 357.852L124.042 357.99L135.675 361.943Z" fill="#FFF259"/>
<path d="M135.675 361.943L134.237 370.352C133.672 373.654 131.822 376.415 129.288 378.21C126.753 380.004 123.534 380.831 120.232 380.267L124.042 357.99L135.675 361.943Z" fill="#FFC738"/>
<path d="M107.968 388.999L128.897 392.578L127.364 401.547L106.434 397.967L107.968 388.999Z" fill="#49458A"/>
<path d="M118.433 390.788L128.897 392.578L127.364 401.547L116.899 399.757L118.433 390.788Z" fill="#3D3973"/>
<path d="M103.059 395.986L131.205 400.799L130.726 403.603L102.579 398.789L103.059 395.986Z" fill="#3D3973"/>
<path d="M117.132 398.393L131.205 400.8L130.726 403.603L116.653 401.196L117.132 398.393Z" fill="#2E2753"/>
<path d="M112.874 351.312L136.793 355.402L135.675 361.943L111.756 357.852L112.874 351.312Z" fill="#FFC738"/>
<path d="M124.834 353.357L136.793 355.402L135.675 361.943L123.715 359.898L124.834 353.357Z" fill="#FE9D4E"/>
</g>
<g clip-path="url(#clip4)">
<path d="M97.8472 482.777C91.0561 485.027 83.7002 481.333 81.4497 474.542L78.7987 466.543L90.6507 462.615L91.7689 465.99L83.2911 468.799L84.8239 473.424C86.4579 478.355 91.7985 481.037 96.729 479.403L97.8472 482.777Z" fill="#FFC738"/>
<path d="M122.226 474.698L121.108 471.324C126.038 469.69 128.72 464.349 127.086 459.419L125.553 454.794L117.076 457.603L115.957 454.229L127.809 450.301L130.46 458.3C132.711 465.092 129.017 472.448 122.226 474.698Z" fill="#FE9D4E"/>
<path d="M125.07 494.393L126.785 499.568L109.043 505.448L107.328 500.273C110.542 496.686 110.78 492.996 109.721 489.837L108.827 487.142L116.026 484.757L116.919 487.452C117.972 490.685 120.416 493.464 125.07 494.393Z" fill="#FFC738"/>
<path d="M125.07 494.393L126.785 499.568L117.914 502.508L112.427 485.95L116.026 484.757L116.919 487.452C117.972 490.685 120.416 493.464 125.07 494.393Z" fill="#FE9D4E"/>
<path d="M119.466 458.977L122.821 469.1C124.138 473.075 123.719 477.208 121.978 480.678C120.235 484.146 117.17 486.951 113.195 488.268C105.244 490.903 96.662 486.593 94.0271 478.642L90.6725 468.519L104.308 461.452L119.466 458.977Z" fill="#FFF259"/>
<path d="M119.466 458.977L122.821 469.1C124.138 473.075 123.719 477.208 121.978 480.678C120.235 484.146 117.17 486.951 113.195 488.268L104.308 461.452L119.466 458.977Z" fill="#FFC738"/>
<path d="M104.795 505.108L129.989 496.759L133.567 507.555L108.373 515.905L104.795 505.108Z" fill="#49458A"/>
<path d="M117.392 500.934L129.989 496.759L133.567 507.555L120.97 511.73L117.392 500.934Z" fill="#3D3973"/>
<path d="M103.485 515.702L137.367 504.474L138.485 507.848L104.603 519.076L103.485 515.702Z" fill="#3D3973"/>
<path d="M120.426 510.088L137.367 504.474L138.485 507.848L121.544 513.462L120.426 510.088Z" fill="#2E2753"/>
<path d="M88.0634 460.646L116.857 451.104L119.466 458.977L90.6725 468.519L88.0634 460.646Z" fill="#FFC738"/>
<path d="M102.46 455.875L116.857 451.104L119.466 458.977L105.069 463.748L102.46 455.875Z" fill="#FE9D4E"/>
</g>
<g clip-path="url(#clip5)">
<path d="M418.948 179.395C415.012 180.501 410.91 178.2 409.804 174.264L408.5 169.629L415.368 167.697L415.918 169.653L411.005 171.034L411.759 173.715C412.563 176.572 415.541 178.243 418.398 177.439L418.948 179.395Z" fill="#FFC738"/>
<path d="M433.076 175.422L432.526 173.466C435.383 172.663 437.054 169.684 436.25 166.827L435.497 164.147L430.584 165.528L430.034 163.573L436.902 161.642L438.206 166.277C439.313 170.213 437.011 174.315 433.076 175.422Z" fill="#FE9D4E"/>
<path d="M434.183 186.739L435.026 189.738L424.745 192.629L423.902 189.63C425.83 187.667 426.063 185.567 425.541 183.736L425.101 182.174L429.273 181.001L429.712 182.563C430.228 184.436 431.551 186.086 434.183 186.739Z" fill="#FFC738"/>
<path d="M434.183 186.739L435.026 189.738L429.886 191.183L427.187 181.588L429.273 181.001L429.712 182.563C430.228 184.436 431.551 186.087 434.183 186.739Z" fill="#FE9D4E"/>
<path d="M431.912 166.375L433.562 172.242C434.21 174.545 433.862 176.894 432.777 178.828C431.692 180.763 429.868 182.283 427.565 182.931C422.957 184.227 418.171 181.542 416.876 176.934L415.226 171.068L423.195 167.391L431.912 166.375Z" fill="#FFF259"/>
<path d="M431.912 166.375L433.562 172.242C434.21 174.545 433.862 176.894 432.777 178.828C431.692 180.763 429.868 182.283 427.565 182.931L423.195 167.391L431.912 166.375Z" fill="#FFC738"/>
<path d="M422.329 192.324L436.929 188.218L438.689 194.475L424.088 198.58L422.329 192.324Z" fill="#49458A"/>
<path d="M429.629 190.271L436.929 188.218L438.689 194.475L431.388 196.528L429.629 190.271Z" fill="#3D3973"/>
<path d="M421.303 198.337L440.938 192.815L441.488 194.771L421.853 200.292L421.303 198.337Z" fill="#3D3973"/>
<path d="M431.121 195.576L440.938 192.815L441.488 194.771L431.671 197.531L431.121 195.576Z" fill="#2E2753"/>
<path d="M413.943 166.505L430.629 161.813L431.912 166.375L415.226 171.068L413.943 166.505Z" fill="#FFC738"/>
<path d="M422.286 164.159L430.629 161.813L431.912 166.376L423.569 168.722L422.286 164.159Z" fill="#FE9D4E"/>
</g>
<defs>
<radialGradient id="paint0_radial" cx="0" cy="0" r="1" gradientUnits="userSpaceOnUse" gradientTransform="translate(524.155 529.06) rotate(5.24422) scale(118.692 60.5496)">
<stop stop-color="white" stop-opacity="0.3"/>
<stop offset="0.292" stop-color="#FDFDFE" stop-opacity="0.2124"/>
<stop offset="0.4342" stop-color="#F5F8FB" stop-opacity="0.1697"/>
<stop offset="0.5439" stop-color="#E8EEF6" stop-opacity="0.1368"/>
<stop offset="0.6372" stop-color="#D6DFEF" stop-opacity="0.1089"/>
<stop offset="0.7198" stop-color="#BDCDE6" stop-opacity="0.0841"/>
<stop offset="0.7951" stop-color="#A0B6DB" stop-opacity="0.0615"/>
<stop offset="0.8647" stop-color="#7C9BCE" stop-opacity="0.0406"/>
<stop offset="0.9299" stop-color="#537CBE" stop-opacity="0.021"/>
<stop offset="0.9892" stop-color="#265AAD" stop-opacity="0.01"/>
<stop offset="1" stop-color="#1D53AA" stop-opacity="0"/>
</radialGradient>
<radialGradient id="paint1_radial" cx="0" cy="0" r="1" gradientUnits="userSpaceOnUse" gradientTransform="translate(664.474 299.57) scale(30.043)">
<stop stop-color="white" stop-opacity="0.25"/>
<stop offset="0.2938" stop-color="#FDFDFE" stop-opacity="0.1766"/>
<stop offset="0.4368" stop-color="#F6F5FA" stop-opacity="0.1408"/>
<stop offset="0.5472" stop-color="#EAE8F2" stop-opacity="0.1132"/>
<stop offset="0.6409" stop-color="#D9D6E8" stop-opacity="0.0898"/>
<stop offset="0.7241" stop-color="#C3BDDA" stop-opacity="0.069"/>
<stop offset="0.7998" stop-color="#A8A0CA" stop-opacity="0.0501"/>
<stop offset="0.8697" stop-color="#887CB6" stop-opacity="0.0326"/>
<stop offset="0.9348" stop-color="#63549F" stop-opacity="0.0163"/>
<stop offset="0.9946" stop-color="#3A2685" stop-opacity="0.01"/>
<stop offset="1" stop-color="#362283" stop-opacity="0"/>
</radialGradient>
<radialGradient id="paint2_radial" cx="0" cy="0" r="1" gradientUnits="userSpaceOnUse" gradientTransform="translate(93.0224 282.244) scale(29.7557)">
<stop stop-color="white" stop-opacity="0.25"/>
<stop offset="0.3207" stop-color="#FDFDFF" stop-opacity="0.1698"/>
<stop offset="0.4767" stop-color="#F6F5FD" stop-opacity="0.1308"/>
<stop offset="0.5972" stop-color="#E9E8FA" stop-opacity="0.1007"/>
<stop offset="0.6995" stop-color="#D8D6F6" stop-opacity="0.0751"/>
<stop offset="0.7902" stop-color="#C1BDF1" stop-opacity="0.0524"/>
<stop offset="0.8728" stop-color="#A5A0EB" stop-opacity="0.0318"/>
<stop offset="0.9475" stop-color="#847DE4" stop-opacity="0.0131"/>
<stop offset="1" stop-color="#6860DE" stop-opacity="0"/>
</radialGradient>
<linearGradient id="paint3_linear" x1="79.336" y1="268.558" x2="106.709" y2="295.931" gradientUnits="userSpaceOnUse">
<stop stop-color="#FFE2A8"/>
<stop offset="1" stop-color="#271068"/>
</linearGradient>
<linearGradient id="paint4_linear" x1="79.336" y1="268.558" x2="106.709" y2="295.931" gradientUnits="userSpaceOnUse">
<stop stop-color="#FFE2A8"/>
<stop offset="1" stop-color="#A482FF"/>
</linearGradient>
<linearGradient id="paint5_linear" x1="649.767" y1="284.862" x2="679.182" y2="314.278" gradientUnits="userSpaceOnUse">
<stop stop-color="#8C6AE2"/>
<stop offset="1" stop-color="#5A55F8"/>
</linearGradient>
<linearGradient id="paint6_linear" x1="656.891" y1="307.152" x2="669.849" y2="294.194" gradientUnits="userSpaceOnUse">
<stop stop-color="#FFE2A8"/>
<stop offset="1" stop-color="#745B7F"/>
</linearGradient>
<radialGradient id="paint7_radial" cx="0" cy="0" r="1" gradientUnits="userSpaceOnUse" gradientTransform="translate(659.687 445.016) rotate(89.5817) scale(12.5712 11.7012)">
<stop stop-color="#231F20"/>
<stop offset="0.1018" stop-color="#262228"/>
<stop offset="0.2637" stop-color="#2F2A3F"/>
<stop offset="0.4653" stop-color="#3D3865"/>
<stop offset="0.6989" stop-color="#504A99"/>
<stop offset="0.9564" stop-color="#6962DB"/>
<stop offset="1" stop-color="#6D66E7"/>
</radialGradient>
<linearGradient id="paint8_linear" x1="611.432" y1="464.825" x2="611.432" y2="427.848" gradientUnits="userSpaceOnUse">
<stop stop-color="#1AA9E8"/>
<stop offset="1" stop-color="#B0E1FF"/>
</linearGradient>
<linearGradient id="paint9_linear" x1="642.129" y1="417.268" x2="656.553" y2="431.692" gradientUnits="userSpaceOnUse">
<stop stop-color="#B0E1FF"/>
<stop offset="1" stop-color="#1AA9E8"/>
</linearGradient>
<linearGradient id="paint10_linear" x1="632.396" y1="444.944" x2="662.118" y2="474.666" gradientUnits="userSpaceOnUse">
<stop stop-color="#B0E1FF"/>
<stop offset="1" stop-color="#1AA9E8"/>
</linearGradient>
<linearGradient id="paint11_linear" x1="570.184" y1="460.18" x2="570.184" y2="441.801" gradientUnits="userSpaceOnUse">
<stop stop-color="#6D66E7"/>
<stop offset="0.0436" stop-color="#6962DB"/>
<stop offset="0.3011" stop-color="#504A99"/>
<stop offset="0.5347" stop-color="#3D3865"/>
<stop offset="0.7363" stop-color="#2F2A3F"/>
<stop offset="0.8982" stop-color="#262228"/>
<stop offset="1" stop-color="#231F20"/>
</linearGradient>
<linearGradient id="paint12_linear" x1="582.914" y1="427.175" x2="601.17" y2="437.715" gradientUnits="userSpaceOnUse">
<stop stop-color="#6D66E7"/>
<stop offset="0.0436" stop-color="#6962DB"/>
<stop offset="0.3011" stop-color="#504A99"/>
<stop offset="0.5347" stop-color="#3D3865"/>
<stop offset="0.7363" stop-color="#2F2A3F"/>
<stop offset="0.8982" stop-color="#262228"/>
<stop offset="1" stop-color="#231F20"/>
</linearGradient>
<radialGradient id="paint13_radial" cx="0" cy="0" r="1" gradientUnits="userSpaceOnUse" gradientTransform="translate(607.642 442.615) scale(6.09225)">
<stop stop-color="#231F20"/>
<stop offset="0.1018" stop-color="#262228"/>
<stop offset="0.2637" stop-color="#2F2A3F"/>
<stop offset="0.4653" stop-color="#3D3865"/>
<stop offset="0.6989" stop-color="#504A99"/>
<stop offset="0.9564" stop-color="#6962DB"/>
<stop offset="1" stop-color="#6D66E7"/>
</radialGradient>
<radialGradient id="paint14_radial" cx="0" cy="0" r="1" gradientUnits="userSpaceOnUse" gradientTransform="translate(619.252 442.146) scale(6.15674 6.15686)">
<stop stop-color="#231F20"/>
<stop offset="0.1018" stop-color="#262228"/>
<stop offset="0.2637" stop-color="#2F2A3F"/>
<stop offset="0.4653" stop-color="#3D3865"/>
<stop offset="0.6989" stop-color="#504A99"/>
<stop offset="0.9564" stop-color="#6962DB"/>
<stop offset="1" stop-color="#6D66E7"/>
</radialGradient>
<radialGradient id="paint15_radial" cx="0" cy="0" r="1" gradientUnits="userSpaceOnUse" gradientTransform="translate(630.121 441.712) scale(6.08769)">
<stop stop-color="#231F20"/>
<stop offset="0.1018" stop-color="#262228"/>
<stop offset="0.2637" stop-color="#2F2A3F"/>
<stop offset="0.4653" stop-color="#3D3865"/>
<stop offset="0.6989" stop-color="#504A99"/>
<stop offset="0.9564" stop-color="#6962DB"/>
<stop offset="1" stop-color="#6D66E7"/>
</radialGradient>
<linearGradient id="paint16_linear" x1="568.75" y1="249.233" x2="608.546" y2="249.233" gradientUnits="userSpaceOnUse">
<stop stop-color="#FFE2A8"/>
<stop offset="1" stop-color="#728390"/>
</linearGradient>
<linearGradient id="paint17_linear" x1="528.226" y1="232.134" x2="547.421" y2="232.134" gradientUnits="userSpaceOnUse">
<stop stop-color="#A281FF"/>
<stop offset="1" stop-color="#FF57BD"/>
</linearGradient>
<linearGradient id="paint18_linear" x1="533.737" y1="309.499" x2="564.175" y2="309.499" gradientUnits="userSpaceOnUse">
<stop stop-color="#FF57BD"/>
<stop offset="1" stop-color="#FE6A77"/>
</linearGradient>
<linearGradient id="paint19_linear" x1="553.629" y1="324.383" x2="572.135" y2="324.383" gradientUnits="userSpaceOnUse">
<stop stop-color="#C5188E"/>
<stop offset="1" stop-color="#9F36AD"/>
</linearGradient>
<linearGradient id="paint20_linear" x1="477.616" y1="263.18" x2="494.629" y2="263.18" gradientUnits="userSpaceOnUse">
<stop stop-color="#FF57BD"/>
<stop offset="1" stop-color="#FE6A77"/>
</linearGradient>
<linearGradient id="paint21_linear" x1="456.665" y1="263.119" x2="478.766" y2="263.119" gradientUnits="userSpaceOnUse">
<stop stop-color="#C5188E"/>
<stop offset="1" stop-color="#9F36AD"/>
</linearGradient>
<linearGradient id="paint22_linear" x1="497.983" y1="287.227" x2="578.648" y2="257.867" gradientUnits="userSpaceOnUse">
<stop stop-color="#05C5DA"/>
<stop offset="1" stop-color="#5860C4"/>
</linearGradient>
<linearGradient id="paint23_linear" x1="560.38" y1="293.689" x2="594.382" y2="293.689" gradientUnits="userSpaceOnUse">
<stop stop-color="#00E2EC"/>
<stop offset="1" stop-color="#0090B2"/>
</linearGradient>
<linearGradient id="paint24_linear" x1="579.782" y1="319.692" x2="600.619" y2="319.692" gradientUnits="userSpaceOnUse">
<stop stop-color="#A281FF"/>
<stop offset="1" stop-color="#FF57BD"/>
</linearGradient>
<linearGradient id="paint25_linear" x1="512.964" y1="257.806" x2="531.611" y2="276.453" gradientUnits="userSpaceOnUse">
<stop stop-color="#00E2EC"/>
<stop offset="1" stop-color="#0090B2"/>
</linearGradient>
<linearGradient id="paint26_linear" x1="482.719" y1="281.696" x2="511.466" y2="281.696" gradientUnits="userSpaceOnUse">
<stop stop-color="#A281FF"/>
<stop offset="1" stop-color="#FF57BD"/>
</linearGradient>
<linearGradient id="paint27_linear" x1="471.689" y1="227.812" x2="487.937" y2="227.812" gradientUnits="userSpaceOnUse">
<stop stop-color="#9F36AD"/>
<stop offset="0.1071" stop-color="#8D3399"/>
<stop offset="0.4036" stop-color="#602A65"/>
<stop offset="0.662" stop-color="#3F243F"/>
<stop offset="0.8695" stop-color="#2A2028"/>
<stop offset="1" stop-color="#231F20"/>
</linearGradient>
<linearGradient id="paint28_linear" x1="488.791" y1="193.754" x2="499.025" y2="203.987" gradientUnits="userSpaceOnUse">
<stop stop-color="#FFE2A8"/>
<stop offset="1" stop-color="#728390"/>
</linearGradient>
<linearGradient id="paint29_linear" x1="474.982" y1="193.288" x2="522.256" y2="240.561" gradientUnits="userSpaceOnUse">
<stop stop-color="#FFE2A8"/>
<stop offset="1" stop-color="#728390"/>
</linearGradient>
<linearGradient id="paint30_linear" x1="459.454" y1="211.718" x2="468.58" y2="211.718" gradientUnits="userSpaceOnUse">
<stop stop-color="#653271"/>
<stop offset="0.1129" stop-color="#5B2F65"/>
<stop offset="0.496" stop-color="#3D263F"/>
<stop offset="0.8053" stop-color="#2A2128"/>
<stop offset="1" stop-color="#231F20"/>
</linearGradient>
<radialGradient id="paint31_radial" cx="0" cy="0" r="1" gradientUnits="userSpaceOnUse" gradientTransform="translate(492.762 211.873) scale(38.5719)">
<stop stop-color="#4E40AF" stop-opacity="0"/>
<stop offset="0.1096" stop-color="#5446B2" stop-opacity="0.0438"/>
<stop offset="0.2617" stop-color="#6558B9" stop-opacity="0.1047"/>
<stop offset="0.4387" stop-color="#8076C6" stop-opacity="0.1755"/>
<stop offset="0.6345" stop-color="#A69FD7" stop-opacity="0.2538"/>
<stop offset="0.8432" stop-color="#D6D3ED" stop-opacity="0.3373"/>
<stop offset="1" stop-color="white" stop-opacity="0.4"/>
</radialGradient>
<linearGradient id="paint32_linear" x1="486.772" y1="245.166" x2="527.867" y2="245.166" gradientUnits="userSpaceOnUse">
<stop stop-color="#FF57BD"/>
<stop offset="1" stop-color="#FE6A77"/>
</linearGradient>
<linearGradient id="paint33_linear" x1="521.158" y1="214.518" x2="531.324" y2="214.518" gradientUnits="userSpaceOnUse">
<stop stop-color="#05C5DA"/>
<stop offset="1" stop-color="#0090B2"/>
</linearGradient>
<linearGradient id="paint34_linear" x1="165.364" y1="283.793" x2="187.155" y2="283.793" gradientUnits="userSpaceOnUse">
<stop stop-color="#05C5DA"/>
<stop offset="1" stop-color="#5860C4"/>
</linearGradient>
<linearGradient id="paint35_linear" x1="462.207" y1="441.891" x2="523.778" y2="441.891" gradientUnits="userSpaceOnUse">
<stop stop-color="#05C5DA"/>
<stop offset="1" stop-color="#5860C4"/>
</linearGradient>
<linearGradient id="paint36_linear" x1="382.344" y1="398.472" x2="488.908" y2="398.472" gradientUnits="userSpaceOnUse">
<stop stop-color="#FF57BD"/>
<stop offset="1" stop-color="#FE6A77"/>
</linearGradient>
<linearGradient id="paint37_linear" x1="310.489" y1="241.518" x2="310.489" y2="290.669" gradientUnits="userSpaceOnUse">
<stop stop-color="#FE6A77"/>
<stop offset="1" stop-color="#C91C91"/>
</linearGradient>
<linearGradient id="paint38_linear" x1="349.696" y1="269.147" x2="367.159" y2="269.147" gradientUnits="userSpaceOnUse">
<stop stop-color="#05C5DA"/>
<stop offset="1" stop-color="#5860C4"/>
</linearGradient>
<linearGradient id="paint39_linear" x1="312.433" y1="255.717" x2="367.437" y2="255.717" gradientUnits="userSpaceOnUse">
<stop stop-color="#FF57BD"/>
<stop offset="1" stop-color="#FE6A77"/>
</linearGradient>
<linearGradient id="paint40_linear" x1="349.701" y1="264.964" x2="367.437" y2="264.964" gradientUnits="userSpaceOnUse">
<stop stop-color="#05C5DA"/>
<stop offset="1" stop-color="#0090B2"/>
</linearGradient>
<linearGradient id="paint41_linear" x1="279.018" y1="222.861" x2="332.143" y2="222.861" gradientUnits="userSpaceOnUse">
<stop stop-color="#00E2EC"/>
<stop offset="1" stop-color="#0090B2"/>
</linearGradient>
<linearGradient id="paint42_linear" x1="236.908" y1="373.826" x2="342.688" y2="285.066" gradientUnits="userSpaceOnUse">
<stop stop-color="#FE6A77"/>
<stop offset="1" stop-color="#FF57BD"/>
</linearGradient>
<linearGradient id="paint43_linear" x1="268.672" y1="326.77" x2="327.745" y2="277.202" gradientUnits="userSpaceOnUse">
<stop stop-color="#C5188E"/>
<stop offset="1" stop-color="#FF57BD"/>
</linearGradient>
<linearGradient id="paint44_linear" x1="316.23" y1="380.991" x2="485.449" y2="380.991" gradientUnits="userSpaceOnUse">
<stop stop-color="#C91C91"/>
<stop offset="1" stop-color="#FE6A77"/>
</linearGradient>
<linearGradient id="paint45_linear" x1="384.367" y1="342.636" x2="432.369" y2="342.636" gradientUnits="userSpaceOnUse">
<stop stop-color="#00E2EC"/>
<stop offset="1" stop-color="#0090B2"/>
</linearGradient>
<linearGradient id="paint46_linear" x1="478.441" y1="364.009" x2="539.243" y2="364.009" gradientUnits="userSpaceOnUse">
<stop stop-color="#00E2EC"/>
<stop offset="1" stop-color="#0090B2"/>
</linearGradient>
<linearGradient id="paint47_linear" x1="172.26" y1="351.009" x2="239.478" y2="351.009" gradientUnits="userSpaceOnUse">
<stop stop-color="#FE6A77"/>
<stop offset="1" stop-color="#C91C91"/>
</linearGradient>
<linearGradient id="paint48_linear" x1="172.317" y1="372.888" x2="190.88" y2="372.888" gradientUnits="userSpaceOnUse">
<stop stop-color="#00E2EC"/>
<stop offset="1" stop-color="#0090B2"/>
</linearGradient>
<linearGradient id="paint49_linear" x1="205.55" y1="444.402" x2="246.568" y2="444.402" gradientUnits="userSpaceOnUse">
<stop stop-color="#00E2EC"/>
<stop offset="1" stop-color="#0090B2"/>
</linearGradient>
<linearGradient id="paint50_linear" x1="222.074" y1="242.499" x2="226.922" y2="269.997" gradientUnits="userSpaceOnUse">
<stop stop-color="#C16846"/>
<stop offset="0.2653" stop-color="#D27565"/>
<stop offset="0.5308" stop-color="#DE7F7B"/>
<stop offset="0.7814" stop-color="#E58589"/>
<stop offset="1" stop-color="#E8878E"/>
</linearGradient>
<linearGradient id="paint51_linear" x1="193.934" y1="246.806" x2="226.801" y2="219.227" gradientUnits="userSpaceOnUse">
<stop stop-color="#E8878E"/>
<stop offset="1" stop-color="#F4BEA3"/>
</linearGradient>
<linearGradient id="paint52_linear" x1="216.218" y1="227.211" x2="226.239" y2="227.211" gradientUnits="userSpaceOnUse">
<stop stop-color="#FF57BD"/>
<stop offset="1" stop-color="#FE6A77"/>
</linearGradient>
<linearGradient id="paint53_linear" x1="182.402" y1="219.8" x2="222.785" y2="219.8" gradientUnits="userSpaceOnUse">
<stop stop-color="#994574"/>
<stop offset="1" stop-color="#43256F"/>
</linearGradient>
<radialGradient id="paint54_radial" cx="0" cy="0" r="1" gradientUnits="userSpaceOnUse" gradientTransform="translate(206.931 229.573) scale(40.7511)">
<stop stop-color="#635AD5" stop-opacity="0"/>
<stop offset="0.1205" stop-color="#6960D7" stop-opacity="0.0482"/>
<stop offset="0.2878" stop-color="#7A72DB" stop-opacity="0.1151"/>
<stop offset="0.4824" stop-color="#9690E3" stop-opacity="0.193"/>
<stop offset="0.6977" stop-color="#BDB9ED" stop-opacity="0.2791"/>
<stop offset="0.9273" stop-color="#EEEDFA" stop-opacity="0.3709"/>
<stop offset="1" stop-color="white" stop-opacity="0.4"/>
</radialGradient>
<linearGradient id="paint55_linear" x1="166.297" y1="231.158" x2="232.062" y2="231.158" gradientUnits="userSpaceOnUse">
<stop stop-color="#00E2EC"/>
<stop offset="1" stop-color="#0090B2"/>
</linearGradient>
<linearGradient id="paint56_linear" x1="176.758" y1="257.081" x2="186.304" y2="249.071" gradientUnits="userSpaceOnUse">
<stop stop-color="#A281FF"/>
<stop offset="0.0945" stop-color="#B17AF5"/>
<stop offset="0.3504" stop-color="#D36BDD"/>
<stop offset="0.5934" stop-color="#EB60CB"/>
<stop offset="0.8163" stop-color="#FA59C1"/>
<stop offset="1" stop-color="#FF57BD"/>
</linearGradient>
<linearGradient id="paint57_linear" x1="193.187" y1="263.965" x2="259.888" y2="263.965" gradientUnits="userSpaceOnUse">
<stop stop-color="#00E2EC"/>
<stop offset="1" stop-color="#0090B2"/>
</linearGradient>
<linearGradient id="paint58_linear" x1="276.287" y1="203.753" x2="301.357" y2="203.753" gradientUnits="userSpaceOnUse">
<stop stop-color="#653271"/>
<stop offset="0.1129" stop-color="#5B2F65"/>
<stop offset="0.496" stop-color="#3D263F"/>
<stop offset="0.8053" stop-color="#2A2128"/>
<stop offset="1" stop-color="#231F20"/>
</linearGradient>
<linearGradient id="paint59_linear" x1="277.76" y1="192.032" x2="299.598" y2="213.87" gradientUnits="userSpaceOnUse">
<stop stop-color="#84DBF1"/>
<stop offset="1" stop-color="#FFE2A8"/>
</linearGradient>
<clipPath id="clip0">
<rect width="43.3334" height="43.3333" fill="white" transform="translate(369.2 278.928) rotate(-31.1183)"/>
</clipPath>
<clipPath id="clip1">
<rect width="16" height="16" fill="white" transform="translate(275 148.316) rotate(-15.6497)"/>
</clipPath>
<clipPath id="clip2">
<rect width="52" height="52" fill="white" transform="translate(260.867 336.787) rotate(-15.0699)"/>
</clipPath>
<clipPath id="clip3">
<rect width="48.5333" height="48.5333" fill="white" transform="translate(100.914 349.267) rotate(9.70441)"/>
</clipPath>
<clipPath id="clip4">
<rect width="60.6667" height="60.6667" fill="white" transform="translate(73.6666 465.417) rotate(-18.3349)"/>
</clipPath>
<clipPath id="clip5">
<rect width="34.6667" height="34.6667" fill="white" transform="translate(405.6 168.851) rotate(-15.7066)"/>
</clipPath>
</defs>
</svg>
