<svg width="512" height="512" viewBox="0 0 512 512" fill="none" xmlns="http://www.w3.org/2000/svg">
<g clip-path="url(#clip0)">
<path d="M501.873 136.75C479.516 79.862 410.647 45.747 352.317 68.323C283.747 94.862 309.047 199.559 247.334 221.411C214.665 232.979 166.371 189.767 133.365 183.141C72.544 170.93 17.484 213.845 3.926 273.275C-9.906 333.905 12.279 414.885 78.893 431.341C158.243 450.943 199.576 379.612 266.142 359.13C334.452 338.111 410.405 387.752 466.956 327.354C508.736 282.733 524.011 193.082 501.873 136.75V136.75Z" fill="url(#paint0_linear)"/>
<path opacity="0.11" d="M178.449 248L371.321 411.556V84.444L178.449 248Z" fill="#2626BC"/>
<path opacity="0.11" d="M158.937 171.307H124.903C77.289 171.307 38.69 209.906 38.69 257.52C38.69 305.134 77.289 343.733 124.903 343.733H158.937C206.551 343.733 245.15 305.134 245.15 257.52C245.15 209.906 206.551 171.307 158.937 171.307Z" fill="#2626BC"/>
<path opacity="0.11" d="M343.703 163.861H372.873C405.147 163.861 431.31 137.698 431.31 105.424C431.31 73.15 405.147 46.987 372.873 46.987H343.703C311.429 46.987 285.266 73.15 285.266 105.424C285.265 137.698 311.428 163.861 343.703 163.861Z" fill="#2626BC"/>
<path opacity="0.11" d="M370.602 392.334H345.974C318.724 392.334 296.634 414.424 296.634 441.674C296.634 468.924 318.724 491.014 345.974 491.014H370.602C397.852 491.014 419.942 468.924 419.942 441.674C419.941 414.424 397.851 392.334 370.602 392.334V392.334Z" fill="#2626BC"/>
<path d="M179.937 322.733C227.551 322.733 266.15 284.134 266.15 236.52C266.15 188.906 227.551 150.307 179.937 150.307H145.903V322.732H179.937V322.733Z" fill="#4369FD"/>
<path d="M145.903 322.733C193.517 322.733 232.116 284.134 232.116 236.52C232.116 188.906 193.517 150.307 145.903 150.307C98.2889 150.307 59.69 188.906 59.69 236.52C59.69 284.134 98.2889 322.733 145.903 322.733Z" fill="#B7C5FF"/>
<path d="M393.872 142.861C426.146 142.861 452.309 116.698 452.309 84.424C452.309 52.15 426.146 25.987 393.872 25.987H364.702V142.862H393.872V142.861Z" fill="#4369FD"/>
<path d="M364.703 142.861C396.977 142.861 423.14 116.698 423.14 84.424C423.14 52.1501 396.977 25.987 364.703 25.987C332.429 25.987 306.266 52.1501 306.266 84.424C306.266 116.698 332.429 142.861 364.703 142.861Z" fill="#02FFB3"/>
<path d="M391.602 470.013C418.852 470.013 440.942 447.923 440.942 420.673C440.942 393.423 418.852 371.333 391.602 371.333H366.974V470.012H391.602V470.013Z" fill="#4369FD"/>
<path d="M366.973 470.013C394.223 470.013 416.313 447.923 416.313 420.673C416.313 393.423 394.223 371.333 366.973 371.333C339.723 371.333 317.633 393.423 317.633 420.673C317.633 447.923 339.723 470.013 366.973 470.013Z" fill="#FFA8CF"/>
<path d="M395.32 352.429C392.559 352.429 390.32 350.191 390.32 347.429V166.84C390.32 164.078 392.559 161.84 395.32 161.84C398.081 161.84 400.32 164.078 400.32 166.84V347.43C400.32 350.191 398.081 352.429 395.32 352.429Z" fill="#02FFB3"/>
<path d="M252.552 158.69C251.134 158.69 249.725 158.09 248.736 156.924C246.95 154.818 247.21 151.662 249.316 149.876L287.686 117.336C289.793 115.551 292.948 115.811 294.733 117.915C296.519 120.021 296.259 123.177 294.153 124.963L255.783 157.503C254.844 158.301 253.695 158.69 252.552 158.69V158.69Z" fill="#9FB0FE"/>
<path d="M302.897 390.01C301.754 390.01 300.605 389.62 299.666 388.823L234.886 333.884C232.78 332.098 232.52 328.943 234.306 326.836C236.093 324.73 239.247 324.472 241.353 326.257L306.133 381.196C308.239 382.982 308.499 386.137 306.713 388.244C305.724 389.41 304.315 390.01 302.897 390.01Z" fill="#FFA8CF"/>
<path d="M391.602 366.334H376.322V147.861H393.873C428.852 147.861 457.311 119.403 457.311 84.424C457.311 49.445 428.853 20.987 393.873 20.987H364.704C329.725 20.987 301.266 49.444 301.266 84.424C301.266 119.404 329.724 147.861 364.704 147.861H366.323V366.35C355.353 366.48 345.152 369.866 336.655 375.601L246.326 299.002C261.709 282.666 271.152 260.677 271.152 236.521C271.152 218.654 265.984 201.973 257.071 187.887L303.596 148.434C305.702 146.648 305.962 143.493 304.176 141.387C302.39 139.28 299.236 139.022 297.129 140.807L251.249 179.713C234.522 158.759 208.775 145.308 179.941 145.308H145.907C95.612 145.308 54.695 186.226 54.695 236.521C54.695 255.583 60.537 273.859 71.591 289.375C73.193 291.623 76.314 292.148 78.565 290.546C80.814 288.943 81.338 285.821 79.736 283.572C69.897 269.761 64.696 253.491 64.696 236.521C64.696 191.74 101.128 155.308 145.908 155.308C190.688 155.308 227.121 191.74 227.121 236.521C227.121 281.302 190.689 317.734 145.908 317.734C128.731 317.734 112.3 312.419 98.391 302.362C96.154 300.745 93.028 301.246 91.41 303.484C89.792 305.722 90.294 308.847 92.532 310.465C108.157 321.762 126.614 327.734 145.908 327.734H179.942C202.47 327.734 223.112 319.52 239.043 305.936L328.801 382.05C318.83 391.907 312.639 405.579 312.639 420.674C312.639 450.637 337.016 475.013 366.979 475.013H391.607C421.57 475.013 445.947 450.637 445.947 420.674C445.947 390.711 421.564 366.334 391.602 366.334V366.334ZM447.31 84.424C447.31 112.077 426.197 134.888 399.245 137.591C416.622 126.263 428.141 106.669 428.141 84.424C428.141 62.179 416.622 42.585 399.246 31.258C426.197 33.96 447.31 56.772 447.31 84.424V84.424ZM311.265 84.424C311.265 54.959 335.237 30.987 364.703 30.987C394.169 30.987 418.141 54.959 418.141 84.424C418.141 113.89 394.169 137.861 364.703 137.861C335.237 137.861 311.265 113.889 311.265 84.424V84.424ZM237.116 236.52C237.116 201.479 217.251 170.996 188.195 155.725C229.112 159.876 261.15 194.526 261.15 236.52C261.15 278.514 229.112 313.165 188.195 317.315C217.251 302.045 237.116 271.561 237.116 236.52ZM322.633 420.674C322.633 396.225 342.524 376.334 366.973 376.334C391.422 376.334 411.313 396.225 411.313 420.674C411.313 445.122 391.422 465.013 366.973 465.013C342.524 465.013 322.633 445.122 322.633 420.674V420.674ZM399.283 464.333C412.639 454.423 421.313 438.544 421.313 420.674C421.313 402.803 412.639 386.924 399.282 377.014C420.081 380.663 435.941 398.845 435.941 420.674C435.941 442.501 420.082 460.683 399.283 464.333V464.333Z" fill="#2626BC"/>
<path d="M188.052 409.209C184.312 409.209 180.573 407.786 177.726 404.938C172.032 399.245 172.032 389.98 177.726 384.287C183.42 378.593 192.684 378.592 198.378 384.287C204.072 389.98 204.072 399.245 198.378 404.938C195.531 407.786 191.792 409.209 188.052 409.209ZM188.052 390.011C186.873 390.011 185.695 390.46 184.797 391.357C183.002 393.152 183.002 396.073 184.797 397.868C186.592 399.661 189.511 399.661 191.306 397.868C193.101 396.073 193.101 393.152 191.306 391.357C190.409 390.461 189.23 390.011 188.052 390.011Z" fill="#8399FE"/>
<path d="M447.532 289.527C443.793 289.527 440.053 288.103 437.206 285.256C434.448 282.498 432.929 278.831 432.929 274.931C432.929 271.031 434.448 267.364 437.207 264.605C442.899 258.913 452.164 258.911 457.858 264.606C460.616 267.364 462.135 271.031 462.135 274.931C462.135 278.831 460.616 282.498 457.857 285.257V285.256V285.257C455.011 288.103 451.271 289.527 447.532 289.527V289.527ZM447.532 270.331C446.353 270.331 445.175 270.78 444.278 271.677C443.408 272.547 442.929 273.702 442.929 274.932C442.929 276.162 443.408 277.317 444.277 278.186C446.072 279.981 448.992 279.98 450.786 278.187V278.186C451.655 277.317 452.134 276.162 452.134 274.932C452.134 273.702 451.655 272.547 450.786 271.678C449.889 270.78 448.71 270.331 447.532 270.331Z" fill="#8399FE"/>
<path d="M266.045 414.826H262.795V411.576C262.795 408.814 260.556 406.576 257.795 406.576C255.034 406.576 252.795 408.814 252.795 411.576V414.826H249.545C246.784 414.826 244.545 417.064 244.545 419.826C244.545 422.588 246.784 424.826 249.545 424.826H252.795V428.076C252.795 430.838 255.034 433.076 257.795 433.076C260.556 433.076 262.795 430.838 262.795 428.076V424.826H266.045C268.806 424.826 271.045 422.588 271.045 419.826C271.045 417.064 268.806 414.826 266.045 414.826Z" fill="#01ECA5"/>
<path d="M483.917 234.75H480.667V231.5C480.667 228.738 478.428 226.5 475.667 226.5C472.906 226.5 470.667 228.738 470.667 231.5V234.75H467.417C464.656 234.75 462.417 236.988 462.417 239.75C462.417 242.512 464.656 244.75 467.417 244.75H470.667V248C470.667 250.762 472.906 253 475.667 253C478.428 253 480.667 250.762 480.667 248V244.75H483.917C486.678 244.75 488.917 242.512 488.917 239.75C488.917 236.988 486.678 234.75 483.917 234.75Z" fill="#FF7EB8"/>
<path d="M238.12 100.424H234.87V97.174C234.87 94.412 232.631 92.174 229.87 92.174C227.109 92.174 224.87 94.412 224.87 97.174V100.424H221.62C218.859 100.424 216.62 102.662 216.62 105.424C216.62 108.186 218.859 110.424 221.62 110.424H224.87V113.674C224.87 116.436 227.109 118.674 229.87 118.674C232.631 118.674 234.87 116.436 234.87 113.674V110.424H238.12C240.881 110.424 243.12 108.186 243.12 105.424C243.12 102.662 240.881 100.424 238.12 100.424Z" fill="#FF7EB8"/>
</g>
<defs>
<linearGradient id="paint0_linear" x1="283.281" y1="404.192" x2="235.281" y2="135.526" gradientUnits="userSpaceOnUse">
<stop offset="0.0112" stop-color="#DCFDEE"/>
<stop offset="0.7774" stop-color="#CCDDFB"/>
<stop offset="1" stop-color="#C7D3FF"/>
</linearGradient>
<clipPath id="clip0">
<rect width="512" height="512" fill="white"/>
</clipPath>
</defs>
</svg>
