<svg width="200" height="200" viewBox="0 0 200 200" fill="none" xmlns="http://www.w3.org/2000/svg">
<g clip-path="url(#clip0)">
<path d="M159.464 60.2599C150.207 56.6521 142.387 50.0688 137.604 41.361C129.561 26.7177 113.999 16.7915 96.1117 16.7915C77.5453 16.7915 61.4844 27.4856 53.7379 43.0489C48.9934 52.5806 40.9199 60.0646 31.0465 64.0493C16.4574 69.938 4.20978 83.395 0.323064 104.433C-0.103498 106.742 -0.109748 109.115 0.316814 111.424C6.35119 144.069 32.5039 158.469 56.3067 154.65C69.6371 152.512 83.1317 156.959 93.0125 166.159C113.104 184.867 145.311 190.732 176.576 170.679C180.239 168.329 185.153 163.4 187.5 159.735C214.44 117.676 194.484 73.9091 159.464 60.2599Z" fill="url(#paint0_linear)"/>
<path opacity="0.1" d="M178.125 39.8785V139.195C178.125 142.429 175.5 145.054 172.266 145.054H27.7344C24.5 145.054 21.875 142.429 21.875 139.195V39.8785C21.875 36.6442 24.5 34.0192 27.7344 34.0192H172.266C175.5 34.0192 178.125 36.6442 178.125 39.8785Z" fill="#2626BC"/>
<path d="M137.102 173.195C136.602 173.195 136.103 173.004 135.721 172.623L131.417 168.319C130.654 167.556 130.654 166.32 131.417 165.557L135.721 161.253C136.484 160.491 137.72 160.491 138.483 161.253L142.787 165.557C143.55 166.32 143.55 167.557 142.787 168.319L138.483 172.623C138.102 173.005 137.602 173.195 137.102 173.195ZM135.561 166.938L137.102 168.48L138.644 166.938L137.102 165.397L135.561 166.938Z" fill="#6583FE"/>
<path d="M156.413 178.287C155.913 178.287 155.414 178.097 155.032 177.715L150.728 173.411C149.965 172.649 149.965 171.412 150.728 170.649L155.032 166.345C155.398 165.979 155.895 165.774 156.413 165.774C156.932 165.774 157.428 165.979 157.795 166.345L162.098 170.649C162.465 171.016 162.67 171.512 162.67 172.031C162.67 172.549 162.464 173.045 162.098 173.412L157.795 177.716C157.413 178.097 156.913 178.288 156.413 178.287ZM154.872 172.03L156.413 173.572L157.955 172.03L156.413 170.488L154.872 172.03Z" fill="#FF7EB8"/>
<path d="M81.1528 34.9911C80.0743 34.9911 79.1997 34.1165 79.1997 33.038C79.1997 31.7419 78.145 30.6872 76.8489 30.6872C75.7704 30.6872 74.8958 29.8126 74.8958 28.7341C74.8958 27.6556 75.7704 26.781 76.8489 26.781C78.145 26.781 79.1997 25.7263 79.1997 24.4302C79.1997 23.3517 80.0743 22.4771 81.1528 22.4771C82.2313 22.4771 83.1059 23.3517 83.1059 24.4302C83.1059 25.7263 84.1606 26.781 85.4567 26.781C86.5352 26.781 87.4098 27.6556 87.4098 28.7341C87.4098 29.8126 86.5352 30.6872 85.4567 30.6872C84.1606 30.6872 83.1059 31.7419 83.1059 33.038C83.1059 34.1169 82.2317 34.9911 81.1528 34.9911Z" fill="#FF7EB8"/>
<path d="M122.152 181.659H77.8473L83.6215 158.767L86.7074 146.54H113.292L116.378 158.767L122.152 181.659Z" fill="#9FB0FE"/>
<path d="M116.378 158.767H83.6215L86.7074 146.54H113.292L116.378 158.767Z" fill="#8399FE"/>
<path d="M178.125 48.0829V147.399C178.125 150.634 175.5 153.259 172.266 153.259H27.7344C24.5 153.259 21.875 150.634 21.875 147.399V48.0829C21.875 44.8485 24.5 42.2235 27.7344 42.2235H172.266C175.5 42.2235 178.125 44.8485 178.125 48.0829Z" fill="white"/>
<path d="M48.3711 42.2235H151.629V133.574H48.3711V42.2235Z" fill="#97FFD2"/>
<path d="M59.3098 140.997H34.8309C34.1837 140.997 33.6591 140.473 33.6591 139.825V122.377C33.6591 121.73 34.1837 121.206 34.8309 121.206H59.3102C59.9575 121.206 60.4821 121.73 60.4821 122.377V139.825C60.4817 140.473 59.9571 140.997 59.3098 140.997Z" fill="#6583FE"/>
<path d="M55.2415 140.997H45.8665V129.511C45.8665 128.864 46.3911 128.34 47.0383 128.34H54.0696C54.7168 128.34 55.2415 128.864 55.2415 129.511V140.997Z" fill="#9FB0FE"/>
<path d="M94.5965 140.997H70.1172C69.4699 140.997 68.9453 140.473 68.9453 139.825V122.377C68.9453 121.73 69.4699 121.206 70.1172 121.206H94.5965C95.2438 121.206 95.7684 121.73 95.7684 122.377V139.825C95.7684 140.473 95.2434 140.997 94.5965 140.997Z" fill="#6583FE"/>
<path d="M90.5277 140.997H81.1527V129.511C81.1527 128.864 81.6773 128.34 82.3246 128.34H89.3558C90.0031 128.34 90.5277 128.864 90.5277 129.511V140.997Z" fill="#9FB0FE"/>
<path d="M129.883 140.997H105.404C104.756 140.997 104.232 140.473 104.232 139.825V122.377C104.232 121.73 104.756 121.206 105.404 121.206H129.883C130.53 121.206 131.055 121.73 131.055 122.377V139.825C131.055 140.473 130.53 140.997 129.883 140.997Z" fill="#6583FE"/>
<path d="M125.814 140.997H116.439V129.511C116.439 128.864 116.964 128.34 117.611 128.34H124.643C125.29 128.34 125.814 128.864 125.814 129.511V140.997Z" fill="#9FB0FE"/>
<path d="M165.169 140.997H140.69C140.043 140.997 139.518 140.473 139.518 139.825V122.377C139.518 121.73 140.043 121.206 140.69 121.206H165.169C165.816 121.206 166.341 121.73 166.341 122.377V139.825C166.341 140.473 165.816 140.997 165.169 140.997Z" fill="#6583FE"/>
<path d="M161.101 140.997H151.726V129.511C151.726 128.864 152.25 128.34 152.898 128.34H159.929C160.576 128.34 161.101 128.864 161.101 129.511V140.997Z" fill="#9FB0FE"/>
<path d="M178.125 61.0403V48.0829C178.125 44.8469 175.502 42.2235 172.266 42.2235H27.7344C24.4984 42.2235 21.875 44.8469 21.875 48.0829V61.0403H178.125Z" fill="#FF7EB8"/>
<path d="M21.875 133.574V147.398C21.875 150.634 24.4984 153.258 27.7344 153.258H172.266C175.502 153.258 178.125 150.634 178.125 147.398V133.574H21.875Z" fill="#B7C5FF"/>
<path d="M36.7507 53.6133C37.8292 53.6133 38.7039 52.7387 38.7039 51.6602V51.6035C38.7039 50.525 37.8292 49.6504 36.7507 49.6504C35.6722 49.6504 34.7976 50.525 34.7976 51.6035V51.6602C34.7976 52.7387 35.6722 53.6133 36.7507 53.6133Z" fill="#2626BC"/>
<path d="M44.2996 53.6133C45.3781 53.6133 46.2527 52.7387 46.2527 51.6602V51.6035C46.2527 50.525 45.3781 49.6504 44.2996 49.6504C43.221 49.6504 42.3464 50.525 42.3464 51.6035V51.6602C42.3464 52.7387 43.221 53.6133 44.2996 53.6133Z" fill="#2626BC"/>
<path d="M51.848 53.6133C52.9265 53.6133 53.8011 52.7387 53.8011 51.6602V51.6035C53.8011 50.525 52.9265 49.6504 51.848 49.6504C50.7695 49.6504 49.8949 50.525 49.8949 51.6035V51.6602C49.8949 52.7387 50.7695 53.6133 51.848 53.6133Z" fill="#2626BC"/>
<path d="M172.266 40.2704H27.7344C23.4266 40.2704 19.9219 43.7751 19.9219 48.0829V147.398C19.9219 151.706 23.4266 155.211 27.7344 155.211H82.5051L76.3246 179.703H70.3383C69.2598 179.703 68.3852 180.578 68.3852 181.656C68.3852 182.735 69.2598 183.609 70.3383 183.609H129.662C130.74 183.609 131.615 182.735 131.615 181.656C131.615 180.578 130.74 179.703 129.662 179.703H123.675L119.37 162.638C119.105 161.592 118.043 160.959 116.998 161.222C115.952 161.486 115.318 162.548 115.582 163.594L119.647 179.703H80.3531L86.5336 155.21H172.266C176.573 155.21 180.078 151.706 180.078 147.398V48.0829C180.078 43.7751 176.573 40.2704 172.266 40.2704ZM27.7344 44.1766H172.266C174.42 44.1766 176.172 45.929 176.172 48.0829V59.0872H32.6332C31.5547 59.0872 30.6801 59.9618 30.6801 61.0403C30.6801 62.1188 31.5547 62.9934 32.6332 62.9934H176.172V131.621H23.8281V48.0829C23.8281 45.9286 25.5805 44.1766 27.7344 44.1766ZM172.266 151.304H27.7344C25.5805 151.304 23.8281 149.552 23.8281 147.398V135.527H176.172V147.398C176.172 149.552 174.42 151.304 172.266 151.304Z" fill="#2626BC"/>
<path d="M59.3098 89.9009H34.8309C34.1837 89.9009 33.6591 89.3763 33.6591 88.729V71.281C33.6591 70.6337 34.1837 70.1091 34.8309 70.1091H59.3102C59.9575 70.1091 60.4821 70.6337 60.4821 71.281V88.729C60.4817 89.3763 59.9571 89.9009 59.3098 89.9009Z" fill="#6583FE"/>
<path d="M55.2415 89.9005H45.8665V78.4149C45.8665 77.7677 46.3911 77.243 47.0383 77.243H54.0696C54.7168 77.243 55.2415 77.7677 55.2415 78.4149V89.9005Z" fill="#9FB0FE"/>
<path d="M94.5965 89.9009H70.1172C69.4699 89.9009 68.9453 89.3763 68.9453 88.729V71.281C68.9453 70.6337 69.4699 70.1091 70.1172 70.1091H94.5965C95.2438 70.1091 95.7684 70.6337 95.7684 71.281V88.729C95.7684 89.3763 95.2434 89.9009 94.5965 89.9009Z" fill="#6583FE"/>
<path d="M90.5277 89.9005H81.1527V78.4149C81.1527 77.7677 81.6773 77.243 82.3246 77.243H89.3558C90.0031 77.243 90.5277 77.7677 90.5277 78.4149V89.9005Z" fill="#9FB0FE"/>
<path d="M129.883 89.9009H105.404C104.756 89.9009 104.232 89.3763 104.232 88.729V71.281C104.232 70.6337 104.756 70.1091 105.404 70.1091H129.883C130.53 70.1091 131.055 70.6337 131.055 71.281V88.729C131.055 89.3763 130.53 89.9009 129.883 89.9009Z" fill="#6583FE"/>
<path d="M125.814 89.9005H116.439V78.4149C116.439 77.7677 116.964 77.243 117.611 77.243H124.643C125.29 77.243 125.814 77.7677 125.814 78.4149V89.9005Z" fill="#9FB0FE"/>
<path d="M165.169 89.9009H140.69C140.043 89.9009 139.518 89.3763 139.518 88.729V71.281C139.518 70.6337 140.043 70.1091 140.69 70.1091H165.169C165.816 70.1091 166.341 70.6337 166.341 71.281V88.729C166.341 89.3763 165.816 89.9009 165.169 89.9009Z" fill="#6583FE"/>
<path d="M161.101 89.9005H151.726V78.4149C151.726 77.7677 152.25 77.243 152.898 77.243H159.929C160.576 77.243 161.101 77.7677 161.101 78.4149V89.9005Z" fill="#9FB0FE"/>
<path d="M59.3098 115.449H34.8309C34.1837 115.449 33.6591 114.924 33.6591 114.277V96.829C33.6591 96.1817 34.1837 95.6571 34.8309 95.6571H59.3102C59.9575 95.6571 60.4821 96.1817 60.4821 96.829V114.277C60.4817 114.925 59.9571 115.449 59.3098 115.449Z" fill="#6583FE"/>
<path d="M55.2415 115.449H45.8665V103.963C45.8665 103.316 46.3911 102.791 47.0383 102.791H54.0696C54.7168 102.791 55.2415 103.316 55.2415 103.963V115.449Z" fill="#9FB0FE"/>
<path d="M94.5965 115.449H70.1172C69.4699 115.449 68.9453 114.924 68.9453 114.277V96.829C68.9453 96.1817 69.4699 95.6571 70.1172 95.6571H94.5965C95.2438 95.6571 95.7684 96.1817 95.7684 96.829V114.277C95.7684 114.925 95.2434 115.449 94.5965 115.449Z" fill="#6583FE"/>
<path d="M90.5277 115.449H81.1527V103.963C81.1527 103.316 81.6773 102.791 82.3246 102.791H89.3558C90.0031 102.791 90.5277 103.316 90.5277 103.963V115.449Z" fill="#9FB0FE"/>
<path d="M129.883 115.449H105.404C104.756 115.449 104.232 114.924 104.232 114.277V96.829C104.232 96.1817 104.756 95.6571 105.404 95.6571H129.883C130.53 95.6571 131.055 96.1817 131.055 96.829V114.277C131.055 114.925 130.53 115.449 129.883 115.449Z" fill="#6583FE"/>
<path d="M125.814 115.449H116.439V103.963C116.439 103.316 116.964 102.791 117.611 102.791H124.643C125.29 102.791 125.814 103.316 125.814 103.963V115.449Z" fill="#9FB0FE"/>
<path d="M165.169 115.449H140.69C140.043 115.449 139.518 114.924 139.518 114.277V96.829C139.518 96.1817 140.043 95.6571 140.69 95.6571H165.169C165.816 95.6571 166.341 96.1817 166.341 96.829V114.277C166.341 114.925 165.816 115.449 165.169 115.449Z" fill="#6583FE"/>
<path d="M161.101 115.449H151.726V103.963C151.726 103.316 152.25 102.791 152.898 102.791H159.929C160.576 102.791 161.101 103.316 161.101 103.963V115.449Z" fill="#9FB0FE"/>
<path d="M59.5454 28.9052C58.4668 28.9052 57.5922 28.0306 57.5922 26.9521C57.5922 25.656 56.5375 24.6013 55.2415 24.6013C54.1629 24.6013 53.2883 23.7267 53.2883 22.6481C53.2883 21.5696 54.1629 20.695 55.2415 20.695C56.5375 20.695 57.5922 19.6403 57.5922 18.3442C57.5922 17.2657 58.4668 16.3911 59.5454 16.3911C60.6239 16.3911 61.4985 17.2657 61.4985 18.3442C61.4985 19.6403 62.5532 20.695 63.8493 20.695C64.9278 20.695 65.8024 21.5696 65.8024 22.6481C65.8024 23.7267 64.9278 24.6013 63.8493 24.6013C62.5532 24.6013 61.4985 25.656 61.4985 26.9521C61.4985 28.031 60.6239 28.9052 59.5454 28.9052Z" fill="#97FFD2"/>
</g>
<defs>
<linearGradient id="paint0_linear" x1="13.6422" y1="40.7923" x2="188.075" y2="174.971" gradientUnits="userSpaceOnUse">
<stop stop-color="#FFDBED"/>
<stop offset="1" stop-color="#DCFDEE"/>
</linearGradient>
<clipPath id="clip0">
<rect width="200" height="200" fill="white"/>
</clipPath>
</defs>
</svg>
