<svg id="Capa_1" enable-background="new 0 0 512 512" height="512" viewBox="0 0 512 512" width="512" xmlns="http://www.w3.org/2000/svg" xmlns:xlink="http://www.w3.org/1999/xlink"><linearGradient id="SVGID_1_" gradientUnits="userSpaceOnUse" x1="420.854" x2="181.854" y1="79.136" y2="450.136"><stop offset=".0112" stop-color="#dcfdee"/><stop offset=".3814" stop-color="#e8f1ee"/><stop offset="1" stop-color="#ffdbed"/></linearGradient><path d="m364.823 52.715c-69.098-27.035-164.784-16.764-217.662 31.51-37.336 34.085-8.439 43.8 17.016 106.17 18.423 45.14-164.177 38.927-164.177 120.495 0 94.299 132.251 76.424 181.329 87.218 75.036 16.504 140.496 78.242 220.668 70.103 69.795-7.086 96.403-61.855 106.109-124.642 18.082-116.976-26.329-245.094-143.283-290.854z" fill="url(#SVGID_1_)"/><path d="m259.779 416.361v7.985c0 5.216 4.228 9.444 9.444 9.444h133.995c5.216 0 9.444-4.228 9.444-9.444v-22.666c0-10.432-8.457-18.889-18.889-18.889h-95.906v-26.961h-181.601v-242.127h-39.513c-11.608 0-21.018 9.41-21.018 21.018v260.626c0 11.608 9.41 21.018 21.018 21.018z" fill="#2626bc" opacity=".11"/><path d="m138.069 153.989h-60.533v-39.514c0-11.608 9.41-21.018 21.018-21.018h39.514v60.532z" fill="#ffd9ec"/><path d="m138.069 93.457h60.532v60.532h-60.532z" fill="#8399fe"/><path d="m198.601 93.457h60.532v60.532h-60.532z" fill="#ffd9ec"/><path d="m259.13 93.455h60.54v60.54h-60.54z" fill="#8399fe"/><path d="m380.2 114.475v39.51h-60.53v-60.53h39.51c11.61 0 21.02 9.41 21.02 21.02z" fill="#ffd9ec"/><path d="m77.536 153.989h60.532v60.532h-60.532z" fill="#8399fe"/><path d="m138.069 153.989h60.532v60.532h-60.532z" fill="#ffd9ec"/><path d="m198.601 153.989h60.532v60.532h-60.532z" fill="#8399fe"/><path d="m243.199 153.989h15.935v60.532h-15.935z" fill="#9fb0fe"/><path d="m259.14 153.985h60.53v60.54h-60.53z" fill="#ffd9ec"/><path d="m319.666 153.995h60.53v60.53h-60.53z" fill="#8399fe"/><path d="m138.069 214.521h60.532v60.532h-60.532z" fill="#8399fe"/><path d="m182.456 214.521h16v60.532h-16z" fill="#9fb0fe"/><path d="m77.536 214.521h60.532v60.532h-60.532z" fill="#ffd9ec"/><path d="m198.601 214.521h60.532v60.532h-60.532z" fill="#ffd9ec"/><path d="m259.13 214.525h60.54v60.53h-60.54z" fill="#8399fe"/><path d="m319.666 214.521h60.532v60.532h-60.532z" fill="#ffd9ec"/><path d="m77.536 275.055h60.53v60.53h-60.53z" fill="#8399fe"/><path d="m138.066 275.055h60.54v60.53h-60.54z" fill="#ffd9ec"/><path d="m198.601 275.054h60.532v60.532h-60.532z" fill="#8399fe"/><path d="m243.199 275.054h15.935v60.532h-15.935z" fill="#9fb0fe"/><path d="m259.13 275.055h60.54v60.53h-60.54z" fill="#ffd9ec"/><path d="m319.666 275.054h60.532v60.532h-60.532z" fill="#8399fe"/><path d="m138.069 396.119h-39.514c-11.608 0-21.018-9.41-21.018-21.018v-39.514h60.532z" fill="#ffd9ec"/><path d="m138.066 335.585h60.54v60.53h-60.54z" fill="#8399fe"/><path d="m198.601 335.586h60.532v60.532h-60.532z" fill="#ffd9ec"/><path d="m259.13 335.585h60.54v60.53h-60.54z" fill="#8399fe"/><path d="m359.18 396.119h-39.514v-60.532h60.532v39.514c0 11.608-9.41 21.018-21.018 21.018z" fill="#ffd9ec"/><path d="m307.579 145.79h100.401v37.899h-100.401z" fill="#ff7eb8"/><path d="m409.02 370.675h-102l11.84-111.53 2.33-21.91h73.67l2.32 21.91z" fill="#97ffd2"/><path d="m397.18 259.145h-78.32l2.33-21.91h73.67z" fill="#02ffb3"/><path d="m410.91 217.88v19.83c0 5.21-4.23 9.44-9.44 9.44h-86.89c-5.22 0-9.45-4.23-9.45-9.44v-19.83z" fill="#ffa8cf"/><path d="m305.13 217.88h105.78v16.05h-105.78z" fill="#ff7eb8"/><path d="m425.02 413.545h-133.995c-5.216 0-9.444-4.228-9.444-9.444v-22.666c0-10.432 8.457-18.889 18.889-18.889h115.107c10.432 0 18.889 8.457 18.889 18.889v22.666c-.002 5.215-4.23 9.444-9.446 9.444z" fill="#02ffb3"/><path d="m434.464 381.431v22.666c0 5.223-4.231 9.444-9.444 9.444h-16.055c5.213 0 9.444-4.222 9.444-9.444v-22.666c0-10.427-8.462-18.889-18.889-18.889h16.055c10.437.001 18.889 8.463 18.889 18.889z" fill="#97ffd2"/><path d="m375 283.997h-33.955c-2.761 0-5-2.239-5-5s2.239-5 5-5h33.955c2.761 0 5 2.239 5 5s-2.239 5-5 5z" fill="#ffa8cf"/><path d="m378 301.75h-39.955c-2.761 0-5-2.239-5-5s2.239-5 5-5h39.955c2.761 0 5 2.239 5 5s-2.239 5-5 5z" fill="#ffa8cf"/><path d="m422.876 150.512v61.973c0 5.216-4.228 9.444-9.444 9.444h-110.819c-5.216 0-9.444-4.228-9.444-9.444v-61.973c0-2.608 2.114-4.722 4.722-4.722h17.321c2.608 0 4.722 2.114 4.722 4.722v20.145c0 2.608 2.114 4.722 4.722 4.722h15.734c2.608 0 4.722-2.114 4.722-4.722v-20.145c0-2.608 2.114-4.722 4.722-4.722h16.376c2.608 0 4.722 2.114 4.722 4.722v20.145c0 2.608 2.114 4.722 4.722 4.722h15.734c2.608 0 4.722-2.114 4.722-4.722v-20.145c0-2.608 2.114-4.722 4.722-4.722h17.321c2.609 0 4.723 2.114 4.723 4.722z" fill="#97ffd2"/><path d="m450 322.336h-3.25v-3.25c0-2.761-2.239-5-5-5s-5 2.239-5 5v3.25h-3.25c-2.761 0-5 2.239-5 5s2.239 5 5 5h3.25v3.25c0 2.761 2.239 5 5 5s5-2.239 5-5v-3.25h3.25c2.761 0 5-2.239 5-5s-2.239-5-5-5z" fill="#01eca5"/><path d="m462.335 273.997h-3.25v-3.25c0-2.761-2.239-5-5-5s-5 2.239-5 5v3.25h-3.25c-2.761 0-5 2.239-5 5s2.239 5 5 5h3.25v3.25c0 2.761 2.239 5 5 5s5-2.239 5-5v-3.25h3.25c2.761 0 5-2.239 5-5s-2.238-5-5-5z" fill="#ff7eb8"/><path d="m43.219 239.533c-8.052 0-14.603-6.551-14.603-14.603s6.551-14.603 14.603-14.603 14.603 6.551 14.603 14.603-6.551 14.603-14.603 14.603zm0-19.206c-2.538 0-4.603 2.064-4.603 4.603s2.065 4.603 4.603 4.603 4.603-2.065 4.603-4.603-2.065-4.603-4.603-4.603z" fill="#8399fe"/><path d="m237.461 473.946c-8.052 0-14.603-6.551-14.603-14.603s6.551-14.603 14.603-14.603 14.603 6.551 14.603 14.603c0 8.053-6.551 14.603-14.603 14.603zm0-19.205c-2.538 0-4.603 2.064-4.603 4.603s2.064 4.603 4.603 4.603 4.603-2.065 4.603-4.603-2.065-4.603-4.603-4.603z" fill="#01eca5"/><path d="m410.91 128.725c-8.052 0-14.603-6.551-14.603-14.603s6.551-14.603 14.603-14.603 14.603 6.551 14.603 14.603-6.551 14.603-14.603 14.603zm0-19.205c-2.538 0-4.603 2.065-4.603 4.603s2.064 4.603 4.603 4.603 4.603-2.064 4.603-4.603-2.065-4.603-4.603-4.603z" fill="#ff7eb8"/><path d="m415.576 357.546h-2.918l-11.189-105.397c7.963-.002 14.441-6.48 14.441-14.444v-11.004c6.785-1.18 11.966-7.098 11.966-14.216v-61.974c0-5.361-4.361-9.722-9.722-9.722h-32.956v-26.315c0-14.347-11.672-26.019-26.018-26.019h-260.625c-14.347 0-26.019 11.672-26.019 26.019v160.579 100.046c0 14.346 11.672 26.018 26.019 26.018h178.026v2.982c0 7.965 6.479 14.444 14.444 14.444h133.995c7.965 0 14.444-6.479 14.444-14.444v-22.667c0-13.17-10.716-23.886-23.888-23.886zm-9.666-119.841c0 2.451-1.994 4.444-4.444 4.444h-86.887c-2.451 0-4.444-1.994-4.444-4.444v-10.775h95.776v10.775zm-4.799-67.048v-19.867h16.765v61.696c0 2.45-1.994 4.444-4.444 4.444h-110.819c-2.451 0-4.444-1.994-4.444-4.444v-61.696h16.765v19.867c0 5.361 4.361 9.722 9.722 9.722h15.734c5.36 0 9.722-4.361 9.722-9.722v-19.867h15.821v19.867c0 5.361 4.361 9.722 9.722 9.722h15.734c5.361 0 9.722-4.361 9.722-9.722zm-76.177-.278v-19.589h15.178v19.589zm66.177 0h-15.179v-19.589h15.179zm-31.931-71.922c8.833 0 16.018 7.186 16.018 16.019v26.315h-50.532v-42.334zm-95.047 0h50.533v42.334h-16.775c-4.841 0-8.856 3.561-9.591 8.199h-24.167zm0 60.532h24.035v50.532h-24.035zm0 60.532h25.883c2.089 3.716 5.769 6.423 10.118 7.18v11.004c0 7.964 6.478 14.442 14.441 14.444l-1.901 17.904h-48.541zm0 60.533h47.48l-5.365 50.533h-42.115zm-121.064-181.597h50.532v50.533h-50.532zm0 60.532h50.532v50.532h-50.532zm0 60.532h50.532v50.532h-50.532zm-10 171.598h-34.514c-8.833 0-16.019-7.186-16.019-16.018v-34.514h50.533zm0-60.533h-50.533v-50.532h50.533zm0-60.532h-50.533v-50.532h50.533zm0-60.533h-50.533v-50.532h50.533zm0-60.532h-50.533v-34.514c0-8.833 7.186-16.019 16.019-16.019h34.514zm60.532 242.13h-50.532v-50.532h50.532zm60.532 0h-50.532v-50.532h50.532zm0-60.533h-50.532v-26.631c0-2.761-2.239-5-5-5s-5 2.239-5 5v26.631h-50.532v-50.533h55.532 55.532zm0-60.532h-50.532v-50.532h50.532zm0-60.533h-50.532v-50.532h50.532zm0-60.532h-50.532v-50.532h50.532zm10 242.13v-50.532h41.054l-1.8 16.959h-2.918c-13.172 0-23.888 10.716-23.888 23.888v9.685zm165.331 12.982c0 2.451-1.994 4.444-4.444 4.444h-133.996c-2.45 0-4.444-1.994-4.444-4.444v-22.667c0-7.658 6.23-13.888 13.888-13.888h69.481c2.761 0 5-2.239 5-5s-2.239-5-5-5h-56.507l11.189-105.396h66.781l11.189 105.396h-4.552c-2.761 0-5 2.239-5 5s2.239 5 5 5h17.526c7.658 0 13.889 6.23 13.889 13.888z" fill="#2626bc"/><path d="m288.17 179.26v10h-114.84v176.59c0 2.76-2.23 5-5 5-2.76 0-5-2.24-5-5v-181.59c0-2.76 2.24-5 5-5z" fill="#02ffb3"/></svg>