<svg id="Capa_1" enable-background="new 0 0 512 512" height="512" viewBox="0 0 512 512" width="512" xmlns="http://www.w3.org/2000/svg" xmlns:xlink="http://www.w3.org/1999/xlink"><linearGradient id="SVGID_1_" gradientUnits="userSpaceOnUse" x1="220.073" x2="264.073" y1="52.345" y2="318.345"><stop offset="0" stop-color="#c7d3ff"/><stop offset=".593" stop-color="#e7d8f5"/><stop offset=".997" stop-color="#ffdbed"/></linearGradient><path d="m501.873 154.75c-22.357-56.888-91.226-91.003-149.556-68.427-66.582 25.769-44.506 131.673-104.983 153.088-32.669 11.568-80.963-31.644-113.969-38.27-60.821-12.211-115.881 30.704-129.439 90.133-13.832 60.63 8.353 141.61 74.967 158.066 79.35 19.602 120.683-51.729 187.249-72.211 68.31-21.019 144.263 28.622 200.814-31.776 41.78-44.621 57.055-134.272 34.917-190.603z" fill="url(#SVGID_1_)"/><path d="m414.667 426.891h-20.713v-193.146c0-11.52-9.33-20.85-20.84-20.85h-53.088v-89.034c0-4.165-3.553-7.476-7.704-7.123-45.823 3.907-81.8 42.343-81.8 89.177 0 2.349.092 4.677.269 6.98h-125.527c-11.51 0-20.84 9.33-20.84 20.85v193.145h-20.705c-6.89 0-12.476 5.586-12.476 12.476v11.465c0 12.09 9.797 21.898 21.898 21.898h332.104c12.101 0 21.898-9.808 21.898-21.898v-11.465c0-6.89-5.586-12.475-12.476-12.475z" fill="#2626bc" opacity=".11"/><path d="m399.69 82.948c-13.725-11.542-30.962-19.039-49.878-20.652-4.15-.354-7.704 2.957-7.704 7.123v82.054l58.017-58.017c2.955-2.955 2.763-7.818-.435-10.508z" fill="#2626bc" opacity=".11"/><path d="m411.954 215.745v208.93c0 2.76-2.24 5-5 5h-304.53v-213.93c0-11.52 9.33-20.85 20.84-20.85h267.85c11.51 0 20.84 9.33 20.84 20.85z" fill="#b7c5ff"/><path d="m411.954 215.745v36.37c-16.02 23.46-42.89 39.02-73.31 39.22-49.71.34-90.12-39.85-90.12-89.5 0-2.33.09-4.65.27-6.94h142.32c11.51 0 20.84 9.33 20.84 20.85z" fill="#9fb0fe"/><path d="m310.194 228.815v24.93c0 2.77-2.24 5-5 5h-99.44c-2.76 0-5-2.23-5-5v-24.93c0-2.76 2.24-5 5-5h99.44c2.76 0 5 2.24 5 5z" fill="#d2deff"/><path d="m310.194 228.815v24.93c0 2.77-2.24 5-5 5h-36.25c-8.28-10.04-14.42-21.91-17.7-34.93h53.95c2.76 0 5 2.24 5 5z" fill="#b7c5ff"/><path d="m411.957 384.042v40.63c0 2.76-2.24 5-5 5h-304.53v-45.63z" fill="#01eca5"/><path d="m445.143 421.367v11.465c0 12.09-9.797 21.898-21.898 21.898h-332.104c-12.101 0-21.898-9.808-21.898-21.898v-11.465c0-6.89 5.586-12.476 12.476-12.476h107.067c1.849 0 3.548 1.021 4.416 2.654l6.56 12.348c.868 1.633 2.566 2.654 4.416 2.654h106.031c1.849 0 3.548-1.021 4.415-2.654l6.56-12.348c.868-1.633 2.566-2.654 4.416-2.654h107.067c6.89 0 12.476 5.585 12.476 12.476z" fill="#97ffd2"/><path d="m445.144 421.362v11.47c0 12.09-9.8 21.9-21.9 21.9h-14.72c12.1 0 21.9-9.81 21.9-21.9v-11.47c0-6.89-5.59-12.47-12.48-12.47h14.72c6.89 0 12.48 5.58 12.48 12.47z" fill="#dcfdee"/><path d="m150.844 427.009h-43.334c-2.761 0-5-2.239-5-5v-13.118h53.333v13.118c.001 2.761-2.238 5-4.999 5z" fill="#ff7eb8"/><path d="m406.752 427.009h-43.333c-2.761 0-5-2.239-5-5v-13.118h53.333v13.118c0 2.761-2.239 5-5 5z" fill="#ff7eb8"/><path d="m427.522 186.747c.633 49.433-39.438 90.334-88.874 90.67-49.714.338-90.126-39.858-90.126-89.502 0-46.834 35.977-85.27 81.8-89.177 4.15-.354 7.704 2.957 7.704 7.123v82.054l58.021-58.021c2.942-2.942 7.795-2.78 10.475.403 12.876 15.292 20.725 34.96 21 56.45z" fill="#ff7eb8"/><path d="m338.026 105.861v171.558c-49.429 0-89.504-40.068-89.504-89.504 0-46.834 35.977-85.27 81.8-89.177 4.15-.353 7.704 2.958 7.704 7.123z" fill="#02ffb3"/><path d="m427.53 187.915c0 49.436-40.075 89.504-89.504 89.504v-89.504z" fill="#ffdbed"/><path d="m418.125 75.456-58.017 58.017v-82.054c0-4.165 3.554-7.476 7.704-7.123 18.916 1.613 36.153 9.11 49.878 20.652 3.198 2.69 3.39 7.553.435 10.508z" fill="#9fb0fe"/><path d="m231.958 263.653h-14.195c-2.762 0-5-2.239-5-5s2.238-5 5-5h14.195c2.762 0 5 2.239 5 5s-2.238 5-5 5z" fill="#97ffd2"/><path d="m261.958 282.194h-44.195c-2.762 0-5-2.239-5-5s2.238-5 5-5h44.195c2.762 0 5 2.239 5 5s-2.238 5-5 5z" fill="#97ffd2"/><g fill="#2626bc"><path d="m432.667 403.891h-15.705v-71.341c0-2.761-2.238-5-5-5s-5 2.239-5 5v46.494h-299.537v-163.305c0-8.737 7.107-15.845 15.845-15.845h121.002c2.615 20.817 12.028 40.045 27.158 55.074 17.84 17.718 41.464 27.451 66.591 27.451.22 0 .442 0 .662-.002 25.238-.172 48.937-10.259 66.73-28.405.524-.534 1.039-1.074 1.549-1.618v52.056c0 2.761 2.238 5 5 5s5-2.239 5-5v-63.17c0-.44-.075-.858-.181-1.265 10.477-15.709 15.988-34.13 15.742-53.333-.279-21.786-8.155-42.954-22.176-59.606-2.164-2.57-5.338-4.127-8.707-4.271-3.386-.143-6.724 1.149-9.128 3.553l-49.485 49.485v-69.983c0-3.396-1.436-6.663-3.938-8.961-2.487-2.284-5.829-3.429-9.191-3.144-23.497 2.003-45.279 12.687-61.333 30.082-16.148 17.497-25.042 40.253-25.042 64.077 0 .661.011 1.32.024 1.979h-120.277c-14.251 0-25.845 11.594-25.845 25.845v188.151h-15.706c-9.636 0-17.476 7.84-17.476 17.476v11.464c0 14.832 12.066 26.898 26.898 26.898h332.104c14.831 0 26.897-12.066 26.897-26.898v-11.465c.001-9.634-7.839-17.473-17.475-17.473zm-34.394-156.88c-14.874 15.168-34.351 24.036-55.247 25.258v-79.354h79.331c-1.193 20.304-9.601 39.326-24.084 54.096zm1.309-113.581c.587-.587 1.259-.65 1.63-.634.34.015.985.127 1.484.721 11.698 13.893 18.607 31.304 19.681 49.398h-72.28zm-123.669-2.81c14.356-15.556 33.83-25.109 54.834-26.9.062-.005.122-.008.181-.008.687 0 1.164.339 1.396.553.263.241.702.768.702 1.596v166.398c-20.589-1.193-39.787-9.725-54.55-24.386-16.092-15.983-24.954-37.276-24.954-59.958 0-21.303 7.953-41.65 22.391-57.295zm130.846 291.388h-43.34v-8.118h43.335zm-255.909.001h-43.34v-8.118h43.336zm289.293 10.822c0 9.317-7.58 16.898-16.897 16.898h-332.104c-9.317 0-16.898-7.581-16.898-16.898v-11.464c0-4.123 3.354-7.476 7.476-7.476h15.79v8.118c0 5.514 4.486 10 10 10h43.334c5.514 0 10-4.486 10-10v-8.118h27.942l6.561 12.348c1.74 3.274 5.124 5.308 8.831 5.308h17.272c2.762 0 5-2.239 5-5s-2.238-5-5-5h-17.272l-6.561-12.348c-1.74-3.274-5.124-5.308-8.831-5.308h-81.361v-14.847h299.537v14.847h-81.362c-3.706 0-7.09 2.034-8.831 5.309l-6.56 12.347h-60.659c-2.762 0-5 2.239-5 5s2.238 5 5 5h60.659c3.707 0 7.091-2.034 8.832-5.309l6.559-12.347h27.819v8.118c0 5.514 4.486 10 10 10h43.333c5.514 0 10-4.486 10-10v-8.118h15.915c4.122 0 7.476 3.354 7.476 7.476z"/><path d="m248.522 410.009h17.342c2.762 0 5-2.239 5-5s-2.238-5-5-5h-17.342c-2.762 0-5 2.239-5 5s2.239 5 5 5z"/><path d="m358.194 138.092c.618.256 1.268.38 1.912.38 1.301 0 2.58-.508 3.536-1.464l58.018-58.017c2.402-2.402 3.695-5.726 3.549-9.121-.146-3.384-1.714-6.573-4.302-8.749-14.99-12.607-33.203-20.148-52.671-21.808-3.364-.286-6.705.861-9.191 3.144-2.502 2.298-3.938 5.564-3.938 8.96v82.054c0 2.024 1.218 3.847 3.087 4.621zm6.913-86.673c0-.827.439-1.354.702-1.595.232-.214.71-.553 1.396-.553.059 0 .119.002.181.008 17.4 1.483 33.682 8.226 47.085 19.497.615.518.732 1.179.747 1.526.016.354-.046 1.036-.629 1.619l-49.482 49.482z"/></g><path d="m176.329 339.239c0-8.684-7.065-15.75-15.749-15.75s-15.749 7.065-15.749 15.75c0 4.157 1.631 7.932 4.271 10.749-2.64 2.818-4.271 6.593-4.271 10.749 0 2.761 2.238 5 5 5s5-2.239 5-5c0-3.17 2.579-5.75 5.749-5.75s5.749 2.579 5.749 5.75c0 2.761 2.238 5 5 5s5-2.239 5-5c0-4.157-1.631-7.932-4.271-10.749 2.64-2.818 4.271-6.592 4.271-10.749zm-15.749-5.75c3.17 0 5.749 2.579 5.749 5.75 0 3.17-2.579 5.749-5.749 5.749s-5.749-2.579-5.749-5.749c0-3.171 2.579-5.75 5.749-5.75z" fill="#97ffd2"/><path d="m243.113 339.239c0-8.684-7.065-15.75-15.749-15.75-8.685 0-15.75 7.065-15.75 15.75 0 4.157 1.631 7.932 4.271 10.749-2.64 2.818-4.271 6.593-4.271 10.749 0 2.761 2.238 5 5 5s5-2.239 5-5c0-3.17 2.579-5.75 5.75-5.75 3.17 0 5.749 2.579 5.749 5.75 0 2.761 2.238 5 5 5s5-2.239 5-5c0-4.157-1.631-7.932-4.271-10.749 2.641-2.818 4.271-6.592 4.271-10.749zm-15.749-5.75c3.17 0 5.749 2.579 5.749 5.75 0 3.17-2.579 5.749-5.749 5.749-3.171 0-5.75-2.579-5.75-5.749 0-3.171 2.579-5.75 5.75-5.75z" fill="#ff7eb8"/><path d="m309.023 339.239c0-8.684-7.065-15.75-15.749-15.75-8.685 0-15.75 7.065-15.75 15.75 0 4.157 1.631 7.932 4.271 10.749-2.64 2.818-4.271 6.593-4.271 10.749 0 2.761 2.238 5 5 5s5-2.239 5-5c0-3.17 2.579-5.75 5.75-5.75 3.17 0 5.749 2.579 5.749 5.75 0 2.761 2.238 5 5 5s5-2.239 5-5c0-4.157-1.631-7.932-4.271-10.749 2.641-2.818 4.271-6.592 4.271-10.749zm-15.749-5.75c3.17 0 5.749 2.579 5.749 5.75 0 3.17-2.579 5.749-5.749 5.749-3.171 0-5.75-2.579-5.75-5.749 0-3.171 2.58-5.75 5.75-5.75z" fill="#97ffd2"/><path d="m375.113 339.239c0-8.684-7.065-15.75-15.749-15.75-8.685 0-15.75 7.065-15.75 15.75 0 4.157 1.631 7.932 4.271 10.749-2.64 2.818-4.271 6.593-4.271 10.749 0 2.761 2.238 5 5 5s5-2.239 5-5c0-3.17 2.579-5.75 5.75-5.75 3.17 0 5.749 2.579 5.749 5.75 0 2.761 2.238 5 5 5s5-2.239 5-5c0-4.157-1.631-7.932-4.271-10.749 2.641-2.818 4.271-6.592 4.271-10.749zm-15.749-5.75c3.17 0 5.749 2.579 5.749 5.75 0 3.17-2.579 5.749-5.749 5.749-3.171 0-5.75-2.579-5.75-5.749 0-3.171 2.579-5.75 5.75-5.75z" fill="#ff7eb8"/><path d="m178.058 235.426c0-9.161-7.453-16.613-16.613-16.613s-16.613 7.453-16.613 16.613c0 4.518 1.818 8.615 4.755 11.613-2.936 2.998-4.755 7.095-4.755 11.613 0 2.761 2.238 5 5 5s5-2.239 5-5c0-3.646 2.967-6.613 6.613-6.613s6.613 2.966 6.613 6.613c0 2.761 2.238 5 5 5s5-2.239 5-5c0-4.518-1.818-8.615-4.755-11.613 2.936-2.997 4.755-7.095 4.755-11.613zm-16.614-6.613c3.646 0 6.613 2.967 6.613 6.613s-2.967 6.613-6.613 6.613-6.613-2.967-6.613-6.613 2.967-6.613 6.613-6.613z" fill="#6583fe"/><path d="m359.364 298.345h-192.92v-18.151c0-2.761-2.238-5-5-5s-5 2.239-5 5v28.953c0 2.761 2.238 5 5 5s5-2.239 5-5v-.802h55.92v.802c0 2.761 2.238 5 5 5s5-2.239 5-5v-.802h56v.802c0 2.761 2.238 5 5 5s5-2.239 5-5v-.802h56v.802c0 2.761 2.238 5 5 5s5-2.239 5-5v-5.802c0-2.761-2.238-5-5-5z" fill="#6583fe"/><path d="m453.393 372.436h-3.25v-3.25c0-2.761-2.238-5-5-5s-5 2.239-5 5v3.25h-3.25c-2.762 0-5 2.239-5 5s2.238 5 5 5h3.25v3.25c0 2.761 2.238 5 5 5s5-2.239 5-5v-3.25h3.25c2.762 0 5-2.239 5-5s-2.239-5-5-5z" fill="#01eca5"/><path d="m59.493 372.436h-3.25v-3.25c0-2.761-2.238-5-5-5s-5 2.239-5 5v3.25h-3.25c-2.762 0-5 2.239-5 5s2.238 5 5 5h3.25v3.25c0 2.761 2.238 5 5 5s5-2.239 5-5v-3.25h3.25c2.762 0 5-2.239 5-5s-2.238-5-5-5z" fill="#ff7eb8"/><path d="m164.094 130.38h-3.25v-3.25c0-2.761-2.238-5-5-5s-5 2.239-5 5v3.25h-3.25c-2.762 0-5 2.239-5 5s2.238 5 5 5h3.25v3.25c0 2.761 2.238 5 5 5s5-2.239 5-5v-3.25h3.25c2.762 0 5-2.239 5-5s-2.239-5-5-5z" fill="#01eca5"/><path d="m205.281 175.066c-3.739 0-7.479-1.423-10.325-4.27-2.759-2.758-4.278-6.425-4.278-10.326s1.52-7.568 4.278-10.326c5.691-5.692 14.957-5.694 20.65 0s5.693 14.958 0 20.652c-2.846 2.847-6.585 4.27-10.325 4.27zm0-19.197c-1.179 0-2.357.449-3.255 1.346-.869.87-1.349 2.025-1.349 3.255 0 1.229.479 2.385 1.349 3.254 1.796 1.795 4.716 1.796 6.51 0 1.794-1.794 1.794-4.715-.001-6.51-.896-.896-2.075-1.345-3.254-1.345z" fill="#8399fe"/><path d="m459.403 349.441c-3.74 0-7.479-1.423-10.325-4.27-5.693-5.694-5.693-14.958 0-20.652 5.691-5.692 14.956-5.693 20.651 0 5.693 5.694 5.693 14.958.001 20.652-.001 0-.001 0-.001.001-2.846 2.846-6.586 4.269-10.326 4.269zm6.791-7.805h.01zm-6.791-11.391c-1.179 0-2.357.449-3.255 1.346-1.794 1.794-1.794 4.715.001 6.51 1.793 1.794 4.713 1.794 6.51 0 1.794-1.795 1.794-4.715 0-6.509-.897-.899-2.077-1.347-3.256-1.347z" fill="#8399fe"/></svg>