<svg width="548" height="150" viewBox="0 0 548 150" fill="none" xmlns="http://www.w3.org/2000/svg">
<g clip-path="url(#clip0)">
<path d="M115.867 30.9262C107.013 26.7836 97.5458 23.7729 87.648 22.0586C86.4324 24.2563 85.0123 27.2122 84.0332 29.5637C73.5116 27.9813 63.0868 27.9813 52.7588 29.5637C51.7798 27.2122 50.3274 24.2563 49.101 22.0586C39.1926 23.7729 29.7144 26.7947 20.8603 30.9482C3.00146 57.9352 -1.83978 84.252 0.580847 110.195C12.4258 119.041 23.9049 124.414 35.1904 127.93C37.9768 124.095 40.4619 120.019 42.6028 115.722C38.5254 114.173 34.6202 112.261 30.9302 110.041C31.9091 109.316 32.8667 108.558 33.7918 107.778C56.2982 118.304 80.7519 118.304 102.989 107.778C103.925 108.558 104.883 109.316 105.851 110.041C102.15 112.272 98.2343 114.184 94.1569 115.733C96.2978 120.019 98.7722 124.106 101.569 127.941C112.866 124.425 124.355 119.052 136.2 110.195C139.041 80.1204 131.348 54.0453 115.867 30.9262ZM45.669 94.2403C38.9128 94.2403 33.3722 87.933 33.3722 80.2522C33.3722 72.5715 38.7945 66.2533 45.669 66.2533C52.5437 66.2533 58.0841 72.5604 57.9658 80.2522C57.9765 87.933 52.5437 94.2403 45.669 94.2403ZM91.1123 94.2403C84.3561 94.2403 78.8154 87.933 78.8154 80.2522C78.8154 72.5715 84.2376 66.2533 91.1123 66.2533C97.9868 66.2533 103.527 72.5604 103.409 80.2522C103.409 87.933 97.9868 94.2403 91.1123 94.2403Z" fill="#6E00FF"/>
<path d="M183.805 49.0701H213.174C220.254 49.0701 226.236 50.2018 231.143 52.4544C236.036 54.7069 239.706 57.8496 242.138 61.8713C244.568 65.8929 245.794 70.497 245.794 75.6834C245.794 80.76 244.524 85.3641 241.986 89.4846C239.447 93.6161 235.584 96.8797 230.389 99.2861C225.193 101.692 218.758 102.901 211.067 102.901H183.805V49.0701ZM210.765 89.2209C215.531 89.2209 219.201 88.0013 221.76 85.5728C224.321 83.1334 225.602 79.815 225.602 75.6066C225.602 71.7056 224.46 68.5959 222.18 66.2664C219.9 63.9369 216.446 62.7613 211.83 62.7613H202.643V89.2209H210.765Z" fill="#6E00FF"/>
<path d="M289.764 102.835C285.697 101.759 282.028 100.198 278.769 98.1435V85.3753C281.233 87.32 284.535 88.9245 288.677 90.188C292.819 91.4407 296.822 92.067 300.694 92.067C302.501 92.067 303.868 91.8253 304.792 91.3417C305.719 90.8583 306.182 90.276 306.182 89.6056C306.182 88.8365 305.934 88.1992 305.428 87.6826C304.922 87.1663 303.943 86.7376 302.492 86.375L293.454 84.2983C288.279 83.0677 284.61 81.3645 282.428 79.1778C280.243 77.0021 279.156 74.1451 279.156 70.607C279.156 67.6291 280.103 65.0471 282.019 62.8383C283.922 60.6298 286.633 58.9265 290.151 57.7288C293.67 56.5201 297.778 55.9158 302.501 55.9158C306.718 55.9158 310.581 56.3773 314.1 57.3003C317.617 58.2234 320.522 59.399 322.836 60.8385V72.9146C320.467 71.4751 317.756 70.3434 314.659 69.4861C311.571 68.6401 308.398 68.2226 305.126 68.2226C300.403 68.2226 298.048 69.0466 298.048 70.6839C298.048 71.4532 298.414 72.0245 299.145 72.4091C299.876 72.7936 301.221 73.1893 303.169 73.6068L310.699 74.9913C315.617 75.8595 319.284 77.3868 321.694 79.5624C324.105 81.7381 325.309 84.9577 325.309 89.2211C325.309 93.891 323.319 97.5941 319.327 100.341C315.336 103.088 309.677 104.462 302.34 104.462C298.026 104.451 293.831 103.912 289.764 102.835Z" fill="#6E00FF"/>
<path d="M343.084 101.22C338.771 99.0659 335.511 96.1432 333.338 92.4511C331.164 88.7591 330.068 84.6056 330.068 79.9904C330.068 75.3755 331.196 71.244 333.456 67.6068C335.715 63.9697 339.028 61.1128 343.397 59.036C347.764 56.9593 352.982 55.9263 359.061 55.9263C366.591 55.9263 372.842 57.5416 377.813 60.7721V74.8481C376.059 73.6173 374.014 72.6174 371.679 71.8483C369.345 71.0791 366.849 70.6944 364.181 70.6944C359.513 70.6944 355.866 71.5625 353.229 73.3096C350.593 75.0568 349.271 77.3313 349.271 80.1553C349.271 82.9243 350.55 85.188 353.111 86.9681C355.673 88.7371 359.383 89.6272 364.256 89.6272C366.763 89.6272 369.238 89.2535 371.679 88.5174C374.111 87.7702 376.209 86.8582 377.963 85.7812V99.3956C372.444 102.78 366.043 104.472 358.759 104.472C352.628 104.45 347.398 103.373 343.084 101.22Z" fill="#6E00FF"/>
<path d="M396.596 101.22C392.25 99.0666 388.937 96.1217 386.655 92.3747C384.375 88.6277 383.224 84.4523 383.224 79.8372C383.224 75.2222 384.364 71.1015 386.655 67.4865C388.946 63.8713 392.239 61.0363 396.564 58.9815C400.877 56.9267 406.031 55.9048 412.001 55.9048C417.973 55.9048 423.126 56.9267 427.44 58.9815C431.754 61.0363 435.047 63.8494 437.306 67.4425C439.566 71.0357 440.694 75.1562 440.694 79.8263C440.694 84.4412 439.566 88.6169 437.306 92.3637C435.047 96.1107 431.743 99.0555 427.397 101.209C423.051 103.363 417.919 104.44 411.992 104.44C406.063 104.44 400.931 103.374 396.596 101.22ZM419.479 87.5729C421.309 85.705 422.233 83.2326 422.233 80.1559C422.233 77.0792 421.318 74.6288 419.479 72.8157C417.651 70.9917 415.153 70.0797 411.992 70.0797C408.774 70.0797 406.256 70.9917 404.417 72.8157C402.589 74.6398 401.674 77.0792 401.674 80.1559C401.674 83.2326 402.589 85.705 404.417 87.5729C406.247 89.4409 408.774 90.3859 411.992 90.3859C415.153 90.3749 417.651 89.4409 419.479 87.5729Z" fill="#6E00FF"/>
<path d="M485.944 58.7615V75.3757C484.029 74.09 481.554 73.4527 478.489 73.4527C474.474 73.4527 471.377 74.6945 469.224 77.1778C467.063 79.6612 465.986 83.529 465.986 88.7593V102.912H447.536V57.9155H465.611V72.2222C466.611 66.9917 468.236 63.135 470.473 60.6405C472.701 58.1572 475.583 56.9156 479.091 56.9156C481.748 56.9156 484.029 57.531 485.944 58.7615Z" fill="#6E00FF"/>
<path d="M547.245 47.5318V102.912H528.793V92.8363C527.233 96.6272 524.867 99.5171 521.683 101.495C518.497 103.462 514.56 104.451 509.891 104.451C505.717 104.451 502.082 103.418 498.971 101.341C495.862 99.2644 493.464 96.4185 491.775 92.8033C490.097 89.1881 489.246 85.1006 489.246 80.5296C489.193 75.8156 490.086 71.5851 491.925 67.8381C493.755 64.0911 496.346 61.1683 499.682 59.0694C503.017 56.9707 506.826 55.9159 511.097 55.9159C519.887 55.9159 525.782 59.8166 528.793 67.6072V47.5318H547.245ZM526.041 87.2653C527.923 85.3972 528.859 82.9689 528.859 80.0021C528.859 77.1341 527.944 74.7936 526.116 73.0026C524.286 71.2116 521.779 70.3104 518.627 70.3104C515.518 70.3104 513.034 71.2224 511.172 73.0464C509.31 74.8706 508.386 77.2329 508.386 80.1559C508.386 83.0788 509.31 85.4632 511.172 87.3092C513.034 89.1551 515.486 90.0782 518.552 90.0782C521.661 90.0673 524.156 89.1332 526.041 87.2653Z" fill="#6E00FF"/>
<path d="M261.341 62.706C266.421 62.706 270.54 58.9277 270.54 54.267C270.54 49.6063 266.421 45.8282 261.341 45.8282C256.26 45.8282 252.143 49.6063 252.143 54.267C252.143 58.9277 256.26 62.706 261.341 62.706Z" fill="#6E00FF"/>
<path d="M252.135 68.519C257.771 71.0022 264.765 71.1121 270.531 68.519V103.154H252.135V68.519Z" fill="#6E00FF"/>
</g>
<defs>
<clipPath id="clip0">
<rect width="547.5" height="150" fill="white"/>
</clipPath>
</defs>
</svg>
