<svg width="75" height="75" viewBox="0 0 75 75" fill="none" xmlns="http://www.w3.org/2000/svg">
<rect width="75" height="75" rx="10" fill="#4C1B81"/>
<path d="M66.782 16.6168H8.21631V54.6407H66.782V16.6168Z" fill="white"/>
<path d="M60.3578 9.58084H15.3876V21.5569H60.3578V9.58084Z" fill="white"/>
<path d="M60.3578 50.7485H15.3876V64.6707H60.3578V50.7485Z" fill="white"/>
<path d="M47.1655 1.27995C27.2741 -4.05987 6.75515 7.80989 1.42597 27.741C-3.90321 47.6722 7.9429 68.232 27.8343 73.5719C47.7258 78.9117 68.2447 67.0419 73.5739 47.1108C78.9031 27.1797 67.0555 6.61977 47.1655 1.27995ZM44.5181 63.6617C30.0485 67.5404 15.1904 58.9416 11.3149 44.4581C7.4424 29.9671 16.0196 15.0689 30.4803 11.1886C40.9847 8.36827 51.7073 12.1377 58.2661 19.9731L46.4962 23.1273C42.658 20.7096 37.8652 19.8338 33.1351 21.0973C24.1366 23.5165 18.797 32.7829 21.2054 41.7979C23.6197 50.8144 32.8677 56.1647 41.8662 53.7455C49.1376 51.8009 54.0216 45.3638 54.3562 38.2096L38.8274 42.3773L36.1725 32.4671L51.7014 28.2994L61.8831 25.5629C62.6272 27.0883 63.2233 28.7051 63.676 30.3982C64.1361 32.0868 64.4155 33.7889 64.5365 35.4791C65.4688 48.2126 57.2815 60.232 44.5181 63.6617Z" fill="#4C1B81"/>
</svg>
