<svg width="75" height="75" viewBox="0 0 75 75" fill="none" xmlns="http://www.w3.org/2000/svg">
<rect width="75" height="75" rx="10" fill="#1B1F23"/>
<path d="M10 21.5C14 12.7 30 3.5 37.5 0V1C41.8333 3.83333 52 9.6 58 10C65.5 10.5 66 34 68.5 38C70.5 41.2 56.3333 64 49 75H26C26 74.3333 25.7 72.8 24.5 72C23 71 14.5 66.5 13.5 65C12.5 63.5 6.5 55.5 6.5 52.5C6.5 49.5 5 32.5 10 21.5Z" fill="white"/>
<path fill-rule="evenodd" clip-rule="evenodd" d="M37.5 0C16.7812 0 0 17.2057 0 38.4485C0 55.462 10.7344 69.8321 25.6406 74.9265C27.5156 75.263 28.2187 74.1095 28.2187 73.1002C28.2187 72.1871 28.1719 69.1593 28.1719 65.9392C18.75 67.7175 16.3125 63.5842 15.5625 61.4215C15.1406 60.3161 13.3125 56.9038 11.7188 55.9907C10.4062 55.2697 8.53125 53.4915 11.6719 53.4434C14.625 53.3954 16.7344 56.231 17.4375 57.3844C20.8125 63.1997 26.2031 61.5657 28.3594 60.5564C28.6875 58.0573 29.6719 56.3751 30.75 55.4139C22.4062 54.4527 13.6875 51.1365 13.6875 36.43C13.6875 32.2487 15.1406 28.7883 17.5313 26.0969C17.1563 25.1357 15.8437 21.1947 17.9062 15.9081C17.9062 15.9081 21.0469 14.8988 28.2187 19.849C31.2187 18.984 34.4063 18.5514 37.5938 18.5514C40.7813 18.5514 43.9688 18.984 46.9688 19.849C54.1406 14.8507 57.2813 15.9081 57.2813 15.9081C59.3438 21.1947 58.0313 25.1357 57.6563 26.0969C60.0469 28.7883 61.5 32.2006 61.5 36.43C61.5 51.1846 52.7344 54.4527 44.3906 55.4139C45.75 56.6154 46.9219 58.9224 46.9219 62.5269C46.9219 67.6694 46.875 71.8026 46.875 73.1002C46.875 74.1095 47.5781 75.311 49.4531 74.9265C64.2656 69.8321 75 55.4139 75 38.4485C75 17.2057 58.2188 0 37.5 0Z" fill="#1B1F23"/>
</svg>
