<svg width="897" height="729" viewBox="0 0 897 729" fill="none" xmlns="http://www.w3.org/2000/svg">
<rect x="317" y="60" width="161" height="161" rx="19" fill="#6E00FF" fill-opacity="0.6"/>
<rect x="317" y="377" width="161" height="161" rx="19" fill="#6E00FF" fill-opacity="0.8"/>
<rect x="473" y="216" width="161" height="161" rx="19" fill="#6E00FF" fill-opacity="0.29"/>
<rect x="156" y="219" width="161" height="161" rx="19" fill="white"/>
<rect x="156" y="536" width="161" height="161" rx="19" fill="white"/>
<rect y="377" width="161" height="161" rx="19" fill="white" fill-opacity="0.29"/>
<circle cx="395" cy="299" r="78" fill="#FF64CB" fill-opacity="0.6"/>
<circle cx="239" cy="458" r="78" fill="#00F7FF" fill-opacity="0.8"/>
<path d="M671.84 611.071C690.164 607.834 758.022 594.611 761.072 621.406C763.636 643.951 708.617 642.067 682.287 640.846C648.79 639.293 580.437 646.393 577.862 632.886C576.318 624.781 596.708 620.461 617.75 619.252C635.05 618.257 645.002 615.811 671.84 611.071Z" fill="url(#paint0_linear)"/>
<path d="M364.494 631.433C347.734 629.592 276.849 618.991 280.323 645.706C283.097 667.037 335.391 658.693 359.107 660.557C392.604 663.189 449.792 659.725 450.914 646.073C451.587 637.881 432.874 635.117 413.847 635.5C398.206 635.815 389.042 634.13 364.494 631.433Z" fill="url(#paint1_linear)"/>
<path d="M470.729 404.428C470.729 403.584 471.432 402.9 472.299 402.9H489.965C490.832 402.9 491.535 403.584 491.535 404.428V421.622C491.535 422.466 490.832 423.15 489.965 423.15H472.299C471.432 423.15 470.729 422.466 470.729 421.622V404.428Z" fill="url(#paint2_linear)"/>
<path d="M480.404 418.948C480.145 418.948 479.901 418.831 479.743 418.63L474.646 412.15C474.366 411.795 474.436 411.287 474.8 411.015C475.164 410.744 475.688 410.809 475.967 411.167L480.334 416.717L486.251 407.484C486.495 407.104 487.008 406.99 487.398 407.226C487.788 407.462 487.906 407.962 487.663 408.342L481.109 418.568C480.965 418.793 480.716 418.936 480.443 418.949C480.43 418.948 480.417 418.948 480.404 418.948Z" fill="#FDE1A7"/>
<path d="M470.729 434.284C470.729 433.44 471.432 432.755 472.299 432.755H489.965C490.832 432.755 491.535 433.44 491.535 434.284V451.478C491.535 452.322 490.832 453.006 489.965 453.006H472.299C471.432 453.006 470.729 452.322 470.729 451.478V434.284Z" fill="url(#paint3_linear)"/>
<path d="M480.404 448.804C480.145 448.804 479.901 448.687 479.743 448.486L474.646 442.006C474.366 441.651 474.436 441.143 474.8 440.871C475.164 440.6 475.688 440.665 475.967 441.022L480.334 446.573L486.251 437.34C486.495 436.961 487.008 436.845 487.398 437.082C487.788 437.318 487.906 437.818 487.663 438.198L481.109 448.424C480.965 448.649 480.716 448.792 480.443 448.805C480.43 448.804 480.417 448.804 480.404 448.804Z" fill="#FDE1A7"/>
<path d="M470.729 464.141C470.729 463.297 471.432 462.612 472.299 462.612H489.965C490.832 462.612 491.535 463.297 491.535 464.141V481.334C491.535 482.178 490.832 482.863 489.965 482.863H472.299C471.432 482.863 470.729 482.178 470.729 481.334V464.141Z" fill="url(#paint4_linear)"/>
<path d="M480.404 478.66C480.145 478.66 479.901 478.542 479.743 478.341L474.646 471.861C474.366 471.507 474.436 470.999 474.8 470.727C475.164 470.455 475.688 470.521 475.967 470.878L480.334 476.429L486.251 467.196C486.495 466.816 487.008 466.701 487.398 466.937C487.788 467.174 487.906 467.674 487.663 468.054L481.109 478.28C480.965 478.505 480.716 478.648 480.443 478.661C480.43 478.66 480.417 478.66 480.404 478.66Z" fill="#FDE1A7"/>
<path d="M555.009 290.69H437.458V392.648H555.009V290.69Z" fill="url(#paint5_linear)"/>
<path d="M493.46 299.363H449.421V303.413H493.46V299.363Z" fill="url(#paint6_linear)"/>
<path d="M543.046 304.561C543.046 303.667 542.301 302.941 541.381 302.941H531.395C530.476 302.941 529.73 303.667 529.73 304.561V381.511H543.046V304.561Z" fill="url(#paint7_linear)"/>
<path d="M543.046 333.856V304.561C543.046 303.667 542.301 302.941 541.381 302.941H531.395C530.476 302.941 529.73 303.667 529.73 304.561V333.856H543.046Z" fill="url(#paint8_linear)"/>
<path d="M502.891 321.773C502.891 320.879 502.146 320.153 501.227 320.153H491.24C490.321 320.153 489.576 320.879 489.576 321.773V381.511H502.891V321.773Z" fill="url(#paint9_linear)"/>
<path d="M502.891 356.266V321.773C502.891 320.879 502.146 320.153 501.227 320.153H491.24C490.321 320.153 489.576 320.879 489.576 321.773V356.266H502.891Z" fill="url(#paint10_linear)"/>
<path d="M522.969 333.113C522.969 332.219 522.223 331.493 521.304 331.493H511.317C510.399 331.493 509.653 332.219 509.653 333.113V381.511H522.969V333.113Z" fill="url(#paint11_linear)"/>
<path d="M522.969 356.266V333.113C522.969 332.219 522.223 331.493 521.304 331.493H511.317C510.399 331.493 509.653 332.219 509.653 333.113V356.266H522.969Z" fill="url(#paint12_linear)"/>
<path d="M482.814 310.838C482.814 309.944 482.068 309.218 481.149 309.218H471.163C470.244 309.218 469.498 309.944 469.498 310.838V381.511H482.814V310.838Z" fill="url(#paint13_linear)"/>
<path d="M482.814 335.881V310.838C482.814 309.944 482.068 309.218 481.149 309.218H471.163C470.244 309.218 469.498 309.944 469.498 310.838V335.881H482.814Z" fill="url(#paint14_linear)"/>
<path d="M462.736 346.478C462.736 345.584 461.991 344.858 461.072 344.858H451.085C450.167 344.858 449.421 345.584 449.421 346.478V381.511H462.736V346.478Z" fill="url(#paint15_linear)"/>
<path d="M462.736 366.931V346.478C462.736 345.584 461.991 344.858 461.072 344.858H451.085C450.167 344.858 449.421 345.584 449.421 346.478V366.931H462.736Z" fill="url(#paint16_linear)"/>
<path d="M543.046 382.321H449.629C449.17 382.321 448.797 381.959 448.797 381.511C448.797 381.063 449.17 380.701 449.629 380.701H543.046C543.506 380.701 543.878 381.063 543.878 381.511C543.878 381.959 543.505 382.321 543.046 382.321Z" fill="#1AA9E8"/>
<path d="M397.875 137.701H279.907V205.943H397.875V137.701Z" fill="url(#paint17_linear)"/>
<path d="M295.977 195.818H330.396V153.226L295.977 195.818Z" fill="#00E2EC"/>
<path d="M362.297 185.491V195.818H383.519V160.921L362.297 185.491Z" fill="#00E2EC"/>
<path d="M330.396 153.226V195.818H362.297V185.491L330.396 153.226Z" fill="#0090B2"/>
<path d="M393.784 174.252L383.519 160.921V195.818H393.784V174.252Z" fill="#0090B2"/>
<path d="M389.344 146.611H344.196V150.661H389.344V146.611Z" fill="url(#paint18_linear)"/>
<path d="M318.095 184.959C317.817 184.959 317.544 184.823 317.387 184.576L297.697 153.758C297.454 153.378 297.574 152.879 297.964 152.643C298.354 152.406 298.867 152.523 299.11 152.903L318.8 183.721C319.043 184.101 318.923 184.601 318.533 184.836C318.397 184.919 318.244 184.959 318.095 184.959Z" fill="#1AA9E8"/>
<path d="M298.403 157.684C300.874 157.684 302.877 155.735 302.877 153.331C302.877 150.926 300.874 148.977 298.403 148.977C295.933 148.977 293.93 150.926 293.93 153.331C293.93 155.735 295.933 157.684 298.403 157.684Z" fill="#F95FC3"/>
<path d="M318.094 186.925C319.669 186.925 320.946 185.682 320.946 184.149C320.946 182.616 319.669 181.373 318.094 181.373C316.519 181.373 315.242 182.616 315.242 184.149C315.242 185.682 316.519 186.925 318.094 186.925Z" fill="white"/>
<path d="M412.672 221.017C408.881 211.808 407.677 201.467 409.793 191.009C412.903 175.639 422.528 163.132 435.323 155.664L423.35 132.763C403.6 143.713 388.672 162.644 383.936 186.052C380.674 202.175 382.715 218.116 388.878 232.17L412.672 221.017Z" fill="white"/>
<path d="M441.994 152.35C451.739 148.3 462.791 146.955 473.972 149.097C490.192 152.206 503.299 162.011 510.89 174.974L534.687 163.818C523.585 143.841 503.747 128.662 479.064 123.931C461.861 120.633 444.859 122.901 430.021 129.45L441.994 152.35Z" fill="white"/>
<path d="M537.94 170.385L514.147 181.539C517.944 190.753 519.149 201.099 517.032 211.564C511.2 240.386 482.466 259.151 452.853 253.474C436.626 250.364 423.516 240.552 415.926 227.582L392.129 238.738C403.228 258.722 423.071 273.908 447.761 278.641C491.655 287.054 534.245 259.241 542.889 216.52C546.153 200.39 544.109 184.443 537.94 170.385Z" fill="white"/>
<path d="M417.544 230.187C411.997 221.865 408.763 211.945 408.763 201.286C408.763 185.621 415.723 171.54 426.794 161.806L410.5 141.589C393.297 156.046 382.408 177.428 382.408 201.286C382.408 217.719 387.576 232.975 396.413 245.606L417.544 230.187Z" fill="url(#paint19_linear)"/>
<path d="M432.683 157.3C441.44 151.493 452.017 148.096 463.413 148.096C479.945 148.096 494.751 155.25 504.772 166.541L525.905 151.12C511.048 133.607 488.57 122.445 463.413 122.445C445.88 122.445 429.648 127.868 416.391 137.084L432.683 157.3Z" fill="url(#paint20_linear)"/>
<path d="M530.401 156.951L509.27 172.37C514.824 180.696 518.062 190.62 518.062 201.286C518.062 230.662 493.594 254.476 463.412 254.476C446.873 254.476 432.062 247.316 422.041 236.017L400.907 251.437C415.765 268.958 438.248 280.126 463.411 280.126C508.148 280.126 544.414 244.827 544.414 201.285C544.416 184.847 539.243 169.584 530.401 156.951Z" fill="url(#paint21_linear)"/>
<path d="M431.73 212.879C436.551 225.35 448.914 234.226 463.412 234.226C473.817 234.226 483.121 229.653 489.329 222.462L463.412 201.286L431.73 212.879Z" fill="url(#paint22_linear)"/>
<path d="M475.416 170.486L463.412 201.286L489.329 222.462C494.274 216.736 497.256 209.351 497.256 201.286C497.256 187.209 488.18 175.201 475.416 170.486Z" fill="url(#paint23_linear)"/>
<path d="M475.416 170.486C471.685 169.107 467.641 168.346 463.413 168.346C444.722 168.346 429.569 183.093 429.569 201.286C429.569 205.367 430.336 209.272 431.73 212.879L463.412 201.286L475.416 170.486Z" fill="url(#paint24_linear)"/>
<path d="M743.201 102.77H561.707V213.436H743.201V102.77Z" fill="url(#paint25_linear)"/>
<path d="M580.084 125.257C582.554 125.257 584.557 123.308 584.557 120.903C584.557 118.499 582.554 116.549 580.084 116.549C577.613 116.549 575.611 118.499 575.611 120.903C575.611 123.308 577.613 125.257 580.084 125.257Z" fill="#FDE1A7"/>
<path d="M604.085 125.257C606.556 125.257 608.558 123.308 608.558 120.903C608.558 118.499 606.556 116.549 604.085 116.549C601.615 116.549 599.612 118.499 599.612 120.903C599.612 123.308 601.615 125.257 604.085 125.257Z" fill="#00E2EC"/>
<path d="M628.086 125.257C630.557 125.257 632.56 123.308 632.56 120.903C632.56 118.499 630.557 116.549 628.086 116.549C625.616 116.549 623.613 118.499 623.613 120.903C623.613 123.308 625.616 125.257 628.086 125.257Z" fill="#C7A0F6"/>
<path d="M632.561 132.57H575.611V136.62H632.561V132.57Z" fill="url(#paint26_linear)"/>
<path d="M729.296 130.089C726.538 124.806 722.404 119.964 716.534 120.151C703.775 120.556 695.451 152.956 686.574 153.361C677.698 153.766 680.749 120.691 669.376 120.961C655.09 121.3 654.534 185.356 636.641 186.84C618.748 188.325 614.725 152.415 606.681 152.956C598.637 153.496 595.178 181.112 593.781 187.111C592.385 193.11 585.321 194.266 585.321 194.266H729.296V130.089Z" fill="url(#paint27_linear)"/>
<path d="M729.296 129.735C709.598 130.545 705.437 182.116 685.188 180.901C668.389 179.893 671.178 152.146 656.476 151.336C641.772 150.526 634.838 184.141 617.084 185.22C608.451 185.745 601.549 180.496 593.643 181.17C585.737 181.845 577.553 192.105 575.611 194.266H729.296V129.735Z" fill="url(#paint28_linear)"/>
<path d="M536.366 88.6286H462.854V111.309H536.366V88.6286Z" fill="url(#paint29_linear)"/>
<path d="M529.625 103.917C526.715 103.917 525.254 102.083 523.964 100.465C522.755 98.9488 521.712 97.6398 519.619 97.6398C517.525 97.6398 516.481 98.9488 515.273 100.465C513.983 102.083 512.522 103.917 509.612 103.917C506.703 103.917 505.241 102.083 503.952 100.465C502.744 98.9488 501.7 97.6398 499.607 97.6398C497.514 97.6398 496.47 98.9488 495.262 100.465C493.973 102.083 492.511 103.917 489.602 103.917C486.694 103.917 485.233 102.083 483.944 100.465C482.736 98.9488 481.693 97.6398 479.601 97.6398C477.508 97.6398 476.464 98.9488 475.256 100.465C473.967 102.083 472.506 103.917 469.596 103.917C469.137 103.917 468.764 103.554 468.764 103.107C468.764 102.66 469.137 102.297 469.596 102.297C471.69 102.297 472.733 100.988 473.942 99.4721C475.231 97.8537 476.692 96.0198 479.601 96.0198C482.509 96.0198 483.97 97.8545 485.26 99.4721C486.467 100.988 487.51 102.297 489.602 102.297C491.696 102.297 492.739 100.988 493.947 99.4721C495.236 97.8537 496.699 96.0198 499.607 96.0198C502.516 96.0198 503.978 97.8537 505.267 99.4721C506.476 100.988 507.519 102.297 509.612 102.297C511.706 102.297 512.75 100.988 513.958 99.4721C515.248 97.8537 516.709 96.0198 519.619 96.0198C522.528 96.0198 523.989 97.8537 525.279 99.4721C526.487 100.988 527.531 102.297 529.625 102.297C530.085 102.297 530.457 102.66 530.457 103.107C530.457 103.554 530.084 103.917 529.625 103.917Z" fill="#05C5DA"/>
<path d="M473.185 136.336C472.967 136.336 472.75 136.253 472.586 136.088C472.267 135.766 472.276 135.253 472.607 134.943L498.411 110.725C498.742 110.415 499.269 110.423 499.588 110.746C499.907 111.068 499.898 111.581 499.567 111.891L473.763 136.108C473.601 136.261 473.393 136.336 473.185 136.336Z" fill="#1AA9E8"/>
<path d="M473.185 138.732C475.004 138.732 476.479 137.297 476.479 135.526C476.479 133.755 475.004 132.32 473.185 132.32C471.366 132.32 469.891 133.755 469.891 135.526C469.891 137.297 471.366 138.732 473.185 138.732Z" fill="#FDE1A7"/>
<path d="M606.96 342.62C607.615 343.708 609.051 344.073 610.169 343.438L648.378 326.647C649.496 326.011 649.872 324.614 649.218 323.525L631.859 295.401C631.206 294.313 629.77 293.948 628.652 294.584L586.145 306.05C585.026 306.686 584.649 308.083 585.303 309.172L606.96 342.62Z" fill="url(#paint30_linear)"/>
<path d="M651.298 323.994L632.81 294.041C632.113 292.881 630.583 292.493 629.394 293.17L584.121 305.382C582.931 306.059 582.53 307.548 583.226 308.706L606.292 344.329C606.99 345.488 608.519 345.877 609.709 345.2L650.404 327.318C651.593 326.641 651.995 325.152 651.298 323.994ZM609.459 339.266L589.91 308.51L629.649 296.866L646.605 323.9L609.459 339.266Z" fill="url(#paint31_linear)"/>
<path d="M636.463 314.585L606.271 326.181L603.826 322.768L634.471 311.605L636.463 314.585Z" fill="#FDE1A7"/>
<path d="M615.847 314.964C617.7 314.964 619.203 313.502 619.203 311.699C619.203 309.895 617.7 308.433 615.847 308.433C613.994 308.433 612.491 309.895 612.491 311.699C612.491 313.502 613.994 314.964 615.847 314.964Z" fill="#F95FC3"/>
<path d="M604.416 319.241C606.269 319.241 607.771 317.779 607.771 315.975C607.771 314.172 606.269 312.709 604.416 312.709C602.562 312.709 601.06 314.172 601.06 315.975C601.06 317.779 602.562 319.241 604.416 319.241Z" fill="#FE687E"/>
<path d="M626.579 310.823C628.247 310.823 629.599 309.507 629.599 307.884C629.599 306.261 628.247 304.946 626.579 304.946C624.912 304.946 623.56 306.261 623.56 307.884C623.56 309.507 624.912 310.823 626.579 310.823Z" fill="#00E2EC"/>
<path d="M677.155 535.14C676.178 518.963 679.915 499.125 679.777 492.916L652.605 491.4C652.605 491.4 652.081 510.323 652.327 526.703C652.605 545.199 656.558 598.254 655.379 606.556C654.644 611.73 650.303 615.069 646.283 617.534C648.214 618.496 651.634 619.158 656.525 616.803C662.058 614.138 668.29 611.16 672.685 611.011C672.508 608.218 672.329 605.603 672.3 603.857C672.162 595.418 678.334 554.648 677.155 535.14Z" fill="url(#paint32_linear)"/>
<path d="M656.525 616.802C651.634 619.158 648.215 618.496 646.283 617.533C645.236 618.174 644.211 618.76 643.278 619.299C639.722 621.355 634.026 622.163 634.644 624.308C635.128 625.996 648.563 626.763 655.761 624.767C659.16 623.825 664.984 620.784 664.984 620.784L665.209 624.918C665.209 624.918 671.667 625.386 672.362 624.644C673.415 623.514 673.054 616.865 672.685 611.01C668.29 611.16 662.058 614.137 656.525 616.802Z" fill="url(#paint33_linear)"/>
<path d="M709.544 617.356C715.322 614.572 721.863 611.45 726.275 611.565C726.095 608.774 725.883 606.154 725.77 604.396C725.424 598.997 725.286 589.682 725.98 570.106C726.674 550.531 723.067 536.762 721.819 525.151C720.571 513.541 720.571 501.256 720.431 495.047L694.562 498.151C694.562 498.151 696.552 516.689 698.307 532.981C699.966 548.372 710.028 597.714 708.85 606.015C708.125 611.118 702.933 615.297 699.079 617.976C700.964 618.996 704.464 619.802 709.544 617.356Z" fill="url(#paint34_linear)"/>
<path d="M688.112 625.726C688.112 626.874 701.581 627.317 708.78 625.321C712.178 624.379 718.002 621.338 718.002 621.338L718.228 625.472C718.228 625.472 725.146 625.726 725.839 624.983C726.888 623.859 726.649 617.344 726.275 611.565C721.861 611.45 715.321 614.573 709.543 617.356C704.463 619.803 700.963 618.996 699.078 617.976C698.007 618.72 697.034 619.354 696.295 619.853C692.898 622.148 688.112 623.498 688.112 625.726Z" fill="url(#paint35_linear)"/>
<path d="M712.247 398.251C715.16 402.571 723.067 416.342 725.978 430.718C728.666 443.98 728.475 451.576 729.931 461.903C731.388 472.231 738.878 494.911 738.462 496.328C738.046 497.746 734.717 499.872 728.199 500.041C723.327 500.168 719.738 499.772 711 502.607C702.262 505.442 692.413 507.062 680.484 505.847C668.557 504.632 659.124 499.772 653.161 499.636C647.195 499.501 639.289 499.501 638.457 497.881C637.625 496.261 643.041 483.732 644.213 475.876C645.537 467.007 648.444 450.09 654.823 433.351C660.804 417.661 669.249 399.601 669.249 399.601C669.249 399.601 681.663 399.533 690.609 399.331C699.555 399.128 712.247 398.251 712.247 398.251Z" fill="url(#paint36_linear)"/>
<path d="M688.458 500.998C685.819 500.998 683.139 500.857 680.397 500.577C673.815 499.907 667.882 498.11 663.115 496.665C659.156 495.466 655.737 494.43 653.141 494.371L651.496 494.337C646.867 494.244 641.62 494.14 639.242 493.29C638.81 493.137 638.589 492.67 638.747 492.251C638.905 491.831 639.381 491.614 639.815 491.77C641.931 492.525 647.253 492.632 651.529 492.717L653.178 492.751C656.008 492.815 659.53 493.882 663.608 495.118C668.55 496.616 674.15 498.312 680.569 498.967C691.103 500.039 700.692 499.021 710.735 495.764C718.39 493.28 722.196 493.236 726.226 493.189C726.862 493.181 727.505 493.173 728.175 493.156C734.013 493.004 736.445 491.313 737.051 490.797C737.396 490.504 737.922 490.537 738.225 490.875C738.527 491.212 738.491 491.724 738.145 492.018C737.232 492.793 734.437 494.614 728.218 494.776C727.541 494.793 726.889 494.801 726.245 494.809C722.348 494.854 718.669 494.896 711.261 497.3C703.6 499.786 696.198 500.998 688.458 500.998Z" fill="#CFAEFF"/>
<path d="M691.114 495.601C687.801 495.601 684.326 495.415 680.675 495.042C673.776 494.34 667.637 492.496 662.221 490.871C658.306 489.696 654.925 488.681 652.246 488.428C650.033 488.221 648.022 488.394 646.25 488.547C644.151 488.729 642.335 488.886 640.823 488.345C640.391 488.191 640.17 487.725 640.329 487.306C640.487 486.886 640.963 486.67 641.396 486.825C642.558 487.241 644.203 487.098 646.103 486.933C647.947 486.774 650.037 486.593 652.407 486.816C655.254 487.083 658.71 488.121 662.711 489.323C668.055 490.926 674.111 492.745 680.849 493.431C692.639 494.629 702.522 493.868 711.062 491.099C718.646 488.639 720.764 488.704 723.955 488.798C724.495 488.814 725.069 488.831 725.709 488.837C731.781 488.892 734.305 487.337 735.682 486.167C736.027 485.873 736.553 485.908 736.856 486.245C737.158 486.582 737.122 487.094 736.776 487.388C735.218 488.712 732.411 490.458 725.998 490.458C725.898 490.458 725.797 490.457 725.694 490.457C725.04 490.451 724.455 490.434 723.904 490.417C720.777 490.323 718.89 490.265 711.588 492.635C705.481 494.618 698.721 495.6 691.114 495.601Z" fill="#CFAEFF"/>
<path d="M634.088 312.155C632.823 312.564 630.689 313.673 631.105 315.698C631.521 317.723 635.269 321.279 636.518 321.819C637.766 322.358 636.932 319.141 635.822 317.723C634.712 316.306 637.809 319.531 638.803 319.208C639.531 318.972 639.775 317.622 638.977 315.496C638.266 313.604 641.44 311.851 640.051 311.581C638.665 311.311 635.752 311.614 634.088 312.155Z" fill="url(#paint37_linear)"/>
<path d="M653.603 335.585C653.962 335.126 664.08 328.299 664.831 328.032C665.886 327.657 682.287 348.503 684.575 350.831C686.864 353.16 681.55 364.78 677.181 365.59C672.812 366.4 652.656 336.792 653.603 335.585Z" fill="url(#paint38_linear)"/>
<path d="M624.655 311.243C626.127 309.811 633.464 310.636 634.434 310.906C635.406 311.175 637.833 309.218 639.289 309.15C640.745 309.082 645.201 309.876 647.819 311.311C650.721 312.901 665.226 328.456 665.226 328.456C665.226 328.456 665.02 332.506 661.377 334.936C657.726 337.371 655.384 336.258 655.384 336.258C655.384 336.258 650.246 327.14 648.478 326.026C646.709 324.912 642.34 326.786 638.743 325.927C635.351 325.118 630.637 320.862 631.939 319.748C633.32 318.566 636.624 321.295 638.111 321.773C640.312 322.482 644.439 321.632 644.525 320.001C644.629 318.026 638.054 316.195 633.082 314.736C629.565 313.705 623.459 312.407 624.655 311.243Z" fill="url(#paint39_linear)"/>
<path d="M656.648 337.316C654.421 337.316 653.141 336.268 653.057 336.196C652.71 335.903 652.673 335.391 652.974 335.053C653.275 334.715 653.803 334.681 654.148 334.973C654.243 335.05 656.667 336.945 660.924 334.256C664.202 332.186 664.393 328.463 664.395 328.426C664.413 327.98 664.8 327.626 665.257 327.648C665.715 327.664 666.073 328.038 666.058 328.484C666.051 328.67 665.852 333.076 661.83 335.616C659.778 336.911 658.031 337.316 656.648 337.316Z" fill="#1AA9E8"/>
<path d="M706.699 317.116C708.918 321.571 717.24 337.095 716.686 349.111C716.131 361.126 712.801 373.546 712.385 382.861C711.969 392.176 712.247 398.251 712.247 398.251C712.247 398.251 703.094 403.786 689.222 403.381C675.774 402.989 669.249 399.601 669.249 399.601C669.249 399.601 668.85 385.311 667.168 375.571C665.85 367.943 662.625 363.488 662.591 354.916C662.546 343.946 679.894 329.772 685.061 322.111C689.309 315.813 706.699 317.116 706.699 317.116Z" fill="url(#paint40_linear)"/>
<path d="M690.694 404.212C690.201 404.212 689.703 404.205 689.197 404.191C675.709 403.797 669.131 400.458 668.858 400.315C668.453 400.105 668.3 399.616 668.515 399.221C668.731 398.825 669.235 398.676 669.641 398.885C669.704 398.919 676.196 402.19 689.249 402.571C702.684 402.973 711.72 397.617 711.809 397.563C712.199 397.327 712.713 397.444 712.955 397.824C713.197 398.204 713.076 398.703 712.687 398.939C712.317 399.162 703.808 404.212 690.694 404.212Z" fill="#1AA9E8"/>
<path d="M719.945 272.667C722.025 272.768 728.395 271.162 733.156 270.136C742.555 268.111 751.791 268.231 754.17 274.591C756.216 280.058 752.813 284.598 753.373 288.428C754.136 293.626 770.088 298.013 770.398 308.408C770.697 318.375 762.284 321.976 759.995 326.33C757.707 330.683 753.15 343.896 737.317 342.833C728.269 342.226 725.772 337.028 725.77 333.417C725.77 328.781 730.347 325.216 728.163 321.875C725.978 318.533 718.976 320.746 717.448 316.812C715.785 312.526 719.529 309.016 722.337 306.89C725.146 304.763 729.307 302.536 728.371 299.397C727.435 296.258 721.713 295.468 721.921 292.31C722.165 288.631 729.106 285.9 727.955 282.185C727.088 279.384 722.129 279.957 717.864 279.147C713.599 278.337 719.945 272.667 719.945 272.667Z" fill="url(#paint41_linear)"/>
<path d="M704.619 298.756C704.081 303.447 706.699 317.116 706.699 317.116C706.699 317.116 700.179 323.697 690.609 324.136C685.913 324.352 685.061 322.111 685.061 322.111L687.004 303.346C687.004 303.346 689.928 298.005 695.88 295.786C701.831 293.566 704.064 295.651 704.064 295.651L704.619 298.756Z" fill="url(#paint42_linear)"/>
<path d="M701.984 264.736C693.522 261.226 687.218 261.378 687.218 261.378C680.622 264.87 663.086 296.795 674.104 304.56C680.905 309.354 692.572 304.464 700.326 297.947C700.8 298.092 701.306 298.172 701.831 298.172C704.533 298.172 706.721 296.109 706.721 293.564C706.721 292.838 706.537 292.153 706.22 291.542C706.935 290.446 707.485 289.372 707.809 288.359C709.719 282.389 710.444 268.246 701.984 264.736Z" fill="url(#paint43_linear)"/>
<path d="M688.84 284.058C688.716 284.058 688.589 284.04 688.464 284.001C687.808 283.8 687.442 283.117 687.649 282.477C688.034 281.294 689.432 279.09 690.32 278.267C690.819 277.806 691.61 277.824 692.085 278.31C692.56 278.796 692.54 279.564 692.041 280.028C691.466 280.56 690.282 282.433 690.03 283.208C689.863 283.727 689.371 284.058 688.84 284.058Z" fill="#0090B2"/>
<path d="M677.035 277.645C676.931 277.645 676.826 277.63 676.722 277.598C676.173 277.429 675.87 276.86 676.043 276.327C676.413 275.185 677.539 273.416 678.404 272.615C678.818 272.23 679.478 272.245 679.874 272.651C680.271 273.056 680.254 273.697 679.837 274.083C679.235 274.64 678.288 276.135 678.027 276.937C677.887 277.369 677.477 277.645 677.035 277.645Z" fill="#0090B2"/>
<path d="M688.909 288.846C688.044 288.846 687.232 288.652 686.499 288.27C684.963 287.471 683.956 285.953 683.663 283.993C683.379 282.102 683.8 280.013 684.845 278.11C686.474 275.145 689.295 273.229 692.033 273.229C692.898 273.229 693.711 273.423 694.444 273.805C697.546 275.419 698.289 279.977 696.099 283.966C694.47 286.93 691.648 288.846 688.909 288.846ZM692.032 274.443C689.784 274.443 687.337 276.148 685.945 278.682C685.026 280.357 684.653 282.18 684.898 283.817C685.133 285.385 685.91 286.584 687.087 287.197C687.638 287.484 688.251 287.629 688.909 287.629C691.159 287.629 693.606 285.926 694.998 283.391C696.862 279.993 696.35 276.174 693.855 274.875C693.304 274.589 692.69 274.443 692.032 274.443Z" fill="#9F36AD"/>
<path d="M674.953 281.202C674.336 281.202 673.759 281.066 673.241 280.797C670.748 279.499 670.375 275.602 672.393 271.926C673.92 269.145 676.468 267.278 678.731 267.278C679.35 267.278 679.926 267.414 680.443 267.684C681.681 268.327 682.433 269.638 682.56 271.373C682.681 273.006 682.23 274.847 681.291 276.554C679.766 279.334 677.218 281.202 674.953 281.202ZM678.732 268.492C676.945 268.492 674.791 270.14 673.494 272.498C671.862 275.47 672.016 278.78 673.83 279.725C674.164 279.898 674.542 279.986 674.953 279.986C676.742 279.986 678.896 278.34 680.191 275.981C681.02 274.473 681.419 272.866 681.316 271.459C681.221 270.154 680.702 269.193 679.856 268.754C679.52 268.581 679.143 268.492 678.732 268.492Z" fill="#9F36AD"/>
<path d="M682.496 275.13C679.218 277.78 670.12 282.151 669.873 283.703C669.544 285.779 674.418 286.935 675.528 286.935C676.638 286.935 677.45 284.006 680.416 279.989C682.087 277.727 684.239 273.722 682.496 275.13Z" fill="url(#paint44_linear)"/>
<path d="M685.809 278.314C685.561 278.314 685.327 278.17 685.229 277.933C684.373 275.85 683.276 275.227 681.436 275.784C681.106 275.885 680.757 275.705 680.656 275.385C680.553 275.064 680.737 274.724 681.066 274.624C683.549 273.872 685.289 274.808 686.389 277.482C686.517 277.794 686.361 278.147 686.041 278.271C685.965 278.301 685.886 278.314 685.809 278.314Z" fill="#9F36AD"/>
<path d="M671.388 291.514C671.505 291.99 671.807 292.481 672.155 292.886C672.51 293.294 672.94 293.627 673.417 293.833C674.37 294.266 675.478 294.101 676.464 293.629C676.775 293.48 677.149 293.603 677.302 293.904C677.455 294.206 677.327 294.57 677.019 294.718C677.005 294.724 676.991 294.731 676.978 294.736C676.362 294.982 675.695 295.17 674.995 295.187C674.297 295.217 673.577 295.068 672.957 294.752C672.334 294.439 671.816 293.981 671.411 293.462C671.014 292.935 670.69 292.367 670.555 291.678C670.511 291.453 670.662 291.236 670.893 291.193C671.117 291.15 671.335 291.289 671.387 291.503L671.388 291.514Z" fill="#954374"/>
<path d="M689.996 324.96C685.313 324.96 684.323 322.501 684.282 322.392C684.122 321.973 684.341 321.507 684.773 321.351C685.204 321.198 685.683 321.41 685.842 321.83C685.865 321.88 686.638 323.507 690.571 323.327C699.705 322.908 706.037 316.618 706.101 316.554C706.42 316.232 706.946 316.222 707.278 316.533C707.608 316.844 707.618 317.356 707.298 317.679C707.023 317.957 700.437 324.497 690.648 324.945C690.423 324.955 690.206 324.96 689.996 324.96Z" fill="#1AA9E8"/>
<path d="M700.502 289.134C699.619 289.345 698.354 288.968 698.447 287.213C698.619 283.906 704.451 278.834 704.308 274.152C704.132 268.465 693.158 267.199 685.616 264.331C677.495 261.242 677.605 252.112 679.634 249.126C681.871 245.835 685.824 246.916 687.488 248.536C689.152 250.156 689.915 251.955 691.373 251.911C693.054 251.86 692.43 248.671 694.978 248.671C697.56 248.671 699.794 253.305 701.568 255.218C704.601 258.492 720.521 263.601 721.331 274.725C722.443 289.98 706.839 301.86 705.105 301.86C702.151 301.861 702.307 298.534 703.568 297.869C704.832 297.203 707.209 295.797 706.608 292.585C706.005 289.373 702.468 288.665 700.502 289.134Z" fill="url(#paint45_linear)"/>
<path d="M703.595 289.272C704.986 289.779 706.071 290.866 706.509 292.222C706.613 292.078 706.662 291.896 706.608 291.712C705.609 288.23 700.396 285.136 697.597 283.475C697.005 283.124 696.495 282.821 696.194 282.614C695.913 282.42 695.522 282.486 695.324 282.76C695.125 283.033 695.191 283.413 695.474 283.606C695.809 283.837 696.311 284.134 696.947 284.512C698.77 285.595 701.675 287.318 703.595 289.272Z" fill="#9F36AD"/>
<path d="M605.407 327.776C607.09 327.456 608.999 332.81 609.831 335.847C610.663 338.885 611.267 344.026 614.322 347.424C617.113 350.528 626.043 353.363 626.043 353.363C626.043 353.363 627.013 358.426 624.654 361.261C622.298 364.096 618.817 363.952 618.817 363.952C618.817 363.952 608.566 354.038 604.265 351.136C599.966 348.234 597.331 344.318 596.671 341.517C595.965 338.52 595.458 337.028 595.805 333.721C595.992 331.926 596.717 329.542 596.717 329.542C596.717 329.542 603.102 339.403 604.751 341.956C606.485 341.618 605.653 336.961 605.445 335.071C605.237 333.181 603.694 328.101 605.407 327.776Z" fill="url(#paint46_linear)"/>
<path d="M695.604 330.291C702.884 329.063 707.159 332.255 709.438 337.062C711.935 342.327 711.414 348.841 707.531 352.621C703.648 356.4 678.641 385.324 665.468 384.957C650.766 384.548 618.257 366.486 617.929 364.635C617.6 362.784 623.667 352.542 624.519 352.84C625.368 353.138 658.983 365.498 663.978 364.189C668.971 362.881 690.544 331.145 695.604 330.291Z" fill="url(#paint47_linear)"/>
<path d="M617.92 365.429C617.524 365.429 617.179 365.165 617.109 364.774C616.726 362.625 622.112 353.626 623.662 352.359C624.049 352.042 624.43 351.948 624.8 352.078C625.233 352.229 625.457 352.693 625.302 353.114C625.2 353.389 624.96 353.579 624.685 353.634C623.4 354.683 618.565 363.088 618.749 364.499C618.806 364.936 618.497 365.355 618.05 365.419C618.007 365.427 617.963 365.429 617.92 365.429Z" fill="#1AA9E8"/>
<path d="M379.855 509.962C379.855 511.217 380.901 512.234 382.19 512.234H433.925C435.214 512.234 436.259 511.217 436.259 509.962V476.645C436.259 475.39 435.214 474.373 433.925 474.373H382.19C380.901 474.373 379.855 475.39 379.855 476.645V509.962Z" fill="url(#paint48_linear)"/>
<path d="M435.728 473.054H380.386C379.007 473.054 377.889 474.142 377.889 475.484V511.124C377.889 512.466 379.007 513.554 380.386 513.554H435.728C437.107 513.554 438.225 512.466 438.225 511.124V475.484C438.225 474.141 437.107 473.054 435.728 473.054ZM434.064 509.504H382.05V477.104H434.064V509.504Z" fill="url(#paint49_linear)"/>
<path d="M424.386 495.789H380.346V499.839H424.386V495.789Z" fill="#FDE1A7"/>
<path d="M418.669 486.219L424.386 492.721L412.987 492.751L418.669 486.219Z" fill="#00E2EC"/>
<path d="M403.492 492.751C405.345 492.751 406.848 491.289 406.848 489.485C406.848 487.682 405.345 486.219 403.492 486.219C401.639 486.219 400.137 487.682 400.137 489.485C400.137 491.289 401.639 492.751 403.492 492.751Z" fill="#F95FC3"/>
<path d="M331.151 631.506C332.685 635.243 339.246 636.81 344.751 638.078C350.684 639.446 354.91 640.235 354.669 642.533C354.392 645.166 341.493 646.043 332.13 645.773C322.768 645.504 315.985 644.43 314.598 643.417C313.134 642.348 313.198 632.678 313.544 630.519C313.89 628.359 331.151 631.506 331.151 631.506Z" fill="url(#paint50_linear)"/>
<path d="M321.38 412.021C320.132 416.476 316.942 426.736 315.832 446.176C314.722 465.616 316.109 525.287 316.109 539.867C316.109 554.447 312.503 580.366 312.225 597.916C311.947 615.466 311.59 631.969 312.641 632.611C314.965 634.028 328.28 635.041 332.753 632.611C333.534 632.187 340.798 570.916 345.792 545.266C349.086 528.344 361.881 436.455 362.713 422.955C363.546 409.456 321.38 412.021 321.38 412.021Z" fill="url(#paint51_linear)"/>
<path d="M324.282 628.506C318.109 628.506 313.338 627.305 311.596 626.449C311.185 626.247 311.021 625.761 311.228 625.361C311.434 624.962 311.934 624.801 312.346 625.003C314.761 626.189 323.472 628.067 333.624 625.919C334.074 625.823 334.516 626.102 334.613 626.539C334.711 626.976 334.426 627.407 333.977 627.502C330.542 628.229 327.25 628.506 324.282 628.506Z" fill="#CD218F"/>
<path d="M398.707 636.189C400.024 638.484 405.892 641.333 411.398 642.601C417.331 643.969 421.557 644.758 421.316 647.056C421.039 649.689 408.139 650.566 398.777 650.296C389.414 650.027 383.104 649.689 381.716 648.676C380.252 647.607 379.497 639.968 379.844 637.809C380.191 635.649 398.707 636.189 398.707 636.189Z" fill="url(#paint52_linear)"/>
<path d="M387.472 421.606C388.096 429.706 393.714 527.918 394.962 544.118C396.21 560.318 401.688 635.098 400.996 636.526C399.851 638.888 382.167 641.521 379.462 639.192C377.732 637.703 372.145 599.807 367.707 574.966C363.268 550.126 353.559 506.116 348.566 488.837C343.572 471.557 334.418 443.273 339.619 418.163C344.404 412.898 355.019 413.017 366.666 415.126C378.659 417.297 387.472 421.606 387.472 421.606Z" fill="url(#paint53_linear)"/>
<path d="M352.4 505.177C351.434 501.367 350.446 497.564 349.401 493.778C348.367 489.991 347.195 486.243 346.066 482.47C343.794 474.931 341.659 467.333 340.032 459.605C339.94 459.167 340.229 458.739 340.68 458.649C341.13 458.559 341.57 458.841 341.663 459.279C341.663 459.282 341.665 459.29 341.666 459.293C343.139 466.98 345.126 474.577 347.257 482.141C348.315 485.924 349.425 489.708 350.394 493.527C351.373 497.341 352.293 501.166 353.19 504.995C353.24 505.208 353.104 505.419 352.884 505.468C352.668 505.516 352.453 505.386 352.4 505.177Z" fill="#CD218F"/>
<path d="M340.839 460.208C340.731 460.208 340.621 460.188 340.515 460.144C338.081 459.144 332.564 455.271 331.208 453.073C330.972 452.689 331.099 452.191 331.493 451.961C331.887 451.731 332.398 451.855 332.635 452.239C333.725 454.007 338.799 457.681 341.164 458.653C341.587 458.827 341.785 459.302 341.607 459.714C341.472 460.022 341.164 460.208 340.839 460.208Z" fill="#CD218F"/>
<path d="M384.458 634.456C381.19 634.456 378.547 634.11 377.416 633.698C376.985 633.542 376.767 633.074 376.929 632.655C377.089 632.237 377.57 632.027 378 632.181C380.666 633.151 393.209 633.671 400.418 629.279C400.808 629.04 401.321 629.156 401.565 629.535C401.809 629.914 401.691 630.414 401.301 630.651C396.511 633.571 389.685 634.456 384.458 634.456Z" fill="#CD218F"/>
<path d="M356.853 279.093C361.846 269.373 381.993 227.341 384.074 224.776C386.155 222.211 387.787 221.707 388.374 217.824C388.861 214.6 388.599 212.373 389.206 209.859C390.039 206.416 395.058 197.224 393.784 194.536C392.951 192.781 389.622 197.439 388.374 198.924C387.126 200.409 383.418 206.208 382.533 205.671C382.297 203.413 382.602 195.819 382.602 195.819C381.023 197.642 378.838 202.299 377.59 207.159C376.342 212.019 376.723 213.706 373.949 219.242C371.175 224.777 348.358 249.077 336.707 274.389C336.033 275.853 335.379 277.347 334.739 278.864C339.663 282.225 346.244 285.615 354.172 286.961C355.002 283.69 355.907 280.934 356.853 279.093Z" fill="url(#paint54_linear)"/>
<path d="M365.141 328.658C350.357 324.62 351.813 326.807 350.199 326.104C348.429 324.381 350.619 300.952 354.171 286.96C346.244 285.614 339.663 282.225 334.738 278.864C324.285 303.655 318.373 335.239 317.981 360.046C317.565 386.371 318.606 412.696 318.814 413.911C319.022 415.126 337.946 426.465 358.968 426.668C379.913 426.871 387.472 421.606 387.472 421.606C387.472 421.606 391.67 349.436 390.992 347.417C390.315 345.398 379.925 332.697 365.141 328.658Z" fill="url(#paint55_linear)"/>
<path d="M361.916 421.761C361.273 421.761 360.619 421.756 359.947 421.744C335.107 421.327 319.701 410.665 317.9 408.721C317.592 408.389 317.619 407.876 317.961 407.577C318.302 407.278 318.828 407.304 319.136 407.636C320.592 409.208 335.784 419.719 359.975 420.124C380.391 420.469 387.212 415.32 387.279 415.268C387.637 414.989 388.162 415.045 388.449 415.393C388.737 415.742 388.68 416.253 388.321 416.532C388.04 416.753 381.391 421.761 361.916 421.761Z" fill="#05C5DA"/>
<path d="M377.743 344.593C377.444 344.593 377.154 344.436 377.006 344.16C374.404 339.338 365.513 332.606 361.52 331.094C361.091 330.932 360.879 330.462 361.046 330.046C361.212 329.629 361.695 329.422 362.122 329.584C366.437 331.217 375.673 338.207 378.479 343.407C378.693 343.803 378.536 344.292 378.129 344.5C378.005 344.564 377.873 344.593 377.743 344.593Z" fill="#05C5DA"/>
<path d="M336.408 319.984C336.01 319.984 335.659 319.707 335.589 319.313C333.888 309.799 339.335 294.54 341.954 287.208C342.519 285.622 342.967 284.37 343.144 283.723C343.261 283.29 343.717 283.033 344.161 283.148C344.606 283.263 344.871 283.707 344.752 284.139C344.559 284.845 344.126 286.06 343.525 287.74C340.952 294.944 335.6 309.935 337.227 319.036C337.306 319.476 337.003 319.896 336.55 319.973C336.502 319.98 336.454 319.984 336.408 319.984Z" fill="#05C5DA"/>
<path d="M326.304 323.393C326.073 323.393 325.843 323.299 325.678 323.117C325.375 322.78 325.41 322.269 325.756 321.974C327.423 320.555 336.411 315.744 346.809 320.015C347.232 320.189 347.431 320.664 347.252 321.076C347.074 321.488 346.587 321.682 346.162 321.508C336.502 317.541 328.105 322.126 326.852 323.193C326.694 323.327 326.498 323.393 326.304 323.393Z" fill="#05C5DA"/>
<path d="M372.172 272.262C375.341 277.37 381.646 278.337 382.167 280.058C382.687 281.78 379.254 285.222 378.213 285.83C377.173 286.437 372.18 276.515 371.764 275.401C371.348 274.287 372.172 272.262 372.172 272.262Z" fill="url(#paint56_linear)"/>
<path d="M363.39 261.581C363.39 261.581 348.982 265.681 341.908 275.266C338.002 280.559 342.851 289.881 347.976 297.173C346.259 298.6 345.376 300.241 345.376 300.241L344.717 302.03C344.335 306.114 339.769 320.174 338.104 324.36C337.485 325.916 341.821 331.641 351.27 332.101C359.592 332.506 365.141 328.658 365.141 328.658L365.938 310.889C365.938 310.889 366.218 309.776 366.519 308.263C370.544 307.764 375.12 306.228 378.942 302.401C388.512 292.816 368.747 265.782 363.39 261.581Z" fill="url(#paint57_linear)"/>
<path d="M360.495 286.201C361.549 285.506 361.258 283.366 358.761 280.936C356.264 278.506 353.629 276.345 354.115 273.781C354.597 271.237 363.204 268.525 367.244 265.61C373.88 260.821 376.03 249.21 372.008 248.468C366.489 247.45 364.727 254.813 363.269 254.813C361.536 254.813 362.423 250.877 359.936 251.162C356.334 251.573 354.946 256.568 352.866 258.12C349.749 260.447 333.17 265.41 332.13 277.425C331.283 287.206 337.577 292.767 340.348 296.258C343.296 299.97 344.206 301.879 344.717 302.029C345.636 302.298 349.682 301.711 353.144 300.308C356.889 298.789 359.177 296.865 358.449 295.954C357.721 295.043 352.276 294.025 351.895 289.575C351.618 286.335 353.872 284.918 355.64 285.221C357.409 285.525 359.315 286.977 360.495 286.201Z" fill="url(#paint58_linear)"/>
<path d="M363.025 289.475C363.677 289.494 364.17 293.794 366.719 294.386C368.417 294.778 373.879 291.095 376.342 290.032C377.837 289.386 380.504 288.944 380.675 289.61C380.847 290.276 381.231 292.715 382.167 294.892C382.958 296.73 384.768 298.419 383.884 302.182C382.586 307.708 372.701 311.852 365.939 310.889C365.783 309.32 365.557 306.886 364.43 302.486C363.129 297.406 361.105 292.783 361.153 291.854C361.223 290.521 361.916 289.441 363.025 289.475Z" fill="url(#paint59_linear)"/>
<path d="M370.272 280.396C369.726 280.396 369.224 280.044 369.071 279.506C368.784 278.501 367.475 276.29 367.213 275.951C366.803 275.42 366.898 274.656 367.437 274.25C367.975 273.844 368.742 273.921 369.168 274.439C369.503 274.847 371.073 277.44 371.477 278.856C371.661 279.503 371.272 280.173 370.608 280.352C370.495 280.382 370.382 280.396 370.272 280.396Z" fill="#0090B2"/>
<path d="M376.783 293.625C376.93 293.866 377.383 294.16 377.787 294.318C378.208 294.486 378.662 294.568 379.098 294.52C379.983 294.445 380.727 293.746 381.186 292.877C381.269 292.717 381.469 292.654 381.633 292.735C381.789 292.812 381.854 292.995 381.788 293.15C381.568 293.653 381.281 294.151 380.859 294.571C380.446 294.995 379.874 295.315 379.257 295.438C378.639 295.563 378.003 295.504 377.421 295.33C376.836 295.132 376.295 294.927 375.78 294.348L375.771 294.337C375.545 294.083 375.573 293.696 375.834 293.476C376.095 293.256 376.492 293.283 376.719 293.538C376.742 293.564 376.765 293.596 376.783 293.625Z" fill="#F1D2F8"/>
<path d="M351.27 332.101C359.593 332.506 365.141 328.658 365.141 328.658L365.431 322.184C363.336 323.281 358.813 325.167 352.853 324.877C345.619 324.525 341.393 321.092 340.082 318.801C339.296 321.152 338.581 323.162 338.105 324.36C337.486 325.916 341.821 331.641 351.27 332.101Z" fill="url(#paint60_linear)"/>
<path d="M352.511 332.941C352.091 332.941 351.664 332.931 351.229 332.909C344.245 332.57 339.739 329.407 338.001 326.802C337.29 325.735 337.051 324.764 337.328 324.066C337.495 323.649 337.976 323.442 338.404 323.603C338.831 323.764 339.044 324.23 338.882 324.646C338.858 324.747 338.91 325.29 339.607 326.214C341.313 328.475 345.284 330.998 351.311 331.291C359.253 331.671 364.603 328.035 364.657 327.997C365.031 327.737 365.55 327.822 365.818 328.187C366.085 328.551 365.998 329.057 365.624 329.317C365.4 329.473 360.304 332.941 352.511 332.941Z" fill="#05C5DA"/>
<path d="M406.77 461.144C404.411 454.12 401.926 408.504 397.712 376.78C386.018 377.081 376.505 379.933 371.46 382.28C372.648 387.618 374.358 394.603 377.07 403.786C384.491 428.914 394.443 457.55 394.616 463.726C394.718 467.369 391.532 471.646 391.125 477.027C390.853 480.635 392.361 486.507 393.784 486.406C395.587 486.278 395.436 480.933 396.159 478.407C397.303 474.407 399.748 473.041 399.748 473.041C399.748 473.041 404.949 473.054 413.719 473.054C412.488 468.75 407.797 464.206 406.77 461.144Z" fill="url(#paint61_linear)"/>
<path d="M390.316 346.546C381.993 337.905 366.042 346.951 364.517 358.291C364.191 360.715 366.458 363.556 368.123 367.741C369.11 370.222 369.729 374.502 371.459 382.28C376.504 379.933 386.017 377.081 397.712 376.78C395.699 361.625 393.292 349.636 390.316 346.546Z" fill="url(#paint62_linear)"/>
<path d="M371.46 383.09C371.15 383.09 370.852 382.92 370.708 382.63C370.51 382.226 370.686 381.742 371.1 381.55C373.712 380.335 383.349 376.34 397.69 375.97C398.151 375.972 398.532 376.311 398.544 376.759C398.556 377.206 398.193 377.578 397.734 377.59C386.601 377.876 377.047 380.578 371.819 383.011C371.703 383.065 371.581 383.09 371.46 383.09Z" fill="#05C5DA"/>
<path d="M364.518 359.101C364.482 359.101 364.445 359.098 364.409 359.094C363.953 359.036 363.631 358.629 363.691 358.185C364.575 351.619 370.305 345.258 377.316 343.062C382.58 341.412 387.54 342.479 390.923 345.992C391.238 346.319 391.22 346.831 390.886 347.138C390.551 347.444 390.024 347.428 389.709 347.101C385.704 342.943 380.545 343.752 377.826 344.605C371.396 346.619 366.146 352.42 365.342 358.397C365.287 358.803 364.93 359.101 364.518 359.101Z" fill="#05C5DA"/>
<path d="M641.392 265.667L632.633 264.924L640.747 257.132L641.392 265.667Z" fill="#F95FC3"/>
<path d="M610.439 291.736C610.089 291.736 609.763 291.519 609.649 291.178C605.378 278.477 613.81 270.606 627.779 257.565C630.663 254.872 633.933 251.82 637.312 248.505C657.201 228.992 653.318 209.177 651.653 203.568C651.526 203.139 651.781 202.69 652.223 202.566C652.666 202.443 653.126 202.69 653.253 203.12C654.981 208.942 659.022 229.506 638.493 249.645C635.1 252.974 631.822 256.035 628.931 258.733C615.433 271.335 607.285 278.94 611.23 290.673C611.373 291.099 611.135 291.556 610.697 291.695C610.612 291.723 610.525 291.736 610.439 291.736Z" fill="#1AA9E8"/>
<path d="M649.937 253.835L646.984 250.983C654.542 243.568 659.394 235.309 661.406 226.437L665.47 227.31C663.285 236.943 658.06 245.867 649.937 253.835Z" fill="#00E2EC"/>
<path d="M652.454 206.551C654.273 206.551 655.748 205.115 655.748 203.345C655.748 201.574 654.273 200.139 652.454 200.139C650.635 200.139 649.16 201.574 649.16 203.345C649.16 205.115 650.635 206.551 652.454 206.551Z" fill="#FDE1A7"/>
<path d="M602.947 294.976C602.818 294.976 602.685 294.946 602.562 294.883C602.318 294.758 596.601 291.721 597.964 282.441C598.736 277.183 602.257 272.759 605.985 268.077C610.833 261.987 615.846 255.69 615.157 246.978C614.891 243.603 613.111 240.636 609.867 238.16C592.492 224.896 538.848 228.468 525.219 230.66C524.759 230.729 524.337 230.434 524.263 229.993C524.187 229.552 524.494 229.134 524.948 229.062C538.737 226.844 593.08 223.287 610.894 236.885C614.52 239.653 616.513 243.007 616.817 246.854C617.555 256.189 612.107 263.032 607.3 269.069C603.711 273.577 600.32 277.836 599.612 282.671C598.423 290.767 603.139 293.346 603.34 293.452C603.742 293.664 603.896 294.153 603.681 294.547C603.532 294.82 603.244 294.976 602.947 294.976Z" fill="#1AA9E8"/>
<path d="M588.445 240.123C580.487 238.85 570.993 238.196 560.225 238.181L560.231 234.131C571.222 234.147 580.941 234.817 589.12 236.126L588.445 240.123Z" fill="#C7A0F6"/>
<path d="M525.082 233.067C526.902 233.067 528.376 231.632 528.376 229.861C528.376 228.09 526.902 226.655 525.082 226.655C523.263 226.655 521.788 228.09 521.788 229.861C521.788 231.632 523.263 233.067 525.082 233.067Z" fill="#FDE1A7"/>
<path d="M286.73 304.535L283.717 312.575L278.094 302.926L286.73 304.535Z" fill="#F95FC3"/>
<path d="M372.946 371.741C372.288 371.741 371.632 371.737 370.974 371.727C337.718 371.238 308.115 358.647 287.621 336.273C263.516 309.957 252.074 276.603 257.012 247.051C260.72 224.862 273.299 206.77 292.431 196.103C292.829 195.881 293.338 196.015 293.566 196.404C293.795 196.793 293.656 197.287 293.258 197.51C274.569 207.928 262.281 225.615 258.655 247.312C253.795 276.387 265.088 309.24 288.864 335.196C331.687 381.947 409.584 382.037 466.204 335.398C475.998 327.331 484.348 319.01 492.424 310.964C511.635 291.824 528.226 275.294 553.395 274.679C576.908 274.106 588.585 285.922 594.245 295.936C594.467 296.328 594.32 296.82 593.917 297.036C593.514 297.253 593.008 297.109 592.787 296.717C587.35 287.096 576.121 275.749 553.438 276.298C528.943 276.897 512.572 293.209 493.615 312.095C485.512 320.169 477.133 328.517 467.279 336.634C439.743 359.317 406.317 371.741 372.946 371.741Z" fill="#1AA9E8"/>
<path d="M274.965 295.589C271.065 284.794 268.989 273.883 268.796 263.158L272.956 263.086C273.142 273.377 275.139 283.86 278.89 294.245L274.965 295.589Z" fill="#C7A0F6"/>
<path d="M402.714 362.03L401.805 358.078C411.533 355.959 421.159 352.771 430.415 348.604L432.161 352.28C422.638 356.568 412.731 359.849 402.714 362.03Z" fill="#00E2EC"/>
<path d="M292.845 200.013C294.664 200.013 296.139 198.578 296.139 196.807C296.139 195.037 294.664 193.601 292.845 193.601C291.026 193.601 289.551 195.037 289.551 196.807C289.551 198.578 291.026 200.013 292.845 200.013Z" fill="#FDE1A7"/>
<path d="M570.463 425.047L561.823 426.635L567.472 416.999L570.463 425.047Z" fill="#00E2EC"/>
<path d="M506.871 443.775C505.722 443.775 504.615 443.745 503.557 443.686C503.098 443.662 502.747 443.279 502.773 442.832C502.8 442.386 503.202 442.048 503.651 442.07C519.7 442.956 547.299 437.263 557.548 417.993C562.135 409.369 563.422 397.003 564.783 383.911C567.04 362.213 569.373 339.779 586.702 329.387C587.093 329.151 587.605 329.271 587.847 329.651C588.087 330.032 587.967 330.531 587.575 330.766C570.947 340.738 568.655 362.769 566.44 384.074C565.061 397.324 563.759 409.841 559.026 418.739C549.094 437.411 523.609 443.775 506.871 443.775Z" fill="#1AA9E8"/>
<path d="M573.296 409.372L569.248 408.437C570.946 401.474 571.775 393.495 572.655 385.046C572.902 382.67 573.151 380.276 573.422 377.884L577.559 378.329C577.289 380.709 577.041 383.09 576.795 385.454C575.902 394.04 575.058 402.148 573.296 409.372Z" fill="#F95FC3"/>
<path d="M503.603 446.084C505.422 446.084 506.897 444.649 506.897 442.878C506.897 441.107 505.422 439.672 503.603 439.672C501.784 439.672 500.309 441.107 500.309 442.878C500.309 444.649 501.784 446.084 503.603 446.084Z" fill="#C7A0F6"/>
<defs>
<linearGradient id="paint0_linear" x1="669.469" y1="641.494" x2="669.469" y2="604.951" gradientUnits="userSpaceOnUse">
<stop stop-color="#F7EBFF"/>
<stop offset="1" stop-color="#DBEFFF"/>
</linearGradient>
<linearGradient id="paint1_linear" x1="365.566" y1="661.372" x2="365.566" y2="627.815" gradientUnits="userSpaceOnUse">
<stop stop-color="#F7EBFF"/>
<stop offset="1" stop-color="#DBEFFF"/>
</linearGradient>
<linearGradient id="paint2_linear" x1="471.19" y1="403.348" x2="490.537" y2="423.226" gradientUnits="userSpaceOnUse">
<stop stop-color="#FF57BD"/>
<stop offset="1" stop-color="#FE6A77"/>
</linearGradient>
<linearGradient id="paint3_linear" x1="471.189" y1="433.204" x2="490.537" y2="453.083" gradientUnits="userSpaceOnUse">
<stop stop-color="#FF57BD"/>
<stop offset="1" stop-color="#FE6A77"/>
</linearGradient>
<linearGradient id="paint4_linear" x1="471.19" y1="463.061" x2="490.537" y2="482.938" gradientUnits="userSpaceOnUse">
<stop stop-color="#FF57BD"/>
<stop offset="1" stop-color="#FE6A77"/>
</linearGradient>
<linearGradient id="paint5_linear" x1="440.657" y1="287.577" x2="548.803" y2="398.69" gradientUnits="userSpaceOnUse">
<stop stop-color="#706AED"/>
<stop offset="1" stop-color="#271068"/>
</linearGradient>
<linearGradient id="paint6_linear" x1="449.421" y1="301.388" x2="493.46" y2="301.388" gradientUnits="userSpaceOnUse">
<stop stop-color="white"/>
<stop offset="1" stop-color="#F1D1F8"/>
</linearGradient>
<linearGradient id="paint7_linear" x1="536.388" y1="381.511" x2="536.388" y2="302.941" gradientUnits="userSpaceOnUse">
<stop stop-color="#FDE1A7"/>
<stop offset="1" stop-color="#F9A144"/>
</linearGradient>
<linearGradient id="paint8_linear" x1="529.73" y1="318.398" x2="543.045" y2="318.398" gradientUnits="userSpaceOnUse">
<stop stop-color="#00E2EC"/>
<stop offset="1" stop-color="#0090B2"/>
</linearGradient>
<linearGradient id="paint9_linear" x1="496.233" y1="381.511" x2="496.233" y2="320.154" gradientUnits="userSpaceOnUse">
<stop stop-color="#1AA9E8"/>
<stop offset="0.4223" stop-color="#3D80EF"/>
<stop offset="0.7909" stop-color="#5662F4"/>
<stop offset="1" stop-color="#5F57F6"/>
</linearGradient>
<linearGradient id="paint10_linear" x1="489.576" y1="338.21" x2="502.891" y2="338.21" gradientUnits="userSpaceOnUse">
<stop stop-color="#00E2EC"/>
<stop offset="1" stop-color="#0090B2"/>
</linearGradient>
<linearGradient id="paint11_linear" x1="516.311" y1="381.511" x2="516.311" y2="331.494" gradientUnits="userSpaceOnUse">
<stop stop-color="#FF57BD"/>
<stop offset="1" stop-color="#FE6A77"/>
</linearGradient>
<linearGradient id="paint12_linear" x1="509.653" y1="343.88" x2="522.969" y2="343.88" gradientUnits="userSpaceOnUse">
<stop stop-color="#00E2EC"/>
<stop offset="1" stop-color="#0090B2"/>
</linearGradient>
<linearGradient id="paint13_linear" x1="476.156" y1="381.511" x2="476.156" y2="309.219" gradientUnits="userSpaceOnUse">
<stop stop-color="#C7A0F6"/>
<stop offset="1" stop-color="#FF57BD"/>
</linearGradient>
<linearGradient id="paint14_linear" x1="469.498" y1="322.55" x2="482.814" y2="322.55" gradientUnits="userSpaceOnUse">
<stop stop-color="#00E2EC"/>
<stop offset="1" stop-color="#0090B2"/>
</linearGradient>
<linearGradient id="paint15_linear" x1="456.079" y1="381.511" x2="456.079" y2="344.859" gradientUnits="userSpaceOnUse">
<stop stop-color="#FDE1A7"/>
<stop offset="1" stop-color="#F9A144"/>
</linearGradient>
<linearGradient id="paint16_linear" x1="449.421" y1="355.895" x2="462.736" y2="355.895" gradientUnits="userSpaceOnUse">
<stop stop-color="#00E2EC"/>
<stop offset="1" stop-color="#0090B2"/>
</linearGradient>
<linearGradient id="paint17_linear" x1="291.871" y1="126.057" x2="383.367" y2="220.064" gradientUnits="userSpaceOnUse">
<stop stop-color="#00E2EC"/>
<stop offset="1" stop-color="#0090B2"/>
</linearGradient>
<linearGradient id="paint18_linear" x1="344.197" y1="148.636" x2="389.345" y2="148.636" gradientUnits="userSpaceOnUse">
<stop stop-color="white"/>
<stop offset="1" stop-color="#F1D1F8"/>
</linearGradient>
<linearGradient id="paint19_linear" x1="382.409" y1="193.597" x2="426.795" y2="193.597" gradientUnits="userSpaceOnUse">
<stop stop-color="#FDE1A7"/>
<stop offset="1" stop-color="#F9A144"/>
</linearGradient>
<linearGradient id="paint20_linear" x1="416.39" y1="144.493" x2="525.905" y2="144.493" gradientUnits="userSpaceOnUse">
<stop stop-color="#5A55F8"/>
<stop offset="1" stop-color="#8C6AE2"/>
</linearGradient>
<linearGradient id="paint21_linear" x1="400.908" y1="218.539" x2="544.416" y2="218.539" gradientUnits="userSpaceOnUse">
<stop stop-color="#FF57BD"/>
<stop offset="1" stop-color="#FE6A77"/>
</linearGradient>
<linearGradient id="paint22_linear" x1="431.731" y1="217.756" x2="489.329" y2="217.756" gradientUnits="userSpaceOnUse">
<stop stop-color="#C7A0F6"/>
<stop offset="1" stop-color="#FF57BD"/>
</linearGradient>
<linearGradient id="paint23_linear" x1="463.413" y1="196.474" x2="497.256" y2="196.474" gradientUnits="userSpaceOnUse">
<stop stop-color="#994574"/>
<stop offset="1" stop-color="#43256F"/>
</linearGradient>
<linearGradient id="paint24_linear" x1="439.496" y1="177.981" x2="462.78" y2="201.903" gradientUnits="userSpaceOnUse">
<stop stop-color="#1AA9E8"/>
<stop offset="0.4223" stop-color="#3D80EF"/>
<stop offset="0.7909" stop-color="#5662F4"/>
<stop offset="1" stop-color="#5F57F6"/>
</linearGradient>
<linearGradient id="paint25_linear" x1="578.655" y1="86.2741" x2="722.26" y2="233.819" gradientUnits="userSpaceOnUse">
<stop stop-color="#C91C91"/>
<stop offset="1" stop-color="#FE6A77"/>
</linearGradient>
<linearGradient id="paint26_linear" x1="575.611" y1="134.596" x2="632.561" y2="134.596" gradientUnits="userSpaceOnUse">
<stop stop-color="white"/>
<stop offset="1" stop-color="#F1D1F8"/>
</linearGradient>
<linearGradient id="paint27_linear" x1="657.309" y1="194.266" x2="657.309" y2="120.146" gradientUnits="userSpaceOnUse">
<stop stop-color="#994574"/>
<stop offset="1" stop-color="#9F36AD"/>
</linearGradient>
<linearGradient id="paint28_linear" x1="575.611" y1="162.001" x2="729.296" y2="162.001" gradientUnits="userSpaceOnUse">
<stop stop-color="#FE6A77"/>
<stop offset="1" stop-color="#FF57BD"/>
</linearGradient>
<linearGradient id="paint29_linear" x1="462.853" y1="99.9686" x2="536.367" y2="99.9686" gradientUnits="userSpaceOnUse">
<stop stop-color="#FDE1A7"/>
<stop offset="1" stop-color="#F9A144"/>
</linearGradient>
<linearGradient id="paint30_linear" x1="584.982" y1="319.011" x2="649.54" y2="319.011" gradientUnits="userSpaceOnUse">
<stop stop-color="#00E2EC"/>
<stop offset="1" stop-color="#0090B2"/>
</linearGradient>
<linearGradient id="paint31_linear" x1="594.686" y1="294.984" x2="638.009" y2="339.495" gradientUnits="userSpaceOnUse">
<stop stop-color="#994574"/>
<stop offset="1" stop-color="#43256F"/>
</linearGradient>
<linearGradient id="paint32_linear" x1="646.283" y1="554.906" x2="679.781" y2="554.906" gradientUnits="userSpaceOnUse">
<stop stop-color="#F4BEA3"/>
<stop offset="1" stop-color="#E8878E"/>
</linearGradient>
<linearGradient id="paint33_linear" x1="634.597" y1="618.483" x2="673.057" y2="618.483" gradientUnits="userSpaceOnUse">
<stop stop-color="#706AED"/>
<stop offset="1" stop-color="#271068"/>
</linearGradient>
<linearGradient id="paint34_linear" x1="694.562" y1="557.006" x2="726.276" y2="557.006" gradientUnits="userSpaceOnUse">
<stop stop-color="#F4BEA3"/>
<stop offset="1" stop-color="#E8878E"/>
</linearGradient>
<linearGradient id="paint35_linear" x1="688.112" y1="619.131" x2="726.594" y2="619.131" gradientUnits="userSpaceOnUse">
<stop stop-color="#706AED"/>
<stop offset="1" stop-color="#271068"/>
</linearGradient>
<linearGradient id="paint36_linear" x1="647.388" y1="420.878" x2="729.568" y2="505.313" gradientUnits="userSpaceOnUse">
<stop stop-color="#FF57BD"/>
<stop offset="1" stop-color="#FE6A77"/>
</linearGradient>
<linearGradient id="paint37_linear" x1="631.052" y1="316.68" x2="640.407" y2="316.68" gradientUnits="userSpaceOnUse">
<stop stop-color="#C16846"/>
<stop offset="0.2653" stop-color="#D27565"/>
<stop offset="0.5308" stop-color="#DE7F7B"/>
<stop offset="0.7814" stop-color="#E58589"/>
<stop offset="1" stop-color="#E8878E"/>
</linearGradient>
<linearGradient id="paint38_linear" x1="653.57" y1="346.818" x2="685.126" y2="346.818" gradientUnits="userSpaceOnUse">
<stop stop-color="#FDE1A7"/>
<stop offset="1" stop-color="#F9A144"/>
</linearGradient>
<linearGradient id="paint39_linear" x1="624.502" y1="322.829" x2="665.226" y2="322.829" gradientUnits="userSpaceOnUse">
<stop stop-color="#F4BEA3"/>
<stop offset="1" stop-color="#E8878E"/>
</linearGradient>
<linearGradient id="paint40_linear" x1="662.591" y1="360.203" x2="716.712" y2="360.203" gradientUnits="userSpaceOnUse">
<stop stop-color="#FDE1A7"/>
<stop offset="1" stop-color="#F9A144"/>
</linearGradient>
<linearGradient id="paint41_linear" x1="713.202" y1="279.216" x2="761.633" y2="328.976" gradientUnits="userSpaceOnUse">
<stop stop-color="#5A55F8"/>
<stop offset="1" stop-color="#8C6AE2"/>
</linearGradient>
<linearGradient id="paint42_linear" x1="685.061" y1="309.456" x2="706.699" y2="309.456" gradientUnits="userSpaceOnUse">
<stop stop-color="#F4BEA3"/>
<stop offset="1" stop-color="#E8878E"/>
</linearGradient>
<linearGradient id="paint43_linear" x1="670.553" y1="283.933" x2="709.038" y2="283.933" gradientUnits="userSpaceOnUse">
<stop stop-color="#F4BEA3"/>
<stop offset="1" stop-color="#E8878E"/>
</linearGradient>
<linearGradient id="paint44_linear" x1="669.857" y1="280.886" x2="683.142" y2="280.886" gradientUnits="userSpaceOnUse">
<stop stop-color="#FF57BD"/>
<stop offset="1" stop-color="#EC9895"/>
</linearGradient>
<linearGradient id="paint45_linear" x1="678.478" y1="274.423" x2="721.388" y2="274.423" gradientUnits="userSpaceOnUse">
<stop stop-color="#5A55F8"/>
<stop offset="1" stop-color="#8C6AE2"/>
</linearGradient>
<linearGradient id="paint46_linear" x1="595.694" y1="345.858" x2="626.241" y2="345.858" gradientUnits="userSpaceOnUse">
<stop stop-color="#F4BEA3"/>
<stop offset="1" stop-color="#E8878E"/>
</linearGradient>
<linearGradient id="paint47_linear" x1="617.916" y1="357.494" x2="710.964" y2="357.494" gradientUnits="userSpaceOnUse">
<stop stop-color="#FDE1A7"/>
<stop offset="1" stop-color="#F9A144"/>
</linearGradient>
<linearGradient id="paint48_linear" x1="384.915" y1="470.78" x2="429.947" y2="517.047" gradientUnits="userSpaceOnUse">
<stop stop-color="#00E2EC"/>
<stop offset="1" stop-color="#0090B2"/>
</linearGradient>
<linearGradient id="paint49_linear" x1="383.302" y1="469.209" x2="431.473" y2="518.702" gradientUnits="userSpaceOnUse">
<stop stop-color="#706AED"/>
<stop offset="1" stop-color="#271068"/>
</linearGradient>
<linearGradient id="paint50_linear" x1="317.853" y1="626.208" x2="344.077" y2="653.152" gradientUnits="userSpaceOnUse">
<stop stop-color="#706AED"/>
<stop offset="1" stop-color="#271068"/>
</linearGradient>
<linearGradient id="paint51_linear" x1="270.799" y1="461.252" x2="386.587" y2="580.216" gradientUnits="userSpaceOnUse">
<stop stop-color="#994574"/>
<stop offset="1" stop-color="#43256F"/>
</linearGradient>
<linearGradient id="paint52_linear" x1="385.671" y1="632.011" x2="410.685" y2="657.712" gradientUnits="userSpaceOnUse">
<stop stop-color="#706AED"/>
<stop offset="1" stop-color="#271068"/>
</linearGradient>
<linearGradient id="paint53_linear" x1="303.873" y1="452.93" x2="442.922" y2="595.794" gradientUnits="userSpaceOnUse">
<stop stop-color="#994574"/>
<stop offset="1" stop-color="#43256F"/>
</linearGradient>
<linearGradient id="paint54_linear" x1="334.739" y1="240.553" x2="393.99" y2="240.553" gradientUnits="userSpaceOnUse">
<stop stop-color="#F4BEA3"/>
<stop offset="1" stop-color="#E8878E"/>
</linearGradient>
<linearGradient id="paint55_linear" x1="298.825" y1="313.82" x2="395.823" y2="413.479" gradientUnits="userSpaceOnUse">
<stop stop-color="#1AA9E8"/>
<stop offset="0.4223" stop-color="#3D80EF"/>
<stop offset="0.7909" stop-color="#5662F4"/>
<stop offset="1" stop-color="#5F57F6"/>
</linearGradient>
<linearGradient id="paint56_linear" x1="371.647" y1="279.059" x2="382.22" y2="279.059" gradientUnits="userSpaceOnUse">
<stop stop-color="#EC9895"/>
<stop offset="1" stop-color="#FF57BD"/>
</linearGradient>
<linearGradient id="paint57_linear" x1="336.589" y1="279.978" x2="374.809" y2="319.248" gradientUnits="userSpaceOnUse">
<stop stop-color="#F4BEA3"/>
<stop offset="1" stop-color="#E8878E"/>
</linearGradient>
<linearGradient id="paint58_linear" x1="332.052" y1="275.232" x2="374.036" y2="275.232" gradientUnits="userSpaceOnUse">
<stop stop-color="#CB2090"/>
<stop offset="1" stop-color="#43256F"/>
</linearGradient>
<linearGradient id="paint59_linear" x1="362.312" y1="289.52" x2="379.88" y2="307.571" gradientUnits="userSpaceOnUse">
<stop stop-color="#CB2090"/>
<stop offset="1" stop-color="#43256F"/>
</linearGradient>
<linearGradient id="paint60_linear" x1="338.047" y1="325.466" x2="365.431" y2="325.466" gradientUnits="userSpaceOnUse">
<stop stop-color="#1AA9E8"/>
<stop offset="0.4223" stop-color="#3D80EF"/>
<stop offset="0.7909" stop-color="#5662F4"/>
<stop offset="1" stop-color="#5F57F6"/>
</linearGradient>
<linearGradient id="paint61_linear" x1="371.46" y1="431.594" x2="413.719" y2="431.594" gradientUnits="userSpaceOnUse">
<stop stop-color="#F4BEA3"/>
<stop offset="1" stop-color="#E8878E"/>
</linearGradient>
<linearGradient id="paint62_linear" x1="364.485" y1="362.695" x2="397.712" y2="362.695" gradientUnits="userSpaceOnUse">
<stop stop-color="#1AA9E8"/>
<stop offset="0.4223" stop-color="#3D80EF"/>
<stop offset="0.7909" stop-color="#5662F4"/>
<stop offset="1" stop-color="#5F57F6"/>
</linearGradient>
</defs>
</svg>
