<svg width="180" height="90" viewBox="0 0 180 90" fill="none" xmlns="http://www.w3.org/2000/svg">
<path d="M47.2859 57.0248C47.2494 57.1697 47.1045 57.2422 46.8518 57.2422H42.019C41.7285 57.2422 41.471 57.1156 41.2591 56.8616L33.2789 46.7101L31.0533 48.8272V56.7003C31.0533 57.0626 30.8719 57.2434 30.5102 57.2434H26.7643C26.402 57.2434 26.2211 57.0626 26.2211 56.7003V20.8149C26.2211 20.4538 26.402 20.2669 26.7643 20.2669H30.5108C30.8725 20.2669 31.0539 20.4483 31.0539 20.8149V42.9106L40.6088 33.2474C40.8621 32.9947 41.1154 32.8674 41.3687 32.8674H46.3641C46.5808 32.8674 46.7251 32.9587 46.7982 33.1384C46.8713 33.3557 46.8591 33.5183 46.7373 33.6273L36.6448 43.3977L47.177 56.4817C47.3213 56.6266 47.3578 56.8075 47.2866 57.0248H47.2859ZM66.859 57.2416H63.113C62.7148 57.2416 62.5163 57.0614 62.5163 56.6936V55.9325C60.9234 57.1259 58.8788 57.7238 56.3817 57.7238C54.102 57.7238 52.1285 57.0175 50.4632 55.6073C48.8344 54.16 48.0203 52.3193 48.0203 50.07C48.0203 46.5232 50.2275 44.1162 54.6433 42.8497C56.3804 42.3425 59.0042 41.9089 62.5151 41.5466C62.6247 40.2083 62.2715 39.0684 61.4568 38.1265C60.6421 37.1845 59.4566 36.715 57.9009 36.715C55.8732 36.715 53.8109 37.4457 51.712 38.8864C51.3863 39.0678 51.1506 39.0313 51.0057 38.778L49.0572 36.0093C48.8758 35.792 48.9306 35.5393 49.2198 35.2494C52.0067 33.3314 54.902 32.3718 57.9063 32.3718C60.2226 32.3718 62.1954 32.9149 63.8248 34.0006C66.2135 35.5934 67.4076 38.1447 67.4076 41.6544V56.6924C67.4076 57.0547 67.2261 57.2404 66.8596 57.2404L66.859 57.2416ZM62.5157 45.9015C58.9683 46.2638 56.5442 46.7345 55.2412 47.3129C53.4675 48.0728 52.6704 49.1579 52.8519 50.5705C52.9603 51.3669 53.3591 52.0093 54.0465 52.4977C54.734 52.986 55.5304 53.2673 56.4352 53.3392C58.9683 53.52 61.002 52.8502 62.5157 51.3298V45.9015ZM89.5891 66.6606C87.6163 68.7047 84.8202 69.7283 81.2016 69.7283C79.1021 69.7283 77.1116 69.2034 75.2301 68.1543C74.8313 67.9004 74.3612 67.5655 73.8187 67.1496C73.2761 66.7337 72.6417 66.218 71.9189 65.603C71.665 65.3862 71.6473 65.1147 71.858 64.7883L74.4154 62.2309C74.5238 62.1213 74.6687 62.0677 74.8495 62.0677C74.9939 62.0677 75.1211 62.1286 75.2295 62.2309C77.2559 64.2573 79.2287 65.2711 81.1468 65.2711C85.5308 65.2711 87.7156 62.9908 87.7156 58.4308V55.6079C86.0143 57.0193 83.7529 57.7251 80.9294 57.7251C77.4185 57.7251 74.6675 56.405 72.6776 53.7624C70.9404 51.4467 70.0715 48.5258 70.0715 45.0222C70.0715 41.6928 70.9039 38.8699 72.5692 36.5586C74.5177 33.7722 77.2924 32.3785 80.8758 32.3785C83.5903 32.3785 85.8706 33.0848 87.7156 34.4962V33.4105C87.7156 33.0489 87.8964 32.8674 88.2587 32.8674H92.0052C92.3663 32.8674 92.5533 33.0489 92.5533 33.4105V57.6776C92.5533 61.6208 91.5668 64.616 89.594 66.6606H89.5891ZM87.7204 40.5755C86.8156 38.2598 84.7161 37.1011 81.4232 37.1011C77.1889 37.1011 75.0724 39.7437 75.0724 45.0271C75.0724 47.9583 75.7787 50.095 77.1895 51.4327C78.2387 52.4831 79.5959 53.0073 81.2612 53.0073C84.6625 53.0073 86.8162 51.8492 87.7156 49.533L87.7204 40.5755ZM115.124 66.6667C113.152 68.7108 110.356 69.7344 106.737 69.7344C104.636 69.7344 102.646 69.2095 100.765 68.1604C100.366 67.9064 99.896 67.5716 99.3534 67.1557C98.8109 66.7398 98.177 66.2241 97.4537 65.6091C97.2004 65.3923 97.1821 65.1207 97.3928 64.7944L99.9501 62.237C100.059 62.1274 100.203 62.0738 100.384 62.0738C100.529 62.0738 100.656 62.1347 100.764 62.237C102.791 64.2634 104.763 65.2772 106.682 65.2772C111.066 65.2772 113.258 62.9969 113.258 58.4369V55.614C111.556 57.0254 109.3 57.7312 106.471 57.7312C102.961 57.7312 100.21 56.4111 98.2197 53.7684C96.4819 51.4528 95.6136 48.5319 95.6136 45.0283C95.6136 41.6989 96.4459 38.876 98.1101 36.5646C100.059 33.7783 102.833 32.3846 106.417 32.3846C109.131 32.3846 111.411 33.0909 113.257 34.5023V33.4166C113.257 33.055 113.437 32.8735 113.8 32.8735H117.546C117.907 32.8735 118.094 33.055 118.094 33.4166V57.6837C118.094 61.6269 117.108 64.6221 115.136 66.6667H115.124ZM113.263 40.5815C112.358 38.2659 110.258 37.1072 106.965 37.1072C102.73 37.1072 100.613 39.7498 100.613 45.0332C100.613 47.9644 101.32 50.1011 102.73 51.4388C103.78 52.4891 105.137 53.0134 106.802 53.0134C110.203 53.0134 112.358 51.8553 113.256 49.539V40.5882L113.263 40.5815ZM126.4 57.241H122.654C122.292 57.241 122.106 57.0608 122.106 56.693V20.8149C122.106 20.4538 122.286 20.2669 122.654 20.2669H126.4C126.761 20.2669 126.948 20.4477 126.948 20.8149V56.7003C126.948 57.062 126.767 57.2483 126.4 57.2483V57.241ZM153.705 46.2272C153.705 46.5895 153.522 46.7704 153.162 46.7704H135.518C135.734 48.5441 136.495 50.028 137.798 51.2153C139.282 52.4831 141.146 53.1151 143.39 53.1151C145.38 53.1151 147.165 52.5549 148.764 51.4321C149.091 51.2147 149.361 51.2147 149.579 51.4321L152.136 54.0382C152.426 54.3286 152.426 54.5862 152.136 54.7981C149.53 56.7466 146.508 57.7293 143.064 57.7293C139.372 57.7293 136.295 56.4994 133.834 54.0382C131.446 51.6136 130.251 48.5191 130.251 44.7549C130.251 41.2081 131.427 38.2044 133.78 35.7432C135.952 33.4994 138.775 32.3779 142.244 32.3779C145.537 32.3779 148.305 33.5543 150.55 35.9064C152.866 38.3317 153.934 41.3719 153.753 45.0277L153.705 46.2272ZM146.593 38.247C145.363 37.1254 143.878 36.564 142.148 36.564C140.519 36.564 139.089 37.1072 137.86 38.1922C136.63 39.2773 135.85 40.6899 135.525 42.4271H148.608C148.572 40.763 147.902 39.3686 146.599 38.247" fill="#6E00FF"/>
</svg>
