<svg width="334" height="150" viewBox="0 0 334 150" fill="none" xmlns="http://www.w3.org/2000/svg">
<path d="M138.217 57.7386C138.475 57.7709 138.727 57.8409 138.965 57.9464C139.198 58.0569 139.413 58.2017 139.603 58.376C139.848 58.6103 140.078 58.8602 140.291 59.1243L159.465 83.3606C159.386 82.5892 159.335 81.8317 159.298 81.1065C159.261 80.3813 159.243 79.6884 159.243 79.0417V57.66H167.497V98.0216H162.619C161.995 98.0394 161.373 97.9261 160.795 97.689C160.222 97.4062 159.727 96.9876 159.354 96.4695L140.318 72.4503C140.379 73.1478 140.42 73.836 140.457 74.5104C140.494 75.1848 140.517 75.8176 140.517 76.4089V98.0446H132.258V57.66H137.187C137.531 57.6638 137.876 57.6901 138.217 57.7386Z" fill="#4D77CF"/>
<path d="M181.068 69.2863V87.5131C181.068 88.9358 181.391 90.0352 182.038 90.8112C182.394 91.2091 182.837 91.5206 183.331 91.7223C183.826 91.924 184.36 92.0104 184.893 91.9752C185.807 91.9812 186.712 91.7824 187.539 91.3932C188.415 90.9692 189.222 90.4182 189.937 89.758V69.2863H198.524V98.0123H193.207C192.743 98.0508 192.28 97.9286 191.896 97.6662C191.511 97.4038 191.229 97.0171 191.096 96.5711L190.574 94.9083C190.034 95.4318 189.46 95.9194 188.856 96.3679C188.262 96.7996 187.626 97.1695 186.957 97.4719C186.253 97.7893 185.518 98.0338 184.763 98.2017C183.927 98.3835 183.074 98.4718 182.218 98.465C180.79 98.4911 179.373 98.2123 178.061 97.6474C176.882 97.1252 175.836 96.3455 174.999 95.3656C174.147 94.3471 173.506 93.1695 173.114 91.9013C172.676 90.4835 172.461 89.0062 172.477 87.5224V69.2863H181.068Z" fill="#4D77CF"/>
<path d="M204.062 98.0216V69.2863H209.383C209.857 69.2691 210.325 69.3946 210.727 69.6466C211.1 69.9067 211.369 70.2891 211.489 70.7274L211.951 72.2794C212.417 71.785 212.916 71.3221 213.443 70.8937C213.963 70.4763 214.525 70.1141 215.12 69.8128C216.429 69.1485 217.879 68.8109 219.346 68.829C220.895 68.7686 222.416 69.2433 223.656 70.1731C224.823 71.1149 225.717 72.3527 226.243 73.7575C226.698 72.9071 227.293 72.1389 228.002 71.4849C228.674 70.8729 229.43 70.3611 230.247 69.9653C231.057 69.5754 231.912 69.2869 232.792 69.1061C233.674 68.9228 234.571 68.8299 235.472 68.829C236.962 68.8033 238.445 69.0522 239.846 69.5634C241.065 70.0155 242.161 70.7463 243.047 71.6974C243.937 72.6898 244.603 73.8618 245.001 75.134C245.466 76.6288 245.69 78.1879 245.666 79.7531V98.0077H237.074V79.767C237.074 76.7923 235.801 75.3065 233.254 75.3095C232.719 75.2923 232.185 75.3856 231.687 75.5834C231.188 75.7813 230.736 76.0796 230.358 76.4597C229.591 77.2203 229.208 78.3227 229.208 79.767V98.0216H220.63V79.767C220.63 78.1226 220.307 76.9678 219.66 76.3026C219.014 75.6375 218.062 75.3095 216.806 75.3095C216.041 75.3078 215.286 75.4866 214.603 75.8315C213.885 76.2036 213.227 76.6799 212.649 77.2449V98.0308L204.062 98.0216Z" fill="#4D77CF"/>
<path d="M260.022 84.5292V98.0215H250.659V57.66H264.895C267.376 57.6048 269.85 57.9431 272.225 58.6623C274.078 59.2297 275.794 60.1732 277.265 61.4338C278.56 62.5748 279.563 64.0099 280.189 65.6187C280.821 67.2804 281.135 69.0465 281.113 70.8244C281.135 72.7161 280.806 74.5955 280.143 76.3673C279.513 78.0241 278.496 79.5064 277.177 80.6907C275.709 81.9717 273.987 82.9287 272.124 83.4991C269.784 84.2244 267.344 84.5721 264.895 84.5292H260.022ZM260.022 77.4666H264.895C267.334 77.4666 269.089 76.8892 270.161 75.7206C271.232 74.552 271.768 72.9491 271.768 70.8475C271.779 69.9889 271.638 69.1351 271.353 68.3254C271.087 67.5862 270.656 66.9178 270.091 66.3716C269.481 65.8006 268.752 65.3702 267.957 65.1106C266.969 64.7913 265.934 64.6353 264.895 64.6487H260.022V77.4666Z" fill="#4D77CF"/>
<path d="M297.751 105.477C297.555 105.968 297.237 106.4 296.827 106.733C296.29 107.044 295.671 107.184 295.053 107.135H288.609L294.152 95.5042L282.688 69.2863H290.277C290.832 69.2578 291.38 69.4209 291.829 69.7482C292.181 70.0198 292.45 70.3846 292.605 70.8013L297.312 83.1851C297.747 84.301 298.108 85.4444 298.393 86.6078C298.577 86.0166 298.781 85.4346 299.002 84.8664C299.224 84.2983 299.437 83.7116 299.64 83.1204L303.908 70.7921C304.069 70.3474 304.377 69.9711 304.781 69.7251C305.19 69.4477 305.672 69.2982 306.167 69.2955H313.095L297.751 105.477Z" fill="#4D77CF"/>
<path d="M61.1474 44.528L43.9967 35.8718L25.1694 45.267L42.7865 54.1126L61.1474 44.528Z" fill="#4DABCF" fill-opacity="0.7"/>
<path d="M69.0137 48.4957L86.9958 57.5768L68.3393 66.9443L50.6945 58.0849L69.0137 48.4957Z" fill="#4DABCF" fill-opacity="0.7"/>
<path d="M93.0329 36.0011L111.509 45.267L94.9822 53.5628L76.9631 44.4725L93.0329 36.0011Z" fill="#4DABCF" fill-opacity="0.7"/>
<path d="M85.0788 32.0103L68.4455 23.6682L51.9924 31.8809L69.1338 40.5232L85.0788 32.0103Z" fill="#4DABCF" fill-opacity="0.7"/>
<path d="M72.0762 103.634V126.332L92.2246 116.276L92.2061 93.5687L72.0762 103.634Z" fill="#4DABCF" fill-opacity="0.7"/>
<path d="M92.1969 85.6424L92.1738 63.1752L72.0762 73.1662V95.6427L92.1969 85.6424Z" fill="#4DABCF" fill-opacity="0.7"/>
<path d="M116.387 81.4344V104.22L99.1994 112.793L99.1855 90.1137L116.387 81.4344Z" fill="#4DABCF" fill-opacity="0.7"/>
<path d="M116.387 73.4666V51.1379L99.1671 59.6971L99.1809 82.2105L116.387 73.4666Z" fill="#4DABCF" fill-opacity="0.7"/>
<path d="M64.9628 73.1663L51.3919 66.3393V95.8275C51.3919 95.8275 34.7909 60.5101 33.2574 57.3367C33.0588 56.9256 32.2458 56.4776 32.038 56.3667C29.0448 54.8055 20.324 50.3896 20.324 50.3896V102.507L32.389 108.973V81.7209C32.389 81.7209 48.8098 113.278 48.9807 113.625C49.1517 113.971 50.7914 117.292 52.5559 118.461C54.8978 120.018 64.9535 126.064 64.9535 126.064L64.9628 73.1663Z" fill="#4D77CF"/>
</svg>
