<svg width="322" height="130" viewBox="0 0 322 130" fill="none" xmlns="http://www.w3.org/2000/svg">
<path d="M114.159 78.19C110.128 78.19 106.022 76.5218 103.451 73.2523V90.9148H95.3776V47.312H102.678L102.957 52.1083C105.461 48.4227 109.908 46.476 114.151 46.476C122.287 46.476 128.281 53.2937 128.281 62.333C128.281 71.3722 122.295 78.1939 114.159 78.19ZM111.658 52.4616C106.929 52.4616 103.106 56.1472 103.106 62.3369C103.106 68.5266 106.929 72.22 111.658 72.22C116.388 72.22 120.211 68.5345 120.211 62.3447C120.211 56.155 116.388 52.4616 111.658 52.4616Z" fill="#130754"/>
<path d="M158.711 77.3619L158.433 72.5655C155.929 76.2511 151.478 78.1979 147.235 78.194C139.098 78.194 133.105 71.3802 133.105 62.3409C133.105 53.3016 139.086 46.4839 147.235 46.4878C151.478 46.4878 155.929 48.4503 158.433 52.1202L158.711 47.3238H166.028V77.3619H158.711ZM149.743 52.4656C145.013 52.4656 141.19 56.1512 141.186 62.3409C141.182 68.5306 145.009 72.2201 149.739 72.2201C154.468 72.2201 158.295 68.5345 158.295 62.3448C158.295 56.1551 154.472 52.4656 149.743 52.4656Z" fill="#130754"/>
<path d="M194.237 77.3658V60.7473C194.237 54.9069 192.223 52.9601 188.537 52.9601C184.711 52.9601 180.538 56.4337 180.538 60.606V77.3658H172.469V47.3238H179.844L180.193 52.8895C182.21 49.0626 186.728 46.4917 191.32 46.4917C199.316 46.4917 202.31 52.0574 202.31 59.4952V77.3697L194.237 77.3658Z" fill="#130754"/>
<path d="M231.877 77.3735L231.599 72.5733C229.095 76.2588 224.644 78.2056 220.405 78.2056C212.268 78.2056 206.275 71.3879 206.275 62.3486C206.275 53.3093 212.256 46.4955 220.405 46.4955C224.436 46.4955 228.537 48.1676 231.112 51.4332V35.6508H239.182V77.3735H231.877ZM222.909 52.4772C218.199 52.4772 214.356 56.1628 214.356 62.3486C214.356 68.5344 218.179 72.22 222.909 72.22C227.638 72.22 231.461 68.5384 231.461 62.3486C231.461 56.1589 227.65 52.4772 222.909 52.4772Z" fill="#130754"/>
<path d="M269.491 77.3775L269.212 72.5812C266.708 76.2667 262.257 78.2096 258.014 78.2096C249.877 78.2096 243.884 71.3958 243.884 62.3526C243.884 53.3094 249.866 46.4995 258.014 46.4995C262.257 46.4995 266.708 48.462 269.212 52.1358L269.491 47.3355H276.791V77.3736L269.491 77.3775ZM260.522 52.4812C255.812 52.4812 251.969 56.1668 251.966 62.3565C251.962 68.5462 255.792 72.2201 260.518 72.2201C265.244 72.2201 269.075 68.5345 269.075 62.3447C269.075 56.155 265.252 52.4812 260.522 52.4812Z" fill="#130754"/>
<path d="M294.662 78.3548C290.418 78.3195 286.262 77.1413 282.632 74.9439L283.954 69.3822C286.388 70.8423 290.073 72.7224 294.524 72.7224C297.723 72.7224 299.949 71.749 299.949 69.2448C299.949 67.09 297.653 66.3246 293.551 65.3512C286.18 63.7498 283.538 59.8562 283.538 55.6133C283.538 50.8837 287.224 46.4366 295.36 46.4366C300.298 46.4366 304.612 48.5915 305.565 49.1488L304.243 54.4358C301.615 52.8542 298.619 51.9906 295.553 51.9316C292.287 51.9316 290.686 53.0424 290.686 54.8519C290.686 56.8654 292.774 57.7721 295.969 58.5374C303.897 60.2056 307.096 63.8911 307.096 67.926C307.112 74.3905 302.382 78.3548 294.662 78.3548Z" fill="#130754"/>
<path d="M38.8457 26.8549H29.3904V46.4877H38.8457V26.8549Z" fill="#130754"/>
<path d="M38.8457 67.1842H29.3904V86.8171H38.8457V67.1842Z" fill="#130754"/>
<path d="M38.8457 52.2183H29.3904V61.4813H38.8457V52.2183Z" fill="#FFCA00"/>
<path d="M23.6599 42.9984H14.2046V108.259H23.6599V42.9984Z" fill="#130754"/>
<path d="M53.7215 83.3828H44.2662V103.016H53.7215V83.3828Z" fill="#130754"/>
<path d="M53.7215 43.022H44.2662V62.6548H53.7215V43.022Z" fill="#130754"/>
<path d="M53.7215 68.3854H44.2662V77.6484H53.7215V68.3854Z" fill="#E70488"/>
<path d="M68.5933 21.7406H59.138V87.0016H68.5933V21.7406Z" fill="#130754"/>
</svg>
