<svg width="584" height="700" viewBox="0 0 584 700" fill="none" xmlns="http://www.w3.org/2000/svg">
<path d="M390.444 80.3701C401.221 90.0596 412.222 109.407 406 138.962C399.778 168.518 396.618 185.747 403.148 200.926C415.917 230.611 533.463 281.557 532.778 362.444C532 454.222 438.278 458.111 414.167 487.667C396.406 509.438 394.722 568.556 339.5 603.556C291.381 634.053 195.687 638.957 135.333 586.833C92.5555 549.889 94.6299 504.778 96.7034 485.852C98.777 466.926 116.622 409.463 87.7318 367.239C53.4069 317.074 57.393 278.505 69.2362 237.414C80.5 198.333 111.122 137.229 187.703 94.3701C272.481 46.9256 362.185 54.9632 390.444 80.3701Z" fill="url(#paint0_linear)"/>
<path d="M370.611 110.64H341.833V139.415H370.611V110.64Z" fill="#C7A0F6"/>
<path d="M119.389 213.5H77.7365C74.1144 222.063 71.3385 230.122 69.237 237.414C63.3578 257.812 59.4175 277.59 61.1364 298.472H119.389V213.5Z" fill="url(#paint1_linear)"/>
<path d="M361.006 110.64H351.439V120.206H361.006V110.64Z" fill="#FDE1A7"/>
<path d="M361.006 129.849H351.439V139.416H361.006V129.849Z" fill="#FF57BC"/>
<path d="M351.401 120.244H341.833V129.811H351.401V120.244Z" fill="#FF9BBB"/>
<path d="M370.611 120.244H361.044V129.811H370.611V120.244Z" fill="#1AA9E8"/>
<path d="M383.963 201.833V160.222C383.963 159.793 383.616 159.444 383.185 159.444H378C377.57 159.444 377.222 159.793 377.222 160.222V201.833H383.963Z" fill="#05C5DA"/>
<path d="M377.222 201.833V156.333C377.222 153.757 375.132 151.667 372.556 151.667H367.889C365.312 151.667 363.222 153.757 363.222 156.333V201.833H377.222Z" fill="#FDE1A7"/>
<path d="M377.222 161.259H363.222V165.667H377.222V161.259Z" fill="#C7A0F6"/>
<path d="M344.655 201.315H358.86L344.737 147.441C344.41 146.194 343.135 145.448 341.888 145.775L333.111 148.076C331.864 148.402 331.119 149.678 331.445 150.925L344.655 201.315Z" fill="#1AA9E8"/>
<path d="M344.655 201.315L329.999 145.408C329.889 144.993 329.464 144.744 329.049 144.853L320.773 147.023C320.357 147.132 320.108 147.558 320.217 147.973L334.201 201.315H344.655V201.315Z" fill="#FF9BBB"/>
<path d="M348.07 160.162L334.779 163.646L340.335 184.837L353.626 181.352L348.07 160.162Z" fill="#0090B2"/>
<path d="M100.722 242.667C92.9437 245.427 81.4722 246.556 76.2222 257.056C70.6121 268.276 77.3889 273.486 77.7778 280C78.1184 285.704 74.0569 290.231 69.2067 292.833H113.361V234.578C110.796 237.341 107.129 240.393 100.722 242.667Z" fill="url(#paint2_linear)"/>
<path opacity="0.3" d="M305.408 480.408C327.17 481.218 389.083 486.889 384.741 516.185C380.945 541.795 346.565 548.699 314.222 552.482C279.692 556.521 268.528 553.583 246.297 569.593C224.933 584.978 205.722 595.778 173.185 581C148.877 569.959 149.76 541.562 154.194 536.083C166.574 520.787 184.21 522.407 194.963 517.741C203.778 513.917 218.869 495.823 238.519 488.186C258.169 480.548 292.516 479.928 305.408 480.408Z" fill="url(#paint3_linear)"/>
<path d="M319.926 202.028V60.0693C318.301 60.0304 316.657 60.0125 315 60.011V202.028H319.926Z" fill="url(#paint4_linear)"/>
<path d="M94.4028 235.764C100.042 232.75 89.7361 223.028 99.3611 219.139H75.4444C74.0266 222.767 72.7596 226.291 71.6341 229.683C72.3956 229.355 73.2037 229.123 74.0833 229.056C82.9306 228.375 84.3554 241.134 94.4028 235.764Z" fill="#1AA9E8"/>
<path d="M309.491 85.0368V85.2958H395.17C393.627 83.4447 392.034 81.7989 390.444 80.3701H314.158C311.581 80.3701 309.491 82.46 309.491 85.0368Z" fill="url(#paint5_linear)"/>
<path d="M309.491 141.167V141.426H405.483C405.653 140.614 405.825 139.795 406 138.963C406.175 138.133 406.331 137.314 406.479 136.5H314.158C311.581 136.5 309.491 138.59 309.491 141.167Z" fill="url(#paint6_linear)"/>
<path d="M309.491 204.491V204.75H405.288C404.409 203.439 403.68 202.162 403.148 200.926C402.991 200.56 402.844 200.192 402.698 199.823H314.158C311.581 199.824 309.491 201.914 309.491 204.491Z" fill="url(#paint7_linear)"/>
<path d="M77.7778 280C77.3889 273.486 70.6121 268.276 76.2222 257.056C81.4722 246.556 92.9437 245.427 100.722 242.667C107.129 240.393 110.796 237.34 113.361 234.578V219.139H99.3611C89.7361 223.028 100.042 232.75 94.4028 235.764C84.3554 241.134 82.9305 228.375 74.0833 229.056C73.2029 229.123 72.3948 229.355 71.6341 229.683C70.7521 232.342 69.9549 234.923 69.237 237.413C63.8898 255.967 60.1455 274.007 60.8051 292.833H69.2067C74.0569 290.231 78.1184 285.704 77.7778 280Z" fill="url(#paint8_linear)"/>
<path d="M94.1111 275.852C98.6932 275.852 102.408 272.138 102.408 267.556C102.408 262.974 98.6932 259.259 94.1111 259.259C89.529 259.259 85.8145 262.974 85.8145 267.556C85.8145 272.138 89.529 275.852 94.1111 275.852Z" fill="url(#paint9_linear)"/>
<path d="M100.138 533.086C105.105 550.441 115.301 569.532 135.333 586.833C139.473 590.408 143.782 593.705 148.227 596.753L159.319 533.087H100.138V533.086Z" fill="url(#paint10_linear)"/>
<path d="M159.393 534.354C159.393 523.911 144.622 515.449 126.401 515.449C114.372 515.449 103.85 519.137 98.0856 524.648C99.666 532.484 102.234 540.832 106.264 549.326C111.837 551.79 118.817 553.259 126.401 553.259C144.622 553.26 159.393 544.799 159.393 534.354Z" fill="#FF9BBB"/>
<path d="M153.092 533.492C153.092 525.291 141.048 518.648 126.195 518.648C112.761 518.648 101.628 524.081 99.6209 531.185C100.448 534.284 101.441 537.443 102.621 540.642C107.198 545.228 116.037 548.334 126.195 548.334C141.048 548.334 153.092 541.692 153.092 533.492Z" fill="url(#paint11_linear)"/>
<path d="M112.215 388.575C111.208 390.735 112.709 392.858 115.539 394.017C118.754 395.333 121.2 395.111 122.292 398.01C123.384 400.91 122.6 404.242 124.523 404.221C126.447 404.201 129.651 396.266 126.1 390.453C122.519 384.589 114.515 383.64 112.215 388.575Z" fill="url(#paint12_linear)"/>
<path d="M130.667 504.486C132.222 500.208 148.069 477.847 175.875 475.708C200.993 473.776 210.915 485.301 208.444 490.389C206.792 493.792 200.861 492.82 198.431 492.139C196 491.458 191.735 489.021 188.903 490.486C186.083 491.945 186.419 495.678 183.556 497.097C178.421 499.642 173.136 495.39 168.778 493.695C163.528 491.653 154.681 489.806 148.361 495.639C140.625 502.781 139.007 508.955 136.586 519.798C134.166 530.64 133.022 536.003 132.514 536.667C131.882 537.494 130.861 538.417 128.139 537.347C125.417 536.278 128.917 522.375 128.625 516.736C128.333 511.097 130.667 504.486 130.667 504.486Z" fill="url(#paint13_linear)"/>
<path d="M137.083 536.861C137.107 535.864 140.583 529.343 141.264 523.153C142.151 515.086 146.176 506.585 149.819 503.32C154.194 499.399 159.835 497.51 162.264 500.5C164.37 503.093 162.297 507.825 159.833 510.222C156.68 513.291 142.222 521.767 144.731 526.427C146.092 528.954 148.576 525.219 149.722 523.445C151.731 520.334 155.121 517.278 157.241 518.649C159.444 520.075 158.732 524.482 153.935 527.269C149.241 529.997 145.066 532.254 143.047 534.529C141.137 536.68 142.982 536.602 141.944 537.834C140.751 539.252 137.019 539.519 137.083 536.861Z" fill="url(#paint14_linear)"/>
<path d="M116.667 536.764C117.94 536.007 116.764 529.181 114.333 525.778C111.903 522.375 107.333 520.722 107.333 518.292C107.333 515.861 108.537 513.718 107.139 510.708C105.875 507.986 100.917 509.056 100.722 504.681C100.528 500.306 102.752 494.912 104.452 485.389C105.972 476.875 104.588 473.941 102.375 472.597C99.6528 470.945 99.0694 466.958 101.111 461.32C102.533 457.394 101.726 432.684 93.0417 432.056C85.6528 431.521 82.6078 444.684 82.5417 451.403C82.4444 461.271 86.2524 463.726 84.7778 468.806C83.0278 474.833 80.6299 475.676 80.1111 482.32C79.6841 487.794 79.7222 495.25 91.1944 509.25C102.051 522.499 109.199 528.187 111.125 530.931C113.491 534.301 114.431 538.093 116.667 536.764Z" fill="url(#paint15_linear)"/>
<path d="M126.194 536.278C126.194 531.417 128.333 515.667 123.861 507.306C119.389 498.945 116.861 490.389 119 481.056C121.139 471.722 131.639 453.736 130.861 447.514C130.083 441.292 126.875 430.792 132.611 410.472C136.955 395.086 146.813 384.64 153.611 388.889C158.278 391.806 156.139 402.695 153.806 406.778C151.472 410.861 147.418 417.987 148.195 422.07C148.973 426.153 151.533 426.597 151.316 432.141C150.89 443.042 135.626 459.764 132.029 474.639C129.043 486.982 127.945 501.861 131.056 502.445C134.167 503.028 130.846 532.31 129.395 535.315C127.944 538.32 126.194 536.278 126.194 536.278Z" fill="url(#paint16_linear)"/>
<path d="M116.797 406.131C119.713 408.074 120.038 412.741 118.871 415.982C117.704 419.223 116.63 420.718 116.926 422.853C117.251 425.185 121.723 425.963 123.149 430.76C124.574 435.556 122.241 445.148 119.779 452.019C117.316 458.89 117.964 463.945 120.426 464.334C122.889 464.723 125.093 461.352 125.871 457.204C126.649 453.056 126.277 434.785 137.279 438.019C141.686 439.315 141.362 446.768 138.575 452.019C136.426 456.067 129.177 464.917 125.483 476.908C122.065 488 119.376 496.802 126.131 498.167C131.899 499.333 135.075 492.852 135.853 488.704C136.631 484.556 139.273 470.287 152.056 472.76C158.084 473.926 154.32 488.563 145.445 496.223C139.394 501.446 131.709 507.95 129.501 516.963C127.103 526.75 130.538 536.797 129.112 538.741C127.686 540.685 122.112 539.52 122.242 538.223C122.372 536.926 123.797 534.333 121.075 532.13C118.353 529.926 112.022 526.878 107.723 523.834C103.424 520.79 103.834 516.056 106.038 514.371C108.241 512.685 110.786 514.807 111.741 515.926C113.621 518.13 117.963 531.515 123.149 527.982C126.449 525.733 121.163 514.72 117.445 509.704C111.871 502.185 99.3619 499.333 92.2973 489.871C87.3172 483.201 90.2432 475.72 93.5939 474.445C98.196 472.694 102.414 476.863 103.333 481.073C104.564 486.71 107.048 495.67 113.686 490.649C121.399 484.815 109.787 473.828 104.094 467.576C93.5293 455.973 88.4738 437.76 97.6127 434.909C101.681 433.64 105.066 439.315 106.038 445.798C107.154 453.237 112.625 477.042 117.446 474.316C120.427 472.63 113.816 466.928 113.557 462.131C113.298 457.335 113.946 450.464 111.613 444.372C109.279 438.279 103.152 422.156 106.427 412.613C109.408 403.926 115.498 405.266 116.797 406.131Z" fill="url(#paint17_linear)"/>
<path d="M181.077 502.688C183.751 503.952 182.827 507.987 177.931 511.569C173.3 514.958 166.658 515.091 166.493 513.312C166.33 511.531 170.058 511.424 173.105 508.521C176.151 505.617 177.517 501.005 181.077 502.688Z" fill="url(#paint18_linear)"/>
<path d="M471.319 232.18L467.703 232.192V323.296H473.926C476.502 323.296 478.592 321.207 478.592 318.629V238.486C478.592 235.278 476.583 232.18 471.319 232.18Z" fill="#9180E6"/>
<path d="M411.055 345.139C421.75 335.612 416.111 323.297 414.555 321.611H389.958C391.513 323.297 397.152 335.612 386.458 345.139H411.055Z" fill="url(#paint19_linear)"/>
<path d="M412.012 346.534L410.02 343.978C413.676 340.721 415.64 336.815 415.857 332.367C416.102 327.344 413.999 323.303 413.411 322.667L415.697 320.557C416.973 321.938 419.24 326.865 418.963 332.519C418.709 337.756 416.255 342.756 412.012 346.534Z" fill="#9180E6"/>
<path d="M411.995 346.512C411.995 346.512 411.395 344.069 410.835 343.188H368.506C365.93 343.188 363.84 345.278 363.84 347.855V348.114H411.995V346.512Z" fill="#9180E6"/>
<path d="M323.815 318.63C323.815 321.208 325.904 323.297 328.481 323.297H470.815C473.391 323.297 475.481 321.208 475.481 318.63V236.704C475.481 234.127 473.391 232.037 470.815 232.037L328.481 237.87C325.904 237.87 323.815 239.96 323.815 242.537V318.63Z" fill="url(#paint20_linear)"/>
<path d="M329.778 311.889L467.185 309.556V239.815L329.778 245.648V311.889Z" fill="url(#paint21_linear)"/>
<path d="M459.247 251.292C459.303 252.818 457.956 254.106 456.24 254.169L379.3 257.098C377.584 257.162 376.146 255.975 376.09 254.449L376.026 252.722C375.97 251.196 377.316 249.907 379.034 249.843L455.972 246.914C457.69 246.851 459.127 248.037 459.183 249.563L459.247 251.292Z" fill="url(#paint22_linear)"/>
<path d="M435.361 296.528C435.361 297.386 434.664 298.083 433.806 298.083L365.556 299.25C364.697 299.25 364 298.553 364 297.694V266.972C364 266.114 364.697 265.417 365.556 265.417L433.806 264.25C434.664 264.25 435.361 264.947 435.361 265.806V296.528Z" fill="#FF9BBB"/>
<path d="M341.969 258.019C343.974 258.019 345.599 256.393 345.599 254.389C345.599 252.384 343.974 250.759 341.969 250.759C339.965 250.759 338.34 252.384 338.34 254.389C338.34 256.393 339.965 258.019 341.969 258.019Z" fill="#FBBB6C"/>
<path d="M354.177 257.746C356.182 257.746 357.807 256.121 357.807 254.116C357.807 252.112 356.182 250.487 354.177 250.487C352.173 250.487 350.548 252.112 350.548 254.116C350.548 256.121 352.173 257.746 354.177 257.746Z" fill="#5265F9"/>
<path d="M366.385 257.474C368.39 257.474 370.015 255.849 370.015 253.844C370.015 251.84 368.39 250.214 366.385 250.214C364.381 250.214 362.756 251.84 362.756 253.844C362.756 255.849 364.381 257.474 366.385 257.474Z" fill="#EA4D81"/>
<path d="M426.673 273.352C415.917 273.194 378 274.166 365.167 272.611C352.333 271.055 337.572 265.567 332.306 261.139C331.914 260.81 331.586 260.494 331.299 260.184C332.241 263.537 333.569 266.583 332.63 271.444C331.882 275.312 327.985 280.823 322.654 283.138C324.938 284.194 327.364 285.223 329.778 286.092C339.5 289.592 358.951 291.407 371.908 291.407C384.865 291.407 426.871 291.407 426.871 291.407L426.673 273.352Z" fill="url(#paint23_linear)"/>
<path d="M426.673 273.352C423.461 273.305 417.818 273.358 411.154 273.416C412.806 274.847 417.375 282.106 411.639 291.408C420.341 291.408 426.871 291.408 426.871 291.408L426.673 273.352Z" fill="url(#paint24_linear)"/>
<path d="M332.63 271.444C333.569 266.583 332.241 263.537 331.299 260.184C329.495 258.233 329.444 256.495 327.347 252.972C325.155 249.288 324.004 246.075 323.815 244.028C323.426 239.814 326.008 236.416 325.684 233.693C325.375 231.099 318.594 230.097 316.361 233.917C314.352 237.352 315.379 242.487 315.681 244.319C316.102 246.88 315.778 247.917 315.778 247.917C315.778 247.917 309.361 255.986 309.069 262.5C308.778 269.014 310.139 276.5 310.139 276.5C310.139 276.5 315.742 279.942 322.654 283.138C327.985 280.824 331.882 275.312 332.63 271.444Z" fill="url(#paint25_linear)"/>
<path d="M397.066 291.408C394.551 284.742 388.116 280 380.57 280C373.128 280 366.767 284.614 364.181 291.134C367.558 291.315 370.793 291.408 373.7 291.408C378.607 291.408 387.684 291.408 397.066 291.408Z" fill="url(#paint26_linear)"/>
<path d="M397.066 291.991C396.831 291.991 396.609 291.847 396.52 291.614C394.031 285.017 387.621 280.583 380.57 280.583C373.537 280.583 367.317 284.809 364.723 291.349C364.604 291.649 364.267 291.794 363.966 291.677C363.666 291.558 363.52 291.219 363.638 290.919C366.41 283.932 373.056 279.417 380.57 279.417C388.103 279.417 394.952 284.152 397.612 291.201C397.726 291.502 397.574 291.839 397.272 291.953C397.204 291.978 397.135 291.991 397.066 291.991Z" fill="#AD7CF7"/>
<path d="M384.781 291.991C384.53 291.991 384.299 291.829 384.222 291.577C383.692 289.831 382.11 288.658 380.284 288.658C378.459 288.658 376.877 289.831 376.346 291.577C376.252 291.885 375.924 292.058 375.618 291.966C375.31 291.872 375.136 291.546 375.23 291.238C375.91 288.997 377.941 287.491 380.284 287.491C382.626 287.491 384.657 288.997 385.338 291.238C385.431 291.546 385.257 291.872 384.949 291.966C384.893 291.982 384.837 291.991 384.781 291.991Z" fill="#AD7CF7"/>
<path d="M304.986 258.952C304.597 258.174 302.798 252.73 306.493 249.958C310.002 247.327 314.478 246.913 316.945 248.694C318.814 250.045 321.737 252.576 321.806 256.181C321.855 258.708 319.91 260.944 319.91 260.944C319.91 260.944 321.709 262.889 321.612 265.319C321.495 268.235 319.57 269.986 319.57 269.986C319.57 269.986 320.591 275.188 317.674 276.306C315.313 277.21 313.542 275.77 311.986 275.819C310.622 275.862 310.697 276.835 310.697 276.835C310.697 276.835 307.457 277.021 306.444 275.333C305.132 273.145 306.153 269.889 306.153 269.889C306.153 269.889 303.83 266.679 303.722 263.278C303.625 260.216 304.986 258.952 304.986 258.952Z" fill="url(#paint27_linear)"/>
<path d="M317.674 276.305C320.591 275.187 319.57 269.986 319.57 269.986C319.57 269.986 321.495 268.235 321.612 265.319C321.709 262.889 319.91 260.944 319.91 260.944C319.91 260.944 321.855 258.708 321.806 256.18C321.737 252.575 318.814 250.045 316.945 248.694C315.947 247.973 314.617 247.618 313.157 247.618C314.225 248.894 315.292 251.37 314.758 253.701C314.031 256.873 311.306 257.284 311.306 257.284C311.306 257.284 313.542 259.097 313.348 262.403C313.154 265.708 311.111 267.037 311.111 267.037C311.111 267.037 313.834 268.625 313.542 271.444C313.251 274.264 311.194 276.005 311.194 276.005V276.006C311.381 275.904 311.634 275.829 311.987 275.819C313.542 275.771 315.313 277.21 317.674 276.305Z" fill="url(#paint28_linear)"/>
<path d="M323.812 243.978C323.448 239.788 326.006 236.405 325.684 233.694C325.375 231.1 318.594 230.098 316.361 233.917C314.368 237.326 315.362 242.401 315.672 244.272C316.93 245.244 318.788 246.054 320.509 246.103C321.795 246.139 323.028 244.942 323.812 243.978Z" fill="url(#paint29_linear)"/>
<path d="M345.416 277.738C345.907 273.182 344.431 268.999 343.016 266.866C338.348 265.014 334.5 262.984 332.305 261.139C331.913 260.81 331.585 260.494 331.298 260.184C332.24 263.537 333.569 266.583 332.629 271.444C331.882 275.312 327.984 280.823 322.653 283.138C324.937 284.194 327.363 285.223 329.777 286.092C332.417 287.043 335.776 287.867 339.524 288.566C340.525 287.651 344.801 283.431 345.416 277.738Z" fill="url(#paint30_linear)"/>
<path d="M411.638 291.991C411.534 291.991 411.428 291.963 411.332 291.904C411.058 291.735 410.973 291.376 411.142 291.101C416.733 282.035 412.195 275.09 410.772 273.857C410.528 273.646 410.502 273.278 410.713 273.034C410.925 272.791 411.294 272.764 411.536 272.975C413.108 274.338 418.154 281.954 412.136 291.713C412.025 291.892 411.834 291.991 411.638 291.991Z" fill="#AD7CF7"/>
<path d="M320.347 261.601C320.179 261.601 320.013 261.528 319.898 261.389C318.572 259.784 314.188 257.995 312.242 257.765C310.482 257.56 308.193 258.12 305.23 259.482C304.937 259.616 304.591 259.489 304.456 259.196C304.321 258.903 304.449 258.557 304.742 258.422C307.905 256.967 310.399 256.373 312.378 256.607C314.601 256.869 319.258 258.784 320.796 260.646C321.001 260.895 320.966 261.262 320.717 261.468C320.61 261.557 320.479 261.601 320.347 261.601Z" fill="#AD7CF7"/>
<path d="M319.837 270.885C319.599 270.885 319.376 270.739 319.289 270.503C318.876 269.379 315.538 267.682 312.692 267.489C309.765 267.295 306.542 270.472 306.51 270.504C306.283 270.732 305.913 270.733 305.685 270.505C305.457 270.277 305.457 269.907 305.685 269.68C305.831 269.533 309.314 266.089 312.771 266.325C315.663 266.521 319.704 268.248 320.385 270.1C320.496 270.403 320.34 270.738 320.038 270.849C319.972 270.874 319.904 270.885 319.837 270.885Z" fill="#AD7CF7"/>
<path d="M330.748 287.008C330.537 287.008 330.333 286.894 330.23 286.693C330.082 286.408 330.193 286.056 330.479 285.907C330.538 285.876 336.493 282.707 338.252 275.486C339.237 271.444 338.395 267.176 337.122 264.74C336.974 264.454 337.084 264.102 337.37 263.953C337.656 263.804 338.007 263.915 338.157 264.2C339.429 266.637 340.515 271.128 339.386 275.763C337.497 283.515 331.278 286.808 331.014 286.944C330.929 286.987 330.837 287.008 330.748 287.008Z" fill="#AD7CF7"/>
<path d="M432.25 303.102C440.698 303.102 447.546 296.253 447.546 287.806C447.546 279.358 440.698 272.51 432.25 272.51C423.802 272.51 416.954 279.358 416.954 287.806C416.954 296.253 423.802 303.102 432.25 303.102Z" fill="url(#paint31_linear)"/>
<path d="M441.249 279.487C440.353 278.864 439.122 279.085 438.498 279.981L431.2 290.471L423.106 283.534C422.542 283.05 421.696 283.025 421.101 283.511C420.433 284.057 420.334 285.041 420.88 285.709L429.736 296.536C429.94 296.783 430.197 297.005 430.495 297.169C431.759 297.869 433.352 297.411 434.052 296.147L434.1 296.061L441.85 282.067C442.33 281.193 442.087 280.071 441.249 279.487Z" fill="url(#paint32_linear)"/>
<path d="M501.991 320.358C496.801 320.358 492.593 324.071 492.593 328.655C492.593 333.238 496.801 336.951 501.991 336.951C507.181 336.951 511.389 333.238 511.389 328.655C511.389 324.071 507.181 320.358 501.991 320.358ZM501.456 332.285C499.452 332.285 497.826 330.66 497.826 328.655C497.826 326.65 499.452 325.025 501.456 325.025C503.46 325.025 505.086 326.65 505.086 328.655C505.086 330.66 503.461 332.285 501.456 332.285Z" fill="url(#paint33_linear)"/>
<path d="M496.774 347.278H475.352L469.519 313.794H502.607L496.774 347.278Z" fill="url(#paint34_linear)"/>
<path d="M486.082 322.648C495.229 322.648 502.644 318.684 502.644 313.794C502.644 308.904 495.229 304.939 486.082 304.939C476.934 304.939 469.519 308.904 469.519 313.794C469.519 318.684 476.934 322.648 486.082 322.648Z" fill="#FF9BBB"/>
<path d="M486.082 318.759C492.818 318.759 498.279 316.249 498.279 313.153C498.279 310.057 492.818 307.547 486.082 307.547C479.345 307.547 473.884 310.057 473.884 313.153C473.884 316.249 479.345 318.759 486.082 318.759Z" fill="url(#paint35_linear)"/>
<path d="M489.806 311.954C489.838 310.787 486.176 310.204 487.019 306.898C487.862 303.592 491.685 301.518 497.195 300.222C501.679 299.168 507.259 297.562 507.435 292.898C507.565 289.463 504.454 288.879 502.51 288.49C500.565 288.101 498.297 286.935 498.88 284.926C499.463 282.917 501.675 279.278 498.759 277.205C495.066 274.58 484.361 274.815 481.38 281.879C478.399 288.944 485.398 290.046 486.824 290.435C488.251 290.824 491.32 291.644 490.001 294.454C488.51 297.629 480.262 301.454 480.149 306.833C480.019 312.958 489.729 314.796 489.806 311.954Z" fill="url(#paint36_linear)"/>
<path d="M469.26 272.028C471.626 272.32 472.63 274.717 472.112 277.731C471.523 281.155 470.038 283.111 471.917 285.574C473.797 288.036 477.038 289.138 476.001 290.759C474.963 292.38 466.538 290.889 463.491 284.796C460.418 278.651 463.857 271.362 469.26 272.028Z" fill="url(#paint37_linear)"/>
<path d="M461.822 293.611C463.451 294.413 464.763 297.208 466.489 297.549C467.696 297.787 469.384 297.938 469.357 299.348C469.333 300.588 467.169 301.293 463.597 301.025C460.136 300.766 457.04 297.829 458.176 295.094C458.954 293.222 461.109 293.26 461.822 293.611Z" fill="url(#paint38_linear)"/>
<path d="M531.967 350.259H433.093V359.462C433.093 365.906 438.317 371.129 444.76 371.129H532.407C532.623 368.323 532.752 365.433 532.778 362.444C532.813 358.304 532.523 354.245 531.967 350.259Z" fill="url(#paint39_linear)"/>
<path d="M472.889 366.074C474.894 366.074 476.519 364.449 476.519 362.444C476.519 360.44 474.894 358.814 472.889 358.814C470.884 358.814 469.259 360.44 469.259 362.444C469.259 364.449 470.884 366.074 472.889 366.074Z" fill="#5265F9"/>
<path d="M511.519 371.713C511.197 371.713 510.935 371.452 510.935 371.13V353.85C510.935 353.528 511.197 353.267 511.519 353.267C511.841 353.267 512.102 353.528 512.102 353.85V371.13C512.102 371.452 511.841 371.713 511.519 371.713Z" fill="#FFA2BA"/>
<path d="M344.005 346.5V353.851H532.387C532.151 351.371 531.806 348.921 531.358 346.5H344.005Z" fill="url(#paint40_linear)"/>
<path d="M247.236 442.458C247.408 450.334 247.074 503.999 246.426 511.648C248.898 514.739 253.296 511.389 253.296 511.389C253.296 511.389 256.86 496.805 258.481 477.037C259.884 459.934 260.296 442.944 260.296 442.944L247.236 442.458Z" fill="url(#paint41_linear)"/>
<path d="M249.758 479.494C248.424 479.494 247.364 479.404 246.915 479.278C246.502 479.162 246.261 478.732 246.377 478.319C246.494 477.906 246.925 477.665 247.337 477.781C248.504 478.112 255.585 478.074 258.043 476.395C258.399 476.155 258.883 476.245 259.124 476.6C259.367 476.954 259.275 477.438 258.921 477.681C256.885 479.068 252.668 479.494 249.758 479.494Z" fill="#7B7BEF"/>
<path d="M180.444 325.111C173.032 326.116 148.08 334.336 145.08 351.447C144.984 351.993 145.95 353.351 146.125 353.889C152.153 372.458 179.375 397.444 189.778 399.194C190.237 399.272 190.89 399.758 191.35 399.579C198.521 396.803 205.987 383.03 212.139 378.583C214.813 376.651 180.444 325.111 180.444 325.111Z" fill="url(#paint42_linear)"/>
<path d="M147.96 344.059C146.281 346.767 145.155 349.778 144.861 353.111C143.5 368.538 179.2 401.905 189.972 399.972C191.188 399.754 192.415 399.175 193.646 398.341C171.379 389.637 151.166 357.149 147.96 344.059Z" fill="url(#paint43_linear)"/>
<path d="M245.194 412.611C252.194 412.597 287.602 413.251 293.611 416.889C298.537 419.871 299.602 424.816 296.665 429.483C293.728 434.149 279.806 442.847 251.806 443.042C223.806 443.236 205.917 437.305 205.722 430.5C205.528 423.694 208.693 413.516 225.944 411.833C236.574 410.796 241.306 412.619 245.194 412.611Z" fill="url(#paint44_linear)"/>
<path d="M252.389 445.861C280.389 445.667 293.727 434.149 296.665 429.483C297.953 427.436 298.471 425.335 298.231 423.37C290.688 428.629 273.933 433.992 251.612 434.908C229.688 435.807 211.38 432.504 205.722 430.437C205.722 430.457 205.722 430.48 205.723 430.5C205.917 437.306 224.389 446.056 252.389 445.861Z" fill="url(#paint45_linear)"/>
<path d="M188.694 551.089C190.815 544.963 204.069 522.667 231.389 512.815C257.151 503.526 277.493 511.352 282.765 515.324C288.037 519.297 279.362 526.395 274.935 522.816C270.181 518.973 257.736 515.181 243.353 519.165C224.454 524.4 207.376 540.167 207.264 552.024C194.056 560.13 188.694 551.089 188.694 551.089Z" fill="url(#paint46_linear)"/>
<path d="M243.159 516.465C226.518 520.813 204.125 532.915 200.65 554.946C202.59 554.458 204.789 553.541 207.263 552.023C207.375 540.167 224.453 524.399 243.353 519.164C257.736 515.181 270.181 518.972 274.934 522.815C276.652 524.204 279.008 523.981 280.943 522.961C272.654 514.113 259.3 512.248 243.159 516.465Z" fill="#665EDB"/>
<path d="M197.815 564.667C203.256 564.667 207.667 560.256 207.667 554.815C207.667 549.373 203.256 544.962 197.815 544.962C192.373 544.962 187.962 549.373 187.962 554.815C187.962 560.256 192.373 564.667 197.815 564.667Z" fill="url(#paint47_linear)"/>
<path d="M282.765 531.019C287.099 531.019 290.613 527.506 290.613 523.171C290.613 518.837 287.099 515.324 282.765 515.324C278.431 515.324 274.917 518.837 274.917 523.171C274.917 527.506 278.431 531.019 282.765 531.019Z" fill="url(#paint48_linear)"/>
<path d="M197.815 557.861C196.135 557.861 194.768 556.495 194.768 554.815C194.768 553.135 196.135 551.768 197.815 551.768C199.495 551.768 200.861 553.135 200.861 554.815C200.861 556.495 199.495 557.861 197.815 557.861ZM197.815 552.935C196.778 552.935 195.935 553.778 195.935 554.815C195.935 555.851 196.778 556.694 197.815 556.694C198.851 556.694 199.694 555.851 199.694 554.815C199.694 553.778 198.851 552.935 197.815 552.935Z" fill="#7B7BEF"/>
<path d="M282.765 526.218C281.085 526.218 279.718 524.851 279.718 523.171C279.718 521.491 281.085 520.125 282.765 520.125C284.445 520.125 285.812 521.491 285.812 523.171C285.812 524.851 284.445 526.218 282.765 526.218ZM282.765 521.291C281.728 521.291 280.885 522.135 280.885 523.171C280.885 524.208 281.728 525.051 282.765 525.051C283.802 525.051 284.645 524.208 284.645 523.171C284.645 522.135 283.802 521.291 282.765 521.291Z" fill="#7B7BEF"/>
<path d="M205.029 259.551C205.398 264.51 204.037 285.185 196.842 295.296C199.393 301.049 213.126 301.53 217.778 301.13C228.342 300.222 235.797 294.389 235.797 294.389C235.797 294.389 231.778 273.13 227.241 266C223.732 264.884 219.01 264.38 214.602 262.953C210.194 261.527 205.029 259.551 205.029 259.551Z" fill="url(#paint49_linear)"/>
<path d="M233.463 235.148C227.883 225.764 219.62 218.782 218.297 217.389C218.297 217.389 194.283 212.846 187.704 231.13C183.88 241.76 195.352 253.555 195.352 253.555C195.352 253.555 196.401 253.954 197.997 254.787C196.829 255.774 196.086 257.247 196.086 258.896C196.086 261.867 198.495 264.275 201.466 264.275C203.74 264.275 205.679 262.864 206.467 260.871C206.558 260.96 206.65 261.042 206.74 261.132C210.648 265.028 225.591 272.91 234.389 264.835C242.019 257.833 238.262 243.219 233.463 235.148Z" fill="url(#paint50_linear)"/>
<path d="M231.519 195.416C228.601 193.47 222.38 196.972 219.074 200.342C215.769 203.712 211.231 206.24 210 204.879C208.769 203.518 211.921 202.09 210.453 200.212C208.833 198.138 199.889 200.731 195.806 207.731C191.722 214.731 188.482 224.129 185.047 225.166C181.611 226.204 182.583 220.824 179.019 220.694C175.454 220.564 170.917 225.166 169.815 228.796C168.178 234.191 169.751 238.065 172.279 238.26C176.829 238.61 179.473 231.584 182.649 233.204C184.819 234.311 183.362 238.972 182.195 242.991C181.029 247.01 182.52 252.389 187.186 256.083C190.677 258.847 194.016 259.424 196.116 259.453C196.097 259.27 196.087 259.083 196.087 258.895C196.087 256.041 198.31 253.713 201.119 253.532C201.459 252.169 201.54 250.741 201.056 249.471C199.501 245.388 188.573 236.477 190.621 231.841C191.852 229.055 195.158 228.989 201.121 228.795C207.084 228.6 210.753 229.109 211.362 226.786C212.075 224.064 206.721 225.061 207.084 223.61C207.667 221.277 217.495 223.133 225.881 214.277C233.981 205.722 234.435 197.361 231.519 195.416Z" fill="url(#paint51_linear)"/>
<path d="M220.306 253.296C220.306 253.296 224.324 252.972 226.528 252.713C228.731 252.454 234.241 252.065 234.241 252.065C234.241 252.065 232.297 258.158 227.824 258.676C223.352 259.195 220.306 253.296 220.306 253.296Z" fill="white"/>
<path d="M209.407 244.11C209.271 244.11 209.14 244.039 209.068 243.912C208.096 242.185 208.315 240.153 209.611 238.855C210.776 237.69 212.58 237.388 214.208 238.086C214.405 238.171 214.497 238.4 214.412 238.596C214.328 238.794 214.097 238.886 213.902 238.801C212.568 238.229 211.1 238.467 210.161 239.405C209.113 240.453 208.947 242.111 209.746 243.531C209.851 243.718 209.785 243.955 209.598 244.06C209.537 244.095 209.472 244.11 209.407 244.11Z" fill="#212F66"/>
<path d="M224.537 232.457C224.363 232.457 224.205 232.34 224.161 232.163C223.839 230.887 224.109 229.7 224.901 228.908C225.832 227.977 227.33 227.776 228.808 228.386C229.007 228.467 229.101 228.695 229.02 228.894C228.938 229.093 228.712 229.186 228.512 229.105C227.329 228.618 226.156 228.754 225.45 229.459C224.856 230.053 224.661 230.97 224.915 231.974C224.967 232.183 224.841 232.394 224.632 232.447C224.601 232.454 224.569 232.457 224.537 232.457Z" fill="#212F66"/>
<path d="M208.898 140.676C209.06 141.293 209.123 141.692 209.188 142.119C209.253 142.536 209.29 142.937 209.328 143.334C209.393 144.128 209.425 144.907 209.426 145.685C209.424 147.241 209.356 148.786 209.284 150.328C209.133 153.412 208.844 156.49 208.648 159.561C208.398 162.635 208.279 165.7 208.245 168.76C208.233 169.525 208.238 170.29 208.264 171.053C208.274 171.816 208.315 172.579 208.36 173.341C208.403 174.102 208.472 174.864 208.555 175.621C208.641 176.363 208.741 177.168 208.903 177.821C209.131 178.736 208.574 179.663 207.658 179.891C206.743 180.119 205.815 179.562 205.587 178.645C205.547 178.485 205.532 178.324 205.538 178.167L205.539 178.14C205.577 177.269 205.612 176.548 205.619 175.764C205.627 174.994 205.626 174.228 205.6 173.464C205.577 172.699 205.551 171.935 205.495 171.172C205.455 170.409 205.395 169.646 205.318 168.884C205.022 165.837 204.645 162.794 204.124 159.761L202.617 150.676C202.384 149.166 202.148 147.659 201.951 146.164C201.854 145.417 201.783 144.671 201.725 143.942C201.702 143.578 201.674 143.217 201.662 142.874C201.647 142.542 201.634 142.179 201.655 142.045L201.811 141.041C202.117 139.063 203.969 137.707 205.948 138.013C207.416 138.242 208.542 139.325 208.898 140.676Z" fill="url(#paint52_linear)"/>
<path d="M183.104 157.932C183.225 158.502 183.552 159.504 183.872 160.443L184.922 163.388C185.642 165.385 186.422 167.394 187.063 169.478L188.089 172.586C188.456 173.612 188.851 174.628 189.291 175.617C189.723 176.61 190.181 177.591 190.686 178.531C190.939 179 191.187 179.471 191.461 179.91C191.733 180.339 192.022 180.79 192.29 181.08L192.301 181.091C192.813 181.647 192.779 182.514 192.223 183.026C191.667 183.54 190.801 183.505 190.288 182.949C190.281 182.942 190.27 182.929 190.264 182.921C189.8 182.392 189.468 181.933 189.131 181.451C188.799 180.975 188.472 180.51 188.162 180.037L186.322 177.216C185.722 176.273 185.105 175.34 184.483 174.406C183.85 173.479 183.216 172.549 182.609 171.602C181.363 169.723 180.332 167.731 179.379 165.67C178.904 164.636 178.463 163.58 178.069 162.467C177.872 161.91 177.687 161.337 177.525 160.722C177.441 160.416 177.369 160.095 177.301 159.748C177.266 159.576 177.236 159.396 177.209 159.196L177.165 158.832L177.151 158.625C177.049 156.972 178.305 155.548 179.958 155.445C181.463 155.351 182.778 156.384 183.08 157.817L183.104 157.932Z" fill="url(#paint53_linear)"/>
<path d="M230.427 149.794L229.805 153.244C229.578 154.411 229.339 155.582 229.076 156.752C228.538 159.09 227.851 161.416 226.908 163.71C226.669 164.282 226.406 164.85 226.114 165.411C225.972 165.692 225.811 165.971 225.657 166.247L225.218 166.988C224.639 167.978 224.04 168.956 223.498 169.951C222.95 170.942 222.434 171.944 222.021 172.947C221.611 173.933 221.295 174.986 221.341 175.753C221.396 176.685 220.686 177.484 219.755 177.54C218.823 177.595 218.023 176.885 217.968 175.953C217.961 175.841 217.965 175.73 217.98 175.623L217.992 175.543C218.211 174.008 218.735 172.88 219.2 171.753C219.687 170.642 220.186 169.581 220.673 168.521L222.122 165.364L222.483 164.58C222.585 164.342 222.69 164.112 222.784 163.868C222.976 163.388 223.148 162.892 223.302 162.384C223.935 160.359 224.257 158.181 224.474 155.99C224.7 153.781 224.719 151.597 224.719 149.261C224.719 147.671 226.008 146.382 227.598 146.382C229.188 146.382 230.477 147.672 230.477 149.262C230.477 149.43 230.462 149.596 230.434 149.756L230.427 149.794Z" fill="url(#paint54_linear)"/>
<path d="M240.032 169.004C239.363 170.417 238.448 171.352 237.576 172.233C236.693 173.108 235.777 173.883 234.896 174.665C234.016 175.446 233.136 176.204 232.342 176.999C231.949 177.396 231.576 177.802 231.257 178.215C230.944 178.623 230.694 179.061 230.634 179.408L230.62 179.494C230.552 179.89 230.176 180.156 229.78 180.088C229.438 180.03 229.192 179.741 229.176 179.408C229.134 178.561 229.415 177.891 229.689 177.287C229.975 176.684 230.315 176.145 230.667 175.628C231.374 174.598 232.131 173.651 232.887 172.73C233.643 171.811 234.38 170.899 235.066 170.008C235.741 169.117 236.38 168.226 236.696 167.482C237.09 166.549 238.166 166.113 239.099 166.508C240.032 166.903 240.468 167.98 240.073 168.912C240.063 168.933 240.054 168.954 240.045 168.975L240.032 169.004Z" fill="url(#paint55_linear)"/>
<path d="M232.904 225.262C231.128 222.748 228.394 221.188 225.769 221.188C224.509 221.188 223.33 221.551 222.356 222.239C219.588 224.195 219.063 228.333 220.931 231.943C219.266 232.237 217.84 233.543 216.949 234.696C215.385 232.999 213.152 231.928 210.667 231.928C205.949 231.928 202.111 235.766 202.111 240.483C202.111 242.422 202.767 244.207 203.858 245.642C202.057 247.536 198.532 252.194 197.041 255.506L197.229 255.59C197.86 254.782 198.716 254.161 199.704 253.818C201.362 251.059 203.674 248.121 204.911 246.794C206.433 248.183 208.45 249.039 210.668 249.039C215.386 249.039 219.224 245.201 219.224 240.483C219.224 238.833 218.746 237.296 217.934 235.989C218.646 234.973 220.236 233.252 221.898 233.462C223.675 235.811 226.293 237.267 228.819 237.267C230.078 237.267 231.258 236.903 232.232 236.215C235.324 234.029 235.625 229.115 232.904 225.262ZM210.667 247.483C206.806 247.483 203.667 244.342 203.667 240.483C203.667 236.623 206.807 233.483 210.667 233.483C214.526 233.483 217.667 236.623 217.667 240.483C217.667 244.342 214.527 247.483 210.667 247.483ZM231.333 234.943C230.623 235.445 229.753 235.71 228.818 235.71C226.69 235.71 224.443 234.4 222.953 232.293C220.726 229.14 220.861 225.199 223.253 223.509C223.973 223 224.819 222.743 225.768 222.743C227.896 222.743 230.143 224.053 231.632 226.161C233.861 229.312 233.725 233.252 231.333 234.943Z" fill="url(#paint56_linear)"/>
<path d="M182.238 234.601C182.22 234.601 182.203 234.601 182.185 234.6C181.326 234.571 180.654 233.852 180.682 232.993C180.788 229.829 181.714 225.332 183.024 223.585C183.541 222.898 184.515 222.759 185.202 223.273C185.889 223.789 186.029 224.764 185.513 225.451C184.818 226.378 183.895 229.995 183.792 233.097C183.764 233.938 183.073 234.601 182.238 234.601Z" fill="#FF57BC"/>
<path d="M221.895 233.457C225.352 234.764 233.28 239.819 233.722 242.472C234.047 244.417 228.019 246.426 227.565 245.778C227.11 245.13 225.49 241.63 223.417 238.648C221.874 236.429 220.258 234.856 220.06 233.924C220.376 233.754 221.23 233.317 221.895 233.457Z" fill="url(#paint57_linear)"/>
<path d="M158.562 214.033C155.664 194.504 157.445 182.442 157.694 178.208C158.083 171.597 162.264 166.088 164.111 161.194C165.632 157.168 167.773 154.583 166.347 153.611C164.239 152.174 160.417 157.176 160.417 157.176C160.417 157.176 161.033 144.148 158.181 144.278C155.75 144.388 157.306 151.958 155.944 152.347C154.583 152.736 152.283 145.25 150.208 145.542C149.085 145.7 148.912 148.426 148.912 148.426C148.912 148.426 148.309 147.919 147.681 148.458C146.773 149.236 147.569 153.824 146.806 155.653C146.485 155.2 146.242 154.871 145.769 154.972C142.123 155.75 142.756 174.647 142.204 178.889C141.32 185.683 140.632 199.15 141.474 215.341C144.927 215.729 151.35 215.953 158.562 214.033Z" fill="url(#paint58_linear)"/>
<path d="M281.078 202.623C280.337 195.493 279.725 190.134 279.611 188.351C279.222 182.259 278.963 177.203 278.315 171.499C277.666 165.795 275.462 159.574 275.074 157.499C274.685 155.425 275.409 152.601 274.409 150.256C273.567 148.279 272.546 149.073 272.546 149.073C272.546 149.073 272.477 146.255 271.249 146.351C269.791 146.464 267.846 155.409 266.842 155.554C266.264 155.638 266.971 145.346 265.221 145.151C263.965 145.011 263.034 146.756 261.819 152.395C260.77 157.26 262.311 165.86 261.527 165.86C260.652 165.86 260.166 161.971 259.291 159.444C258.416 156.916 257.395 154.436 256.083 154.583C254.777 154.728 254.557 157.806 255.14 162.181C255.603 165.655 261.138 183.166 263.471 191.138C264.381 194.245 264.964 199.187 265.258 204.794C268.49 205.252 274.321 205.363 281.078 202.623Z" fill="url(#paint59_linear)"/>
<path d="M146.695 155.151C147.028 155.612 147.261 156.167 147.369 156.745C147.424 157.034 147.453 157.33 147.455 157.628C147.454 157.931 147.439 158.212 147.37 158.542C147.326 158.752 147.119 158.888 146.907 158.844C146.697 158.8 146.561 158.593 146.605 158.381C146.61 158.359 146.617 158.336 146.625 158.315L146.629 158.306C146.713 158.101 146.782 157.83 146.825 157.579C146.869 157.323 146.89 157.061 146.886 156.797C146.879 156.27 146.764 155.742 146.526 155.248C146.503 155.199 146.523 155.141 146.571 155.118C146.615 155.097 146.669 155.114 146.695 155.151Z" fill="#C66C50"/>
<path d="M149.039 147.519C148.928 148.548 149.066 149.584 149.248 150.604C149.341 151.115 149.452 151.624 149.57 152.133C149.686 152.646 149.816 153.145 149.914 153.693C149.952 153.904 149.812 154.107 149.6 154.145C149.389 154.183 149.186 154.042 149.148 153.831C149.146 153.819 149.144 153.808 149.144 153.797L149.143 153.79C149.099 153.298 149.012 152.77 148.941 152.25C148.868 151.728 148.801 151.202 148.752 150.674C148.658 149.62 148.61 148.539 148.818 147.488C148.829 147.427 148.887 147.387 148.948 147.398C149.006 147.407 149.045 147.461 149.039 147.519Z" fill="#C66C50"/>
<path d="M156.592 150.212C156.612 151.121 156.56 152.029 156.494 152.935C156.459 153.389 156.417 153.841 156.368 154.294C156.315 154.751 156.268 155.192 156.175 155.672C156.133 155.882 155.929 156.021 155.718 155.98C155.507 155.938 155.369 155.734 155.41 155.523C155.412 155.508 155.416 155.494 155.421 155.48L155.424 155.471C155.549 155.074 155.652 154.625 155.751 154.191C155.849 153.754 155.94 153.313 156.025 152.872C156.193 151.989 156.343 151.101 156.425 150.205C156.429 150.158 156.47 150.124 156.517 150.128C156.559 150.133 156.592 150.169 156.592 150.212Z" fill="#C66C50"/>
<path d="M161.573 155.776C160.886 156.493 160.448 157.431 159.972 158.318L158.596 161.039C158.126 161.943 157.638 162.843 157.067 163.708C156.482 164.556 155.867 165.434 154.856 166.014C154.67 166.122 154.432 166.057 154.325 165.87C154.218 165.684 154.282 165.446 154.469 165.339C154.475 165.335 154.483 165.331 154.489 165.328L154.504 165.321C155.3 164.929 155.966 164.137 156.556 163.351C157.147 162.548 157.674 161.686 158.185 160.813L159.696 158.168C160.221 157.3 160.701 156.381 161.463 155.66C161.495 155.63 161.545 155.632 161.576 155.664C161.605 155.695 161.604 155.743 161.576 155.773L161.573 155.776Z" fill="#C66C50"/>
<path d="M261.056 164.593C261.262 165.237 261.689 165.772 262.166 166.262C262.646 166.749 263.181 167.19 263.73 167.62C264.278 168.051 264.843 168.465 265.396 168.922C265.671 169.152 265.945 169.39 266.201 169.67C266.447 169.955 266.723 170.267 266.808 170.779C266.843 170.991 266.7 171.192 266.488 171.227C266.275 171.262 266.075 171.119 266.04 170.907C266.038 170.893 266.037 170.879 266.035 170.866V170.86C266.023 170.666 265.858 170.388 265.656 170.144C265.452 169.896 265.207 169.658 264.956 169.425C264.451 168.96 263.906 168.514 263.375 168.049C262.842 167.586 262.316 167.104 261.838 166.566C261.368 166.032 260.925 165.413 260.736 164.699L260.733 164.688C260.71 164.597 260.763 164.506 260.853 164.482C260.94 164.459 261.028 164.509 261.056 164.593Z" fill="#C66C50"/>
<path d="M272.776 148.591C272.846 149.231 272.839 149.859 272.841 150.489C272.839 151.119 272.825 151.748 272.806 152.376C272.764 153.636 272.717 154.883 272.609 156.156C272.591 156.37 272.402 156.529 272.188 156.511C271.974 156.493 271.815 156.304 271.833 156.09C271.833 156.082 271.834 156.074 271.836 156.067L271.836 156.056C272.019 154.839 272.149 153.584 272.271 152.343C272.33 151.72 272.384 151.097 272.427 150.474C272.465 149.853 272.511 149.225 272.483 148.615C272.478 148.534 272.54 148.465 272.621 148.459C272.699 148.455 272.766 148.514 272.776 148.591Z" fill="#C66C50"/>
<path d="M258.222 359.722C256.472 345.139 257.57 325.272 263.472 309.944C267.815 298.667 280.648 278.574 283.5 259.972C285.417 247.466 282.87 219.863 281.078 202.623C274.321 205.362 268.49 205.252 265.259 204.794C265.719 213.574 265.47 223.989 264.639 231.583C263.278 244.028 255.111 267.75 244.806 280.972C234.5 294.194 224.972 295.361 217 295.361C205.236 295.361 183.264 293.222 168.972 253.944C163.285 238.316 160.189 225.001 158.562 214.033C151.35 215.953 144.927 215.73 141.472 215.341C142.172 228.805 143.928 244.151 147.517 259.13C152.05 278.042 160.351 297.5 168.128 312.149C175.147 325.367 178.806 348.125 186.276 367.112C191.032 379.199 197.433 397.093 209.133 409.096C210.327 391.869 232.816 374.629 258.222 359.722Z" fill="url(#paint60_linear)"/>
<path d="M145.85 239.91C145.101 239.91 144.379 239.868 143.688 239.782C143.369 239.742 143.141 239.451 143.181 239.132C143.221 238.812 143.515 238.584 143.831 238.624C149.023 239.269 156.133 237.297 162.391 233.481C162.666 233.313 163.025 233.4 163.193 233.675C163.361 233.951 163.273 234.309 162.998 234.477C157.349 237.923 150.992 239.91 145.85 239.91Z" fill="#FFA2BA"/>
<path d="M150.687 271.183C150.406 271.183 150.159 270.979 150.112 270.694C150.061 270.376 150.276 270.076 150.594 270.024C154.081 269.457 166.74 262.173 170.158 257.851C170.357 257.599 170.725 257.557 170.977 257.756C171.23 257.956 171.273 258.323 171.073 258.575C167.449 263.158 154.501 270.571 150.782 271.176C150.749 271.181 150.718 271.183 150.687 271.183Z" fill="#FFA2BA"/>
<path d="M159.227 294.141C158.943 294.141 158.694 293.933 158.65 293.644C158.603 293.325 158.822 293.028 159.141 292.98C162.822 292.43 178.065 281.191 180.341 276.733C180.487 276.446 180.84 276.332 181.126 276.479C181.413 276.625 181.527 276.977 181.38 277.264C178.939 282.046 163.267 293.544 159.314 294.134C159.284 294.138 159.255 294.141 159.227 294.141Z" fill="#FFA2BA"/>
<path d="M168.129 312.731C167.862 312.731 167.62 312.546 167.561 312.275C167.491 311.961 167.689 311.649 168.003 311.579C171.298 310.847 191.456 297.005 194.994 290.049C195.141 289.761 195.491 289.647 195.778 289.793C196.065 289.939 196.18 290.29 196.034 290.577C192.356 297.808 171.96 311.894 168.257 312.717C168.213 312.727 168.171 312.731 168.129 312.731Z" fill="#FFA2BA"/>
<path d="M273.366 232.313C269.784 232.313 266.353 231.934 264.551 231.405C264.242 231.314 264.065 230.99 264.156 230.681C264.247 230.371 264.572 230.196 264.88 230.286C268.56 231.368 279.146 231.727 283.227 229.602C283.512 229.454 283.866 229.565 284.013 229.85C284.162 230.136 284.051 230.488 283.765 230.637C281.425 231.855 277.303 232.313 273.366 232.313Z" fill="#FFA2BA"/>
<path d="M279.572 256.813C271.919 256.813 261.951 253.477 259.39 252.186C259.102 252.041 258.986 251.69 259.131 251.403C259.275 251.115 259.628 251 259.914 251.144C262.753 252.575 274.92 256.591 282.436 255.45C282.753 255.404 283.052 255.621 283.1 255.94C283.148 256.258 282.929 256.556 282.611 256.604C281.661 256.748 280.639 256.813 279.572 256.813Z" fill="#FFA2BA"/>
<path d="M277.116 281.423C277.113 281.423 277.11 281.423 277.107 281.423C264.345 281.221 254.287 272.102 252.066 268.802C251.886 268.535 251.957 268.172 252.224 267.993C252.491 267.813 252.855 267.884 253.034 268.151C255.163 271.315 264.829 280.061 277.125 280.256C277.447 280.261 277.704 280.527 277.699 280.849C277.695 281.167 277.434 281.423 277.116 281.423Z" fill="#FFA2BA"/>
<path d="M264.948 307.032C264.929 307.032 264.91 307.032 264.892 307.03C253.797 305.967 238.075 293.419 236.367 289.279C236.244 288.981 236.385 288.64 236.683 288.517C236.982 288.394 237.322 288.537 237.445 288.834C239.037 292.692 254.497 304.862 265.002 305.869C265.323 305.9 265.558 306.185 265.527 306.505C265.499 306.807 265.245 307.032 264.948 307.032Z" fill="#FFA2BA"/>
<path d="M200.764 316.388C184.788 316.388 171.922 315.555 168.947 314.671C168.639 314.579 168.462 314.254 168.555 313.945C168.647 313.637 168.973 313.462 169.279 313.552C176.044 315.559 234.459 317.294 263.317 309.381C263.631 309.294 263.949 309.479 264.034 309.79C264.119 310.1 263.937 310.421 263.625 310.506C247.262 314.994 221.416 316.388 200.764 316.388Z" fill="#FFA2BA"/>
<path d="M178.723 344.091C178.516 344.091 178.316 343.981 178.21 343.786C178.056 343.502 178.161 343.149 178.445 342.995C189.394 337.055 220.299 326.107 258.897 327.191C259.219 327.199 259.472 327.468 259.464 327.791C259.455 328.113 259.192 328.389 258.864 328.358C220.512 327.29 189.854 338.133 179 344.021C178.912 344.069 178.817 344.091 178.723 344.091Z" fill="#FFA2BA"/>
<path d="M185.032 364.401C184.854 364.401 184.679 364.32 184.565 364.168C184.371 363.911 184.423 363.544 184.68 363.351C202.585 349.879 227.087 342.793 257.507 342.289C257.844 342.291 258.095 342.541 258.099 342.863C258.105 343.185 257.848 343.45 257.525 343.456C227.358 343.956 203.085 350.963 185.381 364.283C185.277 364.362 185.154 364.401 185.032 364.401Z" fill="#FFA2BA"/>
<path d="M192.862 383.91C192.727 383.91 192.59 383.863 192.48 383.767C192.236 383.556 192.211 383.187 192.422 382.944C194.612 380.424 228.455 357.674 257.71 354.461C258.03 354.413 258.318 354.657 258.354 354.977C258.389 355.298 258.158 355.585 257.837 355.62C230.278 358.647 196.009 380.595 193.303 383.709C193.188 383.843 193.026 383.91 192.862 383.91Z" fill="#FFA2BA"/>
<path d="M284.176 246.684C273.06 254.717 278.96 268.325 280.765 271.136C281.972 267.409 282.935 263.662 283.501 259.972C284.03 256.517 284.217 251.907 284.176 246.684Z" fill="url(#paint61_linear)"/>
<path d="M145.294 248.565C145.945 252.087 146.676 255.619 147.518 259.13C148.432 262.945 149.506 266.78 150.691 270.596C160.088 262.369 153.484 249.287 145.294 248.565Z" fill="url(#paint62_linear)"/>
<path d="M302.881 386.164C302.881 386.164 249.667 410.407 255.5 414.037C261.333 417.667 276.957 422.428 289.592 426.87C303.877 431.891 316.944 438.148 316.944 438.148C316.944 438.148 307.708 447.125 298.797 457.722C298.083 458.572 297.331 459.506 296.556 460.501C299.605 464.879 307.289 472.414 318.56 475.043C332.113 465.734 355.053 449.159 356.417 435.36C358.281 416.491 307.073 388.017 302.881 386.164Z" fill="url(#paint63_linear)"/>
<path d="M349.528 420.093C346.231 424.619 341.89 437.043 350.738 447.563C353.898 443.425 356.03 439.281 356.417 435.361C356.879 430.678 354.072 425.405 349.528 420.093Z" fill="url(#paint64_linear)"/>
<path d="M296.556 460.501C288.808 470.452 278.606 486.689 278.135 488.339C277.616 490.153 278.574 495.703 280.259 499.852C281.944 504.001 291.278 516.736 292.962 515.148C295.235 513.007 292.574 497.13 293.481 494.148C294.389 491.166 301.583 486.889 311.5 479.889C313.234 478.665 315.688 477.017 318.56 475.044C307.289 472.414 299.605 464.879 296.556 460.501Z" fill="url(#paint65_linear)"/>
<path d="M322.988 472.549C322.955 472.549 322.922 472.547 322.889 472.541C315.133 471.218 301.71 460.725 299.08 457.181C298.888 456.922 298.943 456.556 299.201 456.364C299.461 456.173 299.826 456.227 300.018 456.485C302.301 459.563 315.523 470.101 323.085 471.39C323.402 471.444 323.616 471.746 323.562 472.063C323.513 472.348 323.266 472.549 322.988 472.549Z" fill="#6022B6"/>
<path d="M308.245 464.987C308.082 464.987 307.921 464.92 307.806 464.788C307.595 464.545 307.619 464.177 307.862 463.965C308.05 463.8 326.731 447.359 326.731 436.982C326.731 423.558 279.064 407.685 267.265 404.475C266.954 404.391 266.77 404.069 266.855 403.758C266.94 403.448 267.261 403.265 267.57 403.349C268.174 403.513 327.897 420.502 327.897 436.982C327.897 447.887 309.415 464.156 308.628 464.843C308.519 464.94 308.382 464.987 308.245 464.987Z" fill="#6022B6"/>
<path d="M280.797 483.578C279.27 486.079 278.274 487.85 278.135 488.339C277.811 489.472 278.063 492.06 278.708 494.856C282.733 491.873 281.892 486.507 280.797 483.578Z" fill="url(#paint66_linear)"/>
<path d="M280.583 502.056C281.75 501.472 293.389 499.396 295.426 501.602C296.254 502.499 295.815 516.315 293.611 517.352C291.688 518.258 285.847 511.748 284.438 509.749C283.029 507.749 280.583 502.056 280.583 502.056Z" fill="url(#paint67_linear)"/>
<path d="M292.443 518.486C292.186 518.486 291.926 518.423 291.685 518.289C277.452 510.337 274.209 489.254 274.181 489.043C274.065 488.192 274.661 487.408 275.511 487.292C276.362 487.173 277.147 487.772 277.262 488.623C277.289 488.818 280.496 508.474 293.202 515.572C293.952 515.991 294.221 516.938 293.802 517.689C293.518 518.199 292.988 518.486 292.443 518.486Z" fill="url(#paint68_linear)"/>
<path d="M380.986 370.575C366.398 356.015 345.91 340.139 323.75 339.694C294.649 339.111 265.481 356.611 258.222 359.722C232.816 374.629 210.327 391.869 209.134 409.095C216.767 416.926 226.654 422.251 239.815 421.815C282.852 420.389 296.333 382.667 326.796 382.408C338.945 382.304 351.016 386.867 361.686 392.343C365.877 389.163 375.39 378.327 380.986 370.575Z" fill="url(#paint69_linear)"/>
<path d="M238.873 408.348C223.505 408.348 213.95 398.634 212.815 397.417C212.595 397.182 212.608 396.813 212.844 396.593C213.078 396.372 213.447 396.385 213.668 396.621C214.881 397.92 226.032 409.253 243.756 406.848C252.924 405.605 261.959 399.478 272.422 392.383C286.774 382.652 303.042 371.622 324.179 370.676C350.132 369.511 366.78 381.817 366.945 381.941C367.202 382.135 367.253 382.5 367.059 382.758C366.865 383.014 366.498 383.066 366.242 382.872C366.08 382.751 349.75 370.704 324.23 371.84C303.421 372.772 287.299 383.703 273.075 393.349C262.491 400.525 253.35 406.723 243.911 408.003C242.17 408.241 240.488 408.348 238.873 408.348Z" fill="#00E2EC"/>
<path d="M228.32 406.735C228.129 406.735 227.943 406.642 227.831 406.47C227.655 406.199 227.732 405.837 228.002 405.662C229.55 404.655 230.536 402.113 230.854 398.311C231.447 391.204 229.494 381.934 228.024 380.582C227.787 380.364 227.771 379.995 227.99 379.758C228.209 379.521 228.577 379.506 228.814 379.724C230.664 381.425 232.622 391.156 232.017 398.407C231.663 402.642 230.526 405.412 228.639 406.64C228.539 406.705 228.429 406.735 228.32 406.735Z" fill="#00E2EC"/>
<path d="M424.019 395.241C422.723 393.685 406.875 396.472 402.694 394.528C401.103 393.788 393.067 382.632 380.986 370.574C375.39 378.327 365.877 389.162 361.687 392.343C377.3 400.355 389.918 410.318 395.407 410.477C405.319 410.764 425.315 396.796 424.019 395.241Z" fill="url(#paint70_linear)"/>
<path d="M358.056 391.13C357.852 391.13 357.655 391.024 357.548 390.834C357.39 390.554 357.488 390.198 357.768 390.039C360.388 388.559 373.696 375.472 376.837 366.875C376.948 366.572 377.284 366.417 377.585 366.528C377.888 366.639 378.044 366.973 377.932 367.277C374.641 376.287 361.124 389.484 358.342 391.056C358.252 391.106 358.153 391.13 358.056 391.13Z" fill="#00E2EC"/>
<path d="M326.667 351.037C334.109 350.949 339.43 346.32 342.053 343.397C336.15 341.182 330.017 339.82 323.75 339.694C318.501 339.589 313.251 340.079 308.126 340.96C310.914 345.291 317.505 351.146 326.667 351.037Z" fill="url(#paint71_linear)"/>
<path d="M396.796 405.611C393.433 405.463 391.071 407.247 390.127 408.756C392.276 409.806 394.057 410.439 395.406 410.478C397.395 410.535 399.793 410.012 402.341 409.137C401.543 407.672 399.91 405.749 396.796 405.611Z" fill="url(#paint72_linear)"/>
<path d="M415.917 390.736C414.246 391.265 411.172 400.611 416.267 407.73C417.713 406.337 423.019 401.012 424.59 399.202C426.16 397.392 431.569 389.958 431.954 389.313C432.338 388.669 422.674 388.597 415.917 390.736Z" fill="url(#paint73_linear)"/>
<path d="M404.251 419.805C403.766 419.805 403.288 419.579 402.984 419.154C402.484 418.455 402.646 417.484 403.346 416.984C404.838 415.918 423.835 400.212 429.928 389.574C430.354 388.83 431.306 388.57 432.051 388.998C432.796 389.425 433.054 390.375 432.627 391.12C426.164 402.405 406.759 418.369 405.154 419.516C404.881 419.711 404.564 419.805 404.251 419.805Z" fill="url(#paint74_linear)"/>
<path d="M272.487 460.349L272.551 460.327C273.082 460.124 273.351 459.522 273.146 458.986C272.993 458.586 272.603 458.318 272.175 458.318C272.048 458.318 271.924 458.341 271.803 458.386C269.4 459.305 266.782 460.149 263.314 461.123C260.724 461.828 257.958 462.468 254.605 463.14C249.139 464.238 243.342 465.019 236.881 465.526C232.32 465.86 227.76 466.03 223.323 466.03C215.773 466.03 208.354 465.54 201.275 464.574C194.885 463.699 189.261 462.502 184.081 460.915C181.011 459.971 178.407 458.957 176.118 457.814C174.799 457.154 173.611 456.458 172.585 455.746C172.312 455.557 172.044 455.36 171.79 455.166L171.434 454.884L171.036 454.556C170.499 454.107 169.986 453.65 169.509 453.193C167.424 451.198 165.898 449.093 164.976 446.934C164.003 444.668 163.665 442.283 163.973 439.847C164.262 437.547 165.183 435.146 166.636 432.906C167.338 431.816 168.134 430.816 168.999 429.937C169.738 429.182 170.826 428.27 171.586 427.937L171.663 427.902C172.464 427.527 173.071 426.862 173.372 426.03C173.673 425.198 173.632 424.298 173.256 423.498C172.713 422.34 171.534 421.591 170.255 421.591C169.769 421.591 169.297 421.696 168.852 421.905C166.781 422.875 165.496 424.06 164.253 425.29C163.064 426.507 162.013 427.834 161.051 429.336C159.096 432.427 157.915 435.713 157.543 439.104C157.345 440.927 157.397 442.727 157.697 444.455C158.002 446.197 158.548 447.904 159.32 449.524C160.68 452.391 162.764 455.087 165.513 457.541C166.115 458.077 166.749 458.603 167.396 459.104L167.886 459.472L168.425 459.856C168.768 460.091 169.115 460.316 169.472 460.538C170.778 461.345 172.198 462.081 173.812 462.787C176.467 463.941 179.306 464.882 182.745 465.75C188.021 467.056 193.783 467.91 200.879 468.438C204.723 468.722 208.728 468.86 213.12 468.86C215.017 468.86 216.949 468.835 219.027 468.782C224.661 468.655 230.563 468.248 237.07 467.539C250.346 466.069 261.932 463.719 272.487 460.349Z" fill="url(#paint75_linear)"/>
<path d="M308.285 532.746C313.068 531.174 317.26 529.256 321.102 526.879C325.79 523.938 329.257 520.59 331.697 516.651C334.581 512.004 335.858 506.205 335.116 501.138C334.905 499.778 334.548 498.431 334.054 497.138C333.568 495.822 332.908 494.529 332.092 493.288C331.166 491.92 330.144 490.793 328.975 489.853C328.319 489.325 327.607 488.86 326.86 488.47C326.498 488.282 326.104 488.105 325.656 487.93C325.46 487.856 325.248 487.781 324.97 487.695L324.764 487.632L324.676 487.609L324.482 487.561C324.14 487.477 323.787 487.434 323.435 487.434C321.574 487.434 319.904 488.602 319.279 490.338C318.458 492.62 319.646 495.143 321.927 495.962L322.128 496.036C322.228 496.071 322.356 496.116 322.477 496.228C322.54 496.264 322.6 496.302 322.663 496.344C322.873 496.47 323.07 496.627 323.278 496.795L323.287 496.802L323.321 496.83C323.823 497.258 324.304 497.789 324.712 498.364C325.557 499.496 326.304 501.058 326.864 502.864C327.482 504.775 327.78 506.564 327.749 508.172C327.728 508.653 327.702 509.105 327.618 509.567C327.581 509.779 327.54 509.999 327.493 510.216L327.423 510.513L327.417 510.535L327.411 510.556L327.297 510.942C327.057 511.772 326.69 512.717 326.262 513.598C324.693 516.858 321.949 520.063 318.324 522.863C315.275 525.247 311.57 527.346 307.002 529.276C299.393 532.411 290.666 534.466 281.055 535.384C277.342 535.73 273.555 535.907 269.798 535.907C264.586 535.907 259.314 535.569 254.128 534.906C254.091 534.9 254.06 534.899 254.028 534.899C253.649 534.899 253.328 535.183 253.283 535.562C253.258 535.762 253.313 535.96 253.437 536.118C253.561 536.277 253.739 536.377 253.939 536.402C260.85 537.246 267.563 537.675 273.887 537.675C276.352 537.675 278.815 537.61 281.207 537.483C286.155 537.217 290.617 536.738 294.848 536.018C299.591 535.233 304.11 534.133 308.285 532.746Z" fill="url(#paint76_linear)"/>
<path d="M348.156 507.331C347.959 507.331 347.793 507.485 347.777 507.682C347.653 509.199 347.377 510.672 346.959 512.081C346.576 513.362 346.037 514.691 345.311 516.144C344.1 518.531 342.377 520.89 340.185 523.157C338.134 525.254 335.878 527.037 333.475 528.457C332.263 529.17 331.008 529.768 329.831 530.308C329.172 530.602 328.533 530.868 328.05 531.067L327.18 531.404L326.817 531.549C326.75 531.579 326.649 531.62 326.52 531.66L326.261 531.747C325.258 532.088 324.577 533.063 324.605 534.12C324.64 535.451 325.709 536.493 327.039 536.493L327.105 536.492L327.395 536.484C327.476 536.484 327.552 536.48 327.647 536.467L327.653 536.466L327.697 536.461C327.932 536.433 328.154 536.406 328.353 536.371C328.832 536.29 329.249 536.2 329.632 536.094C330.423 535.883 331.232 535.592 332.045 535.222C333.396 534.62 334.709 533.815 336.305 532.607C338.896 530.639 341.203 528.293 343.156 525.637C345.109 522.985 346.603 520.102 347.599 517.071C348.624 513.9 348.949 510.645 348.537 507.663C348.513 507.486 348.366 507.349 348.189 507.334L348.173 506.948C348.168 506.947 348.163 506.945 348.157 506.944V507.331H348.156Z" fill="url(#paint77_linear)"/>
<path d="M453.737 401.746C452.165 401.746 450.875 403.025 450.863 404.597C450.848 406.387 450.525 408.469 449.875 410.96C449.312 413.1 448.572 415.238 447.675 417.316C445.838 421.565 443.534 425.533 440.826 429.114C438.052 432.78 434.857 436.154 431.332 439.143C427.513 442.403 423.53 444.901 419.495 446.563C419.483 446.568 419.463 446.578 419.446 446.587C419.335 446.649 419.257 446.748 419.223 446.868C419.19 446.988 419.205 447.114 419.266 447.223C419.348 447.371 419.505 447.463 419.674 447.463C419.755 447.463 419.83 447.443 419.902 447.403C424.307 444.939 428.259 442.685 432.035 440.054C435.916 437.344 439.51 434.194 442.716 430.692C446.115 426.96 448.977 423.055 451.217 419.088C452.533 416.743 453.583 414.588 454.424 412.503C455.529 409.726 456.187 407.475 456.555 405.21L456.58 405.061C456.599 404.932 456.611 404.789 456.612 404.645C456.625 403.06 455.346 401.76 453.761 401.746L453.748 401.359C453.744 401.359 453.74 401.357 453.735 401.357V401.746H453.737Z" fill="url(#paint78_linear)"/>
<path d="M154.044 328.953L154.086 328.928C154.457 328.688 154.565 328.193 154.326 327.824C154.179 327.595 153.928 327.458 153.655 327.458C153.502 327.458 153.353 327.503 153.224 327.586C151.279 328.839 149.253 330.028 147.293 331.179C146.613 331.578 145.931 331.978 145.249 332.383C142.104 334.22 139.613 335.845 137.406 337.503C134.862 339.466 132.4 341.473 130.329 344.36C129.147 346.047 128.369 347.713 127.958 349.446C127.404 351.664 127.661 354.059 127.864 355.29L127.908 355.566C127.948 355.798 128.015 356.036 128.107 356.266C128.637 357.593 129.904 358.45 131.332 358.45C131.773 358.45 132.206 358.367 132.62 358.201C134.397 357.49 135.265 355.465 134.554 353.687C134.1 352.552 133.817 351.617 133.813 350.467C133.803 349.416 134.1 348.213 134.671 346.989C135.669 344.847 137.367 342.546 139.718 340.149C141.587 338.231 143.783 336.257 146.431 334.119C149.077 332.022 151.566 330.335 154.044 328.953Z" fill="url(#paint79_linear)"/>
<path d="M473.417 398.587C473.135 398.246 472.821 398.087 472.432 398.087C472.342 398.087 472.246 398.096 472.148 398.113C470.568 398.39 470.479 400.065 470.659 403.555C470.731 404.949 470.805 406.391 470.647 407.742C470.381 410.034 469.257 411.805 468.437 413.097C467.99 413.801 467.436 414.675 467.598 414.873C467.599 414.873 467.601 414.872 467.604 414.872C467.613 414.872 467.635 414.875 467.668 414.875C469.044 414.875 473.086 411.308 473.972 406.632C474.663 402.988 474.445 399.829 473.417 398.587Z" fill="url(#paint80_linear)"/>
<path d="M376.718 424.947C376.208 424.24 375.538 423.895 374.669 423.895C374.523 423.895 374.369 423.906 374.213 423.925C371.792 424.233 371.917 427.002 372.32 431.493C372.491 433.392 372.668 435.355 372.524 437.158C372.283 440.189 370.88 442.59 369.854 444.344C368.991 445.821 368.481 446.746 368.874 447.112C368.94 447.172 369.003 447.196 369.1 447.196C370.548 447.196 374.18 442.869 376.355 436.346C378.029 431.327 378.168 426.959 376.718 424.947Z" fill="url(#paint81_linear)"/>
<path d="M146.743 316.872C146.745 316.209 146.561 315.689 146.197 315.323C145.71 314.836 144.874 314.578 143.775 314.578C141.207 314.578 137.632 315.957 134.213 318.27C129.863 321.21 126.873 323.9 125.483 325.474C125.538 325.442 125.593 325.409 125.648 325.376C127.507 324.271 130.317 322.6 133.772 321.685C135.74 321.164 137.757 320.876 139.535 320.623C144.133 319.968 146.736 319.471 146.743 316.872Z" fill="url(#paint82_linear)"/>
<path d="M204.796 447.575C204.16 446.749 202.526 446.18 200.426 446.054C200.099 446.035 199.708 446.025 199.266 446.014C196.289 445.94 191.307 445.817 187.709 442.654C183.202 438.691 182.79 434.475 182.593 432.45C182.58 432.325 182.567 432.189 182.553 432.061C182.477 432.142 182.396 432.258 182.314 432.42C181.311 434.423 181.938 440.223 184.859 444.132C187.257 447.34 192.124 450.683 197.589 450.918C198.245 450.946 198.826 450.96 199.368 450.96C203.997 450.96 204.84 449.874 205.054 448.813C205.152 448.325 205.07 447.932 204.796 447.575Z" fill="url(#paint83_linear)"/>
<defs>
<linearGradient id="paint0_linear" x1="296.754" y1="626.337" x2="296.754" y2="60.0051" gradientUnits="userSpaceOnUse">
<stop stop-color="#C7A0F6"/>
<stop offset="1" stop-color="#8CE6FD"/>
</linearGradient>
<linearGradient id="paint1_linear" x1="60.7308" y1="255.986" x2="119.389" y2="255.986" gradientUnits="userSpaceOnUse">
<stop stop-color="#B0E1FF"/>
<stop offset="1" stop-color="white"/>
</linearGradient>
<linearGradient id="paint2_linear" x1="69.2071" y1="263.706" x2="113.361" y2="263.706" gradientUnits="userSpaceOnUse">
<stop stop-color="#00E2EC"/>
<stop offset="1" stop-color="#0090B2"/>
</linearGradient>
<linearGradient id="paint3_linear" x1="268.348" y1="588.03" x2="268.348" y2="480.285" gradientUnits="userSpaceOnUse">
<stop stop-color="#6B49C0"/>
<stop offset="1" stop-color="#5E7ED9"/>
</linearGradient>
<linearGradient id="paint4_linear" x1="315" y1="131.019" x2="319.926" y2="131.019" gradientUnits="userSpaceOnUse">
<stop stop-color="white"/>
<stop offset="1" stop-color="#B0E1FF"/>
</linearGradient>
<linearGradient id="paint5_linear" x1="309.491" y1="82.8333" x2="395.17" y2="82.8333" gradientUnits="userSpaceOnUse">
<stop stop-color="white"/>
<stop offset="1" stop-color="#B0E1FF"/>
</linearGradient>
<linearGradient id="paint6_linear" x1="309.491" y1="138.963" x2="406.479" y2="138.963" gradientUnits="userSpaceOnUse">
<stop stop-color="white"/>
<stop offset="1" stop-color="#B0E1FF"/>
</linearGradient>
<linearGradient id="paint7_linear" x1="309.491" y1="202.287" x2="405.288" y2="202.287" gradientUnits="userSpaceOnUse">
<stop stop-color="white"/>
<stop offset="1" stop-color="#B0E1FF"/>
</linearGradient>
<linearGradient id="paint8_linear" x1="60.7293" y1="255.986" x2="113.361" y2="255.986" gradientUnits="userSpaceOnUse">
<stop stop-color="#8C6AE2"/>
<stop offset="1" stop-color="#5A55F8"/>
</linearGradient>
<linearGradient id="paint9_linear" x1="85.8149" y1="267.556" x2="102.407" y2="267.556" gradientUnits="userSpaceOnUse">
<stop stop-color="#C07EB0"/>
<stop offset="1" stop-color="#EE5C95"/>
</linearGradient>
<linearGradient id="paint10_linear" x1="93.4066" y1="564.92" x2="159.319" y2="564.92" gradientUnits="userSpaceOnUse">
<stop stop-color="#C07EB0"/>
<stop offset="1" stop-color="#EE5C95"/>
</linearGradient>
<linearGradient id="paint11_linear" x1="110.832" y1="518.127" x2="141.56" y2="548.855" gradientUnits="userSpaceOnUse">
<stop stop-color="#8173CC"/>
<stop offset="1" stop-color="#271068"/>
</linearGradient>
<linearGradient id="paint12_linear" x1="111.902" y1="394.808" x2="127.698" y2="394.808" gradientUnits="userSpaceOnUse">
<stop stop-color="#FDE1A7"/>
<stop offset="1" stop-color="#F9A144"/>
</linearGradient>
<linearGradient id="paint13_linear" x1="127.096" y1="506.662" x2="208.811" y2="506.662" gradientUnits="userSpaceOnUse">
<stop stop-color="#00E2EC"/>
<stop offset="1" stop-color="#0090B2"/>
</linearGradient>
<linearGradient id="paint14_linear" x1="137.083" y1="518.959" x2="163.134" y2="518.959" gradientUnits="userSpaceOnUse">
<stop stop-color="#FDE1A7"/>
<stop offset="1" stop-color="#F9A144"/>
</linearGradient>
<linearGradient id="paint15_linear" x1="79.9865" y1="484.538" x2="117.186" y2="484.538" gradientUnits="userSpaceOnUse">
<stop stop-color="#5A55F8"/>
<stop offset="0.3102" stop-color="#6E5EEF"/>
<stop offset="0.7287" stop-color="#8467E5"/>
<stop offset="1" stop-color="#8C6AE2"/>
</linearGradient>
<linearGradient id="paint16_linear" x1="118.228" y1="462.445" x2="156.382" y2="462.445" gradientUnits="userSpaceOnUse">
<stop stop-color="#5A55F8"/>
<stop offset="1" stop-color="#8C6AE2"/>
</linearGradient>
<linearGradient id="paint17_linear" x1="89.6328" y1="472.635" x2="154.993" y2="472.635" gradientUnits="userSpaceOnUse">
<stop stop-color="#FF57BD"/>
<stop offset="1" stop-color="#FE6A77"/>
</linearGradient>
<linearGradient id="paint18_linear" x1="166.488" y1="508.386" x2="182.548" y2="508.386" gradientUnits="userSpaceOnUse">
<stop stop-color="#00E2EC"/>
<stop offset="1" stop-color="#0090B2"/>
</linearGradient>
<linearGradient id="paint19_linear" x1="401.945" y1="345.139" x2="401.945" y2="321.611" gradientUnits="userSpaceOnUse">
<stop stop-color="white"/>
<stop offset="1" stop-color="#E9B6F2"/>
</linearGradient>
<linearGradient id="paint20_linear" x1="323.815" y1="277.667" x2="475.481" y2="277.667" gradientUnits="userSpaceOnUse">
<stop stop-color="white"/>
<stop offset="1" stop-color="#F1D1F8"/>
</linearGradient>
<linearGradient id="paint21_linear" x1="329.778" y1="275.852" x2="467.185" y2="275.852" gradientUnits="userSpaceOnUse">
<stop stop-color="#00E2EC"/>
<stop offset="1" stop-color="#0090B2"/>
</linearGradient>
<linearGradient id="paint22_linear" x1="376.024" y1="252.007" x2="459.248" y2="252.007" gradientUnits="userSpaceOnUse">
<stop stop-color="#FDE1A7"/>
<stop offset="1" stop-color="#F9A144"/>
</linearGradient>
<linearGradient id="paint23_linear" x1="322.654" y1="275.795" x2="426.871" y2="275.795" gradientUnits="userSpaceOnUse">
<stop stop-color="#7523AF"/>
<stop offset="0.123" stop-color="#6D2EB2"/>
<stop offset="0.3398" stop-color="#594CBA"/>
<stop offset="0.625" stop-color="#387CC7"/>
<stop offset="0.9644" stop-color="#0ABED8"/>
<stop offset="1" stop-color="#05C5DA"/>
</linearGradient>
<linearGradient id="paint24_linear" x1="419.013" y1="291.407" x2="419.013" y2="250.975" gradientUnits="userSpaceOnUse">
<stop stop-color="#170389"/>
<stop offset="0.4221" stop-color="#3B0E9F"/>
<stop offset="0.7767" stop-color="#5215AD"/>
<stop offset="1" stop-color="#5A18B2"/>
</linearGradient>
<linearGradient id="paint25_linear" x1="309.028" y1="257.265" x2="332.951" y2="257.265" gradientUnits="userSpaceOnUse">
<stop stop-color="#170389"/>
<stop offset="0.0772" stop-color="#1C058C"/>
<stop offset="1" stop-color="#5A18B2"/>
</linearGradient>
<linearGradient id="paint26_linear" x1="364.181" y1="285.703" x2="397.066" y2="285.703" gradientUnits="userSpaceOnUse">
<stop stop-color="#170389"/>
<stop offset="0.0772" stop-color="#1C058C"/>
<stop offset="1" stop-color="#5A18B2"/>
</linearGradient>
<linearGradient id="paint27_linear" x1="303.717" y1="262.226" x2="321.806" y2="262.226" gradientUnits="userSpaceOnUse">
<stop stop-color="#170389"/>
<stop offset="0.0772" stop-color="#1C058C"/>
<stop offset="1" stop-color="#5A18B2"/>
</linearGradient>
<linearGradient id="paint28_linear" x1="311.11" y1="262.111" x2="321.806" y2="262.111" gradientUnits="userSpaceOnUse">
<stop stop-color="#F6E2FB"/>
<stop offset="1" stop-color="#FF9BBB"/>
</linearGradient>
<linearGradient id="paint29_linear" x1="315.15" y1="238.747" x2="325.712" y2="238.747" gradientUnits="userSpaceOnUse">
<stop stop-color="#F6E2FB"/>
<stop offset="1" stop-color="#FF9BBB"/>
</linearGradient>
<linearGradient id="paint30_linear" x1="311.889" y1="274.375" x2="345.513" y2="274.375" gradientUnits="userSpaceOnUse">
<stop stop-color="#FF9BBB"/>
<stop offset="1" stop-color="#F6E2FB"/>
</linearGradient>
<linearGradient id="paint31_linear" x1="421.435" y1="276.991" x2="443.066" y2="298.622" gradientUnits="userSpaceOnUse">
<stop stop-color="#FDE1A7"/>
<stop offset="1" stop-color="#F9A144"/>
</linearGradient>
<linearGradient id="paint32_linear" x1="420.527" y1="288.316" x2="442.094" y2="288.316" gradientUnits="userSpaceOnUse">
<stop stop-color="#C91C91"/>
<stop offset="1" stop-color="#FE6A77"/>
</linearGradient>
<linearGradient id="paint33_linear" x1="492.593" y1="328.655" x2="511.389" y2="328.655" gradientUnits="userSpaceOnUse">
<stop stop-color="#FF57BD"/>
<stop offset="1" stop-color="#FE6A77"/>
</linearGradient>
<linearGradient id="paint34_linear" x1="469.519" y1="330.536" x2="502.607" y2="330.536" gradientUnits="userSpaceOnUse">
<stop stop-color="#C07EB0"/>
<stop offset="1" stop-color="#EE5C95"/>
</linearGradient>
<linearGradient id="paint35_linear" x1="479.368" y1="306.439" x2="492.796" y2="319.867" gradientUnits="userSpaceOnUse">
<stop stop-color="#994574"/>
<stop offset="1" stop-color="#43256F"/>
</linearGradient>
<linearGradient id="paint36_linear" x1="480.147" y1="294.463" x2="507.439" y2="294.463" gradientUnits="userSpaceOnUse">
<stop stop-color="white"/>
<stop offset="1" stop-color="#FDE1A7"/>
</linearGradient>
<linearGradient id="paint37_linear" x1="462.335" y1="281.677" x2="476.201" y2="281.677" gradientUnits="userSpaceOnUse">
<stop stop-color="white"/>
<stop offset="1" stop-color="#FDE1A7"/>
</linearGradient>
<linearGradient id="paint38_linear" x1="457.937" y1="297.252" x2="469.357" y2="297.252" gradientUnits="userSpaceOnUse">
<stop stop-color="white"/>
<stop offset="1" stop-color="#FDE1A7"/>
</linearGradient>
<linearGradient id="paint39_linear" x1="482.937" y1="371.13" x2="482.937" y2="350.26" gradientUnits="userSpaceOnUse">
<stop stop-color="#FFE2A8"/>
<stop offset="1" stop-color="#A482FF"/>
</linearGradient>
<linearGradient id="paint40_linear" x1="344.005" y1="350.175" x2="554.038" y2="350.175" gradientUnits="userSpaceOnUse">
<stop stop-color="#F9A144"/>
<stop offset="1" stop-color="#FDE1A7"/>
</linearGradient>
<linearGradient id="paint41_linear" x1="253.362" y1="512.958" x2="253.362" y2="442.458" gradientUnits="userSpaceOnUse">
<stop stop-color="#8173CC"/>
<stop offset="1" stop-color="#271068"/>
</linearGradient>
<linearGradient id="paint42_linear" x1="145.073" y1="362.365" x2="212.287" y2="362.365" gradientUnits="userSpaceOnUse">
<stop stop-color="#994574"/>
<stop offset="1" stop-color="#43256F"/>
</linearGradient>
<linearGradient id="paint43_linear" x1="144.823" y1="372.056" x2="193.646" y2="372.056" gradientUnits="userSpaceOnUse">
<stop stop-color="#8173CC"/>
<stop offset="1" stop-color="#271068"/>
</linearGradient>
<linearGradient id="paint44_linear" x1="205.714" y1="427.28" x2="298.288" y2="427.28" gradientUnits="userSpaceOnUse">
<stop stop-color="#994574"/>
<stop offset="1" stop-color="#43256F"/>
</linearGradient>
<linearGradient id="paint45_linear" x1="205.721" y1="434.617" x2="298.288" y2="434.617" gradientUnits="userSpaceOnUse">
<stop stop-color="#8173CC"/>
<stop offset="1" stop-color="#271068"/>
</linearGradient>
<linearGradient id="paint46_linear" x1="188.694" y1="531.925" x2="284.413" y2="531.925" gradientUnits="userSpaceOnUse">
<stop stop-color="#271068"/>
<stop offset="1" stop-color="#8173CC"/>
</linearGradient>
<linearGradient id="paint47_linear" x1="187.963" y1="554.815" x2="207.667" y2="554.815" gradientUnits="userSpaceOnUse">
<stop stop-color="#994574"/>
<stop offset="1" stop-color="#43256F"/>
</linearGradient>
<linearGradient id="paint48_linear" x1="274.917" y1="523.172" x2="290.613" y2="523.172" gradientUnits="userSpaceOnUse">
<stop stop-color="#994574"/>
<stop offset="1" stop-color="#43256F"/>
</linearGradient>
<linearGradient id="paint49_linear" x1="216.319" y1="301.236" x2="216.319" y2="259.55" gradientUnits="userSpaceOnUse">
<stop stop-color="#E8878E"/>
<stop offset="0.2186" stop-color="#E58589"/>
<stop offset="0.4692" stop-color="#DE7F7B"/>
<stop offset="0.7347" stop-color="#D27565"/>
<stop offset="1" stop-color="#C16846"/>
</linearGradient>
<linearGradient id="paint50_linear" x1="186.923" y1="242.613" x2="238.745" y2="242.613" gradientUnits="userSpaceOnUse">
<stop stop-color="#E8878E"/>
<stop offset="1" stop-color="#F4BEA3"/>
</linearGradient>
<linearGradient id="paint51_linear" x1="169.145" y1="227.156" x2="233.159" y2="227.156" gradientUnits="userSpaceOnUse">
<stop stop-color="#994574"/>
<stop offset="1" stop-color="#43256F"/>
</linearGradient>
<linearGradient id="paint52_linear" x1="205.535" y1="179.943" x2="205.535" y2="137.971" gradientUnits="userSpaceOnUse">
<stop stop-color="#FDE1A7"/>
<stop offset="1" stop-color="white"/>
</linearGradient>
<linearGradient id="paint53_linear" x1="184.904" y1="183.389" x2="184.904" y2="155.437" gradientUnits="userSpaceOnUse">
<stop stop-color="#FDE1A7"/>
<stop offset="1" stop-color="white"/>
</linearGradient>
<linearGradient id="paint54_linear" x1="224.22" y1="177.543" x2="224.22" y2="146.383" gradientUnits="userSpaceOnUse">
<stop stop-color="#FDE1A7"/>
<stop offset="1" stop-color="white"/>
</linearGradient>
<linearGradient id="paint55_linear" x1="234.696" y1="180.099" x2="234.696" y2="166.362" gradientUnits="userSpaceOnUse">
<stop stop-color="#FDE1A7"/>
<stop offset="1" stop-color="white"/>
</linearGradient>
<linearGradient id="paint56_linear" x1="197.041" y1="238.388" x2="234.763" y2="238.388" gradientUnits="userSpaceOnUse">
<stop stop-color="#5A55F8"/>
<stop offset="1" stop-color="#8C6AE2"/>
</linearGradient>
<linearGradient id="paint57_linear" x1="220.06" y1="239.666" x2="233.735" y2="239.666" gradientUnits="userSpaceOnUse">
<stop stop-color="#FF57BD"/>
<stop offset="1" stop-color="#FE6A77"/>
</linearGradient>
<linearGradient id="paint58_linear" x1="141.091" y1="179.94" x2="166.816" y2="179.94" gradientUnits="userSpaceOnUse">
<stop stop-color="#E8878E"/>
<stop offset="1" stop-color="#F4BEA3"/>
</linearGradient>
<linearGradient id="paint59_linear" x1="254.835" y1="175.095" x2="281.078" y2="175.095" gradientUnits="userSpaceOnUse">
<stop stop-color="#E8878E"/>
<stop offset="1" stop-color="#F4BEA3"/>
</linearGradient>
<linearGradient id="paint60_linear" x1="141.473" y1="305.859" x2="284.182" y2="305.859" gradientUnits="userSpaceOnUse">
<stop stop-color="#FE6A77"/>
<stop offset="1" stop-color="#C91C91"/>
</linearGradient>
<linearGradient id="paint61_linear" x1="277.582" y1="258.91" x2="284.181" y2="258.91" gradientUnits="userSpaceOnUse">
<stop stop-color="#F9A144"/>
<stop offset="1" stop-color="#FDE1A7"/>
</linearGradient>
<linearGradient id="paint62_linear" x1="147.259" y1="259.709" x2="155.028" y2="258.339" gradientUnits="userSpaceOnUse">
<stop stop-color="#FDE1A7"/>
<stop offset="1" stop-color="#F9A144"/>
</linearGradient>
<linearGradient id="paint63_linear" x1="255.053" y1="430.603" x2="356.466" y2="430.603" gradientUnits="userSpaceOnUse">
<stop stop-color="#00E2EC"/>
<stop offset="0.2998" stop-color="#20B5DF"/>
<stop offset="1" stop-color="#6A4EC2"/>
</linearGradient>
<linearGradient id="paint64_linear" x1="345.506" y1="433.828" x2="356.466" y2="433.828" gradientUnits="userSpaceOnUse">
<stop stop-color="#5A18B2"/>
<stop offset="1" stop-color="#7A50C9"/>
</linearGradient>
<linearGradient id="paint65_linear" x1="277.994" y1="487.893" x2="318.56" y2="487.893" gradientUnits="userSpaceOnUse">
<stop stop-color="#E8878E"/>
<stop offset="0.2186" stop-color="#E58589"/>
<stop offset="0.4692" stop-color="#DE7F7B"/>
<stop offset="0.7347" stop-color="#D27565"/>
<stop offset="1" stop-color="#C16846"/>
</linearGradient>
<linearGradient id="paint66_linear" x1="277.994" y1="489.217" x2="281.702" y2="489.217" gradientUnits="userSpaceOnUse">
<stop stop-color="#F4BEA3"/>
<stop offset="1" stop-color="#E8878E"/>
</linearGradient>
<linearGradient id="paint67_linear" x1="280.583" y1="509.024" x2="295.816" y2="509.024" gradientUnits="userSpaceOnUse">
<stop stop-color="#FE6A77"/>
<stop offset="1" stop-color="#C91C91"/>
</linearGradient>
<linearGradient id="paint68_linear" x1="274.167" y1="502.882" x2="294.001" y2="502.882" gradientUnits="userSpaceOnUse">
<stop stop-color="#994574"/>
<stop offset="1" stop-color="#43256F"/>
</linearGradient>
<linearGradient id="paint69_linear" x1="209.134" y1="380.76" x2="380.986" y2="380.76" gradientUnits="userSpaceOnUse">
<stop stop-color="#05C5DA"/>
<stop offset="0.0356" stop-color="#0ABED8"/>
<stop offset="0.375" stop-color="#387CC7"/>
<stop offset="0.6602" stop-color="#594CBA"/>
<stop offset="0.877" stop-color="#6D2EB2"/>
<stop offset="1" stop-color="#7523AF"/>
</linearGradient>
<linearGradient id="paint70_linear" x1="361.686" y1="390.528" x2="424.079" y2="390.528" gradientUnits="userSpaceOnUse">
<stop stop-color="#E8878E"/>
<stop offset="0.2186" stop-color="#E58589"/>
<stop offset="0.4692" stop-color="#DE7F7B"/>
<stop offset="0.7347" stop-color="#D27565"/>
<stop offset="1" stop-color="#C16846"/>
</linearGradient>
<linearGradient id="paint71_linear" x1="325.09" y1="351.038" x2="325.09" y2="339.681" gradientUnits="userSpaceOnUse">
<stop stop-color="#170389"/>
<stop offset="0.0772" stop-color="#1C058C"/>
<stop offset="1" stop-color="#5A18B2"/>
</linearGradient>
<linearGradient id="paint72_linear" x1="395.645" y1="405.606" x2="396.515" y2="410.542" gradientUnits="userSpaceOnUse">
<stop stop-color="#E8878E"/>
<stop offset="1" stop-color="#F4BEA3"/>
</linearGradient>
<linearGradient id="paint73_linear" x1="413.46" y1="398.322" x2="431.965" y2="398.322" gradientUnits="userSpaceOnUse">
<stop stop-color="#FE6A77"/>
<stop offset="1" stop-color="#C91C91"/>
</linearGradient>
<linearGradient id="paint74_linear" x1="402.694" y1="404.299" x2="432.833" y2="404.299" gradientUnits="userSpaceOnUse">
<stop stop-color="#43256F"/>
<stop offset="1" stop-color="#994574"/>
</linearGradient>
<linearGradient id="paint75_linear" x1="184.587" y1="476.686" x2="237.78" y2="423.493" gradientUnits="userSpaceOnUse">
<stop stop-color="white"/>
<stop offset="1" stop-color="#FDE1A7"/>
</linearGradient>
<linearGradient id="paint76_linear" x1="283.447" y1="505.172" x2="313.833" y2="535.558" gradientUnits="userSpaceOnUse">
<stop stop-color="#FDE1A7"/>
<stop offset="1" stop-color="white"/>
</linearGradient>
<linearGradient id="paint77_linear" x1="324.605" y1="521.717" x2="348.709" y2="521.717" gradientUnits="userSpaceOnUse">
<stop stop-color="white"/>
<stop offset="1" stop-color="#FDE1A7"/>
</linearGradient>
<linearGradient id="paint78_linear" x1="419.206" y1="424.41" x2="456.613" y2="424.41" gradientUnits="userSpaceOnUse">
<stop stop-color="white"/>
<stop offset="1" stop-color="#FDE1A7"/>
</linearGradient>
<linearGradient id="paint79_linear" x1="127.622" y1="342.954" x2="154.452" y2="342.954" gradientUnits="userSpaceOnUse">
<stop stop-color="white"/>
<stop offset="0.4533" stop-color="#FEEFD0"/>
<stop offset="0.8021" stop-color="#FDE5B2"/>
<stop offset="1" stop-color="#FDE1A7"/>
</linearGradient>
<linearGradient id="paint80_linear" x1="467.57" y1="406.482" x2="474.372" y2="406.482" gradientUnits="userSpaceOnUse">
<stop stop-color="white"/>
<stop offset="1" stop-color="#FDE1A7"/>
</linearGradient>
<linearGradient id="paint81_linear" x1="368.74" y1="435.546" x2="377.715" y2="435.546" gradientUnits="userSpaceOnUse">
<stop stop-color="white"/>
<stop offset="1" stop-color="#FDE1A7"/>
</linearGradient>
<linearGradient id="paint82_linear" x1="125.483" y1="320.026" x2="146.743" y2="320.026" gradientUnits="userSpaceOnUse">
<stop stop-color="white"/>
<stop offset="1" stop-color="#FDE1A7"/>
</linearGradient>
<linearGradient id="paint83_linear" x1="181.869" y1="441.51" x2="205.094" y2="441.51" gradientUnits="userSpaceOnUse">
<stop stop-color="white"/>
<stop offset="1" stop-color="#FDE1A7"/>
</linearGradient>
</defs>
</svg>
