<svg width="620" height="620" viewBox="0 0 620 620" fill="none" xmlns="http://www.w3.org/2000/svg">
<path d="M531.822 179.8C555.589 197.711 566.192 222.147 560.986 264.304C556.392 301.504 541.467 316.43 551.801 350.186C561.422 381.613 597.531 465.543 539.4 524.933C481.269 584.323 380.038 568.792 343.756 563.74C307.475 558.689 262.467 549.733 211.03 564.2C164.171 577.379 123.276 568.556 109.017 533.2C94.8938 498.182 114.586 454.437 128.823 429.637C143.06 404.837 144.585 383.365 123.312 374.526C98.1667 364.078 81.2889 333.767 107.811 294.844C131.35 260.299 176.061 226.788 278.082 203.222C324.305 192.544 357.533 189.1 414.941 170.615C448.967 159.658 500.474 156.175 531.822 179.8Z" fill="url(#paint0_linear)"/>
<path d="M551.801 350.185C541.467 316.43 556.392 301.504 560.986 264.303C566.192 222.147 555.589 197.711 531.822 179.8C510.199 163.504 478.986 160.107 450.533 163.163V488.422L544.587 519.284C595.295 460.338 561.121 380.629 551.801 350.185Z" fill="url(#paint1_linear)"/>
<path d="M499.789 507.419V165.469C499.103 165.308 498.414 165.153 497.722 165.005V507.419H499.789Z" fill="#1AA9E8"/>
<g opacity="0.7">
<path opacity="0.7" d="M418.041 493.574V169.653C416.993 169.967 415.959 170.287 414.941 170.615C414.825 170.652 414.713 170.687 414.597 170.724V493.026C415.764 493.205 416.913 493.388 418.041 493.574Z" fill="url(#paint2_linear)"/>
<path opacity="0.7" d="M367.339 489V184.151C366.182 184.436 365.037 184.712 363.895 184.986V488.937C365.051 488.954 366.201 488.974 367.339 489Z" fill="url(#paint3_linear)"/>
<path opacity="0.7" d="M316.637 490.853V195.072C315.49 195.301 314.342 195.531 313.192 195.761V491.187C314.346 491.072 315.495 490.959 316.637 490.853Z" fill="url(#paint4_linear)"/>
<path opacity="0.7" d="M265.935 499.269V206.146C264.779 206.435 263.63 206.725 262.49 207.017V500.171C263.632 499.864 264.781 499.564 265.935 499.269Z" fill="url(#paint5_linear)"/>
<path opacity="0.7" d="M215.233 517.126V221.351C214.074 221.768 212.925 222.187 211.789 222.608V518.702C212.927 518.174 214.074 517.648 215.233 517.126Z" fill="url(#paint6_linear)"/>
<path opacity="0.7" d="M164.53 545.367V244.334C163.366 245.005 162.214 245.676 161.086 246.352V547.715C162.211 546.939 163.353 546.158 164.53 545.367Z" fill="url(#paint7_linear)"/>
</g>
<path d="M211.03 564.2C262.467 549.734 307.475 558.689 343.756 563.741C380.038 568.792 481.269 584.323 539.4 524.934C545.424 518.779 550.422 512.358 554.556 505.762C521.596 488.231 453.238 463.652 334.571 469.133C204.608 475.137 147.648 518.437 126.402 556.431C146.228 571.733 177.057 573.755 211.03 564.2Z" fill="url(#paint8_linear)"/>
<path d="M513.911 293.467C516.384 293.467 518.389 291.462 518.389 288.989C518.389 286.516 516.384 284.511 513.911 284.511C511.438 284.511 509.433 286.516 509.433 288.989C509.433 291.462 511.438 293.467 513.911 293.467Z" fill="url(#paint9_linear)"/>
<path d="M483.083 292.606C485.556 292.606 487.561 290.601 487.561 288.128C487.561 285.655 485.556 283.65 483.083 283.65C480.61 283.65 478.606 285.655 478.606 288.128C478.606 290.601 480.61 292.606 483.083 292.606Z" fill="url(#paint10_linear)"/>
<path d="M99.2 210.685C80.9444 197.941 105.928 173.564 89.785 155C76.0072 139.156 49.228 124.782 55.1249 94.4785C61.3111 62.689 112.978 52.8152 141.7 58.4579C159.867 62.027 162.922 61.3767 194.726 56.2596C236.117 49.6001 268.322 63.3779 284.511 85.0779C299.82 105.599 302.193 137.089 275.503 151.808C253.845 163.752 215.278 169.811 190.133 178.767C139.501 196.8 118.287 224.01 99.2 210.685Z" fill="url(#paint11_linear)"/>
<path d="M418.999 514.616C415.843 511.531 412.39 508.751 408.719 506.304C403.001 502.492 396.764 499.473 390.256 497.254C377.219 492.827 363.148 491.595 349.431 493.5C335.724 495.425 322.275 500.622 311.033 509.282C305.425 513.605 300.389 518.799 296.341 524.788C294.316 527.778 292.546 530.967 291.081 534.309C290.308 536.067 289.626 537.891 289.032 539.737L299.851 542.479C301.057 538.297 302.853 534.294 305.18 530.525C308.331 525.417 312.415 520.81 317.117 516.866C326.537 508.959 338.346 503.744 350.713 501.493C363.097 499.245 376.121 499.825 388.293 503.415C397.99 506.273 407.207 511.101 414.831 517.774L418.999 514.616Z" fill="url(#paint12_linear)"/>
<path d="M346.032 491.988C342.875 488.903 339.422 486.122 335.751 483.676C330.033 479.864 323.796 476.845 317.288 474.626C304.251 470.199 290.181 468.966 276.463 470.872C262.757 472.797 249.307 477.994 238.065 486.654C232.457 490.977 227.421 496.171 223.373 502.16C221.348 505.15 219.578 508.338 218.113 511.681C217.34 513.439 216.658 515.262 216.064 517.109L224.816 518.473C226.022 514.291 227.818 510.288 230.145 506.519C233.296 501.411 237.381 496.804 242.082 492.86C251.503 484.953 263.311 479.738 275.679 477.487C288.062 475.239 301.086 475.819 313.258 479.409C322.956 482.267 332.173 487.095 339.797 493.768L346.032 491.988Z" fill="url(#paint13_linear)"/>
<path d="M490.948 332.963L376.133 306.039C376.133 306.039 363.597 385.092 322.171 403.459C273.489 425.044 228.022 425.044 228.022 425.044L251.526 479.663C251.526 479.663 291.4 507.711 352.482 501.282C451.063 490.905 478.95 401.278 490.948 332.963Z" fill="url(#paint14_linear)"/>
<path d="M122.967 497.378C120.015 499.379 92.0975 508.343 86.6567 508.633C80.8156 508.945 61.7189 477.848 62.3444 472.147C62.7295 468.633 66.3855 470.209 68.6305 471.631C70.8756 473.053 83.7861 482.222 90.1583 482.825C98.2335 483.588 109.311 475.601 109.311 475.601L122.967 497.378Z" fill="url(#paint15_linear)"/>
<path d="M82.2871 476.862C82.9629 478.789 78.9212 490.317 69.9222 496.216C54.6413 476.8 56.9725 467.533 56.9725 467.533C56.9725 467.533 58.0988 466.524 60.4879 466.936C63.435 467.443 82.2871 476.862 82.2871 476.862Z" fill="url(#paint16_linear)"/>
<path d="M57.8446 467.077C58.187 474.174 63.818 484.434 70.0317 494.371C75.3472 502.872 80.0193 509.582 80.1412 509.95C80.2631 510.318 77.438 511.639 76.2497 510.844C75.0606 510.049 69.6832 502.203 63.4356 490.317C56.9484 477.974 55.4135 472.555 55.6264 469.91C55.84 467.266 57.8446 467.077 57.8446 467.077Z" fill="url(#paint17_linear)"/>
<path d="M295.96 381.839C295.96 381.839 212.579 424.015 178.882 439.74C147.882 454.208 101.883 477.017 101.726 478.548C101.569 480.078 115.746 500.011 120.786 500.363C130.659 501.052 199.778 469.363 220.446 463.622C236.958 459.035 316.087 437.818 327.625 435.909C321.395 425.271 295.96 381.839 295.96 381.839Z" fill="url(#paint18_linear)"/>
<path d="M113.605 495.613C113.315 495.613 113.045 495.43 112.95 495.14C112.832 494.779 113.029 494.389 113.39 494.27C117.38 492.962 183.45 468.481 201.546 459.786C201.889 459.621 202.301 459.766 202.465 460.109C202.63 460.451 202.485 460.863 202.143 461.028C184.006 469.742 117.816 494.269 113.82 495.579C113.748 495.603 113.676 495.613 113.605 495.613Z" fill="#00E2EC"/>
<path d="M392.39 315.033C382.574 313.042 369.951 310.504 360.914 312.64C339.049 317.808 326.654 353.098 307.36 357.993C295.962 360.885 270.863 354.988 251.613 351.036L248.104 370.685C268.176 378.466 290.739 386.297 302.595 387.327C322.4 389.05 399.599 316.494 392.39 315.033Z" fill="url(#paint19_linear)"/>
<path d="M234.394 348.061C217.172 346.339 211.14 351.716 208.389 354.261C208.389 354.261 226.85 362.446 248.103 370.686L251.613 351.036C244.88 349.654 238.857 348.507 234.394 348.061Z" fill="url(#paint20_linear)"/>
<path d="M224.958 355.053C224.888 355.053 224.818 355.031 224.757 354.987C224.603 354.876 224.568 354.66 224.68 354.506C226.463 352.044 232.131 352.5 236.688 352.865C238.383 353.002 239.846 353.12 240.802 353.056C240.989 353.042 241.156 353.187 241.169 353.377C241.181 353.567 241.037 353.731 240.848 353.744C239.844 353.811 238.356 353.69 236.633 353.552C232.481 353.219 226.794 352.761 225.239 354.91C225.17 355.004 225.065 355.053 224.958 355.053Z" fill="#C66C50"/>
<path d="M248.104 371.375C248.064 371.375 248.023 371.371 247.982 371.364C247.607 371.297 247.358 370.939 247.425 370.565L250.934 350.915C251.001 350.541 251.358 350.293 251.733 350.358C252.108 350.425 252.357 350.782 252.29 351.157L248.781 370.807C248.722 371.141 248.432 371.375 248.104 371.375Z" fill="#FDE1A7"/>
<path d="M265.825 488.336C267.067 491.272 280.119 510.897 279.431 515.72C278.691 520.897 244.108 540.162 239.217 538.625C236.203 537.678 238.528 534.32 240.164 532.597C241.8 530.875 254.372 518.045 253.081 510.295C252.385 506.119 246.536 497.033 246.536 497.033L265.825 488.336Z" fill="url(#paint21_linear)"/>
<path d="M245.589 519.509C247.397 519.25 257.903 523.556 261.519 531.564C241.843 541.596 233.017 540.089 233.017 540.089C233.017 540.089 232.328 538.926 233.103 536.903C234.059 534.406 245.589 519.509 245.589 519.509Z" fill="url(#paint22_linear)"/>
<path d="M232.736 538.713C234.954 538.711 248.723 534.49 258.587 530.961C268.45 527.431 282.143 520.542 282.487 520.498C282.832 520.455 283.564 522.651 282.659 523.556C281.755 524.46 264.935 533.143 253.64 537.205C242.98 541.038 237.149 542.329 234.868 541.682C232.586 541.036 232.736 538.713 232.736 538.713Z" fill="url(#paint23_linear)"/>
<path d="M202.304 351.564C179.972 354.434 178.768 379.633 183.704 394.734C192.372 421.256 241.573 497.749 243.408 499.905C246.091 503.058 268.897 491.179 269.815 489.112C270.733 487.045 256.323 454.809 249.148 440.89C240.652 424.407 224.119 395.653 224.119 395.653C224.119 395.653 282.79 477.228 343.297 465.919C343.869 465.812 344.435 465.696 345.003 465.584L295.96 381.84C283.206 380.172 226.086 348.507 202.304 351.564Z" fill="url(#paint24_linear)"/>
<path d="M333.58 450.783C311.657 450.783 277.429 430.618 234.303 392.244C233.221 391.281 232.458 390.602 232.058 390.267C231.766 390.022 231.728 389.588 231.972 389.296C232.216 389.003 232.65 388.967 232.943 389.211C233.349 389.551 234.121 390.239 235.218 391.215C291.332 441.145 320.9 450.372 335.837 449.327C336.223 449.294 336.546 449.586 336.572 449.966C336.599 450.345 336.313 450.675 335.933 450.701C335.166 450.756 334.38 450.783 333.58 450.783Z" fill="#00E2EC"/>
<path d="M210.456 397.317C210.198 397.317 209.951 397.171 209.833 396.923C208.819 394.783 205.733 388.268 208.436 383.704C209.962 381.126 213.062 379.681 217.648 379.408C218.03 379.384 218.354 379.674 218.377 380.054C218.4 380.434 218.11 380.76 217.731 380.783C213.629 381.027 210.901 382.246 209.623 384.406C208.077 387.017 208.567 391.03 211.079 396.334C211.242 396.678 211.095 397.088 210.751 397.251C210.655 397.295 210.555 397.317 210.456 397.317Z" fill="#00FFFF"/>
<path d="M262.111 494.773C261.837 494.773 261.579 494.609 261.471 494.339C254.972 478.101 223.725 416.918 219.691 410.604C219.487 410.284 219.581 409.858 219.901 409.653C220.223 409.448 220.648 409.542 220.852 409.863C224.899 416.196 256.235 477.549 262.749 493.828C262.891 494.182 262.719 494.582 262.365 494.724C262.282 494.757 262.196 494.773 262.111 494.773Z" fill="#00FFFF"/>
<path d="M308.931 444.59C308.908 444.59 308.886 444.589 308.863 444.587C308.484 444.55 308.208 444.213 308.245 443.834C308.684 439.367 313.043 430.197 321.004 424.704C321.318 424.488 321.746 424.566 321.963 424.879C322.178 425.193 322.1 425.622 321.787 425.838C313.912 431.271 309.975 440.328 309.616 443.968C309.58 444.325 309.281 444.59 308.931 444.59Z" fill="#00E2EC"/>
<path d="M445.252 365.34C445.539 337.555 415.744 322.572 401.163 317.348C398.837 316.515 386.794 313.258 376.461 312.569C366.127 311.88 355.196 324.942 344.674 343.067C333.078 363.044 314.022 383.714 296.222 381.874C296.14 381.865 296.047 381.85 295.96 381.839L345.002 465.583C406.413 453.389 444.822 406.919 445.252 365.34Z" fill="url(#paint25_linear)"/>
<path d="M345.004 466.272C344.767 466.272 344.537 466.15 344.409 465.931L295.366 382.188C295.174 381.859 295.284 381.438 295.612 381.245C295.94 381.053 296.362 381.163 296.554 381.492L345.598 465.235C345.789 465.564 345.679 465.986 345.351 466.178C345.241 466.242 345.122 466.272 345.004 466.272Z" fill="white"/>
<path d="M388.663 252.435C387.42 252.232 388.763 257.125 386.812 257.587C384.572 258.118 381.688 257.042 381.416 261.893C381.233 265.151 382.335 270.389 382.794 271.365C383.252 272.341 397.49 264.821 397.49 263.271C397.49 262.582 389.389 252.554 388.663 252.435Z" fill="url(#paint26_linear)"/>
<path d="M388.189 307.359C387.393 309.35 381.875 323.893 381.875 324.811C381.875 325.729 384.314 333.164 394.346 333.25C403.82 333.331 407.937 327.912 408.282 326.648C408.626 325.385 410.206 296.919 410.206 296.919C410.206 296.919 400.014 298.748 396.111 300.814C392.208 302.881 388.189 307.359 388.189 307.359Z" fill="url(#paint27_linear)"/>
<path d="M412.52 293.228C412.961 292.352 413.323 291.48 413.592 290.625C414.522 287.663 421.944 277.622 413.592 268.15C405.239 258.678 394.397 259.279 394.397 259.279C375.789 266.342 371.248 296.76 377.769 304.403C385.161 313.065 397.085 309.217 405.253 302.185C406.411 303.22 408.022 303.865 409.806 303.865C413.326 303.865 416.181 301.363 416.181 298.279C416.182 296.044 414.681 294.122 412.52 293.228Z" fill="url(#paint28_linear)"/>
<path d="M392.616 274.425C390.868 275.389 378.938 283.524 379.118 286.175C379.299 288.826 383.818 288.404 386.349 288.042C388.879 287.681 393.7 275.848 393.7 275.028C393.7 274.094 392.616 274.425 392.616 274.425Z" fill="url(#paint29_linear)"/>
<path d="M380.525 292.735C381.602 294.802 387.586 296.309 389.868 296.395C389.394 297.429 386.318 301.288 382.635 300.098C378.372 298.72 380.525 292.735 380.525 292.735Z" fill="white"/>
<path d="M397.057 285.028C396.835 285.028 396.609 284.98 396.395 284.878C395.621 284.512 395.291 283.587 395.658 282.814C396.591 280.844 398.801 278.742 399.853 278.216C400.618 277.835 401.549 278.144 401.933 278.909C402.316 279.674 402.005 280.605 401.24 280.989C400.816 281.208 399.102 282.785 398.46 284.141C398.194 284.701 397.638 285.028 397.057 285.028Z" fill="#0090B2"/>
<path d="M384.364 277.281C384.166 277.281 383.965 277.238 383.775 277.148C383.088 276.822 382.794 276.001 383.12 275.313C383.824 273.826 385.581 272.034 386.565 271.541C387.247 271.2 388.073 271.478 388.414 272.158C388.754 272.838 388.479 273.665 387.8 274.006C387.45 274.192 386.119 275.42 385.61 276.492C385.375 276.99 384.879 277.281 384.364 277.281Z" fill="#0090B2"/>
<path d="M414.969 257.3C413.247 255.75 413.58 251.026 410.75 249.808C407.88 248.574 404.024 251.01 402.139 250.067C400.647 249.321 400.417 246.019 399.814 243.867C399.211 241.714 397.891 239.16 395.25 239.389C387.218 240.087 385.444 251.865 391.646 260.545C398.063 269.528 413.334 270.848 413.162 281.813C413.067 287.84 405.526 290.194 407.027 293.254C408.501 296.259 412.373 293.34 412.509 293.235C412.511 293.231 412.516 293.224 412.518 293.221C414.142 293.89 415.392 295.144 415.915 296.673C420.045 294.412 428.488 288.613 428.834 278.828C429.298 265.683 416.692 258.85 414.969 257.3Z" fill="url(#paint30_linear)"/>
<path d="M296.136 309.742C296.136 308.622 295.878 296.05 296.911 295.533C297.944 295.017 312.811 299.796 313.961 303.8C315.21 308.149 314.573 337.69 312.584 339.077C309.742 341.057 296.885 333.056 296.368 330.215C295.852 327.373 296.136 309.742 296.136 309.742Z" fill="url(#paint31_linear)"/>
<path d="M291.596 290.66L289.189 289.317C291.471 285.229 295.302 282.789 299.437 282.789C301.496 282.789 303.533 283.404 305.327 284.566L303.829 286.878C302.463 285.993 300.985 285.544 299.437 285.544C296.315 285.545 293.383 287.457 291.596 290.66Z" fill="#FF9BBB"/>
<path d="M287.451 282.518L284.59 281.326C286.518 276.699 290.353 273.549 295.11 272.686C299.398 271.909 303.571 273.165 306.276 276.047L304.016 278.169C302.063 276.088 298.864 275.156 295.664 275.737C291.961 276.408 288.968 278.88 287.451 282.518Z" fill="#FF9BBB"/>
<path d="M281.415 271.919L278 269.591C282.681 262.724 289.625 258.785 297.053 258.785C300.418 258.785 303.679 259.581 306.744 261.15L304.861 264.83C302.384 263.561 299.757 262.919 297.053 262.919C291.014 262.919 285.315 266.199 281.415 271.919Z" fill="#FF9BBB"/>
<path d="M321.754 348.623C321.754 348.622 321.753 348.62 321.752 348.619C319.274 343.093 317.75 329.231 317.521 323.663C317.291 318.094 316.546 317.094 315.397 317.06C313.918 317.017 313.272 318.18 312.541 321.624C311.859 324.832 312.239 332.388 310.603 332.905C308.967 333.422 302.249 320.529 300.528 316.113C298.547 311.033 298.373 306.624 296.43 306.529C295.218 306.469 294.995 308.111 294.931 310.559C294.871 312.799 295.533 316.717 295.533 316.717C295.533 316.717 294.184 317.004 293.897 319.128C293.468 322.298 294.328 325.414 294.328 325.414C294.328 325.414 293.449 326.997 293.94 330.581C294.672 335.919 297.236 341.502 300.585 346.856C301.363 348.099 302.792 352.812 304.51 358.682C308.018 358.266 314.038 356.364 321.754 348.623Z" fill="url(#paint32_linear)"/>
<path d="M299.925 326.447C299.818 326.447 299.714 326.398 299.646 326.305C298.22 324.344 295.553 317.609 295.111 316.234C295.053 316.052 295.152 315.858 295.334 315.8C295.515 315.742 295.708 315.842 295.767 316.022C296.187 317.331 298.843 324.031 300.203 325.9C300.315 326.055 300.28 326.269 300.127 326.381C300.066 326.426 299.996 326.447 299.925 326.447Z" fill="#C66C50"/>
<path d="M296.823 331.269C296.736 331.269 296.649 331.235 296.582 331.168C296.162 330.749 294.335 327.202 293.99 325.481C293.953 325.294 294.074 325.113 294.26 325.076C294.448 325.036 294.628 325.159 294.665 325.346C295.008 327.057 296.791 330.397 297.069 330.681C297.201 330.817 297.2 331.035 297.065 331.168C296.998 331.235 296.91 331.269 296.823 331.269Z" fill="#C66C50"/>
<path d="M423.667 353.056C393.356 351.678 365.773 396.8 356.959 396.112C352.54 395.767 327.916 362.362 321.754 348.623C314.039 356.363 308.019 358.266 304.511 358.682C306.66 366.027 309.262 375.185 311.608 381.645C319.989 404.722 329.978 426.193 347.717 432.106C369.995 439.531 396.456 424.011 414.367 407.133C432.278 390.256 453.978 354.433 423.667 353.056Z" fill="url(#paint33_linear)"/>
<path d="M359.93 434.728C355.777 434.728 351.609 434.129 347.499 432.759C329.44 426.74 319.266 404.749 310.96 381.881C308.901 376.212 306.659 368.516 304.68 361.725L303.849 358.876C303.792 358.681 303.823 358.472 303.936 358.302C304.047 358.133 304.228 358.022 304.429 357.998C308.053 357.57 313.916 355.511 321.266 348.138C321.426 347.978 321.655 347.907 321.878 347.947C322.101 347.988 322.29 348.136 322.382 348.343C328.876 362.822 353.323 395.138 357.013 395.426C359.792 395.656 365.538 389.898 372.165 383.241C385.519 369.831 403.81 351.477 423.698 352.369C429.524 352.634 433.806 354.182 436.423 356.97C436.685 357.247 436.67 357.683 436.393 357.943C436.116 358.205 435.68 358.191 435.42 357.913C433.055 355.396 429.09 353.994 423.636 353.745C404.359 352.85 386.314 370.985 373.141 384.214C365.712 391.677 360.344 397.049 356.906 396.801C352.075 396.423 328.127 363.591 321.542 349.803C314.74 356.406 309.14 358.622 305.395 359.253L306.004 361.34C307.976 368.111 310.211 375.785 312.255 381.411C320.443 403.955 330.432 425.62 347.935 431.455C375.097 440.509 405.288 414.745 413.895 406.635C417.32 403.406 420.826 399.536 424.035 395.439C424.27 395.139 424.703 395.086 425.002 395.321C425.302 395.556 425.354 395.988 425.12 396.287C421.869 400.438 418.314 404.363 414.839 407.637C407.38 414.664 383.954 434.726 359.93 434.728Z" fill="white"/>
<path d="M375.77 470.293C378.101 464.81 381.348 459.749 385.258 455.322C389.166 450.887 393.734 447.085 398.688 443.967C403.644 440.848 408.987 438.409 414.497 436.603C419.424 434.985 424.497 433.858 429.624 433.21C429.56 432.004 429.271 430.878 428.724 429.861C424.166 421.391 403.649 423.878 386.175 433.25C368.403 442.781 360.056 456.285 364.614 464.755C366.507 468.274 370.418 470.271 375.59 470.737C375.652 470.589 375.707 470.439 375.77 470.293Z" fill="url(#paint34_linear)"/>
<path d="M428.704 431.447C422.956 432.044 417.264 433.244 411.754 435.054C406.244 436.859 400.901 439.299 395.945 442.418C390.991 445.535 386.423 449.338 382.515 453.772C378.604 458.201 375.358 463.26 373.026 468.743C370.69 474.222 369.276 480.12 368.912 486.099C368.653 490.245 368.92 494.44 369.652 498.534C371.939 498.036 374.176 497.484 376.377 496.894C375.715 493.452 375.44 489.954 375.583 486.445C375.794 481.229 376.92 476.043 378.882 471.171C380.838 466.296 383.624 461.738 387.05 457.696C390.473 453.647 394.533 450.116 399.004 447.175C407.961 441.292 418.509 437.743 429.268 436.386C437.809 435.332 446.585 435.663 454.961 437.617C455.785 436.315 456.593 435.002 457.383 433.678C448.071 431.105 438.284 430.466 428.704 431.447Z" fill="url(#paint35_linear)"/>
<path d="M561.712 492.348H500.281L509.864 547.351C520.468 541.446 530.447 534.081 539.4 524.934C549.444 514.672 556.671 503.678 561.712 492.348Z" fill="url(#paint36_linear)"/>
<path d="M532.364 475.218C514.602 475.218 500.202 483.439 500.202 493.579C500.202 503.722 514.601 511.942 532.364 511.942C540.466 511.942 547.862 510.228 553.517 507.405C557.521 501.263 560.742 494.96 563.301 488.565C559.478 480.863 547.079 475.218 532.364 475.218Z" fill="#FF9BBB"/>
<path d="M532.364 507.158C546.743 507.158 558.399 500.704 558.399 492.742C558.399 484.78 546.743 478.325 532.364 478.325C517.985 478.325 506.328 484.78 506.328 492.742C506.328 500.704 517.985 507.158 532.364 507.158Z" fill="url(#paint37_linear)"/>
<path d="M546.032 351.987C547.01 354.086 545.552 356.147 542.803 357.273C539.681 358.551 537.306 358.336 536.245 361.151C535.184 363.968 535.945 367.205 534.078 367.185C532.21 367.165 529.098 359.458 532.545 353.812C536.024 348.116 543.799 347.194 546.032 351.987Z" fill="url(#paint38_linear)"/>
<path d="M528.111 464.57C526.6 460.415 511.208 438.696 484.201 436.619C459.805 434.741 450.167 445.935 452.568 450.877C454.173 454.183 459.932 453.238 462.293 452.577C464.654 451.916 468.796 449.548 471.548 450.972C474.287 452.389 473.96 456.014 476.741 457.393C481.728 459.865 486.861 455.735 491.095 454.087C496.194 452.105 504.787 450.311 510.925 455.976C518.439 462.913 520.01 468.91 522.362 479.441C524.711 489.971 525.823 495.18 526.317 495.825C526.931 496.628 527.922 497.525 530.566 496.486C533.21 495.448 529.811 481.945 530.094 476.467C530.377 470.99 528.111 464.57 528.111 464.57Z" fill="url(#paint39_linear)"/>
<path d="M521.878 496.015C521.855 495.046 518.478 488.712 517.818 482.7C516.956 474.865 513.047 466.609 509.508 463.436C505.258 459.629 499.78 457.795 497.42 460.698C495.374 463.216 497.389 467.812 499.781 470.141C502.844 473.121 516.886 481.353 514.449 485.88C513.127 488.335 510.715 484.707 509.602 482.984C507.65 479.962 504.358 476.994 502.3 478.325C500.16 479.71 500.85 483.991 505.51 486.697C510.069 489.347 514.125 491.539 516.087 493.749C517.941 495.837 516.149 495.762 517.156 496.959C518.317 498.337 521.942 498.596 521.878 496.015Z" fill="url(#paint40_linear)"/>
<path d="M541.709 495.92C540.473 495.186 541.615 488.555 543.976 485.25C546.336 481.945 550.774 480.34 550.774 477.979C550.774 475.617 549.606 473.537 550.963 470.613C552.191 467.969 557.006 469.008 557.195 464.758C557.384 460.509 555.224 455.272 553.572 446.021C552.096 437.752 553.44 434.902 555.59 433.597C558.234 431.992 558.801 428.12 556.817 422.644C555.437 418.831 556.221 394.831 564.655 394.22C571.832 393.701 574.79 406.486 574.854 413.012C574.948 422.596 571.249 424.98 572.682 429.914C574.382 435.768 576.712 436.588 577.215 443.04C577.63 448.357 577.593 455.599 566.45 469.197C555.904 482.066 548.962 487.589 547.091 490.255C544.793 493.528 543.881 497.211 541.709 495.92Z" fill="url(#paint41_linear)"/>
<path d="M532.455 495.447C532.455 490.726 530.377 475.428 534.721 467.307C539.065 459.186 541.52 450.876 539.443 441.811C537.366 432.746 527.167 415.276 527.922 409.233C528.677 403.19 531.794 392.991 526.222 373.255C522.003 358.31 512.429 348.165 505.826 352.291C501.293 355.124 503.371 365.701 505.637 369.667C507.903 373.633 511.842 380.554 511.086 384.52C510.33 388.486 507.845 388.918 508.056 394.301C508.471 404.889 523.296 421.131 526.789 435.579C529.689 447.567 530.756 462.019 527.734 462.585C524.711 463.152 527.939 491.592 529.347 494.512C530.755 497.431 532.455 495.447 532.455 495.447Z" fill="url(#paint42_linear)"/>
<path d="M541.584 369.039C538.751 370.927 538.435 375.46 539.568 378.608C540.701 381.755 541.745 383.208 541.456 385.282C541.142 387.547 536.798 388.303 535.413 392.961C534.029 397.62 536.295 406.936 538.687 413.61C541.079 420.284 540.45 425.193 538.057 425.571C535.665 425.949 533.524 422.675 532.769 418.645C532.014 414.617 532.375 396.87 521.69 400.011C517.409 401.27 517.723 408.509 520.431 413.609C522.517 417.541 529.558 426.136 533.147 437.783C536.467 448.557 539.078 457.107 532.518 458.432C526.915 459.565 523.83 453.27 523.075 449.241C522.319 445.212 519.753 431.353 507.336 433.755C501.482 434.887 505.138 449.105 513.757 456.544C519.634 461.616 527.098 467.933 529.244 476.688C531.573 486.194 528.236 495.952 529.621 497.84C531.007 499.729 536.42 498.597 536.295 497.337C536.168 496.079 534.784 493.56 537.429 491.419C540.073 489.279 546.222 486.319 550.397 483.362C554.571 480.405 554.173 475.807 552.033 474.171C549.894 472.534 547.421 474.594 546.494 475.681C544.667 477.821 540.45 490.822 535.413 487.39C532.209 485.207 537.342 474.51 540.953 469.637C546.367 462.333 558.517 459.564 565.38 450.374C570.217 443.895 567.375 436.629 564.12 435.391C559.65 433.69 555.553 437.739 554.661 441.828C553.464 447.303 551.052 456.005 544.605 451.129C537.113 445.463 548.392 434.792 553.921 428.718C564.183 417.45 569.093 399.759 560.217 396.99C556.265 395.757 552.977 401.27 552.033 407.567C550.95 414.792 545.635 437.913 540.953 435.266C538.057 433.627 544.479 428.089 544.731 423.43C544.982 418.772 544.352 412.098 546.619 406.181C548.885 400.263 554.837 384.603 551.655 375.334C548.76 366.897 542.844 368.199 541.584 369.039Z" fill="url(#paint43_linear)"/>
<path d="M479.149 462.822C476.552 464.05 477.45 467.969 482.205 471.449C486.703 474.74 493.155 474.869 493.314 473.141C493.473 471.411 489.852 471.307 486.893 468.488C483.933 465.668 482.607 461.188 479.149 462.822Z" fill="url(#paint44_linear)"/>
<path d="M199.723 124.651C198.572 125.169 202.106 131.938 203.232 133.836C204.358 135.734 218.477 149.522 223.927 160.81C229.379 172.098 229.443 187.058 229.052 190.428C228.662 193.798 237.396 195.189 237.396 195.189C237.396 195.189 241.686 176.455 233.426 159.911C226.638 146.315 212.474 134.695 209.559 132.074C206.105 128.967 200.922 124.111 199.723 124.651Z" fill="url(#paint45_linear)"/>
<path d="M231.106 155.771C231.943 157.125 232.726 158.506 233.427 159.91C233.702 160.461 233.961 161.015 234.21 161.571C233.103 161.172 227.277 161.774 225.533 164.496C225.037 163.238 224.505 162.003 223.928 160.81C223.783 160.509 223.629 160.205 223.471 159.901C224.807 157.038 229.543 155.66 231.106 155.771Z" fill="url(#paint46_linear)"/>
<path d="M238.34 188.071C238.028 192.416 237.397 195.188 237.397 195.188C237.397 195.188 228.662 193.797 229.053 190.427C229.153 189.569 229.186 187.923 229.215 185.826C232.529 184.967 236.146 186.287 238.34 188.071Z" fill="url(#paint47_linear)"/>
<path d="M234.207 190.806C231.643 189.504 225.182 187.276 219.136 195.931C213.089 204.586 211.208 213.293 215.214 218.898C219.22 224.503 228.232 227.419 232.695 223.451C238.013 218.722 241.608 204.428 239.221 196.693C238.069 192.962 234.981 191.199 234.207 190.806Z" fill="url(#paint48_linear)"/>
<path d="M219.135 195.931C223.404 189.821 227.877 189.137 231.042 189.719C228.025 190.988 216.552 206.663 216.273 220.192C215.892 219.778 215.535 219.348 215.213 218.898C211.207 213.293 213.088 204.586 219.135 195.931Z" fill="url(#paint49_linear)"/>
<path d="M139.156 293.467L230.778 297.371V224.348H139.156V293.467Z" fill="url(#paint50_linear)"/>
<path d="M204.829 281.87C204.824 281.87 204.818 281.87 204.814 281.87L163.48 280.894C163.106 280.885 162.807 280.58 162.807 280.205V238.126C162.807 237.942 162.88 237.767 163.011 237.637C163.141 237.508 163.333 237.439 163.502 237.437L204.835 237.782C205.213 237.784 205.518 238.092 205.518 238.471V281.182C205.518 281.368 205.444 281.545 205.311 281.674C205.182 281.8 205.009 281.87 204.829 281.87ZM164.185 279.532L204.141 280.476V239.154L164.185 238.821V279.532Z" fill="white"/>
<path d="M250.296 265.911L230.778 297.371V224.348L250.296 197.711V265.911Z" fill="url(#paint51_linear)"/>
<path d="M250.296 197.711H171.017L139.156 224.348H230.778L250.296 197.711Z" fill="url(#paint52_linear)"/>
<path d="M239.769 283.845C239.389 283.845 239.08 283.536 239.08 283.156V212.078C239.08 211.698 239.389 211.389 239.769 211.389C240.149 211.389 240.458 211.698 240.458 212.078V283.156C240.458 283.536 240.149 283.845 239.769 283.845Z" fill="#FBC881"/>
<path d="M110.222 131.75C110.501 128.128 115.274 85.4221 142.083 76.2943C148.896 73.9748 162.75 74.2848 172.279 78.7626C188.007 86.153 204.572 99.1103 209.078 109.533C214.933 123.082 213.468 154.525 212.539 156.91C211.334 160.01 203.05 167.486 193.406 169.811C185.722 171.663 158.617 173.428 148.456 169.811C138.294 166.194 109.189 145.183 110.222 131.75Z" fill="url(#paint53_linear)"/>
<path d="M172.011 84.6919C174.642 86.8888 177.302 89.3254 179.423 92.1987C181.567 95.0542 183.222 98.232 184.52 101.5C187.113 108.06 188.395 114.953 189.391 121.774C190.368 128.615 191.012 135.479 191.444 142.359C191.857 149.241 192.09 156.132 191.852 163.077L188.586 162.939C188.88 156.179 188.713 149.343 188.365 142.536C187.999 135.726 187.421 128.919 186.521 122.174C185.603 115.44 184.4 108.733 181.995 102.492C180.791 99.3818 179.272 96.4126 177.319 93.7611C175.38 91.0889 172.97 88.8294 170.366 86.6118L172.011 84.6919Z" fill="url(#paint54_linear)"/>
<path d="M188.067 117.456C176.265 117.753 162.233 113.207 159.906 110.262C159.906 110.262 158.358 126.497 159.822 138.237C164.644 147.422 179.094 152.505 190.018 151.671C202.792 150.694 211.374 141.452 213.334 136.751C213.053 127.059 211.94 116.158 209.077 109.534C208.458 108.1 207.602 106.617 206.559 105.109C205.714 111.603 198.31 117.197 188.067 117.456Z" fill="#FDE1A7"/>
<path d="M158.444 163.783C160.511 160.856 161.245 129.509 160.511 116.25C159.707 101.726 154.828 91.5362 144.207 86.9152C137.233 83.8806 127.841 85.9493 123.208 91.9558C112.784 107.837 110.416 129.232 110.222 131.75C109.188 145.183 138.294 166.195 148.455 169.811C148.91 169.973 149.408 170.121 149.928 170.261C153.845 168.6 156.883 165.996 158.444 163.783Z" fill="url(#paint55_linear)"/>
<path d="M150.91 82.1286C155.347 86.1359 164.224 92.608 174.748 89.5556C183.345 87.0625 173.719 78.1903 169.704 76.601C160.614 73.6484 149.633 74.3428 144.954 74.6012C143.485 74.6824 138.833 76.054 137.313 76.5962C136.95 76.7257 136.917 77.7156 136.991 78.5581C138.873 77.5916 144.78 76.5914 150.91 82.1286Z" fill="url(#paint56_linear)"/>
<path d="M120.9 142.17C121.158 138.036 122.177 109.83 137.003 113.753C147.307 116.479 145.517 136.696 145.097 143.892C144.771 149.482 143.719 158.875 143.719 158.875L120.9 142.17Z" fill="#FDE1A7"/>
<path d="M137.003 113.753C136.131 113.522 135.308 113.406 134.528 113.386C143.33 117.456 141.69 136.165 141.29 143.032C141.051 147.119 140.426 153.234 140.106 156.23L143.719 158.876C143.719 158.876 144.771 149.483 145.097 143.892C145.517 136.695 147.307 116.479 137.003 113.753Z" fill="url(#paint57_linear)"/>
<path d="M160.511 116.25C159.707 101.726 154.828 91.5361 144.207 86.915C143.288 86.5148 142.325 86.2096 141.339 85.9836C151.741 90.6681 156.541 100.791 157.337 115.171C158.07 128.43 157.337 159.777 155.27 162.705C153.742 164.869 151.111 167.645 147.477 169.434C147.82 169.575 148.146 169.702 148.455 169.811C148.91 169.973 149.408 170.12 149.928 170.261C153.845 168.599 156.883 165.995 158.444 163.783C160.511 160.856 161.245 129.509 160.511 116.25Z" fill="url(#paint58_linear)"/>
<path d="M151.197 79.3945C156.231 82.6185 163.276 91.1442 173.801 88.0918C182.398 85.5987 172.621 77.1377 168.606 75.5485C161.659 72.2762 148.454 72.2156 142.543 74.2279C140.633 74.8782 138.838 75.7041 137.145 76.6693C139.383 75.607 145.247 75.585 151.197 79.3945Z" fill="url(#paint59_linear)"/>
<path d="M160.004 79.8331C163.544 81.2711 166.938 81.1422 167.585 79.5451C168.233 77.948 165.888 75.4876 162.348 74.0496C158.808 72.6115 155.414 72.7405 154.766 74.3376C154.119 75.9347 156.464 78.3951 160.004 79.8331Z" fill="#9F36AD"/>
<path d="M212.837 155.281C212.752 155.356 212.665 155.429 212.58 155.505L211.822 156.194L211.457 156.533C211.366 156.617 211.27 156.7 211.164 156.781C210.312 157.432 209.143 157.929 207.963 158.334C205.569 159.137 202.998 159.639 200.422 160.046C197.838 160.441 195.226 160.749 192.605 160.984C189.983 161.221 187.351 161.387 184.715 161.515C182.081 161.658 179.442 161.755 176.803 161.806C171.535 161.877 166.224 161.93 161.042 161.564C159.75 161.46 158.488 161.348 157.346 161.089C156.153 160.838 154.951 160.472 153.759 160.048C151.374 159.19 149.027 158.087 146.729 156.875C142.125 154.45 137.699 151.592 133.383 148.578C129.064 145.564 124.87 142.346 120.834 138.949C118.81 137.258 116.811 135.535 114.897 133.736C113.942 132.836 113.004 131.919 112.117 130.972C111.561 130.378 110.994 129.756 110.514 129.135C110.343 130.432 110.254 131.341 110.222 131.749C110.216 131.833 110.216 131.919 110.211 132.004C110.315 132.132 110.416 132.261 110.522 132.387C111.401 133.43 112.316 134.424 113.247 135.399C115.113 137.343 117.042 139.213 119.023 141.023C123.009 144.616 127.152 148.027 131.452 151.251C135.764 154.458 140.247 157.462 145.018 160.074C147.412 161.365 149.879 162.561 152.492 163.53C153.801 164.01 155.145 164.436 156.552 164.748C158.009 165.071 159.408 165.184 160.764 165.293C166.199 165.651 171.543 165.649 176.907 165.446C179.586 165.346 182.263 165.202 184.938 165.01C187.611 164.799 190.283 164.534 192.951 164.204C195.619 163.871 198.285 163.481 200.939 162.946C203.594 162.406 206.243 161.779 208.859 160.778C209.256 160.619 209.653 160.453 210.048 160.273C211.337 158.953 212.209 157.765 212.541 156.911C212.636 156.664 212.738 156.1 212.837 155.281Z" fill="url(#paint60_linear)"/>
<path d="M125.629 137.05C124.92 141.847 126.528 146.058 129.222 146.457C131.916 146.855 134.675 143.289 135.385 138.492C136.094 133.695 134.485 129.484 131.791 129.085C129.098 128.687 126.339 132.253 125.629 137.05Z" fill="#9F36AD"/>
<path d="M211.524 127.522C211.524 121.847 208.116 119.14 203.487 119.14C201.627 119.14 199.915 119.753 198.525 120.777L198.519 120.772C198.519 120.772 195.563 123.392 188.638 123.656C181.57 123.924 177.184 122.014 175.587 121.156C175.375 121.02 175.158 120.892 174.933 120.775C174.915 120.764 174.894 120.75 174.894 120.75C174.894 120.75 174.889 120.753 174.888 120.754C173.743 120.167 172.449 119.829 171.073 119.829C166.445 119.829 162.691 123.582 162.691 128.211C162.691 129.353 162.922 130.44 163.336 131.432C163.336 131.433 163.335 131.434 163.335 131.434C163.869 133.472 171.486 146.627 188.583 146.676C204.162 146.722 211.524 133.128 211.524 127.522Z" fill="#C7A0F6"/>
<path d="M171.01 132.267L169.023 130.358C170.641 128.675 172.817 127.748 175.15 127.748C177.082 127.748 178.903 128.38 180.416 129.576L178.707 131.738C177.686 130.93 176.455 130.503 175.15 130.503C173.573 130.502 172.103 131.129 171.01 132.267Z" fill="#212F66"/>
<path d="M197.662 130.686L195.675 128.777C197.293 127.094 199.469 126.167 201.802 126.167C203.735 126.167 205.556 126.799 207.068 127.995L205.36 130.157C204.338 129.349 203.108 128.922 201.802 128.922C200.226 128.922 198.755 129.548 197.662 130.686Z" fill="#212F66"/>
<path d="M188.432 142.428C185.232 142.428 182.356 140.497 181.44 137.733L182.748 137.3C183.48 139.508 185.817 141.05 188.432 141.05C191.169 141.05 193.533 139.418 194.183 137.082L195.511 137.451C194.696 140.381 191.785 142.428 188.432 142.428Z" fill="#9F36AD"/>
<path d="M161.13 49.3741L185.35 42.2861L186.162 45.6334L161.385 50.4288L161.13 49.3741Z" fill="#C7A0F6"/>
<path d="M161.104 50.3709L139.193 44.4768L140.267 41.2039L161.411 49.4319L161.104 50.3709Z" fill="#C7A0F6"/>
<path d="M161.448 50.5052L136.804 59.4229L135.767 56.1383L161.067 49.2976L161.448 50.5052Z" fill="#C7A0F6"/>
<path d="M161.493 49.3623L183.992 57.9679L182.612 61.1237L161.022 50.4404L161.493 49.3623Z" fill="#C7A0F6"/>
<path d="M163.037 49.0938H159.478V77.0406H159.481C159.481 77.0461 159.478 77.0516 159.478 77.0571C159.478 77.5166 160.275 77.8893 161.257 77.8893C162.24 77.8893 163.037 77.5166 163.037 77.0571C163.037 77.0516 163.033 77.0461 163.033 77.0406H163.037V49.0938H163.037Z" fill="url(#paint61_linear)"/>
<path d="M161.257 52.1842C163.778 52.1842 165.821 51.1624 165.821 49.9019C165.821 48.6414 163.778 47.6196 161.257 47.6196C158.737 47.6196 156.693 48.6414 156.693 49.9019C156.693 51.1624 158.737 52.1842 161.257 52.1842Z" fill="#FF58B8"/>
<path d="M161.257 50.1166C162.673 50.1166 163.821 49.1552 163.821 47.9693C163.821 46.7834 162.673 45.822 161.257 45.822C159.841 45.822 158.694 46.7834 158.694 47.9693C158.694 49.1552 159.841 50.1166 161.257 50.1166Z" fill="#9F36AD"/>
<path d="M161.343 39.0945C139.229 39.0945 121.302 44.9549 121.302 52.1834C121.302 59.4119 139.229 65.2723 161.343 65.2723C183.458 65.2723 201.385 59.4119 201.385 52.1834C201.385 44.9549 183.458 39.0945 161.343 39.0945ZM161.527 59.2445C144.698 59.2445 131.055 55.5045 131.055 50.8917C131.055 46.2789 144.698 42.5389 161.527 42.5389C178.357 42.5389 192 46.2789 192 50.8917C192 55.5045 178.356 59.2445 161.527 59.2445Z" fill="url(#paint62_linear)"/>
<path d="M181.797 57.1282C181.776 57.1179 180.751 57.3941 180.74 57.3735C179.461 57.6587 178.094 57.9149 176.656 58.1409C176.755 58.227 176.863 58.3055 176.983 58.3717C176.942 58.3372 177.022 58.373 177.055 58.3868C177.1 58.4061 177.148 58.4302 177.197 58.4571C177.295 58.5101 177.393 58.5735 177.488 58.6424C177.678 58.7809 177.856 58.9427 178.011 59.1232C178.322 59.4842 178.552 59.9258 178.671 60.4459C178.92 61.4889 178.683 62.8067 178.182 64.0584C178.98 63.9372 181.493 63.4839 182.261 63.3461C183.094 62.8184 184.471 58.4268 181.797 57.1282Z" fill="#F9A449"/>
<path d="M140.137 62.9603C139.635 61.7079 139.397 60.3887 139.647 59.3443C139.766 58.8235 139.995 58.3826 140.307 58.0216C140.462 57.8405 140.639 57.6793 140.83 57.5408C140.925 57.4719 141.023 57.4092 141.121 57.3555C141.169 57.3286 141.218 57.3045 141.262 57.2852C141.295 57.2714 141.375 57.2356 141.335 57.2701C141.383 57.2432 141.424 57.2074 141.47 57.1771C140.092 56.8464 137.02 55.7931 136.931 55.8234C134.01 56.812 135.259 61.5915 135.922 62.2962C136.677 62.4753 139.41 63.1366 140.204 63.2985C140.202 63.189 140.183 63.0788 140.141 62.9713L140.137 62.9603Z" fill="#F9A449"/>
<path d="M140.834 44.7606C141.925 44.5091 144.649 43.9339 145.862 43.7259C145.862 43.7259 144.725 40.8167 142.114 40.7017C140.325 41.022 137.548 41.6633 135.938 42.0663C139.141 41.6489 140.807 44.7089 140.834 44.7606Z" fill="#F9A449"/>
<path d="M179.298 44.1054C180.474 44.3665 184.314 45.3723 185.337 45.6781C185.348 45.6251 186.36 42.9839 189.998 43.0445C187.994 42.3729 185.773 41.7722 183.37 41.2534C180.618 41.3333 179.327 44.0172 179.298 44.1054Z" fill="#F9A449"/>
<path d="M190.108 68.4218C193.109 67.478 196.08 66.5315 198.99 65.4657C201.897 64.4007 204.75 63.2289 207.435 61.8332C208.769 61.1216 210.081 60.3907 211.282 59.5427C212.483 58.6988 213.586 57.7626 214.513 56.7637C215.429 55.7566 216.166 54.6812 216.492 53.5101C216.583 53.2283 216.647 52.9004 216.684 52.6331L216.719 52.1481C216.727 51.9911 216.731 51.8326 216.723 51.6721C216.695 51.0315 216.569 50.3619 216.363 49.6695L216.352 49.6351C216.212 49.166 216.479 48.6713 216.948 48.5308C217.302 48.4247 217.672 48.5515 217.891 48.8215C218.442 49.5001 218.895 50.3081 219.156 51.2099C219.224 51.4345 219.28 51.6639 219.328 51.8967C219.375 52.1137 219.401 52.4223 219.421 52.5856C219.458 53.1023 219.45 53.5583 219.398 54.046C219.153 55.977 218.198 57.6834 217.039 59.0054C215.88 60.3507 214.505 61.3786 213.104 62.2762C211.696 63.1662 210.249 63.9399 208.759 64.5874C205.787 65.897 202.722 66.8545 199.625 67.5868C196.527 68.315 193.392 68.8248 190.244 69.0962C190.053 69.1134 189.885 68.9736 189.867 68.7827C189.852 68.6195 189.957 68.4707 190.108 68.4218Z" fill="#00FFFF"/>
<path d="M114.818 62.1371C115.14 63.1484 115.702 63.8662 116.469 64.4972C117.228 65.1227 118.162 65.6098 119.148 66.0342C121.14 66.8608 123.343 67.4291 125.576 67.9079C127.812 68.4081 130.107 68.7635 132.417 69.0708L139.393 69.9229C139.583 69.9464 139.718 70.1186 139.695 70.3087C139.675 70.4747 139.537 70.5994 139.377 70.6118C137.022 70.7985 134.659 70.8702 132.289 70.8274C129.919 70.793 127.54 70.6587 125.15 70.3611C122.771 70.0208 120.363 69.5137 118.065 68.4163C116.922 67.87 115.798 67.1508 114.871 66.1368C114.411 65.6318 114.01 65.0415 113.733 64.3925C113.593 64.0694 113.488 63.7298 113.417 63.3881C113.346 63.0602 113.31 62.6421 113.319 62.3817L113.321 62.3431C113.337 61.9201 113.693 61.5894 114.116 61.6053C114.447 61.6156 114.722 61.8381 114.818 62.1371Z" fill="#00FFFF"/>
<path d="M146.881 29.2701C143.123 29.8915 139.393 30.5901 135.697 31.3926C133.851 31.7997 132.018 32.253 130.201 32.7428C128.381 33.2223 126.578 33.7514 124.802 34.3376C121.245 35.4894 117.786 36.8941 114.574 38.6184C111.381 40.3523 108.39 42.4252 106.266 45.1463L106.252 45.1635C105.753 45.8021 104.831 45.9158 104.192 45.417C103.598 44.9534 103.461 44.1178 103.845 43.4902C104.944 41.708 106.384 40.1856 107.954 38.9022C109.531 37.6188 111.238 36.5503 113.001 35.6403C116.53 33.8168 120.26 32.5947 124.003 31.6048C125.881 31.1239 127.768 30.7134 129.661 30.3531C131.557 30.0066 133.46 29.7227 135.364 29.4754C139.169 28.9739 142.995 28.6956 146.814 28.5854C147.005 28.5792 147.164 28.7287 147.171 28.9188C147.176 29.0924 147.05 29.2419 146.881 29.2701Z" fill="#00FFFF"/>
<path d="M129.971 134.907C131.224 135.059 131.513 142.059 131.004 144.207C130.495 146.355 121.13 163.726 119.293 176.126C117.456 188.526 120.211 203.337 121.589 206.437C122.967 209.537 115.044 213.469 115.044 213.469C115.044 213.469 105.363 196.867 108.314 178.612C110.739 163.61 120.793 148.296 122.794 144.924C125.166 140.93 128.664 134.75 129.971 134.907Z" fill="url(#paint63_linear)"/>
<path d="M112.768 173.757C111.598 173.741 110.443 173.818 109.295 173.971C108.899 175.513 108.563 177.065 108.313 178.614C108.215 179.222 108.133 179.828 108.062 180.432C108.45 180.279 108.851 180.134 109.262 180.006C110.46 179.638 111.71 179.379 112.944 179.262C115.062 179.057 117.145 179.287 118.86 180.123C118.958 178.774 119.099 177.437 119.292 176.126C119.341 175.796 119.398 175.46 119.457 175.122C118.906 174.878 118.348 174.658 117.781 174.49C116.118 173.993 114.427 173.782 112.768 173.757Z" fill="url(#paint64_linear)"/>
<path d="M112.022 206.959C113.615 211.012 115.044 213.47 115.044 213.47C115.044 213.47 122.967 209.537 121.589 206.437C121.238 205.649 120.799 204.099 120.369 202.028C116.95 202.688 113.828 205.068 112.022 206.959Z" fill="url(#paint65_linear)"/>
<path d="M116.782 208.336C118.842 206.328 124.344 202.275 132.697 208.733C141.05 215.192 145.442 222.942 143.289 229.486C141.136 236.031 133.405 241.501 127.961 239.044C121.474 236.117 113.782 223.544 113.753 215.45C113.739 211.545 116.161 208.942 116.782 208.336Z" fill="url(#paint66_linear)"/>
<path d="M129.568 211.948C127.903 212.81 122.192 220.043 122.106 222.798C122.032 225.152 123.952 226.995 125.387 226.651C126.822 226.306 132.267 218.292 134.563 216.714C136.002 215.724 129.568 211.948 129.568 211.948Z" fill="url(#paint67_linear)"/>
<path d="M144.452 217.904C143.978 218.637 143.677 223.459 144.581 224.148C145.486 224.837 147.953 223.014 150.006 222.598C152.274 222.138 154.27 222.219 154.872 221.633C155.474 221.048 155.774 217.017 152.674 216.062C149.575 215.106 145.068 216.95 144.452 217.904Z" fill="url(#paint68_linear)"/>
<path d="M144.71 232.974C146.092 232.549 152.169 238.582 152.202 240.035C152.245 241.93 148.628 246.852 145.586 246.852C142.543 246.852 138.596 241.542 138.424 239.949C138.3 238.808 143.963 233.203 144.71 232.974Z" fill="url(#paint69_linear)"/>
<path d="M127.789 243.35C128.12 242.583 133.989 240.767 134.85 241.542C135.711 242.317 139.807 246.407 139.586 248.172C139.414 249.55 136.615 252.177 134.462 251.488C132.309 250.799 126.971 245.245 127.789 243.35Z" fill="url(#paint70_linear)"/>
<path d="M152.773 216.1C153.529 217.613 153.27 219.497 152.873 219.883C152.271 220.469 150.276 220.388 148.008 220.847C146.68 221.116 145.181 221.971 144.041 222.357C144.112 223.211 144.277 223.915 144.581 224.147C145.486 224.835 147.953 223.013 150.006 222.597C152.274 222.137 154.27 222.218 154.872 221.632C155.466 221.054 155.761 217.114 152.773 216.1Z" fill="url(#paint71_linear)"/>
<path d="M144.386 234.966C145.661 234.574 150.92 239.67 151.755 241.604C152.042 240.995 152.211 240.442 152.201 240.035C152.168 238.582 146.091 232.549 144.709 232.974C143.963 233.203 138.3 238.808 138.423 239.949C138.446 240.157 138.536 240.431 138.676 240.745C140.112 238.71 143.793 235.147 144.386 234.966Z" fill="url(#paint72_linear)"/>
<path d="M134.85 241.542C133.989 240.767 128.12 242.583 127.789 243.35C127.661 243.646 127.697 244.038 127.834 244.48C129.722 243.723 132.835 242.973 133.445 243.522C134.306 244.297 138.401 248.387 138.181 250.152C138.175 250.198 138.159 250.247 138.148 250.296C138.943 249.6 139.512 248.77 139.587 248.172C139.807 246.407 135.711 242.317 134.85 241.542Z" fill="url(#paint73_linear)"/>
<path d="M132.697 208.733C126.8 204.174 122.327 204.855 119.479 206.355C122.737 206.667 138.363 218.208 142.663 231.037C142.904 230.529 143.116 230.012 143.289 229.487C145.442 222.942 141.05 215.192 132.697 208.733Z" fill="url(#paint74_linear)"/>
<defs>
<linearGradient id="paint0_linear" x1="180.191" y1="218.885" x2="512.825" y2="551.519" gradientUnits="userSpaceOnUse">
<stop stop-color="#5A55F8"/>
<stop offset="1" stop-color="#8C6AE2"/>
</linearGradient>
<linearGradient id="paint1_linear" x1="385.698" y1="227.999" x2="610.785" y2="453.087" gradientUnits="userSpaceOnUse">
<stop stop-color="#1AA9E8"/>
<stop offset="0.4223" stop-color="#3D80EF"/>
<stop offset="0.7909" stop-color="#5662F4"/>
<stop offset="1" stop-color="#5F57F6"/>
</linearGradient>
<linearGradient id="paint2_linear" x1="416.319" y1="531.593" x2="416.319" y2="119.178" gradientUnits="userSpaceOnUse">
<stop stop-color="#FF57BD"/>
<stop offset="1" stop-color="#A281FF"/>
</linearGradient>
<linearGradient id="paint3_linear" x1="365.617" y1="540.319" x2="365.617" y2="127.904" gradientUnits="userSpaceOnUse">
<stop stop-color="#FF57BD"/>
<stop offset="1" stop-color="#A281FF"/>
</linearGradient>
<linearGradient id="paint4_linear" x1="314.914" y1="549.045" x2="314.914" y2="136.63" gradientUnits="userSpaceOnUse">
<stop stop-color="#FF57BD"/>
<stop offset="1" stop-color="#A281FF"/>
</linearGradient>
<linearGradient id="paint5_linear" x1="264.212" y1="557.77" x2="264.212" y2="145.356" gradientUnits="userSpaceOnUse">
<stop stop-color="#FF57BD"/>
<stop offset="1" stop-color="#A281FF"/>
</linearGradient>
<linearGradient id="paint6_linear" x1="213.511" y1="566.495" x2="213.51" y2="154.081" gradientUnits="userSpaceOnUse">
<stop stop-color="#FF57BD"/>
<stop offset="1" stop-color="#A281FF"/>
</linearGradient>
<linearGradient id="paint7_linear" x1="162.808" y1="575.221" x2="162.808" y2="162.807" gradientUnits="userSpaceOnUse">
<stop stop-color="#FF57BD"/>
<stop offset="1" stop-color="#A281FF"/>
</linearGradient>
<linearGradient id="paint8_linear" x1="243.212" y1="433.83" x2="436.864" y2="627.481" gradientUnits="userSpaceOnUse">
<stop stop-color="#C7A0F6"/>
<stop offset="1" stop-color="#FF57BD"/>
</linearGradient>
<linearGradient id="paint9_linear" x1="509.433" y1="288.989" x2="518.389" y2="288.989" gradientUnits="userSpaceOnUse">
<stop stop-color="#FF57BD"/>
<stop offset="1" stop-color="#FE6A77"/>
</linearGradient>
<linearGradient id="paint10_linear" x1="478.606" y1="288.128" x2="487.561" y2="288.128" gradientUnits="userSpaceOnUse">
<stop stop-color="#FF57BD"/>
<stop offset="1" stop-color="#FE6A77"/>
</linearGradient>
<linearGradient id="paint11_linear" x1="88.0199" y1="43.7912" x2="265.89" y2="172.088" gradientUnits="userSpaceOnUse">
<stop stop-color="#1AA9E8"/>
<stop offset="1" stop-color="#5A55F8"/>
</linearGradient>
<linearGradient id="paint12_linear" x1="289.032" y1="517.556" x2="418.999" y2="517.556" gradientUnits="userSpaceOnUse">
<stop stop-color="#FFE2A8"/>
<stop offset="0.4181" stop-color="#97E2C4"/>
<stop offset="1" stop-color="#00E2EC"/>
</linearGradient>
<linearGradient id="paint13_linear" x1="216.064" y1="494.239" x2="346.031" y2="494.239" gradientUnits="userSpaceOnUse">
<stop stop-color="#FFE2A8"/>
<stop offset="0.4181" stop-color="#97E2C4"/>
<stop offset="1" stop-color="#00E2EC"/>
</linearGradient>
<linearGradient id="paint14_linear" x1="228.022" y1="404.14" x2="490.948" y2="404.14" gradientUnits="userSpaceOnUse">
<stop stop-color="#994574"/>
<stop offset="1" stop-color="#43256F"/>
</linearGradient>
<linearGradient id="paint15_linear" x1="62.3293" y1="489.326" x2="122.967" y2="489.326" gradientUnits="userSpaceOnUse">
<stop stop-color="#F4BEA3"/>
<stop offset="1" stop-color="#E8878E"/>
</linearGradient>
<linearGradient id="paint16_linear" x1="56.8451" y1="481.527" x2="82.3596" y2="481.527" gradientUnits="userSpaceOnUse">
<stop stop-color="#FE6A77"/>
<stop offset="1" stop-color="#C91C91"/>
</linearGradient>
<linearGradient id="paint17_linear" x1="55.6072" y1="489.086" x2="80.1446" y2="489.086" gradientUnits="userSpaceOnUse">
<stop stop-color="#994574"/>
<stop offset="1" stop-color="#43256F"/>
</linearGradient>
<linearGradient id="paint18_linear" x1="101.724" y1="441.107" x2="327.625" y2="441.107" gradientUnits="userSpaceOnUse">
<stop stop-color="#05C5DA"/>
<stop offset="1" stop-color="#5860C4"/>
</linearGradient>
<linearGradient id="paint19_linear" x1="290.059" y1="312.59" x2="344.505" y2="367.037" gradientUnits="userSpaceOnUse">
<stop stop-color="#F9A144"/>
<stop offset="1" stop-color="#FDE1A7"/>
</linearGradient>
<linearGradient id="paint20_linear" x1="208.389" y1="359.206" x2="251.613" y2="359.206" gradientUnits="userSpaceOnUse">
<stop stop-color="#F4BEA3"/>
<stop offset="1" stop-color="#E8878E"/>
</linearGradient>
<linearGradient id="paint21_linear" x1="237.755" y1="513.524" x2="279.457" y2="513.524" gradientUnits="userSpaceOnUse">
<stop stop-color="#F4BEA3"/>
<stop offset="1" stop-color="#E8878E"/>
</linearGradient>
<linearGradient id="paint22_linear" x1="232.734" y1="529.834" x2="261.519" y2="529.834" gradientUnits="userSpaceOnUse">
<stop stop-color="#FE6A77"/>
<stop offset="1" stop-color="#C91C91"/>
</linearGradient>
<linearGradient id="paint23_linear" x1="232.734" y1="531.17" x2="283.095" y2="531.17" gradientUnits="userSpaceOnUse">
<stop stop-color="#994574"/>
<stop offset="1" stop-color="#43256F"/>
</linearGradient>
<linearGradient id="paint24_linear" x1="181.323" y1="425.895" x2="345.003" y2="425.895" gradientUnits="userSpaceOnUse">
<stop stop-color="#00E2EC"/>
<stop offset="1" stop-color="#0090B2"/>
</linearGradient>
<linearGradient id="paint25_linear" x1="332.8" y1="345" x2="416.171" y2="428.371" gradientUnits="userSpaceOnUse">
<stop stop-color="#FDE1A7"/>
<stop offset="1" stop-color="#F9A144"/>
</linearGradient>
<linearGradient id="paint26_linear" x1="381.396" y1="261.94" x2="397.49" y2="261.94" gradientUnits="userSpaceOnUse">
<stop stop-color="#C5188E"/>
<stop offset="1" stop-color="#9F36AD"/>
</linearGradient>
<linearGradient id="paint27_linear" x1="381.875" y1="315.085" x2="410.206" y2="315.085" gradientUnits="userSpaceOnUse">
<stop stop-color="#E8878E"/>
<stop offset="1" stop-color="#E8878E"/>
</linearGradient>
<linearGradient id="paint28_linear" x1="374.959" y1="284.331" x2="417.519" y2="284.331" gradientUnits="userSpaceOnUse">
<stop stop-color="#F4BEA3"/>
<stop offset="1" stop-color="#E8878E"/>
</linearGradient>
<linearGradient id="paint29_linear" x1="379.116" y1="281.339" x2="393.7" y2="281.339" gradientUnits="userSpaceOnUse">
<stop stop-color="#FF57BD"/>
<stop offset="1" stop-color="#EFA69A"/>
</linearGradient>
<linearGradient id="paint30_linear" x1="387.921" y1="268.024" x2="428.846" y2="268.024" gradientUnits="userSpaceOnUse">
<stop stop-color="#CB2090"/>
<stop offset="1" stop-color="#43256F"/>
</linearGradient>
<linearGradient id="paint31_linear" x1="296.058" y1="317.441" x2="314.602" y2="317.441" gradientUnits="userSpaceOnUse">
<stop stop-color="#994574"/>
<stop offset="1" stop-color="#43256F"/>
</linearGradient>
<linearGradient id="paint32_linear" x1="293.777" y1="332.605" x2="321.754" y2="332.605" gradientUnits="userSpaceOnUse">
<stop stop-color="#F4BEA3"/>
<stop offset="1" stop-color="#E8878E"/>
</linearGradient>
<linearGradient id="paint33_linear" x1="304.51" y1="391.317" x2="438.785" y2="391.317" gradientUnits="userSpaceOnUse">
<stop stop-color="#FDE1A7"/>
<stop offset="1" stop-color="#F9A144"/>
</linearGradient>
<linearGradient id="paint34_linear" x1="363.387" y1="447.71" x2="429.624" y2="447.71" gradientUnits="userSpaceOnUse">
<stop stop-color="#FF57BD"/>
<stop offset="1" stop-color="#FE6A77"/>
</linearGradient>
<linearGradient id="paint35_linear" x1="368.814" y1="464.772" x2="457.381" y2="464.772" gradientUnits="userSpaceOnUse">
<stop stop-color="#FFE2A8"/>
<stop offset="0.1048" stop-color="#FAE2A9"/>
<stop offset="0.2284" stop-color="#ECE2AD"/>
<stop offset="0.3617" stop-color="#D4E2B3"/>
<stop offset="0.5017" stop-color="#B3E2BC"/>
<stop offset="0.6471" stop-color="#88E2C8"/>
<stop offset="0.7969" stop-color="#54E2D6"/>
<stop offset="0.9476" stop-color="#17E2E6"/>
<stop offset="1" stop-color="#00E2EC"/>
</linearGradient>
<linearGradient id="paint36_linear" x1="499.906" y1="483.968" x2="542.772" y2="526.834" gradientUnits="userSpaceOnUse">
<stop stop-color="#5A55F8"/>
<stop offset="1" stop-color="#8C6AE2"/>
</linearGradient>
<linearGradient id="paint37_linear" x1="547.247" y1="477.859" x2="517.482" y2="507.624" gradientUnits="userSpaceOnUse">
<stop stop-color="#994574"/>
<stop offset="1" stop-color="#43256F"/>
</linearGradient>
<linearGradient id="paint38_linear" x1="546.336" y1="358.042" x2="530.995" y2="358.042" gradientUnits="userSpaceOnUse">
<stop stop-color="#F9A144"/>
<stop offset="1" stop-color="#FDE1A7"/>
</linearGradient>
<linearGradient id="paint39_linear" x1="531.579" y1="466.682" x2="452.211" y2="466.682" gradientUnits="userSpaceOnUse">
<stop stop-color="#0090B2"/>
<stop offset="1" stop-color="#00E2EC"/>
</linearGradient>
<linearGradient id="paint40_linear" x1="521.879" y1="478.626" x2="496.576" y2="478.626" gradientUnits="userSpaceOnUse">
<stop stop-color="#F9A144"/>
<stop offset="1" stop-color="#FDE1A7"/>
</linearGradient>
<linearGradient id="paint41_linear" x1="577.335" y1="445.194" x2="541.204" y2="445.194" gradientUnits="userSpaceOnUse">
<stop stop-color="#0090B2"/>
<stop offset="1" stop-color="#00E2EC"/>
</linearGradient>
<linearGradient id="paint42_linear" x1="540.192" y1="423.737" x2="503.134" y2="423.737" gradientUnits="userSpaceOnUse">
<stop stop-color="#F9A144"/>
<stop offset="1" stop-color="#FDE1A7"/>
</linearGradient>
<linearGradient id="paint43_linear" x1="567.966" y1="433.633" x2="504.484" y2="433.633" gradientUnits="userSpaceOnUse">
<stop stop-color="#FE6A77"/>
<stop offset="1" stop-color="#FF57BD"/>
</linearGradient>
<linearGradient id="paint44_linear" x1="493.319" y1="468.357" x2="477.72" y2="468.357" gradientUnits="userSpaceOnUse">
<stop stop-color="#0090B2"/>
<stop offset="1" stop-color="#00E2EC"/>
</linearGradient>
<linearGradient id="paint45_linear" x1="219.003" y1="195.188" x2="219.003" y2="124.61" gradientUnits="userSpaceOnUse">
<stop stop-color="#994574"/>
<stop offset="1" stop-color="#43256F"/>
</linearGradient>
<linearGradient id="paint46_linear" x1="223.471" y1="160.13" x2="234.209" y2="160.13" gradientUnits="userSpaceOnUse">
<stop stop-color="#FDE1A7"/>
<stop offset="1" stop-color="#F9A144"/>
</linearGradient>
<linearGradient id="paint47_linear" x1="229.04" y1="190.373" x2="238.34" y2="190.373" gradientUnits="userSpaceOnUse">
<stop stop-color="#FDE1A7"/>
<stop offset="1" stop-color="#F9A144"/>
</linearGradient>
<linearGradient id="paint48_linear" x1="213.095" y1="207.417" x2="239.973" y2="207.417" gradientUnits="userSpaceOnUse">
<stop stop-color="#994574"/>
<stop offset="1" stop-color="#43256F"/>
</linearGradient>
<linearGradient id="paint49_linear" x1="213.095" y1="204.872" x2="231.042" y2="204.872" gradientUnits="userSpaceOnUse">
<stop stop-color="#C7A0F6"/>
<stop offset="1" stop-color="#FF57BD"/>
</linearGradient>
<linearGradient id="paint50_linear" x1="139.156" y1="260.86" x2="230.778" y2="260.86" gradientUnits="userSpaceOnUse">
<stop stop-color="#FDE1A7"/>
<stop offset="1" stop-color="#F9A144"/>
</linearGradient>
<linearGradient id="paint51_linear" x1="230.778" y1="247.541" x2="250.296" y2="247.541" gradientUnits="userSpaceOnUse">
<stop stop-color="#EA8124"/>
<stop offset="0.0957" stop-color="#DE852E"/>
<stop offset="0.269" stop-color="#BE8E47"/>
<stop offset="0.5" stop-color="#8A9D70"/>
<stop offset="0.7768" stop-color="#43B3A9"/>
<stop offset="1" stop-color="#05C5DA"/>
</linearGradient>
<linearGradient id="paint52_linear" x1="173.6" y1="189.904" x2="219.411" y2="235.715" gradientUnits="userSpaceOnUse">
<stop stop-color="#00E2EC"/>
<stop offset="0.0165" stop-color="#07E2EA"/>
<stop offset="0.1792" stop-color="#48E2D9"/>
<stop offset="0.3396" stop-color="#80E2CA"/>
<stop offset="0.4936" stop-color="#ADE2BE"/>
<stop offset="0.64" stop-color="#D1E2B4"/>
<stop offset="0.777" stop-color="#EAE2AE"/>
<stop offset="0.9008" stop-color="#FAE2A9"/>
<stop offset="1" stop-color="#FFE2A8"/>
</linearGradient>
<linearGradient id="paint53_linear" x1="161.803" y1="171.913" x2="161.803" y2="74.8715" gradientUnits="userSpaceOnUse">
<stop stop-color="#FE6A77"/>
<stop offset="1" stop-color="#FF57BD"/>
</linearGradient>
<linearGradient id="paint54_linear" x1="170.367" y1="123.884" x2="191.948" y2="123.884" gradientUnits="userSpaceOnUse">
<stop stop-color="#FDE1A7"/>
<stop offset="1" stop-color="#F9A144"/>
</linearGradient>
<linearGradient id="paint55_linear" x1="115.032" y1="99.9671" x2="168.785" y2="153.719" gradientUnits="userSpaceOnUse">
<stop stop-color="#C7A0F6"/>
<stop offset="1" stop-color="#FF57BD"/>
</linearGradient>
<linearGradient id="paint56_linear" x1="136.958" y1="82.3448" x2="178.211" y2="82.3448" gradientUnits="userSpaceOnUse">
<stop stop-color="#FDE1A7"/>
<stop offset="1" stop-color="#F9A144"/>
</linearGradient>
<linearGradient id="paint57_linear" x1="134.528" y1="136.131" x2="145.482" y2="136.131" gradientUnits="userSpaceOnUse">
<stop stop-color="#FDE1A7"/>
<stop offset="1" stop-color="#F9A144"/>
</linearGradient>
<linearGradient id="paint58_linear" x1="141.339" y1="128.123" x2="160.788" y2="128.123" gradientUnits="userSpaceOnUse">
<stop stop-color="#FDE1A7"/>
<stop offset="1" stop-color="#F9A144"/>
</linearGradient>
<linearGradient id="paint59_linear" x1="137.145" y1="80.8066" x2="177.233" y2="80.8066" gradientUnits="userSpaceOnUse">
<stop stop-color="#C7A0F6"/>
<stop offset="1" stop-color="#FF57BD"/>
</linearGradient>
<linearGradient id="paint60_linear" x1="110.211" y1="147.36" x2="212.837" y2="147.36" gradientUnits="userSpaceOnUse">
<stop stop-color="#FDE1A7"/>
<stop offset="1" stop-color="#F9A144"/>
</linearGradient>
<linearGradient id="paint61_linear" x1="159.478" y1="63.4919" x2="163.037" y2="63.4919" gradientUnits="userSpaceOnUse">
<stop stop-color="#FDE1A7"/>
<stop offset="1" stop-color="#F9A144"/>
</linearGradient>
<linearGradient id="paint62_linear" x1="140.275" y1="31.1147" x2="182.413" y2="73.2524" gradientUnits="userSpaceOnUse">
<stop stop-color="#9F36AD"/>
<stop offset="1" stop-color="#43256F"/>
</linearGradient>
<linearGradient id="paint63_linear" x1="119.498" y1="213.469" x2="119.498" y2="134.905" gradientUnits="userSpaceOnUse">
<stop stop-color="#994574"/>
<stop offset="1" stop-color="#43256F"/>
</linearGradient>
<linearGradient id="paint64_linear" x1="108.062" y1="177.093" x2="119.458" y2="177.093" gradientUnits="userSpaceOnUse">
<stop stop-color="#FDE1A7"/>
<stop offset="1" stop-color="#F9A144"/>
</linearGradient>
<linearGradient id="paint65_linear" x1="112.022" y1="207.749" x2="121.75" y2="207.749" gradientUnits="userSpaceOnUse">
<stop stop-color="#FDE1A7"/>
<stop offset="1" stop-color="#F9A144"/>
</linearGradient>
<linearGradient id="paint66_linear" x1="113.753" y1="222.434" x2="143.832" y2="222.434" gradientUnits="userSpaceOnUse">
<stop stop-color="#FF57BD"/>
<stop offset="1" stop-color="#FE6A77"/>
</linearGradient>
<linearGradient id="paint67_linear" x1="122.104" y1="219.32" x2="134.773" y2="219.32" gradientUnits="userSpaceOnUse">
<stop stop-color="#FDE1A7"/>
<stop offset="1" stop-color="#F9A144"/>
</linearGradient>
<linearGradient id="paint68_linear" x1="143.997" y1="220.047" x2="155.26" y2="220.047" gradientUnits="userSpaceOnUse">
<stop stop-color="#FF57BD"/>
<stop offset="1" stop-color="#FE6A77"/>
</linearGradient>
<linearGradient id="paint69_linear" x1="138.422" y1="239.902" x2="152.202" y2="239.902" gradientUnits="userSpaceOnUse">
<stop stop-color="#FF57BD"/>
<stop offset="1" stop-color="#FE6A77"/>
</linearGradient>
<linearGradient id="paint70_linear" x1="127.704" y1="246.477" x2="139.595" y2="246.477" gradientUnits="userSpaceOnUse">
<stop stop-color="#FF57BD"/>
<stop offset="1" stop-color="#FE6A77"/>
</linearGradient>
<linearGradient id="paint71_linear" x1="144.04" y1="220.201" x2="155.258" y2="220.201" gradientUnits="userSpaceOnUse">
<stop stop-color="#43256F"/>
<stop offset="1" stop-color="#994574"/>
</linearGradient>
<linearGradient id="paint72_linear" x1="138.422" y1="237.278" x2="152.202" y2="237.278" gradientUnits="userSpaceOnUse">
<stop stop-color="#43256F"/>
<stop offset="1" stop-color="#994574"/>
</linearGradient>
<linearGradient id="paint73_linear" x1="127.71" y1="245.824" x2="139.595" y2="245.824" gradientUnits="userSpaceOnUse">
<stop stop-color="#43256F"/>
<stop offset="1" stop-color="#994574"/>
</linearGradient>
<linearGradient id="paint74_linear" x1="119.479" y1="218.132" x2="143.832" y2="218.132" gradientUnits="userSpaceOnUse">
<stop stop-color="#43256F"/>
<stop offset="1" stop-color="#994574"/>
</linearGradient>
</defs>
</svg>
