<svg width="71" height="70" viewBox="0 0 71 70" fill="none" xmlns="http://www.w3.org/2000/svg">
<g clip-path="url(#clip0)">
<path d="M34.9296 0C17.0662 1.27451e-06 18.1817 7.74663 18.1817 7.74663L18.2016 15.7721H35.2482V18.1817H11.4308C11.4308 18.1817 0 16.8853 0 34.9096C-1.27451e-06 52.9339 9.97703 52.2948 9.97703 52.2948H15.9314V43.9308C15.9314 43.9308 15.6104 33.9538 25.7491 33.9538C35.8878 33.9538 42.6563 33.9538 42.6563 33.9538C42.6563 33.9538 52.1554 34.1073 52.1554 24.7733C52.1554 15.4393 52.1554 9.33977 52.1554 9.33977C52.1554 9.33977 53.5976 0 34.9296 0ZM25.53 5.39675C27.226 5.39675 28.5968 6.76754 28.5968 8.46355C28.5968 10.1596 27.226 11.5303 25.53 11.5303C23.834 11.5303 22.4632 10.1596 22.4632 8.46355C22.4632 6.76754 23.834 5.39675 25.53 5.39675Z" fill="url(#paint0_linear)"/>
<path d="M35.4369 70C53.3002 70 52.1847 62.2534 52.1847 62.2534L52.1648 54.2279H35.1182V51.8183H58.9357C58.9357 51.8183 70.3664 53.1147 70.3664 35.0904C70.3664 17.0661 60.3894 17.7052 60.3894 17.7052H54.435V26.0692C54.435 26.0692 54.756 36.0462 44.6173 36.0462C34.4787 36.0462 27.7102 36.0462 27.7102 36.0462C27.7102 36.0462 18.2111 35.8927 18.2111 45.2267C18.2111 54.5607 18.2111 60.6602 18.2111 60.6602C18.2111 60.6602 16.7689 70 35.4369 70ZM44.8364 64.6032C43.1404 64.6032 41.7696 63.2325 41.7696 61.5365C41.7696 59.8404 43.1404 58.4697 44.8364 58.4697C46.5324 58.4697 47.9032 59.8404 47.9032 61.5365C47.9032 63.2325 46.5324 64.6032 44.8364 64.6032Z" fill="url(#paint1_linear)"/>
</g>
<defs>
<linearGradient id="paint0_linear" x1="6.76235" y1="6.11862" x2="41.5565" y2="41.0291" gradientUnits="userSpaceOnUse">
<stop stop-color="#387EB8"/>
<stop offset="1" stop-color="#366994"/>
</linearGradient>
<linearGradient id="paint1_linear" x1="28.1662" y1="28.3271" x2="65.5352" y2="64.1285" gradientUnits="userSpaceOnUse">
<stop stop-color="#FFE052"/>
<stop offset="1" stop-color="#FFC331"/>
</linearGradient>
<clipPath id="clip0">
<rect width="70.3664" height="70" fill="white"/>
</clipPath>
</defs>
</svg>
