<svg width="25" height="24" viewBox="0 0 25 24" fill="none" xmlns="http://www.w3.org/2000/svg">
<path d="M17.8674 14.8579H16.7381L16.3379 14.4932C17.7387 12.9534 18.582 10.9543 18.582 8.77968C18.582 3.93059 14.4225 0 9.29102 0C4.15952 0 0 3.93059 0 8.77968C0 13.6288 4.15952 17.5594 9.29102 17.5594C11.5923 17.5594 13.7078 16.7624 15.3373 15.4387L15.7233 15.8169V16.884L22.8702 23.6241L25 21.6115L17.8674 14.8579ZM9.29102 14.8579C5.73185 14.8579 2.85878 12.143 2.85878 8.77968C2.85878 5.41639 5.73185 2.70144 9.29102 2.70144C12.8502 2.70144 15.7233 5.41639 15.7233 8.77968C15.7233 12.143 12.8502 14.8579 9.29102 14.8579Z" fill="#333333"/>
</svg>
