<svg width="48" height="66" viewBox="0 0 48 66" fill="none" xmlns="http://www.w3.org/2000/svg">
<mask id="mask0" style="mask-type:alpha" maskUnits="userSpaceOnUse" x="0" y="0" width="48" height="66">
<path d="M29.5833 0H4.4375C1.99688 0 0 1.99688 0 4.4375V60.6458C0 63.0865 1.99688 65.0833 4.4375 65.0833H42.8958C45.3365 65.0833 47.3333 63.0865 47.3333 60.6458V17.75L29.5833 0Z" fill="white"/>
</mask>
<g mask="url(#mask0)">
<path d="M29.5833 0H4.4375C1.99688 0 0 1.99688 0 4.4375V60.6458C0 63.0865 1.99688 65.0833 4.4375 65.0833H42.8958C45.3365 65.0833 47.3333 63.0865 47.3333 60.6458V17.75L36.9792 10.3542L29.5833 0Z" fill="#F4B400"/>
</g>
<mask id="mask1" style="mask-type:alpha" maskUnits="userSpaceOnUse" x="0" y="0" width="48" height="66">
<path d="M29.5833 0H4.4375C1.99688 0 0 1.99688 0 4.4375V60.6458C0 63.0865 1.99688 65.0833 4.4375 65.0833H42.8958C45.3365 65.0833 47.3333 63.0865 47.3333 60.6458V17.75L29.5833 0Z" fill="white"/>
</mask>
<g mask="url(#mask1)">
<path d="M33.2812 29.5833H14.0521C12.8318 29.5833 11.8333 30.5818 11.8333 31.8021V51.0312C11.8333 52.2516 12.8318 53.25 14.0521 53.25H33.2812C34.5015 53.25 35.5 52.2516 35.5 51.0312V31.8021C35.5 30.5818 34.5015 29.5833 33.2812 29.5833ZM32.5416 46.5938H14.7916V36.2396H32.5416V46.5938Z" fill="#F1F1F1"/>
</g>
<mask id="mask2" style="mask-type:alpha" maskUnits="userSpaceOnUse" x="0" y="0" width="48" height="66">
<path d="M29.5833 0H4.4375C1.99688 0 0 1.99688 0 4.4375V60.6458C0 63.0865 1.99688 65.0833 4.4375 65.0833H42.8958C45.3365 65.0833 47.3333 63.0865 47.3333 60.6458V17.75L29.5833 0Z" fill="white"/>
</mask>
<g mask="url(#mask2)">
<path d="M30.8813 16.452L47.3333 32.9004V17.75L30.8813 16.452Z" fill="url(#paint0_linear)"/>
</g>
<mask id="mask3" style="mask-type:alpha" maskUnits="userSpaceOnUse" x="0" y="0" width="48" height="66">
<path d="M29.5833 0H4.4375C1.99688 0 0 1.99688 0 4.4375V60.6458C0 63.0865 1.99688 65.0833 4.4375 65.0833H42.8958C45.3365 65.0833 47.3333 63.0865 47.3333 60.6458V17.75L29.5833 0Z" fill="white"/>
</mask>
<g mask="url(#mask3)">
<path d="M29.5833 2.38419e-07V13.3125C29.5833 15.7642 31.5691 17.75 34.0208 17.75H47.3333L29.5833 2.38419e-07Z" fill="#FADA80"/>
</g>
<mask id="mask4" style="mask-type:alpha" maskUnits="userSpaceOnUse" x="0" y="0" width="48" height="66">
<path d="M29.5833 0H4.4375C1.99688 0 0 1.99688 0 4.4375V60.6458C0 63.0865 1.99688 65.0833 4.4375 65.0833H42.8958C45.3365 65.0833 47.3333 63.0865 47.3333 60.6458V17.75L29.5833 0Z" fill="white"/>
</mask>
<g mask="url(#mask4)">
<path d="M29.5833 0V0.369792L46.9635 17.75H47.3333L29.5833 0Z" fill="white" fill-opacity="0.1"/>
</g>
<mask id="mask5" style="mask-type:alpha" maskUnits="userSpaceOnUse" x="0" y="0" width="48" height="66">
<path d="M29.5833 0H4.4375C1.99688 0 0 1.99688 0 4.4375V60.6458C0 63.0865 1.99688 65.0833 4.4375 65.0833H42.8958C45.3365 65.0833 47.3333 63.0865 47.3333 60.6458V17.75L29.5833 0Z" fill="white"/>
</mask>
<g mask="url(#mask5)">
<path d="M4.4375 0C1.99688 0 0 1.99688 0 4.4375V4.80729C0 2.36667 1.99688 0.369792 4.4375 0.369792H29.5833V0H4.4375Z" fill="white" fill-opacity="0.2"/>
</g>
<mask id="mask6" style="mask-type:alpha" maskUnits="userSpaceOnUse" x="0" y="0" width="48" height="66">
<path d="M29.5833 0H4.4375C1.99688 0 0 1.99688 0 4.4375V60.6458C0 63.0865 1.99688 65.0833 4.4375 65.0833H42.8958C45.3365 65.0833 47.3333 63.0865 47.3333 60.6458V17.75L29.5833 0Z" fill="white"/>
</mask>
<g mask="url(#mask6)">
<path d="M42.8958 64.7135H4.4375C1.99688 64.7135 0 62.7167 0 60.276V60.6458C0 63.0865 1.99688 65.0833 4.4375 65.0833H42.8958C45.3365 65.0833 47.3333 63.0865 47.3333 60.6458V60.276C47.3333 62.7167 45.3365 64.7135 42.8958 64.7135Z" fill="#BF360C" fill-opacity="0.2"/>
</g>
<mask id="mask7" style="mask-type:alpha" maskUnits="userSpaceOnUse" x="0" y="0" width="48" height="66">
<path d="M29.5833 0H4.4375C1.99688 0 0 1.99688 0 4.4375V60.6458C0 63.0865 1.99688 65.0833 4.4375 65.0833H42.8958C45.3365 65.0833 47.3333 63.0865 47.3333 60.6458V17.75L29.5833 0Z" fill="white"/>
</mask>
<g mask="url(#mask7)">
<path d="M34.0208 17.75C31.5691 17.75 29.5833 15.7642 29.5833 13.3125V13.6823C29.5833 16.134 31.5691 18.1198 34.0208 18.1198H47.3333V17.75H34.0208Z" fill="#BF360C" fill-opacity="0.1"/>
</g>
<path d="M29.5833 0H4.4375C1.99688 0 0 1.99688 0 4.4375V60.6458C0 63.0865 1.99688 65.0833 4.4375 65.0833H42.8958C45.3365 65.0833 47.3333 63.0865 47.3333 60.6458V17.75L29.5833 0Z" fill="url(#paint1_radial)"/>
<defs>
<linearGradient id="paint0_linear" x1="39.1082" y1="17.8643" x2="39.1082" y2="32.9027" gradientUnits="userSpaceOnUse">
<stop stop-color="#BF360C" stop-opacity="0.2"/>
<stop offset="1" stop-color="#BF360C" stop-opacity="0.02"/>
</linearGradient>
<radialGradient id="paint1_radial" cx="0" cy="0" r="1" gradientUnits="userSpaceOnUse" gradientTransform="translate(1.49954 1.29367) scale(76.3243)">
<stop stop-color="white" stop-opacity="0.1"/>
<stop offset="1" stop-color="white" stop-opacity="0"/>
</radialGradient>
</defs>
</svg>
