<svg width="340" height="170" viewBox="0 0 340 170" fill="none" xmlns="http://www.w3.org/2000/svg">
<path d="M50.524 88.2668L62.0273 81.5914L73.3607 88.2668L62.0273 94.8004L50.524 88.4084V88.2668ZM16.0083 68.5241L62.05 42.3866L96.2767 61.8459L84.9433 81.5886L62.0783 68.5213L27.5683 88.1223L16.0083 68.5241Z" fill="#F6BD3A"/>
<path d="M50.524 114.399V101.331L61.8573 94.7976L73.3607 88.264V101.331L62.0273 107.865V120.932L50.524 127.608V114.399ZM50.524 88.2668L39.0207 81.7331L27.5173 88.1251V75.055L62.0273 55.454V81.5886L50.524 88.2668ZM84.7507 75.0578V68.5241L96.254 61.8488L96.3957 74.9161L84.8923 81.5915L84.7507 75.0578Z" fill="#EB8C23"/>
<path d="M39.015 120.649V81.7331L50.3483 75.3411L50.49 88.2668L61.9933 94.6588V107.868L50.49 101.759V127.608L39.015 120.649ZM21.692 84.7166L16.0083 81.3081V68.5298L27.5117 75.0635V88.1308L21.692 84.7166ZM62.0273 68.5241V55.4568L84.7507 68.5241L84.8923 81.5915L62.0273 68.5241Z" fill="#E35A2B"/>
<path d="M118.504 73.0376V103.071H113.226V73.0376H102.969V67.8583H128.752V73.0348L118.504 73.0376ZM146.228 83.9459C146.551 85.2521 146.695 86.596 146.656 87.9409L129.625 92.9899C129.758 94.2649 129.721 93.7464 130.121 94.6531C130.52 95.5598 131.027 96.3021 131.628 96.9198C132.229 97.5374 132.903 97.9398 133.611 98.2231C134.32 98.5064 135.133 98.6538 135.923 98.6481C137.057 98.6481 138.043 98.4639 138.964 98.0956C139.927 97.7024 140.832 97.178 141.652 96.5373L144.718 99.8523C143.584 100.947 142.254 101.817 140.797 102.416C139.352 103.02 137.629 103.323 135.62 103.323C134.108 103.329 132.61 103.021 131.223 102.419C129.806 101.816 128.616 100.929 127.579 99.7559C126.542 98.5829 125.721 97.1436 125.114 95.4323C124.508 93.7209 124.208 91.7489 124.208 89.6013C124.208 87.3573 124.491 85.3513 125.063 83.6711C125.636 81.9909 126.423 80.5544 127.426 79.3729C128.421 78.2247 129.668 77.3219 131.07 76.7351C132.56 76.1193 134.159 75.8119 135.77 75.8313C137.646 75.8313 139.284 76.1826 140.672 76.8881C142.06 77.5936 143.222 78.5484 144.14 79.7214C145.095 80.9917 145.794 82.435 146.2 83.9714L146.228 83.9459ZM141.278 85.1359C141.21 84.2293 140.587 83.1526 140.071 82.4358C139.585 81.7954 138.934 81.2998 138.187 81.0021C137.417 80.6961 136.368 80.5686 135.447 80.6054C133.747 80.6819 131.764 81.2798 130.823 82.5888C129.883 83.8978 129.585 86.1673 129.622 88.5869L141.278 85.1359ZM165.353 102.742V87.8106C165.353 85.1303 164.872 83.2773 163.92 82.1808C162.968 81.0843 161.633 80.5714 159.953 80.5714C158.21 80.5714 156.87 81.1579 155.93 82.3281C154.989 83.4983 154.521 85.1614 154.521 87.3034V102.734H149.317V76.3554H154.493V78.8686C155.165 77.8968 156.094 77.1686 157.284 76.6076C158.474 76.0466 159.755 75.8029 161.129 75.8029C164.211 75.8029 166.549 76.7946 168.141 78.7694C169.734 80.7443 170.53 83.6994 170.53 87.6151V102.745H165.353V102.742ZM191.794 95.8063C191.794 97.2796 191.516 98.5121 190.964 99.5009C190.438 100.462 189.687 101.281 188.776 101.889C187.87 102.493 186.793 102.929 185.66 103.193C184.43 103.465 183.174 103.6 181.914 103.595C180.101 103.595 178.304 103.278 176.511 102.64C174.837 102.065 173.254 101.252 171.81 100.226L174.145 96.3333C175.323 97.1731 176.619 97.8338 177.99 98.2939C179.313 98.7303 180.597 98.9456 181.835 98.9456C185.051 98.9456 186.66 97.9738 186.66 96.0273C186.66 95.0214 186.116 94.2139 185.028 93.6189C183.94 93.0239 182.438 92.3439 180.529 91.6356C179.293 91.1793 178.092 90.6339 176.936 90.0036C175.95 89.4483 175.142 88.8561 174.522 88.2186C173.924 87.6153 173.468 86.8852 173.19 86.0823C172.921 85.2946 172.788 84.3823 172.788 83.3424C172.788 82.1694 173.006 81.1324 173.44 80.2258C173.866 79.3323 174.504 78.5562 175.298 77.9648C176.103 77.3613 177.055 76.9079 178.132 76.6048C179.208 76.3016 180.444 76.1514 181.75 76.1514C183.45 76.1514 185.042 76.4206 186.6 76.9561C188.159 77.4916 189.524 78.1971 190.697 79.0669L188.473 83.0166C187.402 82.2459 186.311 81.6764 185.206 81.3081C184.101 80.9398 182.94 80.7556 181.636 80.7556C180.333 80.7556 179.441 80.9823 178.871 81.4356C178.602 81.6364 178.383 81.8982 178.235 82.1996C178.086 82.5011 178.011 82.8335 178.015 83.1696C178.012 83.4905 178.081 83.808 178.217 84.0989C178.35 84.3823 178.602 84.6769 178.97 84.9489C179.431 85.3089 179.928 85.6203 180.452 85.8783C181.248 86.2747 182.061 86.6349 182.889 86.9578L186.759 88.5926C187.766 89.0486 188.705 89.6406 189.55 90.3521C190.28 90.974 190.856 91.7566 191.233 92.6386C191.601 93.5084 191.785 94.5653 191.785 95.8063H191.794ZM215.872 89.7231C215.872 91.9048 215.571 93.8541 214.965 95.5796C214.359 97.3051 213.548 98.7643 212.452 99.9514C211.409 101.12 210.123 102.047 208.683 102.666C207.267 103.289 205.669 103.595 203.957 103.595C202.257 103.595 200.742 103.269 199.333 102.615C197.925 101.958 196.673 101.006 195.664 99.8239C194.624 98.6198 193.814 97.1776 193.228 95.5003C192.641 93.8229 192.378 91.9473 192.378 89.8704C192.378 87.7256 192.678 85.7989 193.284 84.0904C193.891 82.3819 194.718 80.9313 195.772 79.7413C196.79 78.5662 198.062 77.638 199.492 77.0269C200.946 76.4093 202.467 76.0976 204.139 76.0976C205.75 76.0841 207.344 76.4185 208.814 77.0779C210.24 77.7202 211.515 78.6534 212.559 79.8178C213.616 80.9908 214.435 82.4244 215.024 84.1159C215.614 85.8074 215.874 87.6774 215.874 89.7203L215.872 89.7231ZM210.644 89.8733C210.644 87.1589 210.077 85.0056 208.859 83.4133C207.641 81.8209 206.02 81.0248 203.909 81.0248C202.995 80.993 202.088 81.1958 201.275 81.6139C200.461 82.032 199.769 82.6515 199.263 83.4133C198.143 85.0084 197.58 87.1079 197.58 89.7231C197.58 92.6414 198.183 94.8571 199.393 96.3814C199.949 97.1153 200.672 97.7056 201.503 98.1033C202.333 98.5011 203.247 98.6946 204.167 98.6679C205.139 98.6679 206.026 98.4328 206.83 97.9653C207.642 97.4891 208.344 96.8471 208.89 96.0811C209.487 95.2354 209.929 94.2905 210.196 93.2903C210.497 92.2193 210.65 91.0803 210.65 89.8733H210.644ZM232.56 82.1326C232.001 81.8354 231.411 81.5998 230.8 81.4299C230.197 81.2599 229.46 81.1466 228.59 81.1466C226.947 81.1466 225.672 81.7133 224.771 82.8551C223.87 83.9969 223.411 85.6884 223.411 87.9324V103.011H218.235V76.6218H223.411V79.1349C224.06 78.223 224.911 77.4742 225.899 76.9476C226.985 76.3538 228.206 76.0512 229.443 76.0693C230.514 76.0693 231.427 76.1628 232.078 76.3469C232.732 76.5181 233.352 76.7988 233.911 77.1771L232.551 82.1071L232.56 82.1326Z" fill="#EF6639"/>
<path d="M241.253 73.0378V82.2376H251.356V87.4141H241.253V103.046H235.974V67.8584H258.641V73.0349L241.253 73.0378ZM259.499 103.043V69.1164L264.676 66.4021V103.048L259.499 103.043ZM291.119 89.7261C291.119 91.9078 290.816 93.8571 290.213 95.5826C289.609 97.3081 288.768 98.7673 287.7 99.9544C286.656 101.124 285.368 102.05 283.928 102.669C282.483 103.292 280.914 103.598 279.202 103.598C277.531 103.598 275.987 103.272 274.578 102.618C273.17 101.963 271.949 101.031 270.909 99.8269C269.869 98.6228 269.059 97.1806 268.473 95.5033C267.886 93.8259 267.623 91.9503 267.623 89.8734C267.623 87.7286 267.923 85.8019 268.529 84.0934C269.136 82.3849 269.963 80.9343 271.017 79.7443C272.071 78.5543 273.284 77.6476 274.737 77.0299C276.191 76.4123 277.712 76.1006 279.384 76.1006C281.055 76.1006 282.614 76.4264 284.059 77.0809C285.485 77.7232 286.76 78.6564 287.804 79.8208C288.861 80.9938 289.68 82.4274 290.269 84.1189C290.859 85.8104 291.119 87.6804 291.119 89.7233V89.7261ZM285.892 89.8763C285.892 87.1619 285.325 85.0086 284.107 83.4163C282.889 81.8239 281.268 81.0278 279.157 81.0278C277.179 81.0278 275.63 81.8211 274.51 83.4163C273.391 85.0114 272.827 87.1109 272.827 89.7261C272.827 92.6444 273.431 94.8601 274.641 96.3844C275.197 97.1183 275.92 97.7086 276.751 98.1063C277.581 98.504 278.495 98.6976 279.415 98.6709C280.35 98.6811 281.27 98.4383 282.078 97.9683C282.89 97.4921 283.592 96.8501 284.138 96.0841C284.705 95.2964 285.144 94.3671 285.441 93.2933C285.739 92.2194 285.895 91.0833 285.895 89.8763H285.892ZM316.653 103.046H312.233L308.663 89.7289L307.884 86.6406L307.306 84.1019L306.728 86.6661L305.949 89.7828L302.43 103.054H298.01L290.771 76.6644H295.871L298.988 89.4824L299.741 92.6501L300.294 95.2653L300.945 92.6501L301.75 89.4824L305.269 76.6644H309.443L313.013 89.5334L313.792 92.6784L314.421 95.2681L314.999 92.6331L315.727 89.4881L318.844 76.6701H323.944L316.653 103.046Z" fill="#A6A7A9"/>
</svg>
